<svg xmlns="http://www.w3.org/2000/svg" width="20.484" height="20.472" viewBox="0 0 20.484 20.472">
  <g id="Group_1525" data-name="Group 1525" transform="translate(156.531 8.911)">
    <path id="Path_3364" data-name="Path 3364" d="M-136.047,1.928c-.07.385-.084.777-.153,1.163a10.08,10.08,0,0,1-3.344,5.938,9.778,9.778,0,0,1-5.332,2.436,10,10,0,0,1-8.349-2.617,9.95,9.95,0,0,1-3.122-5.607,10.258,10.258,0,0,1,7.611-11.859,9.481,9.481,0,0,1,1.675-.26,1.293,1.293,0,0,0,.175-.034h1.2c.27.032.541.06.81.1a10,10,0,0,1,5.332,2.441A10.08,10.08,0,0,1-136.2-.434c.069.386.083.778.153,1.163Zm-.6-.587a9.639,9.639,0,0,0-9.621-9.652A9.639,9.639,0,0,0-155.925,1.3a9.64,9.64,0,0,0,9.631,9.662A9.639,9.639,0,0,0-136.647,1.342Z" transform="translate(0 0)" fill="#606060"/>
    <path id="Path_3365" data-name="Path 3365" d="M-107.6,46.744a8.083,8.083,0,0,1,.534-2.323,8.249,8.249,0,0,1,2.477-3.4,8.144,8.144,0,0,1,4.174-1.813,8.142,8.142,0,0,1,5.457,1.158,8.178,8.178,0,0,1,3.2,3.61,8.416,8.416,0,0,1,.715,2.606,1.074,1.074,0,0,1,.008.179.275.275,0,0,1-.262.278.261.261,0,0,1-.3-.2,3.554,3.554,0,0,1-.073-.432A7.523,7.523,0,0,0-93.238,42.7,7.609,7.609,0,0,0-97.1,40.052a7.417,7.417,0,0,0-3.379-.235,7.619,7.619,0,0,0-5.417,3.591,7.435,7.435,0,0,0-1.1,3.243c0,.033,0,.067-.011.1a.313.313,0,0,1-.343.288A.286.286,0,0,1-107.6,46.744Z" transform="translate(-46.969 -46.114)" fill="#606060"/>
    <path id="Path_3366" data-name="Path 3366" d="M-99.264,264.514a8.283,8.283,0,0,1-6.384-3.026,8.2,8.2,0,0,1-1.783-3.809c-.043-.222-.066-.448-.091-.673-.027-.246.074-.4.264-.415s.3.113.331.348a7.993,7.993,0,0,0,.428,1.883,7.659,7.659,0,0,0,2.662,3.566,7.479,7.479,0,0,0,3.1,1.369,7.611,7.611,0,0,0,4.445-.441,7.623,7.623,0,0,0,3.589-3.032,7.425,7.425,0,0,0,1.1-3.034c.017-.132.029-.265.055-.4a.29.29,0,0,1,.323-.261.288.288,0,0,1,.262.339,7.822,7.822,0,0,1-.3,1.587,8.24,8.24,0,0,1-2.888,4.237,8.159,8.159,0,0,1-4,1.673C-98.518,264.48-98.884,264.49-99.264,264.514Z" transform="translate(-47.04 -254.862)" fill="#606060"/>
    <path id="Path_3367" data-name="Path 3367" d="M69.883,196.587v2.7a1.037,1.037,0,0,1-.971,1.187,1.547,1.547,0,0,1-1.188-.215.856.856,0,0,1-.415-.752q0-2.929,0-5.858a.844.844,0,0,1,.521-.827,1.763,1.763,0,0,1,1.546.013.858.858,0,0,1,.51.853C69.878,194.654,69.883,195.621,69.883,196.587Zm-.6-.025q0-1.4,0-2.8c0-.3-.064-.388-.352-.462a1.312,1.312,0,0,0-.691,0c-.274.077-.33.152-.33.438q0,2.8,0,5.595a.466.466,0,0,0,.445.546,1.146,1.146,0,0,0,.477,0c.346-.076.451-.211.451-.562Z" transform="translate(-214.869 -193.484)" fill="#606060"/>
    <path id="Path_3368" data-name="Path 3368" d="M66.224,104.561a1.247,1.247,0,0,1,.369,2.463,1.419,1.419,0,0,1-1.616-.684,1.219,1.219,0,0,1,.739-1.691A1.541,1.541,0,0,1,66.224,104.561Zm.033.6a.735.735,0,0,0-.805.628.7.7,0,0,0,.7.683l.04.005a.763.763,0,0,0,.794-.563.663.663,0,0,0-.541-.728A1.387,1.387,0,0,0,66.257,105.159Z" transform="translate(-212.506 -108.924)" fill="#606060"/>
  </g>
</svg>
