<svg xmlns="http://www.w3.org/2000/svg" width="23.175" height="23.166" viewBox="0 0 23.175 23.166">
  <g id="Group_1502" data-name="Group 1502" transform="translate(400.271 -443.211)">
    <path id="Path_3320" data-name="Path 3320" d="M-377.1,454.8a11.555,11.555,0,0,1-11.718,11.575,11.558,11.558,0,0,1-11.456-11.643,11.593,11.593,0,0,1,11.634-11.522A11.6,11.6,0,0,1-377.1,454.8Zm-17.037,6.179a.879.879,0,0,0,.663-.3q2.3-2.308,4.6-4.616c.146-.147.218-.159.371,0q2.267,2.29,4.55,4.564c.057.057.112.116.173.168a.769.769,0,0,0,1.235-.351.784.784,0,0,0-.248-.85q-2.317-2.308-4.633-4.618c-.139-.138-.151-.208,0-.353q2.289-2.268,4.564-4.55a2.3,2.3,0,0,0,.2-.21.773.773,0,0,0-.432-1.225.817.817,0,0,0-.8.276q-2.306,2.319-4.617,4.633c-.132.133-.2.137-.335,0-1.006-1.019-2.02-2.03-3.033-3.043-.551-.552-1.1-1.11-1.657-1.654a.769.769,0,0,0-1.3.349.8.8,0,0,0,.266.8c1.546,1.538,3.085,3.082,4.633,4.617.143.142.143.211,0,.353q-2.3,2.277-4.58,4.568a2.084,2.084,0,0,0-.167.174.734.734,0,0,0-.1.814A.734.734,0,0,0-394.133,460.981Z" fill="#fff"/>
  </g>
</svg>
