<svg xmlns="http://www.w3.org/2000/svg" width="23.671" height="23.662" viewBox="0 0 23.671 23.662">
  <g id="Group_1958" data-name="Group 1958" transform="translate(-64.749 -65.559)">
    <path id="Path_3522" data-name="Path 3522" d="M64.749,85.107V71.472c.039-.034.037-.082.043-.127a4.574,4.574,0,0,1,3.527-3.855,7.458,7.458,0,0,1,1.7-.114c.137,0,.192-.034.185-.18-.011-.238-.007-.478,0-.716a.923.923,0,0,1,1.845,0c.007.231.011.463,0,.693-.009.16.04.21.2.209.77-.008,1.541,0,2.311,0,2.087,0,4.175,0,6.262,0,.22,0,.325-.034.294-.284a4.081,4.081,0,0,1,0-.623.923.923,0,0,1,1.845.012c0,.223.011.447,0,.67-.01.166.032.238.213.224.2-.016.4,0,.6,0a4.563,4.563,0,0,1,4.637,4.5q.022,6.424,0,12.848a4.544,4.544,0,0,1-3.5,4.361c-.215.051-.434.089-.651.134H68.909a.761.761,0,0,0-.129-.04,4.573,4.573,0,0,1-3.921-3.536C64.818,85.467,64.786,85.287,64.749,85.107ZM76.583,74.673q-4.853,0-9.705-.006c-.242,0-.286.069-.285.294q.011,4.795.005,9.589a2.723,2.723,0,0,0,2.808,2.819q7.175.005,14.35,0a2.723,2.723,0,0,0,2.81-2.817c0-3.2,0-6.408.006-9.613,0-.233-.071-.272-.284-.272Q81.435,74.678,76.583,74.673Zm-.013-1.845h4.275c1.818,0,3.636,0,5.454,0,.2,0,.3-.03.272-.258-.022-.213,0-.431-.005-.646a2.737,2.737,0,0,0-1.789-2.536,4.875,4.875,0,0,0-1.69-.169c-.151,0-.124.1-.124.191,0,.516,0,1.032,0,1.548a.925.925,0,1,1-1.847.006c0-.516-.005-1.032,0-1.548,0-.146-.033-.2-.19-.2q-4.344.006-8.689,0c-.157,0-.192.054-.19.2.008.516.005,1.032,0,1.548a.925.925,0,1,1-1.847-.006c0-.516-.007-1.032,0-1.548,0-.158-.052-.2-.2-.193-.238.01-.478-.006-.716.006a2.7,2.7,0,0,0-2.453,1.6A3.5,3.5,0,0,0,66.6,72.5c.008.365-.057.322.313.322Q71.74,72.829,76.57,72.828Z" transform="translate(0 0)" fill="#909090"/>
    <path id="Path_3523" data-name="Path 3523" d="M140.14,345.4c.3,0,.6-.005.9,0a.921.921,0,0,1,.021,1.842c-.623.014-1.246.013-1.869,0a.922.922,0,0,1,.025-1.843C139.524,345.4,139.832,345.4,140.14,345.4Z" transform="translate(-68.997 -262.563)" fill="#909090"/>
    <path id="Path_3524" data-name="Path 3524" d="M316.915,345.405c.3,0,.6-.005.9,0a.922.922,0,0,1,.007,1.844q-.923.016-1.846,0a.922.922,0,0,1,.016-1.843C316.3,345.4,316.608,345.405,316.915,345.405Z" transform="translate(-234.863 -262.564)" fill="#909090"/>
    <path id="Path_3525" data-name="Path 3525" d="M316.893,258.928c-.3,0-.6.006-.9,0a.923.923,0,1,1,.006-1.845q.9-.009,1.8,0a.923.923,0,1,1-.006,1.846C317.493,258.932,317.193,258.928,316.893,258.928Z" transform="translate(-234.863 -179.691)" fill="#909090"/>
    <path id="Path_3526" data-name="Path 3526" d="M140.127,257.1c.3,0,.6-.005.9,0a.922.922,0,0,1,.017,1.844q-.923.016-1.846,0a.922.922,0,0,1,.006-1.844C139.512,257.1,139.819,257.1,140.127,257.1Z" transform="translate(-68.994 -179.712)" fill="#909090"/>
    <path id="Path_3527" data-name="Path 3527" d="M228.422,257.1c.3,0,.6-.005.9,0a.922.922,0,0,1,.006,1.844q-.923.015-1.846,0a.922.922,0,0,1,.017-1.844C227.807,257.1,228.115,257.1,228.422,257.1Z" transform="translate(-151.832 -179.712)" fill="#909090"/>
    <path id="Path_3528" data-name="Path 3528" d="M228.41,345.405c.3,0,.6,0,.9,0a.922.922,0,1,1,.006,1.845q-.911.013-1.823,0a.922.922,0,1,1,.017-1.845C227.81,345.4,228.11,345.405,228.41,345.405Z" transform="translate(-151.831 -262.564)" fill="#909090"/>
  </g>
</svg>
