<svg xmlns="http://www.w3.org/2000/svg" width="15.937" height="18.297" viewBox="0 0 15.937 18.297">
  <g id="Group_1919" data-name="Group 1919" transform="translate(-173.621 103.434)">
    <path id="Path_3345" data-name="Path 3345" d="M184.733-103.434c.043.018.086.037.13.054a.858.858,0,0,1,.547.957.851.851,0,0,1-.829.7c-.536.007-1.072,0-1.608,0H176.6a1.153,1.153,0,0,0-1.259,1.251q0,6.181,0,12.362a1.154,1.154,0,0,0,1.258,1.252q3.966,0,7.931,0a.856.856,0,0,1,.852,1.127.847.847,0,0,1-.794.586c-.327.006-.655,0-.982,0q-3.546,0-7.092,0a2.852,2.852,0,0,1-2.836-2.324,3.1,3.1,0,0,1-.054-.621q0-6.2,0-12.4a2.852,2.852,0,0,1,2.472-2.924.274.274,0,0,0,.063-.028Z" transform="translate(0 0)" fill="#ff6060"/>
    <path id="Path_3346" data-name="Path 3346" d="M294.256-11.21c-.074-.078-.116-.125-.161-.17-.808-.809-1.619-1.614-2.424-2.426a.853.853,0,0,1,.371-1.457.821.821,0,0,1,.82.228c.33.327.658.656.986.984l3.006,3.006a.873.873,0,0,1,0,1.384q-1.976,1.977-3.954,3.953a.857.857,0,0,1-1.281.006.857.857,0,0,1,.059-1.205q.931-.938,1.868-1.87l.685-.682c-.068-.058-.136-.033-.2-.033q-3.233,0-6.466,0a.867.867,0,0,1-.876-.6.855.855,0,0,1,.8-1.113c.464-.009.929,0,1.393,0h5.369Z" transform="translate(-107.638 -83.933)" fill="#ff6060"/>
  </g>
</svg>
