<svg xmlns="http://www.w3.org/2000/svg" width="13.615" height="22.728" viewBox="0 0 13.615 22.728">
  <g id="Group_1514" data-name="Group 1514" transform="translate(1333.54 41.508)">
    <path id="Path_3334" data-name="Path 3334" d="M-1319.925-30.152q0,4.4,0,8.809a2.381,2.381,0,0,1-2.555,2.563h-8.535a2.373,2.373,0,0,1-2.523-2.531q0-8.839,0-17.678a2.368,2.368,0,0,1,2.507-2.516q4.3,0,8.6,0a2.373,2.373,0,0,1,2.51,2.516Q-1319.923-34.572-1319.925-30.152Zm-.851.024q0-4.465,0-8.93a1.511,1.511,0,0,0-1.272-1.575,4.2,4.2,0,0,0-.666-.023c-.488,0-.488,0-.5.487a1.262,1.262,0,0,1-1.223,1.326c-1.528.018-3.057.015-4.586,0a1.267,1.267,0,0,1-1.229-1.133c-.029-.224.115-.532-.077-.652-.168-.106-.452-.029-.685-.029a1.529,1.529,0,0,0-1.678,1.675q0,8.839,0,17.677a1.53,1.53,0,0,0,1.68,1.673h8.5a1.546,1.546,0,0,0,1.728-1.719Q-1320.775-25.74-1320.776-30.129Zm-5.958-10.528c-.808,0-1.616,0-2.425,0-.081,0-.184-.047-.237.07a.615.615,0,0,0,.558.9q2.031,0,4.062,0c.621,0,.718-.105.719-.719,0-.2-.051-.259-.252-.256C-1325.117-40.65-1325.926-40.657-1326.734-40.657Z" transform="translate(0 0)" fill="#fff"/>
    <path id="Path_3335" data-name="Path 3335" d="M-1283.971,204.406h-2.367a1.93,1.93,0,0,1-.273-.008.415.415,0,0,1-.392-.454.4.4,0,0,1,.425-.385c.253-.006.506,0,.759,0h4.158c.081,0,.162,0,.243,0,.306.011.489.17.487.422s-.187.42-.491.425c-.516.009-1.032,0-1.548,0Z" transform="translate(-42.764 -225.207)" fill="#fff"/>
  </g>
</svg>
