<svg xmlns="http://www.w3.org/2000/svg" width="17.119" height="22.728" viewBox="0 0 17.119 22.728">
  <g id="Group_1496" data-name="Group 1496" transform="translate(572.902 -606.805)">
    <path id="Path_3321" data-name="Path 3321" d="M-572.9,618.973q0-4.059,0-8.119a2.368,2.368,0,0,1,1.838-2.364,2.866,2.866,0,0,1,.681-.069c1.3,0,2.6,0,3.906,0,.184,0,.249-.047.238-.236-.015-.283-.008-.568,0-.852a.475.475,0,0,1,.527-.529q1.373-.005,2.746,0a.482.482,0,0,1,.526.534c0,.292.011.584,0,.876-.008.172.054.207.214.206q2-.009,4,0a2.377,2.377,0,0,1,2.391,1.9,2.953,2.953,0,0,1,.053.635q0,8.025,0,16.049a2.386,2.386,0,0,1-1.787,2.454,2.539,2.539,0,0,1-.656.077q-6.119,0-12.238,0a2.367,2.367,0,0,1-2.435-2.439Q-572.906,623.032-572.9,618.973Zm16.164,0q0-1.775,0-3.55c0-1.515,0-3.029,0-4.544a1.4,1.4,0,0,0-1.4-1.5c-1.38-.023-2.761-.007-4.141-.011-.126,0-.165.044-.16.165.007.2.008.395,0,.591a.444.444,0,0,1-.431.474q-1.467.016-2.934,0a.429.429,0,0,1-.429-.448,4.234,4.234,0,0,1,0-.544c.013-.182-.042-.243-.234-.242-1.31.009-2.619,0-3.929.005a1.445,1.445,0,0,0-1.55,1.554q0,8.059,0,16.117a1.438,1.438,0,0,0,1.536,1.541q6.07,0,12.141,0a1.929,1.929,0,0,0,.33-.019,1.427,1.427,0,0,0,1.206-1.518Q-556.735,623.01-556.738,618.975Zm-6.652-10.268c0-.26-.006-.521,0-.781,0-.136-.043-.175-.176-.174-.52.006-1.041.005-1.562,0-.119,0-.169.031-.167.159q.008.793,0,1.585c0,.125.042.163.164.162.52-.005,1.041-.007,1.562,0,.155,0,.184-.06.179-.2C-563.4,609.213-563.389,608.96-563.39,608.708Z" transform="translate(0 0)" fill="#fff"/>
    <path id="Path_3322" data-name="Path 3322" d="M-443.618,911.061h-3.169c-.435,0-.606-.173-.6-.6a3.8,3.8,0,0,1,3.8-3.783,3.789,3.789,0,0,1,3.743,3.84.48.48,0,0,1-.537.542C-441.458,911.062-442.538,911.061-443.618,911.061Zm0-.948c.852,0,1.7-.011,2.554.007.25.005.242-.091.2-.269a2.815,2.815,0,0,0-2.761-2.216,2.815,2.815,0,0,0-2.741,2.269c-.036.17-.009.215.169.213C-445.341,910.107-444.482,910.112-443.623,910.112Z" transform="translate(-120.73 -288.441)" fill="#fff"/>
    <path id="Path_3323" data-name="Path 3323" d="M-410.307,759.086a2.451,2.451,0,0,1-2.449-2.455,2.444,2.444,0,0,1,2.456-2.445,2.452,2.452,0,0,1,2.452,2.454A2.451,2.451,0,0,1-410.307,759.086Zm.014-3.949a1.5,1.5,0,0,0-1.514,1.493,1.5,1.5,0,0,0,1.5,1.51,1.5,1.5,0,0,0,1.516-1.493A1.5,1.5,0,0,0-410.293,755.137Z" transform="translate(-154.041 -141.762)" fill="#fff"/>
    <path id="Path_3324" data-name="Path 3324" d="M-490.128,1110.8h4.947a1.036,1.036,0,0,1,.3.023.438.438,0,0,1,.328.442.448.448,0,0,1-.315.452.893.893,0,0,1-.327.034h-9.942c-.039,0-.079,0-.118,0a.5.5,0,0,1-.532-.483.481.481,0,0,1,.541-.467Q-492.684,1110.794-490.128,1110.8Z" transform="translate(-74.181 -484.777)" fill="#fff"/>
    <path id="Path_3325" data-name="Path 3325" d="M-430.182,1055.955h2.578a1.957,1.957,0,0,1,.26.009.448.448,0,0,1,.391.41.461.461,0,0,1-.314.5,1.068,1.068,0,0,1-.351.034h-5.132c-.063,0-.126,0-.189,0a.486.486,0,0,1-.493-.5.47.47,0,0,1,.508-.45C-432.011,1055.953-431.1,1055.956-430.182,1055.955Z" transform="translate(-134.152 -432.027)" fill="#fff"/>
  </g>
</svg>
