<svg xmlns="http://www.w3.org/2000/svg" width="20.052" height="20.056" viewBox="0 0 20.052 20.056">
  <path id="technical-support" d="M24.489,13.9,23.481,13.2a8.9,8.9,0,0,0-17.787,0L4.689,13.9a.3.3,0,0,0-.126.242v3.139a.3.3,0,0,0,.124.24l1.128.806a.3.3,0,0,0,.171.055H7.109a.3.3,0,0,0,.3-.3V13.373s0-.008,0-.012a7.183,7.183,0,1,1,14.365,0,.121.121,0,0,0,0,.032v4.7a.3.3,0,0,0,.3.3h.266v.34a1.882,1.882,0,0,1-1.594,1.855,6.684,6.684,0,0,0,.57-2.7V13.553a6.723,6.723,0,0,0-13.446,0v4.326A6.721,6.721,0,0,0,20.431,21.2h.024a2.474,2.474,0,0,0,2.471-2.471v-.34h.266a.3.3,0,0,0,.172-.055l1.128-.806a.3.3,0,0,0,.124-.24v-3.14a.3.3,0,0,0-.126-.242Zm-9.9-6.484a6.14,6.14,0,0,1,6.132,6.132v1.59a6.023,6.023,0,0,1-5.877-3,.3.3,0,0,0-.511,0,6.023,6.023,0,0,1-5.877,3v-1.59a6.14,6.14,0,0,1,6.133-6.132Zm0,16.591a6.14,6.14,0,0,1-6.132-6.132V15.736c.2.019.41.032.616.032a6.7,6.7,0,0,0,5.516-2.924A6.7,6.7,0,0,0,20.1,15.768c.206,0,.411-.013.616-.032v2.143a6.094,6.094,0,0,1-.643,2.728H17.309a.963.963,0,0,0-.915-.666H15.224a.961.961,0,1,0,0,1.923h1.169a.963.963,0,0,0,.915-.667h2.432a6.131,6.131,0,0,1-5.153,2.814Zm2.176-3.091a.371.371,0,0,1-.37.353H15.224a.371.371,0,1,1,0-.742h1.169a.371.371,0,0,1,.37.353c0,.006,0,.012,0,.018S16.763,20.915,16.764,20.921ZM6.814,17.8H6.081l-.928-.663V14.3l.926-.65h.735ZM14.588,5.736A7.818,7.818,0,0,0,6.827,13.06h-.54a8.309,8.309,0,0,1,16.6,0h-.539a7.818,7.818,0,0,0-7.76-7.325Zm9.437,11.4L23.1,17.8h-.733V13.65H23.1l.926.65Z" transform="translate(-4.563 -4.547)" fill="#606060"/>
</svg>
