<svg xmlns="http://www.w3.org/2000/svg" width="61.091" height="115.594" viewBox="0 0 61.091 115.594">
  <g id="Group_1940" data-name="Group 1940" transform="translate(690.434 -98.911)">
    <g id="Group_1939" data-name="Group 1939">
      <rect id="Rectangle_1421" data-name="Rectangle 1421" width="4.095" height="4.095" transform="translate(-675.302 189.997) rotate(-45)" fill="#fff"/>
      <path id="Path_3515" data-name="Path 3515" d="M-662.271,209.041l-2.479-2.479-2.5,2.518,2.531,2.518,2.452-2.452,2.478,2.479,2.5-2.518-2.53-2.518Z" fill="#fff"/>
      <rect id="Rectangle_1422" data-name="Rectangle 1422" width="4.095" height="4.095" transform="translate(-654.98 187.793) rotate(-45)" fill="#fff"/>
      <path id="Path_3516" data-name="Path 3516" d="M-647.716,195.684q-.286-.953-.645-1.878t-.724-1.748l-3.73,1.852q.378.757.756,1.592t.678,1.6q.3.764.483,1.383a3.633,3.633,0,0,1,.182.933,1.1,1.1,0,0,1-.385.854,2.8,2.8,0,0,1-.952.548,6.169,6.169,0,0,1-1.225.293,8.693,8.693,0,0,1-1.207.092h-1.539a1.576,1.576,0,0,1-.907-.236,1.692,1.692,0,0,1-.541-.586,2.681,2.681,0,0,1-.28-.763c-.057-.275-.1-.528-.138-.763-.051-.365-.1-.705-.142-1.017s-.094-.623-.151-.927-.122-.617-.2-.939-.163-.678-.268-1.069l-3.795,1.082q.117.5.26,1.037a7.229,7.229,0,0,1,.2,1.083,4.181,4.181,0,0,1-.012,1.05,2.062,2.062,0,0,1-.372.926,1.91,1.91,0,0,1-.614.541,3.488,3.488,0,0,1-.932.345,8.122,8.122,0,0,1-1.291.183q-.736.053-1.676.053h-.248a1.075,1.075,0,0,1-.724-.229,1.543,1.543,0,0,1-.417-.58,2.828,2.828,0,0,1-.2-.763q-.053-.411-.078-.776t-.065-.75c-.027-.257-.066-.537-.118-.842s-.124-.64-.215-1.01-.206-.794-.346-1.272l-3.691.9a15.721,15.721,0,0,1,.43,1.872,8.054,8.054,0,0,1,.1,1.1,1.957,1.957,0,0,1-.913,1.761,5.082,5.082,0,0,1-2.713.587h-.523a14.216,14.216,0,0,0-.358-1.989,13.7,13.7,0,0,0-.652-1.958,11.2,11.2,0,0,0-.939-1.773,7.026,7.026,0,0,0-1.239-1.441,5.763,5.763,0,0,0-1.533-.972,4.581,4.581,0,0,0-1.827-.358,3.944,3.944,0,0,0-1.558.306,4.758,4.758,0,0,0-1.323.841A6.592,6.592,0,0,0-687.1,195.1a8.033,8.033,0,0,0-.8,1.5,9.6,9.6,0,0,0-.489,1.63,8.2,8.2,0,0,0-.17,1.631,5.551,5.551,0,0,0,.418,2.218,4.583,4.583,0,0,0,1.181,1.637,5.651,5.651,0,0,0,1.819,1.056,8.993,8.993,0,0,0,2.348.489c.269.017.613.033,1.03.045s.814.02,1.188.02a4.792,4.792,0,0,1-1.064,1.565,9.323,9.323,0,0,1-1.891,1.454,15.5,15.5,0,0,1-2.655,1.24,22.5,22.5,0,0,1-3.351.92l.965,4a17.916,17.916,0,0,0,3.959-1.069,15.016,15.016,0,0,0,3.45-1.917,12.35,12.35,0,0,0,2.667-2.72,10.588,10.588,0,0,0,1.624-3.476h.835A12.908,12.908,0,0,0-673,205.01a6.174,6.174,0,0,0,2.211-1,4.831,4.831,0,0,0,1.526.966,5.593,5.593,0,0,0,1.905.334v.018h.521c.587,0,1.185-.014,1.793-.044a15.348,15.348,0,0,0,1.814-.2,10.5,10.5,0,0,0,1.669-.424,4.988,4.988,0,0,0,1.4-.743,4.427,4.427,0,0,0,.776.56,5.789,5.789,0,0,0,.986.45,6.986,6.986,0,0,0,1.14.294,7.23,7.23,0,0,0,1.011.085v.019h2.074a11.346,11.346,0,0,0,2.869-.339,6.2,6.2,0,0,0,2.244-1.062,4.9,4.9,0,0,0,1.46-1.846,6.315,6.315,0,0,0,.523-2.688,9.826,9.826,0,0,0-.177-1.806A17.758,17.758,0,0,0-647.716,195.684ZM-681.08,201.2c-.314,0-.649-.014-1.005-.039s-.715-.071-1.076-.131a4.135,4.135,0,0,1-.972-.28,2.166,2.166,0,0,1-.7-.477,1.06,1.06,0,0,1-.287-.73,2.283,2.283,0,0,1,.2-.953,4.55,4.55,0,0,1,.508-.906,2.759,2.759,0,0,1,.652-.652.853.853,0,0,1,.626-.189,2.076,2.076,0,0,1,.993.495,4.123,4.123,0,0,1,.795.979,7.624,7.624,0,0,1,.62,1.33,15.532,15.532,0,0,1,.463,1.553Z" fill="#fff"/>
      <path id="Path_3517" data-name="Path 3517" d="M-629.684,197.582a18,18,0,0,0-.462-1.9q-.288-.953-.646-1.878t-.724-1.748l-3.73,1.852q.378.757.757,1.592t.677,1.6q.3.764.483,1.383a3.644,3.644,0,0,1,.183.933,1.1,1.1,0,0,1-.385.854,2.8,2.8,0,0,1-.952.548,6.179,6.179,0,0,1-1.226.293,8.683,8.683,0,0,1-1.207.092h-1.591c-.226,0-.432,0-.62-.014a1.893,1.893,0,0,1-.515-.091,1.161,1.161,0,0,1-.411-.235,1.176,1.176,0,0,1-.294-.456,3.427,3.427,0,0,1-.241-1.213q-.045-.795-.019-1.78c.017-.658.041-1.344.072-2.062s.041-1.4.032-2.054c-.009-.739-.023-1.539-.046-2.4s-.054-1.717-.1-2.569-.1-1.667-.176-2.447-.168-1.454-.281-2.027l-3.9,1.187a21.96,21.96,0,0,1,.307,2.361q.111,1.356.17,2.83t.071,2.941q.014,1.468.014,2.694t-.027,2.158q-.025.933-.026,1.56a7.775,7.775,0,0,0,.319,2.275,4.58,4.58,0,0,0,1.037,1.819,4.871,4.871,0,0,0,1.853,1.207,7.552,7.552,0,0,0,2.608.431v.006h2.074a11.36,11.36,0,0,0,2.87-.339,6.2,6.2,0,0,0,2.244-1.062,4.907,4.907,0,0,0,1.46-1.846,6.331,6.331,0,0,0,.522-2.688A9.736,9.736,0,0,0-629.684,197.582Z" fill="#fff"/>
      <rect id="Rectangle_1423" data-name="Rectangle 1423" width="4.095" height="4.095" transform="translate(-637.411 187.793) rotate(-45)" fill="#fff"/>
    </g>
    <g id="Group_1519" data-name="Group 1519">
      <path id="Path_3338" data-name="Path 3338" d="M-676.961,118.108l.861,1.921c-1.677,1.755-3.412,3.38-4.923,5.192a27.137,27.137,0,0,0-5.872,13.5,25.725,25.725,0,0,0,4.124,18.55A26.066,26.066,0,0,0-665.032,169c1.638.282,3.3.439,4.945.658,1.6.212,2-.516,1.982-2.054-.076-7.065-.034-14.132-.034-21.2,0-9.216.023-18.433-.018-27.649a2.008,2.008,0,0,1,1.283-2.1c3.524-1.789,6.988-3.7,10.482-5.542a17.337,17.337,0,0,1,1.646-.646c-.182,3.235.656,6.363-1.08,9.074a19.787,19.787,0,0,1-3.5,3.6,7.109,7.109,0,0,1-1.7.875c-4.252,2.106-4.527,2.685-3.645,7.79,3.221-1.694,6.41-3.39,9.617-5.049,1.611-.833,1.921-.618,1.922,1.255.005,3.3-.124,6.566-2.51,9.206a4.876,4.876,0,0,1-1.326,1.1c-2.231,1.147-4.485,2.246-6.744,3.334-.88.424-1.43.826-1.2,2.046a26,26,0,0,1,.056,4.473l13.184-7.518a55.177,55.177,0,0,1-.531,7.792,8.076,8.076,0,0,1-4.5,5.595c-2.434,1.241-4.754,2.708-7.086,4.141-.45.276-1.015.837-1.028,1.281-.088,3.137-.046,6.276-.046,9.4,6.374.243,16.552-7.778,19.807-15.291,4.936-11.392,2.281-24.482-8.4-33.068l.8-2.009c6.954,1.764,14.317,16.828,13.2,27.143-1.751,16.152-13.668,26.483-27.344,27.752-16.875,1.566-29.674-9.276-32.878-23.647C-692.764,135.954-685.978,123.324-676.961,118.108Z" fill="#fff"/>
      <path id="Path_3339" data-name="Path 3339" d="M-678.031,140.766c2.122,1.2,4.017,2.251,5.894,3.334,3.052,1.761,6.075,3.573,9.149,5.3a2.04,2.04,0,0,1,1.292,2.11c-.1,2.863-.034,5.733-.034,8.734a4.767,4.767,0,0,1-1.049-.28c-3.845-2.2-7.713-4.364-11.506-6.649a8.033,8.033,0,0,1-3.692-6.1A51.024,51.024,0,0,1-678.031,140.766Z" fill="#fff"/>
      <path id="Path_3340" data-name="Path 3340" d="M-661.73,144.207c-4.049-2.1-7.589-3.768-10.951-5.736a8.557,8.557,0,0,1-4.02-7.048c-.154-1.775-.029-3.573-.029-5.633,1.392.7,2.623,1.284,3.828,1.922,3.271,1.73,6.52,3.5,9.8,5.214a2.158,2.158,0,0,1,1.4,2.248C-661.8,138.023-661.73,140.873-661.73,144.207Z" fill="#fff"/>
      <path id="Path_3341" data-name="Path 3341" d="M-674.448,111.128a13.146,13.146,0,0,1,1.842.586c3.36,1.7,6.712,3.407,10.036,5.173a1.657,1.657,0,0,1,.8,1.154c.065,3.143.037,6.29.037,9.7-.754-.321-1.336-.543-1.893-.812-1.876-.91-3.7-1.937-5.623-2.734-3.384-1.4-4.776-4.149-5.165-7.514A51.178,51.178,0,0,1-674.448,111.128Z" fill="#fff"/>
      <path id="Path_3342" data-name="Path 3342" d="M-666.519,108.627l6.607-9.716c2.269,3.352,4.391,6.49,6.6,9.76-2.137,1.182-4.028,2.251-5.948,3.267a1.465,1.465,0,0,1-1.154.132C-662.411,111-664.373,109.854-666.519,108.627Z" fill="#fff"/>
    </g>
  </g>
</svg>
