<svg xmlns="http://www.w3.org/2000/svg" width="86.813" height="68.031" viewBox="0 0 86.813 68.031">
  <g id="Bank-Day-logo" transform="translate(-15.178 -60.884)">
    <g id="Group_1201" data-name="Group 1201" transform="translate(15.178 60.884)">
      <path id="Path_2046" data-name="Path 2046" d="M70.648,63.68c3.575-1.992,7.782-3.324,11.891-2.593,0,1.665.072,12.189.072,12.189-.311.235-.736.15-1.095.235a26.526,26.526,0,0,0-8.022,3.072A54.61,54.61,0,0,0,60.4,87.35c-4.7,5.3-9.668,10.482-15.643,14.363-4.167,2.7-9.071,4.587-14.1,4.3a18.708,18.708,0,0,1-10.935-4.885A14.234,14.234,0,0,1,15.284,91.5a11,11,0,0,1-.024-2.841,16.005,16.005,0,0,1,3.829-9.777c3.285-3.609,8.353-5.061,13.11-4.994,6.607.168,12.718,3.3,17.89,7.216.4.148.092.559-.059.768-.8,1.2-1.552,2.427-2.356,3.622A34.084,34.084,0,0,0,34.8,79.606a13.191,13.191,0,0,0-8.418.884A11.237,11.237,0,0,0,20.7,89.148a7.887,7.887,0,0,0,.74,4.585,10.851,10.851,0,0,0,7.868,6.193,11.333,11.333,0,0,0,4.3-.253,21.775,21.775,0,0,0,7.726-2.906A29.675,29.675,0,0,0,48.078,90.8a74.436,74.436,0,0,0,7.757-11.4C59.57,73.206,64.307,67.346,70.648,63.68Z" transform="translate(-15.178 -60.884)" fill="#fff"/>
      <path id="Path_2047" data-name="Path 2047" d="M279.32,129.953c4.232-.342,8.74.111,12.4,2.44a15.642,15.642,0,0,1,6.859,10.726,14.591,14.591,0,0,1,.161,3.531,17.312,17.312,0,0,1-5.053,11.375A16.566,16.566,0,0,1,283.65,162.2a22.984,22.984,0,0,1-9.966-1.931,63.214,63.214,0,0,1-17.015-11.042l-.059-.207q1.837-1.981,3.751-3.882c.64.411,1.422,1.152,2.155,1.674a71.813,71.813,0,0,0,11.8,7.643,17.035,17.035,0,0,0,4.939,1.681,8.817,8.817,0,0,0,4.678-1.618,6.861,6.861,0,0,0,1.981-8.312c-1.3-2.464-4.056-3.6-6.62-4.238C279.294,141.141,279.32,130.522,279.32,129.953Z" transform="translate(-211.953 -117.095)" fill="#fff"/>
    </g>
    <g id="Group_1203" data-name="Group 1203" transform="translate(28.25 112.383)">
      <path id="Path_2048" data-name="Path 2048" d="M366.1,380.873v2.035h6.313a2.887,2.887,0,0,0,2.575-2.867V377.37H373.06V379.6c.035.658-.694,1.273-1.572,1.273Z" transform="translate(-314.263 -370.33)" fill="#fff"/>
      <circle id="Ellipse_91" data-name="Ellipse 91" cx="1.433" cy="1.433" r="1.433" transform="translate(55.027 13.665)" fill="#fff"/>
      <circle id="Ellipse_92" data-name="Ellipse 92" cx="1.433" cy="1.433" r="1.433" transform="translate(44.129 4.948)" fill="#fff"/>
      <rect id="Rectangle_1324" data-name="Rectangle 1324" width="2.22" height="9.711" transform="translate(51.837 0)" fill="#fff"/>
      <path id="Path_2049" data-name="Path 2049" d="M303.369,346.578V349.7a2.335,2.335,0,0,1-2.151,2.012h-4.694l-5.329-5.4a.929.929,0,0,1-.011-1.11c.048-.059,5.712-5.884,5.712-5.884h2.763l-6.2,6.474,3.988,4.173,2.948-.011a1.242,1.242,0,0,0,1.33-1.052v-2.336Z" transform="translate(-253.058 -339.318)" fill="#fff"/>
      <path id="Path_2050" data-name="Path 2050" d="M240.842,381.973l1.85,2.012H229a2.734,2.734,0,0,1-2.4-2.475V378.69h1.8v2.22a1,1,0,0,0,1.017,1.11Z" transform="translate(-200.566 -371.406)" fill="#fff"/>
      <path id="Path_2051" data-name="Path 2051" d="M164.577,396.77l-1.387,1.949h9.187a4,4,0,0,0,.324-1.949Z" transform="translate(-148.885 -386.142)" fill="#fff"/>
      <path id="Path_2052" data-name="Path 2052" d="M123.162,341.77a2.446,2.446,0,0,0-2.312,2.127v1.974s1.776.022,1.861,0c.279-.074-.368-2.3,1.064-2.244l2.532-.011V341.77Z" transform="translate(-114.376 -341.315)" fill="#fff"/>
      <g id="XMLID_1_" transform="translate(0 4.67)">
        <g id="Group_1202" data-name="Group 1202">
          <path id="Path_2053" data-name="Path 2053" d="M97.666,365.533a3.044,3.044,0,0,1,2.959,3.12c0,4.162-2.845,3.908-2.845,3.908h-9.11c-1.491,0-2.706-1.18-2.682-2.044l-.139-5.958h1.8s0,4.069,0,4.278c.011.786.289,1.665,1.226,1.68.257.006,8.368.07,8.669,0a1.446,1.446,0,0,0,1.249-1.471c-.022-1.11-.509-1.48-1.132-1.5-.3-.011-5.381-.007-5.381-.007l.017-2Z" transform="translate(-85.85 -364.56)" fill="#fff"/>
        </g>
      </g>
      <path id="Path_2054" data-name="Path 2054" d="M171,354.5h1.665c1.874,0,6.381.9,6.381,5.342v1.8h-2.151l0-1.4c0-1.58-1.132-3.636-4.3-3.636H171Z" transform="translate(-155.25 -351.69)" fill="#fff"/>
    </g>
  </g>
</svg>
