<svg xmlns="http://www.w3.org/2000/svg" width="45.736" height="86.914" viewBox="0 0 45.736 86.914">
  <g id="Ghavamin" transform="translate(-0.992 95.651)">
    <g id="Group_1267" data-name="Group 1267" transform="translate(0.992 -52.285)">
      <path id="Path_3045" data-name="Path 3045" d="M42.74,13.572c.771-.472,1.4-1.134,2.157-1.622A5.191,5.191,0,0,1,42.677,15a57.976,57.976,0,0,1-5.463,3.243c-6.912,3.7-14.075,6.9-21.144,10.281-2,.96-4.015,1.889-5.967,2.928a32.692,32.692,0,0,0-5.322,3.684,4.581,4.581,0,0,1-1.228.834.856.856,0,0,1,.142-.551,18.3,18.3,0,0,1,5.778-5.479,57.006,57.006,0,0,1,7.4-3.873C23.138,23.144,29.483,20.42,35.7,17.4A72.189,72.189,0,0,0,42.74,13.572Z" transform="translate(0.475 -11.95)" fill="#fff"/>
      <path id="Path_3046" data-name="Path 3046" d="M25.806,17.252c.189-.126.189.142.157.268-.142,1.622-.3,3.243-.409,4.865a3.027,3.027,0,0,0,.488,1.874,1.091,1.091,0,0,0,1.244.031c.268-.189.283-.567.551-.74a2.968,2.968,0,0,1,0,1.055,5.035,5.035,0,0,1-.756,2.314,1.179,1.179,0,0,1-1.039.614,1.145,1.145,0,0,1-.9-.583,3.983,3.983,0,0,1-.425-1.59,21.883,21.883,0,0,1,.031-4.062,14.832,14.832,0,0,1,.22-2.031,6.453,6.453,0,0,1,.567-1.37A3.455,3.455,0,0,0,25.806,17.252Z" transform="translate(12.591 -8.923)" fill="#fff"/>
      <path id="Path_3047" data-name="Path 3047" d="M23.2,18.614c.126-.173.378-.063.535-.016A2.063,2.063,0,0,1,24.8,19.685a1.722,1.722,0,0,1-.425,1.48c-.2.268-.378.6-.724.693a8.578,8.578,0,0,1-1.039-.614c-.173-.126-.425-.22-.5-.441a2.714,2.714,0,0,1,.346-.96A7.942,7.942,0,0,1,23.2,18.614Z" transform="translate(11.139 -8.176)" fill="#fff"/>
      <path id="Path_3048" data-name="Path 3048" d="M32.793,21.726a1.152,1.152,0,0,1,.472-.583c.22-.063.346.2.315.394-.047.315-.236.6-.283.913a1.007,1.007,0,0,0,.22.96.753.753,0,0,0,1.055-.142c.236-.252.142-.661.378-.9.142-.142.346-.016.441.126a1.69,1.69,0,0,1,.236,1.26,3.84,3.84,0,0,1-1.26,2.645,2.275,2.275,0,0,1-2.094.378,19.8,19.8,0,0,1-3.149,4.645,18.278,18.278,0,0,1-4.8,3.763,23.539,23.539,0,0,1-6.2,2.3,36.358,36.358,0,0,1-10.281.677,18.229,18.229,0,0,1-4.6-.85,3.672,3.672,0,0,1-1.968-1.37,2.6,2.6,0,0,1-.142-1.622,1.138,1.138,0,0,1,.236-.677c.22-.11.425.063.6.173a8.432,8.432,0,0,0,3.322,1.354,34.3,34.3,0,0,0,5.825.583,22.718,22.718,0,0,0,6.014-.457,29.09,29.09,0,0,0,7.384-2.456,16.829,16.829,0,0,0,5.4-4.172,11.3,11.3,0,0,0,2.362-4.928A8.82,8.82,0,0,1,32.793,21.726Z" transform="translate(-0.946 -6.675)" fill="#fff"/>
      <path id="Path_3049" data-name="Path 3049" d="M25.705,24.8a1.379,1.379,0,0,1,1.1.5,1.292,1.292,0,0,1,.425,1.338,3.627,3.627,0,0,1-.945,1.385c-.236.2-.5-.079-.724-.189-.331-.268-.771-.409-1.023-.756a4.017,4.017,0,0,1,.567-1.433A3.952,3.952,0,0,1,25.705,24.8Z" transform="translate(12.534 -4.572)" fill="#fff"/>
      <path id="Path_3050" data-name="Path 3050" d="M36.02,28.212c.094-.142.189-.346.394-.362a.465.465,0,0,1,.2.331c.126.567-.189,1.149-.031,1.7a.381.381,0,0,0,.583.173,1.923,1.923,0,0,0,.646-.992c.063-.189.315-.173.457-.094a1.283,1.283,0,0,1,.551.787,2.068,2.068,0,0,1-.173,1.37,4.092,4.092,0,0,1-1.1,1.527,1.453,1.453,0,0,1-1.464.2,1.894,1.894,0,0,1-1.118-1.669c-.551.708-1.181,1.574-2.157,1.622-.22.016-.315.236-.378.409a15.755,15.755,0,0,1-4.8,6.6A26.1,26.1,0,0,1,19.11,44.46,27.16,27.16,0,0,1,8.766,45.909a13.264,13.264,0,0,1-5.621-1.527,4.231,4.231,0,0,1-1.937-1.952,1.723,1.723,0,0,1-.142-1.275c.142-.268.5-.157.708-.047a19.654,19.654,0,0,0,4.928,1.7,25.635,25.635,0,0,0,12.013-.441,22.171,22.171,0,0,0,8.392-4.078,14.261,14.261,0,0,0,3.5-3.448,9.078,9.078,0,0,0,1.244-2.346c.142-.457-.268-1.023.126-1.4.441-.3,1.008-.126,1.5-.079a1.293,1.293,0,0,0,1.181-.425A8.292,8.292,0,0,0,36.02,28.212Z" transform="translate(-0.992 -2.817)" fill="#fff"/>
      <path id="Path_3051" data-name="Path 3051" d="M30.5,28.18c.11-.157.3-.047.441,0a2.412,2.412,0,0,1,.992.913,1.05,1.05,0,0,1,0,.945,4.251,4.251,0,0,1-.85,1.2c-.142.126-.331.3-.52.157-.441-.283-.771-.693-1.228-.96a5.326,5.326,0,0,1-.913,1.291c-.126.11-.283.236-.457.189a2.657,2.657,0,0,1-.488-.331,10.405,10.405,0,0,1-.913-.74,12.707,12.707,0,0,1,.724-1.37,4.951,4.951,0,0,1,.661-.929,3.042,3.042,0,0,1,1.511,1.118A18,18,0,0,1,30.5,28.18Z" transform="translate(13.695 -2.674)" fill="#fff"/>
      <path id="Path_3052" data-name="Path 3052" d="M29.849,32.518a2.4,2.4,0,0,1,.96-1.055,1.577,1.577,0,0,1,1.48.834,4.015,4.015,0,0,1,.362,2.535,7.243,7.243,0,0,1-2.188,3.92,7.3,7.3,0,0,0-1.071,1.134A7.148,7.148,0,0,1,27.755,42.7a6.111,6.111,0,0,1-1.795.866,7.14,7.14,0,0,1-1.385.346c-.142.031-.236-.079-.315-.189.063-.094.11-.2.22-.252a19.977,19.977,0,0,0,3.054-2.188A4.008,4.008,0,0,0,28.4,40.3c.016-.173-.173-.189-.283-.11a1.507,1.507,0,0,1-1.669-.2,1.144,1.144,0,0,1-.346-1.055,7.1,7.1,0,0,1,.63-1.874,2.491,2.491,0,0,1,.787-1.086,1.249,1.249,0,0,1,1.4.52,3.88,3.88,0,0,1,.6,1.653,7.084,7.084,0,0,0,1.732-1.763.646.646,0,0,0-.016-.85c-.252-.189-.583-.063-.85.016a1.034,1.034,0,0,1-.96-.079c-.268-.173-.583-.441-.488-.8A7.577,7.577,0,0,1,29.849,32.518Z" transform="translate(12.374 -0.747)" fill="#fff"/>
      <path id="Path_3053" data-name="Path 3053" d="M24.792,32.343a1.251,1.251,0,0,1,.142-.063c-.016.409-.142.8-.173,1.212-.252,1.937-.394,3.889-.614,5.841A8,8,0,0,1,22.966,42.7a1.79,1.79,0,0,1-.236.252,37.249,37.249,0,0,0,.551-4.566c.063-.8.142-1.59.2-2.393a8.238,8.238,0,0,1,.819-2.629A5.08,5.08,0,0,1,24.792,32.343Z" transform="translate(11.495 -0.272)" fill="#fff"/>
      <path id="Path_3054" data-name="Path 3054" d="M10.86,33.484c.11-.126.283-.031.425-.016A2.119,2.119,0,0,1,12.4,34.507a1.224,1.224,0,0,1-.142,1.134,4.054,4.054,0,0,1-.693.945c-.094.079-.22.2-.362.142-.409-.2-.771-.488-1.149-.724-.126-.094-.346-.22-.283-.425a5.254,5.254,0,0,1,.535-1.212A6.362,6.362,0,0,1,10.86,33.484Z" transform="translate(4.046 0.382)" fill="#fff"/>
      <path id="Path_3055" data-name="Path 3055" d="M20.981,38.724a10.251,10.251,0,0,1,1.134-1.574,1.5,1.5,0,0,1,.945.488,1.248,1.248,0,0,1,.52,1.1,3.34,3.34,0,0,1-.866,1.448c-.173.173-.409.457-.661.252-.425-.283-.756-.677-1.181-.945a7.566,7.566,0,0,1-.8,1.2.979.979,0,0,1-.5.331,2.086,2.086,0,0,1-.551-.362,10.4,10.4,0,0,1-.913-.74,9.808,9.808,0,0,1,.771-1.448,5.411,5.411,0,0,1,.614-.866A2.98,2.98,0,0,1,20.981,38.724Z" transform="translate(8.835 2.525)" fill="#fff"/>
    </g>
    <g id="Group_1268" data-name="Group 1268" transform="translate(7.127 -95.651)">
      <path id="Path_3056" data-name="Path 3056" d="M31.363,14.415a1.5,1.5,0,0,1,1.055-.315H52.869a3.864,3.864,0,0,1,1.464.236,4.29,4.29,0,0,1,1.307.992c1.4,1.433,2.8,2.834,4.2,4.251.079.11.252.268.126.394a1.638,1.638,0,0,1-.866.157c-6.5-.016-13,.016-19.507,0a1.505,1.505,0,0,0-1.1.22,1.987,1.987,0,0,0-.315,1.275V34.111a9.338,9.338,0,0,0,3.889,7.447A8.852,8.852,0,0,0,46.587,43.2a10.1,10.1,0,0,0,5.259-1.008,8.557,8.557,0,0,0,3.92-4.3,4.787,4.787,0,0,0,.661-1.574c.016-.016.047-.031.063-.047a11.369,11.369,0,0,1-3.7,6.849,10.886,10.886,0,0,1-3.889,2.11,16.616,16.616,0,0,1-5.133.677,14.879,14.879,0,0,1-5.542-1.055,10.836,10.836,0,0,1-3.59-2.409,13.184,13.184,0,0,1-3.354-6.88A16.969,16.969,0,0,1,31,32.222V15.454A1.636,1.636,0,0,1,31.363,14.415Z" transform="translate(-30.999 -14.1)" fill="#fff"/>
      <path id="Path_3057" data-name="Path 3057" d="M47.646,20.072a17.007,17.007,0,0,1,5.7-.677,14.461,14.461,0,0,1,5.337,1.181,10.665,10.665,0,0,1,4.865,4.377A15.873,15.873,0,0,1,65.563,33.3V49.891a1.445,1.445,0,0,1-.3,1.008,1.651,1.651,0,0,1-1.086.331H43.569a3.143,3.143,0,0,1-2.22-.882c-1.37-1.37-2.724-2.755-4.093-4.125a5.17,5.17,0,0,1-.63-.677c-.11-.11.016-.268.142-.283a2.838,2.838,0,0,1,.819-.079c6.471.016,12.942-.016,19.413.016a1.569,1.569,0,0,0,1.071-.189,1.6,1.6,0,0,0,.331-1.165V31.36a9.316,9.316,0,0,0-5.668-8.581,9.818,9.818,0,0,0-5.668-.457,8.557,8.557,0,0,0-4.031,2,8.69,8.69,0,0,0-2.22,3.149,7.194,7.194,0,0,0-.74,1.669,11.579,11.579,0,0,1,3.779-6.99A10.926,10.926,0,0,1,47.646,20.072Z" transform="translate(-27.791 -11.066)" fill="#fff"/>
    </g>
    <g id="Group_1269" data-name="Group 1269" transform="translate(19.144 -82.505)">
      <path id="Path_3058" data-name="Path 3058" d="M41.636,23.647a6.932,6.932,0,0,1,8.423.488,6.938,6.938,0,0,1,2.3,4.062,7.359,7.359,0,0,1-.2,3.259l-.016.016c-.016.016-.047.031-.063.047a4.932,4.932,0,0,1-.661,1.574,8.1,8.1,0,0,1-1.748,1.842,6.929,6.929,0,0,1-10.738-7.589,7.5,7.5,0,0,1,.74-1.669A7.316,7.316,0,0,1,41.636,23.647Z" transform="translate(-38.632 -22.45)" fill="#fff"/>
    </g>
  </g>
</svg>
