<svg xmlns="http://www.w3.org/2000/svg" width="72.193" height="78.25" viewBox="0 0 72.193 78.25">
  <g id="Iranzamin" transform="translate(-7.21 -4.808)">
    <path id="Path_2193" data-name="Path 2193" d="M19.3,9.87C8.611,35,28.271,54.015,49.792,44.792,22.974,67.432-3.655,33.046,19.3,9.87Z" transform="translate(1.942 2.919)" fill="#fff"/>
    <path id="Path_2194" data-name="Path 2194" d="M15.97,48.619c25.3,10.264,43.987-9.712,34.4-31.059C73.469,44,39.524,71.18,15.97,48.619Z" transform="translate(5.051 7.353)" fill="#fff"/>
    <path id="Path_2195" data-name="Path 2195" d="M54.232,52.759C64.764,27.565,44.978,8.677,23.52,18.042,50.2-4.787,77.03,29.441,54.232,52.759Z" transform="translate(9.404 3.292)" fill="#fff"/>
    <path id="Path_2196" data-name="Path 2196" d="M60.094,15.122C35.878,2.493,15.382,20.609,22.9,42.791,2.422,14.271,38.779-9.583,60.094,15.122Z" transform="translate(5.56 0)" fill="#fff"/>
    <circle id="Ellipse_95" data-name="Ellipse 95" cx="11.194" cy="11.194" r="11.194" transform="translate(28.901 26.157) rotate(-13.286)" fill="#fff"/>
    <g id="Group_1240" data-name="Group 1240" transform="translate(7.21 55.467)">
      <g id="Group_1238" data-name="Group 1238" transform="translate(45.848)">
        <path id="Path_2197" data-name="Path 2197" d="M48.5,47.67V48a1.419,1.419,0,0,0,.489,1.246,1.19,1.19,0,0,0,.678.2c.2,0,.394-.221.552-.678.032-.095.063-.221.095-.347s.079-.2.142-.2c.079,0,.11.079.11.221,0,.063-.016.142-.032.268a2.645,2.645,0,0,0-.047.284,6.31,6.31,0,0,1-.725,2q-.449.709-.9.709a.978.978,0,0,1-.993-.662,4.266,4.266,0,0,1-.268-1.671Z" transform="translate(-29.769 -30.753)" fill="#fff"/>
        <path id="Path_2198" data-name="Path 2198" d="M49.87,52.957a.99.99,0,0,1-.032.473A2.732,2.732,0,0,1,49.6,54a1.965,1.965,0,0,1-.457.583.473.473,0,0,1-.284.173c-.047,0-.142-.063-.3-.2-.158-.126-.3-.252-.41-.347a3.048,3.048,0,0,1-.315-.268c-.095-.095-.126-.158-.126-.221.095-.189.158-.331.2-.441q.213-.473.331-.709c.126-.221.268-.441.394-.678a1.662,1.662,0,0,0,.126-.2c.047.047.095.079.126.11.047.032.095.063.173.11a6.29,6.29,0,0,1,.615.568A1.431,1.431,0,0,1,49.87,52.957Z" transform="translate(-29.705 -28.441)" fill="#fff"/>
        <path id="Path_2199" data-name="Path 2199" d="M48.514,49.809c-.11.378-.236.757-.347,1.119-.158.394-.347.6-.568.6,0-.173.079-.946.236-2.286.158-1.356.3-2.381.394-3.106.016-.063.126-.363.347-.9s.394-.946.52-1.23l.095-.047a1.456,1.456,0,0,1-.016.347l-.095.568-.378,2.68c-.079.536-.126,1.009-.158,1.4C48.53,49.352,48.514,49.636,48.514,49.809Z" transform="translate(-29.769 -32.892)" fill="#fff"/>
        <path id="Path_2200" data-name="Path 2200" d="M45.819,47.67V48a1.419,1.419,0,0,0,.489,1.246,1.19,1.19,0,0,0,.678.2c.2,0,.394-.221.552-.678.032-.095.063-.221.095-.347s.079-.2.142-.2c.079,0,.11.079.11.221,0,.063-.016.142-.032.268a2.643,2.643,0,0,0-.047.284,6.31,6.31,0,0,1-.725,2q-.449.709-.9.709a.978.978,0,0,1-.993-.662,4.266,4.266,0,0,1-.268-1.671Z" transform="translate(-31.314 -30.753)" fill="#fff"/>
        <path id="Path_2201" data-name="Path 2201" d="M48.22,45.327a.99.99,0,0,1-.032.473,2.732,2.732,0,0,1-.236.568,1.965,1.965,0,0,1-.457.583.405.405,0,0,1-.284.173c-.047,0-.142-.063-.3-.2-.158-.126-.3-.252-.41-.347a3.048,3.048,0,0,1-.315-.268c-.095-.095-.126-.158-.126-.221.095-.189.158-.331.2-.441q.213-.473.331-.709c.126-.221.268-.441.394-.678a1.663,1.663,0,0,0,.126-.2c.047.047.095.079.126.11.047.032.095.063.173.11a6.29,6.29,0,0,1,.615.568A1.431,1.431,0,0,1,48.22,45.327Z" transform="translate(-30.657 -32.84)" fill="#fff"/>
        <path id="Path_2202" data-name="Path 2202" d="M50.747,49.965c-.047.173-.095.363-.126.552a3.373,3.373,0,0,1-.2.6,1.641,1.641,0,0,1-.315.473c-.11.095-.2.126-.268.095a10.856,10.856,0,0,1,.079-1.151l.095-.851.016-.236c0-.047,0-.079-.016-.095s-.047,0-.095.047c-.063.079-.158.2-.284.394-.284.378-.489.662-.615.836a9.16,9.16,0,0,1-1.64,1.561,8.06,8.06,0,0,1-2.113,1.135,15.818,15.818,0,0,1-2.538.709,13.852,13.852,0,0,1-2.948.3h-.331a8.108,8.108,0,0,1-1.529-.11,2.1,2.1,0,0,1-1.277-.583,1.925,1.925,0,0,1-.347-1.246,11.576,11.576,0,0,1,.095-1.45c.063-.5.158-.741.268-.741q.071,0,.095.426a1.25,1.25,0,0,0,.315.757c.394.441,1.356.662,2.869.662.836,0,1.5-.016,2-.063a13.212,13.212,0,0,0,5.881-1.734A5.446,5.446,0,0,0,49.5,48.735a5.7,5.7,0,0,0,.725-1.624l.3-1.246a8.789,8.789,0,0,1,.489-1.119q.284-.591.378-.757a1.335,1.335,0,0,1,.221-.3v.331c-.079.315-.126.568-.158.741L51,47.064c-.095.631-.158,1.2-.2,1.719Q50.747,49.586,50.747,49.965Z" transform="translate(-36.29 -33.048)" fill="#fff"/>
        <path id="Path_2203" data-name="Path 2203" d="M46.89,45.974a22.221,22.221,0,0,1,2.065-1.8c.93-.741,1.876-1.5,2.806-2.255.678-.552,1.309-1.119,1.923-1.687.441-.41,1.009-.962,1.734-1.671,1.1-1.056,1.64-1.592,1.64-1.624a.436.436,0,0,1-.047.2,4.346,4.346,0,0,1-.41.914,6.565,6.565,0,0,1-.6.914c-.236.3-.489.615-.757.914s-.489.536-.646.694c-.221.221-.6.568-1.119,1.025-.394.347-.993.867-1.782,1.529-.552.473-1.056.867-1.5,1.2-.583.457-1.167.9-1.75,1.34l-1.514,1.182c-.221.173-.426.347-.631.489-.2.158-.315.2-.347.158a6.487,6.487,0,0,1,.394-.883A7.29,7.29,0,0,1,46.89,45.974Z" transform="translate(-30.714 -36.94)" fill="#fff"/>
      </g>
      <g id="Group_1239" data-name="Group 1239" transform="translate(21.647 12.25)">
        <path id="Path_2204" data-name="Path 2204" d="M35.208,45.167a2.123,2.123,0,0,1,.2-.331.363.363,0,0,1,.11-.126.332.332,0,0,1,.063.173l-.11.741-.126,1.23-.236,1.955a9.054,9.054,0,0,1-.2,1.088c-.079.284-.189.583-.315.914l-.5,1.056q-.331.568-.473.757c-.095.126-.173.189-.252.189l-.063-.158c.11-.394.221-.773.331-1.151.095-.378.173-.662.221-.867a16.134,16.134,0,0,0,.3-1.782c.063-.52.11-.977.158-1.387l.236-.678Z" transform="translate(-13.813 -44.71)" fill="#fff"/>
        <path id="Path_2205" data-name="Path 2205" d="M35.464,46.153c-.347,1.277-.757,2.018-1.2,2.239l-.836.41a1.461,1.461,0,0,0-.3.189,1.049,1.049,0,0,0-.268.252,3.726,3.726,0,0,0-.41.773c-.252.646-.441,1.1-.568,1.387a2.033,2.033,0,0,1-1.056,1.056,4.4,4.4,0,0,1-.883.236,5.594,5.594,0,0,1-.9.126c-.173.016-.3-.032-.347-.126-.016-.063.063-.158.221-.268.158-.126.363-.268.6-.426a9.043,9.043,0,0,1,.773-.5c.3-.2.489-.315.52-.347a5.622,5.622,0,0,0,.851-.773,8.224,8.224,0,0,0,.52-1.072,7.164,7.164,0,0,1,.662-1.277,2.839,2.839,0,0,1,.709-.615c.063-.032.268-.142.631-.331a2.484,2.484,0,0,0,.552-.331,2.509,2.509,0,0,0,.394-.552c.158-.284.268-.426.331-.41C35.512,45.775,35.527,45.9,35.464,46.153Z" transform="translate(-16.466 -44.088)" fill="#fff"/>
        <path id="Path_2206" data-name="Path 2206" d="M31.92,53.389a.989.989,0,0,1-.032.473,2.732,2.732,0,0,1-.236.568,1.965,1.965,0,0,1-.457.583.473.473,0,0,1-.284.173c-.047,0-.142-.063-.3-.2-.158-.126-.3-.252-.41-.347a3.05,3.05,0,0,1-.315-.268c-.095-.095-.126-.158-.126-.221.095-.189.158-.331.2-.441q.213-.473.331-.709c.126-.221.268-.441.394-.678a1.662,1.662,0,0,0,.126-.2c.047.047.095.079.126.11.047.032.095.063.173.11a6.29,6.29,0,0,1,.615.568,1.431,1.431,0,0,1,.189.489Zm2.255-.142a.99.99,0,0,1-.032.473,2.732,2.732,0,0,1-.236.568,1.965,1.965,0,0,1-.457.583.473.473,0,0,1-.284.173c-.047,0-.142-.063-.3-.2-.158-.126-.3-.252-.41-.347a3.049,3.049,0,0,1-.315-.268c-.095-.095-.126-.158-.126-.221.095-.189.158-.331.2-.441q.213-.473.331-.709c.126-.221.268-.441.394-.678a1.662,1.662,0,0,0,.126-.2c.047.047.095.079.126.11.047.032.095.063.173.11a6.29,6.29,0,0,1,.615.568A1.257,1.257,0,0,1,34.174,53.247Z" transform="translate(-15.854 -40.524)" fill="#fff"/>
        <path id="Path_2207" data-name="Path 2207" d="M29.388,45.167a2.123,2.123,0,0,1,.2-.331.363.363,0,0,1,.11-.126.332.332,0,0,1,.063.173l-.11.741-.126,1.23-.236,1.955a9.053,9.053,0,0,1-.2,1.088c-.079.284-.189.583-.315.914l-.5,1.056q-.331.568-.473.757c-.095.126-.173.189-.252.189l-.063-.158c.11-.394.221-.773.331-1.151.095-.378.173-.662.221-.867a16.134,16.134,0,0,0,.3-1.782c.063-.52.11-.977.158-1.387l.236-.678Z" transform="translate(-17.169 -44.71)" fill="#fff"/>
        <path id="Path_2208" data-name="Path 2208" d="M29.848,51.066c-.079.3-.126.552-.158.709a5.06,5.06,0,0,1-.158.552,9.369,9.369,0,0,1-.678,1.561,11.859,11.859,0,0,1-1.009,1.5,6.393,6.393,0,0,1-1.86,1.592,4.467,4.467,0,0,1-2.191.536,2.643,2.643,0,0,1-2.113-.851,3.276,3.276,0,0,1-.741-2.207,7.119,7.119,0,0,1,.173-1.466,9.7,9.7,0,0,1,.378-1.309c.142-.347.3-.709.489-1.088q.378-.757.8-1.514c.11-.2.189-.315.2-.347a.143.143,0,0,1,.126-.016c.032.016.032.095.016.236a2.276,2.276,0,0,1-.079.378l-.725,1.577c-.189.489-.315.8-.378.993a3.445,3.445,0,0,0-.158.993,2.049,2.049,0,0,0,.883,1.86,2.9,2.9,0,0,0,1.671.441,6.142,6.142,0,0,0,1.277-.126,4.564,4.564,0,0,0,1.167-.457,4.468,4.468,0,0,0,1.1-.867,8.561,8.561,0,0,0,.773-1.009,5.444,5.444,0,0,0,.394-.82,2.788,2.788,0,0,0,.126-.962l.047-1.577a2.606,2.606,0,0,1,.095-.725c.063-.221.158-.5.284-.836l.441-.851a1.9,1.9,0,0,0,.158-.3.76.76,0,0,1,.126-.158.368.368,0,0,1,.095.284l-.11.773-.11,1.1a7.612,7.612,0,0,1-.079,1.119c-.079.3-.158.725-.284,1.277Zm-2.806-1.151a1.044,1.044,0,0,1,.016.236,1.349,1.349,0,0,1-.268.773c-.347.5-.6.757-.773.788a.5.5,0,0,1-.2-.11c-.331-.252-.5-.378-.52-.394-.142-.095-.284-.173-.41-.252a.4.4,0,0,1-.2-.268l.5-1.135c.158-.284.3-.5.41-.678a1.662,1.662,0,0,0,.126-.2c.095.047.173.079.252.126a.648.648,0,0,1,.2.126,5.437,5.437,0,0,1,.631.552A.652.652,0,0,1,27.041,49.915Z" transform="translate(-20.94 -43.672)" fill="#fff"/>
      </g>
      <path id="Path_2209" data-name="Path 2209" d="M20.152,46.561a5.179,5.179,0,0,1-.11.883c-.079.41-.142.773-.221,1.072l-.268,1.072c-.142.41-.268.709-.347.9a5.118,5.118,0,0,1-.363.678,1.531,1.531,0,0,1-.347.41,3.21,3.21,0,0,1-.6.363l-.788.331a3.046,3.046,0,0,1-.52.126c-.268.047-.441.095-.52.095s-.11-.032-.126-.079a.24.24,0,0,1,.047-.189,2.486,2.486,0,0,1,.552-.552c.3-.236.6-.457.883-.678.331-.3.583-.552.741-.725a5.1,5.1,0,0,0,.662-.9,2.477,2.477,0,0,0,.189-.457c.079-.221.2-.6.378-1.1l.268-.788c.032-.11.079-.252.126-.426.063-.173.126-.252.221-.252A.328.328,0,0,1,20.152,46.561Z" transform="translate(-2.178 -31.52)" fill="#fff"/>
      <path id="Path_2210" data-name="Path 2210" d="M19.99,43.847a.99.99,0,0,1-.032.473,2.732,2.732,0,0,1-.236.568,1.965,1.965,0,0,1-.457.583.473.473,0,0,1-.284.173c-.047,0-.142-.063-.3-.2-.158-.126-.3-.252-.41-.347a3.05,3.05,0,0,1-.315-.268c-.095-.095-.126-.158-.126-.221.095-.189.158-.331.2-.441q.213-.473.331-.709c.126-.221.268-.441.394-.678a1.662,1.662,0,0,0,.126-.2c.047.047.095.079.126.11.047.032.095.063.173.11a6.29,6.29,0,0,1,.615.568A1.566,1.566,0,0,1,19.99,43.847Z" transform="translate(-1.086 -33.694)" fill="#fff"/>
      <path id="Path_2211" data-name="Path 2211" d="M13.852,47.751a1.673,1.673,0,0,0,.315-.268,2.879,2.879,0,0,0,.3-.378l.5-.883q.449-.851.615-.851a.143.143,0,0,1,.11.047c.032.032.047.063.063.079-.047.126-.079.252-.11.363a1.064,1.064,0,0,0-.047.268c0,.457.173.678.52.678q.047,0,.236-.378c.126-.252.221-.378.268-.378a2.319,2.319,0,0,1,.268.2.962.962,0,0,1,.284.662,2.381,2.381,0,0,1-.331,1.151,2.773,2.773,0,0,1-.725.914,4.063,4.063,0,0,1-.378.189,1.414,1.414,0,0,1-.284.032,1.058,1.058,0,0,1-.441-.095,1.4,1.4,0,0,1-.347-.252,1.129,1.129,0,0,1-.2-.3c-.032-.095-.063-.173-.095-.252-.063,0-.142.079-.252.236a2.615,2.615,0,0,1-.3.363V47.751Z" transform="translate(-3.399 -32.079)" fill="#fff"/>
      <path id="Path_2212" data-name="Path 2212" d="M13.311,50.075a1.789,1.789,0,0,1-.426,1.041,1.1,1.1,0,0,1-.82.552,2.249,2.249,0,0,1-.2-.221A5.763,5.763,0,0,0,11.42,51l-.347-.3c-.11-.095-.158-.173-.158-.221a1.354,1.354,0,0,1,.126-.284c.047-.079.189-.3.41-.709A6.1,6.1,0,0,1,12,48.7a.517.517,0,0,1,.095-.126c.268.189.457.347.6.457a1.607,1.607,0,0,1,.615,1.041ZM17.6,48.009a1.573,1.573,0,0,1-.378.3,1.046,1.046,0,0,1-.473.142.423.423,0,0,0-.347.158,2.067,2.067,0,0,0-.126.615c-.047.315-.095.615-.126.867-.047.252-.095.473-.126.646-.047.173-.095.378-.158.615a13.879,13.879,0,0,1-.615,1.624,8.4,8.4,0,0,1-2.034,2.932A4.648,4.648,0,0,1,10,57.248a2.579,2.579,0,0,1-2.191-.914,3.434,3.434,0,0,1-.6-2.144,7.863,7.863,0,0,1,.221-1.624A6.643,6.643,0,0,1,7.762,51.4L8.377,50c.142-.284.3-.552.441-.851.142-.284.284-.426.394-.426a.707.707,0,0,1,.063.268,3.3,3.3,0,0,1-.221.6c-.189.426-.315.709-.394.883-.2.489-.347.867-.441,1.135a4.879,4.879,0,0,0-.2,1.277,1.948,1.948,0,0,0,.662,1.529,2.655,2.655,0,0,0,1.829.583,4.557,4.557,0,0,0,4.052-2.239,6.059,6.059,0,0,0,.773-1.671,6.591,6.591,0,0,0,.236-1.829l.016-1.309a1.034,1.034,0,0,1,.268-.694.693.693,0,0,1,.646-.236h.378a1.71,1.71,0,0,0,.725-.126c.047.079.079.158.126.252a.918.918,0,0,1,.047.3,1.251,1.251,0,0,1-.11.457A.2.2,0,0,1,17.6,48.009Z" transform="translate(-7.21 -31.203)" fill="#fff"/>
      <path id="Path_2213" data-name="Path 2213" d="M14.38,53.813a.99.99,0,0,1-.032.473,2.732,2.732,0,0,1-.236.568,1.965,1.965,0,0,1-.457.583.473.473,0,0,1-.284.173c-.047,0-.142-.063-.3-.2-.158-.126-.3-.252-.41-.347a3.048,3.048,0,0,1-.315-.268c-.095-.095-.126-.158-.126-.221.095-.189.158-.331.2-.441q.213-.473.331-.709c.126-.221.268-.441.394-.678a1.662,1.662,0,0,0,.126-.2c.047.047.095.079.126.11.047.032.095.063.173.11a6.289,6.289,0,0,1,.615.568,1.848,1.848,0,0,1,.189.489Zm2.255-.126a.99.99,0,0,1-.032.473,2.732,2.732,0,0,1-.236.568,1.965,1.965,0,0,1-.457.583.473.473,0,0,1-.284.173c-.047,0-.142-.063-.3-.2-.158-.126-.3-.252-.41-.347a3.05,3.05,0,0,1-.315-.268c-.095-.095-.126-.158-.126-.221.095-.189.158-.331.2-.441q.213-.473.331-.709c.126-.221.268-.441.394-.678a1.662,1.662,0,0,0,.126-.2c.047.047.095.079.126.11.047.032.095.063.173.11a6.29,6.29,0,0,1,.615.568A1.317,1.317,0,0,1,16.634,53.687Z" transform="translate(-4.321 -28.02)" fill="#fff"/>
    </g>
  </g>
</svg>
