<svg xmlns="http://www.w3.org/2000/svg" width="76.746" height="89.154" viewBox="0 0 76.746 89.154">
  <g id="KarAfarin" transform="translate(-6 -3)">
    <path id="Path_2552" data-name="Path 2552" d="M50.335,18.525H19.64c.051-.422.371-.591.591-.827q7.011-7.037,14.04-14.04c.219-.2.489-.354.557-.658H35c2.565,2.582,5.13,5.18,7.712,7.745C45,13.04,47.3,15.318,49.592,17.63c.27.27.658.472.726.911Z" transform="translate(9.377 0)" fill="#fff"/>
    <path id="Path_2553" data-name="Path 2553" d="M6,53.511c.4-1.063.793-2.126,1.232-3.172a1.3,1.3,0,0,1,.641-.844c.118.489-.169.827-.337,1.2a6.086,6.086,0,0,0-.557,2.43,2.854,2.854,0,0,0,2.9,3c4.556.2,7.205-2.649,7.627-6.986.067-.776.118-1.569.169-2.346.017-.388.169-.81.54-.776,1.468.152,2.295-.506,2.6-2.059A3.192,3.192,0,0,1,19.3,47.723a.834.834,0,0,0-.607.709,20.167,20.167,0,0,1-3.206,7.408c-1.451,1.941-3.274,3.375-5.839,3.426a3.22,3.22,0,0,1-3.493-2.7c-.017-.1-.017-.219-.152-.27Z" transform="translate(0 28.158)" fill="#fff"/>
    <path id="Path_2554" data-name="Path 2554" d="M57.227,37.3c-1.333,2.16-3.476,3.426-5.434,4.894-2.649,2.008-5.467,3.8-8.032,5.923a.951.951,0,0,1-.641.337,6.067,6.067,0,0,1,2.261-2.784q5.037-3.771,10.125-7.492c.54-.4.945-1.046,1.721-1.063Z" transform="translate(25.518 23.449)" fill="#fff"/>
    <path id="Path_2555" data-name="Path 2555" d="M33.681,38.675A12.306,12.306,0,1,1,46,27.386,12.3,12.3,0,0,1,33.681,38.675Z" transform="translate(10.591 7.608)" fill="#fff"/>
    <path id="Path_2556" data-name="Path 2556" d="M37.82,12.217c.388-.017.54.3.759.523,4.742,4.742,9.484,9.5,14.242,14.225.54.54.607.81.017,1.4-4.776,4.708-9.5,9.467-14.242,14.225-.169.169-.27.371-.439.574a1.4,1.4,0,0,1-.27-1.181V12.892c0-.236-.034-.456-.051-.692Z" transform="translate(21.875 6.325)" fill="#fff"/>
    <path id="Path_2557" data-name="Path 2557" d="M25.506,43c-1.147-1.181-2.295-2.379-3.459-3.561q-5.594-5.619-11.222-11.222c-.439-.439-.557-.675-.034-1.2C15.566,22.3,20.308,17.541,25.05,12.8c.169-.169.3-.422.658-.489V42.853Q25.582,42.954,25.506,43Z" transform="translate(3.056 6.4)" fill="#fff"/>
    <path id="Path_2558" data-name="Path 2558" d="M50.362,30.627c-.4.422-.675.726-.962,1L35.479,45.544c-.337.337-.557.489-.979.068-4.877-4.911-9.754-9.787-14.63-14.681a4.111,4.111,0,0,1-.27-.321C29.86,30.627,40,30.627,50.362,30.627Z" transform="translate(9.349 18.981)" fill="#fff"/>
    <path id="Path_2559" data-name="Path 2559" d="M31.142,50.522c.607,2.211,2.362,2.194,4.1,2.4,4.033.472,7.8-.54,11.492-1.974a5.222,5.222,0,0,0,3.426-3.831,7.615,7.615,0,0,1,1.114-2.734,1.6,1.6,0,0,1,.017,1.012c-.068.287-.135.557-.186.844a15.314,15.314,0,0,0-.439,5.248c.186,1.181.945,1.6,1.687,1.012.169-.135.27-.388.574-.422a5.377,5.377,0,0,1-1,3.24,1.137,1.137,0,0,1-1.266.54,1.364,1.364,0,0,1-1.08-1,8.1,8.1,0,0,1-.1-3.122q.076-.785.1-1.569c-.051,0-.152-.034-.152-.017-1.485,2.531-4.016,3.544-6.581,4.472A22.442,22.442,0,0,1,33.707,55.8a2.517,2.517,0,0,1-.354-.034c-2.362-.4-3.122-1.637-2.548-4.2C30.889,51.231,31.024,50.877,31.142,50.522Z" transform="translate(16.926 28.447)" fill="#fff"/>
    <path id="Path_2560" data-name="Path 2560" d="M28.549,50.777c.456.152.793.236,1.114.354a1.672,1.672,0,0,1,1.215,1.789,7.632,7.632,0,0,1-2.295,5.265,1.955,1.955,0,0,1-2.059.557c-.776-.253-.928-.911-1.063-1.637a15.016,15.016,0,0,1,.388-4.911c.321-2.227.388-4.506,1.35-6.6a1.25,1.25,0,0,1,.574-.776c-.236,2.025-.456,3.915-.675,5.788.067.034.118.068.186.1q4.328-4.986,8.657-9.99a4.93,4.93,0,0,1-1.249,2.919C32.65,46,30.642,48.347,28.549,50.777Zm-.321,4.995a2.171,2.171,0,0,0,.422-.034c.489-.135.962-.3,1-.911.034-.557-.354-.81-.81-1a2.721,2.721,0,0,0-.489-.152c-.844-.186-1.434.1-1.485.709C26.794,55.215,27.267,55.722,28.229,55.772Z" transform="translate(13.309 25.931)" fill="#fff"/>
    <path id="Path_2561" data-name="Path 2561" d="M12.53,57.823a4.621,4.621,0,0,1,1.721-1.434,8.443,8.443,0,0,0,3.611-4.05c.591-1.586,2.076-2.244,3.544-2.835.219-.084.439-.135.641-.236.27-.152.472-.388.354-.709-.1-.3-.4-.253-.675-.219a3.206,3.206,0,0,1-.692.068,1.082,1.082,0,0,1-1.046-1.552,8.309,8.309,0,0,1,1.08-1.873,1.106,1.106,0,0,1,1.873.1,4.4,4.4,0,0,1,.118,4.236,5.891,5.891,0,0,1-2.919,2.869,4.561,4.561,0,0,0-2.447,2.531C16.7,57.013,15.112,57.924,12.53,57.823Z" transform="translate(4.489 28.538)" fill="#fff"/>
    <path id="Path_2562" data-name="Path 2562" d="M46.827,43.52c-.084,2.042-.624,3.763-.844,5.518-.1.894-.219,1.789-.236,2.666a1.369,1.369,0,0,0,.726,1.451c.675.337,1-.186,1.4-.523a4.565,4.565,0,0,1-1.029,3.409,1.216,1.216,0,0,1-1.991-.472,4.03,4.03,0,0,1-.219-1.789A35.939,35.939,0,0,1,46.034,45a11.074,11.074,0,0,1,.388-1.046A4.16,4.16,0,0,0,46.827,43.52Z" transform="translate(26.553 27.856)" fill="#fff"/>
    <path id="Path_2563" data-name="Path 2563" d="M29.27,39.04c-.692,2.227-3.662,4.371-5.855,4.269-.574-.034-1.147-.135-1.721-.118a4.769,4.769,0,0,0-1.6.641A3.318,3.318,0,0,1,23.7,41.166a5.961,5.961,0,0,0,4.573-1.485A1.806,1.806,0,0,1,29.27,39.04Z" transform="translate(9.686 24.776)" fill="#fff"/>
    <path id="Path_2564" data-name="Path 2564" d="M13.926,55.315a6.368,6.368,0,0,1,.439-.692c.2-.253.186-.776.709-.658a1.381,1.381,0,0,1,1.2,1.1,2.41,2.41,0,0,1-.827,2.008c-.186.219-.371.051-.54-.051l-1.316-.81c-.422.2-.354,1.164-1.131.844-.54-.219-1.147-.439-1.367-1.063a6.918,6.918,0,0,1,1.282-2.109A2.105,2.105,0,0,1,13.926,55.315Z" transform="translate(3.498 34.978)" fill="#fff"/>
    <path id="Path_2565" data-name="Path 2565" d="M22.612,43.83c-.692,3.493,0,7.256-2.042,10.479C21.042,50.782,20.553,47.07,22.612,43.83Z" transform="translate(10.016 28.069)" fill="#fff"/>
    <path id="Path_2566" data-name="Path 2566" d="M26.429,48.22a11.42,11.42,0,0,1-.894,3.527,9.272,9.272,0,0,1-.759,1.536,3.561,3.561,0,0,1-3.966,1.89c1.147-1.164,2.632-1.7,3.527-2.97C25.2,50.971,25.687,49.536,26.429,48.22Z" transform="translate(10.181 31.087)" fill="#fff"/>
    <path id="Path_2567" data-name="Path 2567" d="M19.9,41.949a3.1,3.1,0,0,1-.861,1.941c-.135.186-.287.135-.439.034a6.593,6.593,0,0,0-.742-.439c-.641-.3-.742-.726-.337-1.3a6.213,6.213,0,0,1,.4-.658c.253-.27.169-.979.844-.726C19.357,41.038,19.847,41.409,19.9,41.949Z" transform="translate(7.753 25.95)" fill="#fff"/>
    <path id="Path_2568" data-name="Path 2568" d="M45.966,45.318a2.211,2.211,0,0,1-.911,1.755c-.557.354-1-.321-1.468-.591a.482.482,0,0,1-.186-.776c.2-.3.354-.658.574-.962.2-.287.169-.861.742-.726A1.485,1.485,0,0,1,45.966,45.318Z" transform="translate(25.626 28.184)" fill="#fff"/>
    <path id="Path_2569" data-name="Path 2569" d="M47.5,54.019a2.16,2.16,0,0,1-.861,1.62c-.624.439-.979-.354-1.468-.557-.371-.152-.388-.472-.2-.793a11.227,11.227,0,0,1,.557-.979c.2-.27.169-.877.759-.709A1.5,1.5,0,0,1,47.5,54.019Z" transform="translate(26.709 34.079)" fill="#fff"/>
    <path id="Path_2570" data-name="Path 2570" d="M11.9,47.418A2.5,2.5,0,0,1,11.122,49c-.152.186-.27.186-.506.084-1.4-.574-1.536-.911-.81-2.177.051-.068.067-.169.135-.219.3-.2.135-.945.844-.726A1.475,1.475,0,0,1,11.9,47.418Z" transform="translate(2.319 29.51)" fill="#fff"/>
  </g>
</svg>
