<svg xmlns="http://www.w3.org/2000/svg" width="75.147" height="84.183" viewBox="0 0 75.147 84.183">
  <g id="khavarMiane" transform="translate(-26.919 85.23)">
    <path id="Path_2214" data-name="Path 2214" d="M28.967,33.92h.926v4.571a1.109,1.109,0,0,1-1.2,1.222H27.521a1.077,1.077,0,0,1-1.191-1.2V37.025a1.077,1.077,0,0,1,1.191-1.2H28.57v.947H27.521c-.193,0-.275.081-.275.275v1.446c0,.193.071.275.275.275H28.7c.2,0,.275-.071.275-.275V33.92Z" transform="translate(25.685 -40.77)" fill="#fff"/>
    <g id="Group_1241" data-name="Group 1241" transform="translate(36.146 -85.23)">
      <path id="Path_2215" data-name="Path 2215" d="M112.508,24.28,81.91,36.266v7.874l21.223-10.68L81.91,50.064V62.42L106.7,37.766,89.706,62.42h7.971L116.62,30.244A10.524,10.524,0,0,1,112.508,24.28Z" transform="translate(-81.91 -5.727)" fill="#fff"/>
      <path id="Path_2216" data-name="Path 2216" d="M106.549,27.54,93.16,59.326H100.9l5.749-20.19-1.481,20.19h6.392l.273-20.6,4.307,20.6h6.256l-8.068-30.559a10.58,10.58,0,0,1-7.776-1.228Z" transform="translate(-71.235 -2.633)" fill="#fff"/>
      <path id="Path_2217" data-name="Path 2217" d="M104.42,30.584,117.185,61.24l.058.117V47.13l-6.86-11.81,6.86,6.353V36.8l-4.288-5.749,4.288,2.124V29.415l-6.7-4.015A10.4,10.4,0,0,1,104.42,30.584Z" transform="translate(-60.55 -4.664)" fill="#fff"/>
      <path id="Path_2218" data-name="Path 2218" d="M107.73,29.662l6.373,2.67v-3.7l-2.962-1.091,2.962-.117V24.672l-3.761-.721,3.761-1.013V20.19l-6.295,1.52a10.416,10.416,0,0,1,.721,4.677A10.616,10.616,0,0,1,107.73,29.662Z" transform="translate(-57.41 -9.608)" fill="#fff"/>
      <path id="Path_2219" data-name="Path 2219" d="M110.345,26.317l6.529-2.456V19.749l-6.821,3.411,6.821-5.476V14.76h-2.728l-6.1,6.626L112.1,14.76H108.26l-3.45,6.314A10.474,10.474,0,0,1,110.345,26.317Z" transform="translate(-60.18 -14.76)" fill="#fff"/>
      <path id="Path_2220" data-name="Path 2220" d="M108.65,20.88l2.339-6.12h-3.274l-1.033,3.372.195-3.372h-2.787l-.1,2.612-.7-2.612h-3.04l1.481,6.139a10.229,10.229,0,0,1,4.307-.565A11.741,11.741,0,0,1,108.65,20.88Z" transform="translate(-64.507 -14.76)" fill="#fff"/>
      <path id="Path_2221" data-name="Path 2221" d="M112.145,21.113l-2.495-6.353h-3.605l1.325,2.962-2.378-2.962h-4.775l3.937,4.307L98.074,14.76H88.7l18.514,10.621A10.513,10.513,0,0,1,112.145,21.113Z" transform="translate(-75.467 -14.76)" fill="#fff"/>
      <path id="Path_2222" data-name="Path 2222" d="M113.356,25.937,88.7,14.77H81.92v5.574L103.2,26.483,81.92,23.715v5.964l19.9,1.267-19.9,2.67v7.23l30.461-8.185a11.493,11.493,0,0,1-.156-2.728A9.869,9.869,0,0,1,113.356,25.937Z" transform="translate(-81.901 -14.751)" fill="#fff"/>
    </g>
    <path id="Path_2223" data-name="Path 2223" d="M33.3,33.92h.926v4.571a1.109,1.109,0,0,1-1.2,1.222H31.841a1.077,1.077,0,0,1-1.191-1.2V37.025a1.077,1.077,0,0,1,1.191-1.2H32.89v.947H31.841c-.193,0-.275.081-.275.275v1.446c0,.193.071.275.275.275h1.181c.2,0,.275-.071.275-.275Z" transform="translate(25.764 -40.77)" fill="#fff"/>
    <path id="Path_2224" data-name="Path 2224" d="M62.131,36.292a1.086,1.086,0,0,1,.285.774v1.395a1.124,1.124,0,0,1-1.252,1.252H58.68V33.92h2.484a1.124,1.124,0,0,1,1.252,1.252v.356a1.035,1.035,0,0,1-.285.764Zm-2.494-1.415v3.889h1.537c.214,0,.3-.081.3-.3V37.076c0-.2-.051-.3-.265-.3H60.044v-.947H61.2c.214,0,.255-.1.255-.305v-.356c0-.214-.081-.3-.3-.3Z" transform="translate(26.271 -40.77)" fill="#fff"/>
    <path id="Path_2225" data-name="Path 2225" d="M43.237,34.877v.947H45.7v.947H43.237v1.985h2.555v.957H42.3V33.92h3.462v.957Z" transform="translate(25.975 -40.77)" fill="#fff"/>
    <path id="Path_2226" data-name="Path 2226" d="M63.425,36.737V35.79H65.5A1.092,1.092,0,0,1,66.7,37v1.476a1.084,1.084,0,0,1-1.2,1.2H64.321a1.054,1.054,0,0,1-1.2-1.14v-.132a1.051,1.051,0,0,1,1.2-1.13H65.36V38.2H64.321c-.153,0-.275.02-.275.193v.112c0,.183.1.214.275.214h1.171c.2,0,.275-.071.275-.275V37c0-.2-.071-.275-.275-.275H63.425Z" transform="translate(26.352 -40.737)" fill="#fff"/>
    <path id="Path_2227" data-name="Path 2227" d="M68.417,36.737v2.942H67.47v-3.9h2.484a1.124,1.124,0,0,1,1.252,1.252v2.647h-.957V37.032c0-.214-.081-.3-.3-.3Z" transform="translate(26.43 -40.737)" fill="#fff"/>
    <path id="Path_2228" data-name="Path 2228" d="M72.927,36.995l1.283-1.171h1.313l-1.639,1.507h.4a1.1,1.1,0,0,1,1.252,1.212v1.171h-.957V38.542c0-.214-.071-.305-.3-.305H72.927V39.7H71.98V33.91h.947Z" transform="translate(26.512 -40.771)" fill="#fff"/>
    <path id="Path_2229" data-name="Path 2229" d="M21.307,38.756l1.772-4.836h.855v5.793h-.9V36.638l-1.079,3.075H20.615l-1.079-3.075v3.075h-.9V33.92H19.5Z" transform="translate(25.546 -40.77)" fill="#fff"/>
    <rect id="Rectangle_1330" data-name="Rectangle 1330" width="0.926" height="3.889" transform="translate(50.284 -4.947)" fill="#fff"/>
    <rect id="Rectangle_1331" data-name="Rectangle 1331" width="0.926" height="0.967" transform="translate(50.284 -6.85)" fill="#fff"/>
    <rect id="Rectangle_1332" data-name="Rectangle 1332" width="0.926" height="5.793" transform="translate(60.791 -6.85)" fill="#fff"/>
    <path id="Path_2230" data-name="Path 2230" d="M40.193,38.722v.957H37.821a1.1,1.1,0,0,1-1.191-1.232V37a1.077,1.077,0,0,1,1.191-1.2H39a1.058,1.058,0,0,1,1.2,1.14v.132A1.06,1.06,0,0,1,39,38.2H37.954v-.926H39c.153,0,.275-.02.275-.193V36.95c0-.183-.112-.214-.275-.214H37.821c-.193,0-.275.081-.275.275v1.446c0,.193.071.275.275.275h2.372Z" transform="translate(25.872 -40.736)" fill="#fff"/>
    <path id="Path_2231" data-name="Path 2231" d="M46.745,36.737V35.79h2.077a1.084,1.084,0,0,1,1.2,1.2v1.486a1.084,1.084,0,0,1-1.2,1.2H47.651a1.058,1.058,0,0,1-1.2-1.14v-.132a1.051,1.051,0,0,1,1.2-1.13H48.7V38.2H47.651c-.153,0-.275.031-.275.193v.112c0,.183.112.214.275.214h1.171c.2,0,.275-.071.275-.275V36.991c0-.2-.071-.275-.275-.275H46.745Z" transform="translate(26.05 -40.737)" fill="#fff"/>
    <path id="Path_2232" data-name="Path 2232" d="M53.529,35.79v.947H51.951c-.2,0-.275.071-.275.275s.071.275.275.275h.7a1.062,1.062,0,0,1,1.2,1.171,1.107,1.107,0,0,1-1.2,1.232H50.933v-.957h1.721c.2,0,.275-.071.275-.275s-.071-.244-.275-.244h-.7a1.1,1.1,0,0,1-1.2-1.222,1.08,1.08,0,0,1,1.2-1.2Z" transform="translate(26.128 -40.737)" fill="#fff"/>
    <path id="Path_2233" data-name="Path 2233" d="M54.86,35.807V34.86h.926v.947h.835v.947h-.835V39.7H54.86V36.754h-.58v-.947Z" transform="translate(26.192 -40.753)" fill="#fff"/>
    <path id="Path_2234" data-name="Path 2234" d="M40.237,27.369v1.7a2.5,2.5,0,0,1-.794,1.853,2.7,2.7,0,0,1-1.9.743H34.22V30.138h3.645a.593.593,0,0,0,.479-.234.835.835,0,0,0,.2-.55V28.285H34.23V25.536a2.623,2.623,0,0,1,2.678-2.6h3.339l-.01,4.429Zm-1.69-.611V24.467H36.572a.624.624,0,0,0-.479.234.835.835,0,0,0-.2.55v1.517h2.657Z" transform="translate(25.828 -40.969)" fill="#fff"/>
    <path id="Path_2235" data-name="Path 2235" d="M1.68,28.285V25.536a2.545,2.545,0,0,1,.794-1.853,2.661,2.661,0,0,1,1.894-.743H7.707v1.527H4.032a.607.607,0,0,0-.479.234.835.835,0,0,0-.2.55v1.517H5.315a1.236,1.236,0,0,0,.479-.234.513.513,0,0,0,.234-.428v-.988h1.68v.988a.527.527,0,0,0,.234.428.991.991,0,0,0,.55.234h1.649a.575.575,0,0,0,.479-.214.815.815,0,0,0,.2-.55V22.94h1.67v2.769a2.562,2.562,0,0,1-.794,1.853A2.669,2.669,0,0,1,9.8,28.3H8.7a2.543,2.543,0,0,1-1.833-.723,2.953,2.953,0,0,1-1.629.7c-.122.01-.234.02-.367.02Z" transform="translate(25.239 -40.969)" fill="#fff"/>
    <path id="Path_2236" data-name="Path 2236" d="M49.783,28.356H44.458a2.645,2.645,0,0,1-1.884-.733,2.48,2.48,0,0,1-.8-1.863V19.04h1.67v7.015a.855.855,0,0,0,.2.55.584.584,0,0,0,.479.224h4.032V25.312a.855.855,0,0,0-.2-.55.593.593,0,0,0-.479-.234H45.028V23h2.118a2.641,2.641,0,0,1,2.688,2.606v2.749Z" transform="translate(25.965 -41.04)" fill="#fff"/>
    <path id="Path_2237" data-name="Path 2237" d="M30.743,29.9a.825.825,0,0,0,.193-.55V22.93h1.69v6.129a2.423,2.423,0,0,1-.8,1.853,2.685,2.685,0,0,1-1.9.743H28.31V30.128h1.945A.552.552,0,0,0,30.743,29.9Z" transform="translate(25.721 -40.969)" fill="#fff"/>
    <path id="Path_2238" data-name="Path 2238" d="M17.86,28.356H16.628a2.655,2.655,0,0,1-1.884-.743,2.585,2.585,0,0,1-.794-1.853V19.04h1.67v7.015a.855.855,0,0,0,.2.55.556.556,0,0,0,.458.234h1.772a.413.413,0,0,0,.193-.041.577.577,0,0,0,.244-.193.839.839,0,0,0,.214-.54V23.011h1.67v3.054a.591.591,0,0,0,.224.54,1.808,1.808,0,0,0,1.059.234,1.423,1.423,0,0,0,.906-.224.513.513,0,0,0,.234-.428V23.011h3.93a2.679,2.679,0,0,1,1.894.743,2.512,2.512,0,0,1,.794,1.853v2.759h-3.94c-.132,0-.244-.01-.367-.02a2.429,2.429,0,0,1-1.466-.7,2.987,2.987,0,0,1-1.68.723h-.672a3.083,3.083,0,0,1-1.751-.743,2.442,2.442,0,0,1-1.15.641,2.214,2.214,0,0,1-.529.092Zm9.224-3.818H24.518v1.6a.857.857,0,0,0,.794.7h2.454V25.312a.855.855,0,0,0-.2-.55A.629.629,0,0,0,27.084,24.538Z" transform="translate(25.461 -41.04)" fill="#fff"/>
    <path id="Path_2239" data-name="Path 2239" d="M60.343,26.829a1.143,1.143,0,0,0,1.079-1.15L58.826,23l4.123-3.96,1.12,1.171L61.178,22.99l3.166,3.227a1.921,1.921,0,0,0,1.069.6h.326a.584.584,0,0,0,.479-.224.835.835,0,0,0,.2-.55V22.99h1.67v2.759A2.619,2.619,0,0,1,65.7,28.335c-.112.01-.255.01-.285.01h-.367a2.992,2.992,0,0,1-1.822-.876l-.57-.54-.122.193a2.592,2.592,0,0,1-2.189,1.232H52.32V25.607a2.449,2.449,0,0,1,.794-1.853,2.661,2.661,0,0,1,1.894-.743H56v1.527H54.672a.607.607,0,0,0-.479.234.835.835,0,0,0-.2.55v1.517Z" transform="translate(26.156 -41.04)" fill="#fff"/>
    <path id="Path_2240" data-name="Path 2240" d="M17.148,31.537H15.59V30.01H18.7v1.527Z" transform="translate(25.491 -40.841)" fill="#fff"/>
    <rect id="Rectangle_1333" data-name="Rectangle 1333" width="1.67" height="1.527" transform="translate(92.587 -20.819)" fill="#fff"/>
    <rect id="Rectangle_1334" data-name="Rectangle 1334" width="1.67" height="1.527" transform="translate(71.003 -20.819)" fill="#fff"/>
    <rect id="Rectangle_1335" data-name="Rectangle 1335" width="1.67" height="1.527" transform="translate(98.177 -10.831)" fill="#fff"/>
    <rect id="Rectangle_1336" data-name="Rectangle 1336" width="1.67" height="1.527" transform="translate(36.041 -20.819)" fill="#fff"/>
    <path id="Path_2241" data-name="Path 2241" d="M72.005,28.356a2.624,2.624,0,0,1-2.545-2.6V19.04h1.67v7.015a.855.855,0,0,0,.2.55.584.584,0,0,0,.479.224h1.466a.585.585,0,0,0,.448-.224.835.835,0,0,0,.2-.55V23H75.6v2.718a2.666,2.666,0,0,1-2.678,2.637h-.916Z" transform="translate(26.466 -41.04)" fill="#fff"/>
  </g>
</svg>
