<svg xmlns="http://www.w3.org/2000/svg" width="57.716" height="78.25" viewBox="0 0 57.716 78.25">
  <g id="Maskan" transform="translate(-11.25 -2.28)">
    <path id="Path_2242" data-name="Path 2242" d="M20.124,9.084H54.478V41.619H20.124V9.084Zm-6.8-6.8V48.407H61.267V2.28Z" transform="translate(1.095 0)" fill="#fff"/>
    <path id="Path_2243" data-name="Path 2243" d="M48.049,25.563V17.8L33.662,12.69,19.29,17.8v7.767l14.372-5.107Z" transform="translate(4.252 5.506)" fill="#fff"/>
    <path id="Path_2244" data-name="Path 2244" d="M61.169,53.313v.321a1.421,1.421,0,0,0,.474,1.238,1.1,1.1,0,0,0,.673.2c.2,0,.382-.229.55-.673.031-.107.061-.214.092-.352s.076-.2.138-.2c.076,0,.107.076.107.214,0,.061-.015.138-.031.26a1.947,1.947,0,0,1-.061.275,6.416,6.416,0,0,1-.719,1.988c-.29.474-.581.7-.887.7a.992.992,0,0,1-.994-.657,4.228,4.228,0,0,1-.275-1.651h0c0-.168.076-.933.245-2.278.153-1.345.29-2.37.4-3.073.015-.061.138-.352.352-.887s.4-.948.52-1.223l.092-.046a1.547,1.547,0,0,1-.015.352l-.092.566-.367,2.645c-.076.535-.122.994-.153,1.391-.031.428-.046.719-.046.887-.015.015-.015.015-.015.031l.015-.031ZM24.322,43.574a20.37,20.37,0,0,1,2.049-1.789c.933-.734,1.85-1.483,2.783-2.232.673-.55,1.3-1.116,1.911-1.667.428-.413,1.009-.963,1.712-1.651,1.086-1.04,1.636-1.575,1.636-1.605a.423.423,0,0,1-.046.2,4.088,4.088,0,0,1-.413.917,9.222,9.222,0,0,1-.581.917c-.229.306-.489.612-.749.9q-.413.436-.642.688c-.214.214-.581.55-1.116,1.024-.4.352-.979.856-1.758,1.529-.55.459-1.04.856-1.483,1.193l-1.743,1.33-1.5,1.177c-.214.168-.428.336-.627.489s-.306.214-.336.168a5.752,5.752,0,0,1,.4-.871,2.152,2.152,0,0,1,.5-.719ZM17.3,55.255a1.743,1.743,0,0,1-.428,1.04,1.112,1.112,0,0,1-.81.55,2.181,2.181,0,0,1-.2-.214,5.554,5.554,0,0,0-.428-.428c-.122-.107-.229-.2-.336-.306s-.168-.168-.168-.214a1,1,0,0,1,.138-.275l.413-.688a4.292,4.292,0,0,1,.55-.78,1.036,1.036,0,0,1,.092-.138,4.8,4.8,0,0,1,.581.459,1.438,1.438,0,0,1,.6.994Zm5.626-6.177a18.9,18.9,0,0,1,.214-2.278c.046-.336.122-.856.245-1.559q0-.046-.092-.092l-.2.26c0,.015-.061.138-.168.367a3.93,3.93,0,0,0-.26.627,4.951,4.951,0,0,0-.245.673,3.031,3.031,0,0,0-.092.459l-.2,2.018-.061.78-.046.428-.015.352a2.08,2.08,0,0,1-.122.489.815.815,0,0,1-.245.352,1.156,1.156,0,0,1-.764.26l-.52-.015a.777.777,0,0,0-.55.26.818.818,0,0,0-.2.4,3.144,3.144,0,0,0-.046.6l-.015.963a6.732,6.732,0,0,1-.229,1.819,6.452,6.452,0,0,1-.764,1.667,4.9,4.9,0,0,1-1.712,1.651,4.614,4.614,0,0,1-2.309.566,2.706,2.706,0,0,1-1.819-.581,1.894,1.894,0,0,1-.657-1.514,4.19,4.19,0,0,1,.2-1.254c.092-.275.229-.657.428-1.131.061-.138.2-.443.428-.963a1.95,1.95,0,0,0,.168-.5.752.752,0,0,0-.061-.26c-.107,0-.229.138-.4.428-.153.291-.306.566-.459.841l-.581,1.376a6.076,6.076,0,0,0-.321,1.131,8.011,8.011,0,0,0-.214,1.636,3.445,3.445,0,0,0,.581,2.125A2.549,2.549,0,0,0,14,62.364a4.625,4.625,0,0,0,3.2-1.33,8.421,8.421,0,0,0,2.018-2.92,16.313,16.313,0,0,0,.612-1.605c.046-.214.092-.428.153-.657l.26-1.452q.046-.321.092-.5c.031-.122.076-.2.168-.2.076-.015.214-.046.382-.076a1.215,1.215,0,0,0,.55-.336,4.114,4.114,0,0,0,.5-.627,7.437,7.437,0,0,1,.413-.627,1.378,1.378,0,0,0,1.33,1.04,1.734,1.734,0,0,0,1.437-.963c.413-.642.734-.963.979-.963a2.517,2.517,0,0,0,.321.031,1.161,1.161,0,0,0,.245-.015,1.363,1.363,0,0,0,.428-.275c.183-.153.306-.26.4-.321a.812.812,0,0,1,.29-.092.516.516,0,0,0,.26-.092c.122-.122.214-.214.29-.275a.821.821,0,0,1,.245-.153c.076-.031.245-.122.489-.245L29.2,49.6c.015-.061.046-.107.061-.168l.336-.367a3.5,3.5,0,0,0,.275-.428,1.44,1.44,0,0,1,.306-.352.488.488,0,0,1,.4-.076,3.715,3.715,0,0,0,.459.061,1.47,1.47,0,0,0,.321-.061.875.875,0,0,0,.474-.428,1.377,1.377,0,0,0,.214-.642,1.281,1.281,0,0,0-.122-.5,4.851,4.851,0,0,0-.245-.489,1.371,1.371,0,0,0-.306-.352c-.122-.092-.183-.138-.214-.122a4.66,4.66,0,0,0-.321.566c-.107.214-.183.352-.214.4a2.162,2.162,0,0,0-.214.245c-.138.168-.275.352-.4.52l-.52.994a4.521,4.521,0,0,1-.367.352v.031c-.015,0-.031.015-.046.015a.575.575,0,0,1-.306-.046,2.921,2.921,0,0,1-.214.321,1.007,1.007,0,0,1-.459.352c-.122.046-.2.031-.26-.046a2.483,2.483,0,0,0-.275.306.77.77,0,0,1-.52.26,3.317,3.317,0,0,1-.581-.046c-.321.229-.627.459-.933.688a1.5,1.5,0,0,1-.871.26,1.386,1.386,0,0,1-1.3-.673,2.279,2.279,0,0,1-.245-1.116l-.138.26-.046-.229Zm35.945-3.685A20.371,20.371,0,0,1,60.924,43.6c.933-.734,1.85-1.483,2.783-2.232.673-.55,1.3-1.116,1.911-1.667.428-.413,1.009-.963,1.712-1.651,1.086-1.04,1.636-1.575,1.636-1.605a.423.423,0,0,1-.046.2,4.088,4.088,0,0,1-.413.917,9.223,9.223,0,0,1-.581.917c-.229.306-.489.612-.749.9q-.413.436-.642.688c-.214.214-.581.55-1.116,1.024-.4.352-.979.856-1.758,1.529-.55.459-1.04.856-1.483,1.193l-1.743,1.33-1.5,1.177c-.214.168-.428.336-.627.489s-.306.214-.336.168a5.753,5.753,0,0,1,.4-.871,2.7,2.7,0,0,1,.5-.719Zm-1.865,7.92c-.015.046-.031.092-.046.153v.168a1.421,1.421,0,0,0,.474,1.238,1.1,1.1,0,0,0,.673.2c.2,0,.382-.229.55-.673.031-.107.061-.214.092-.352s.076-.2.138-.2c.076,0,.107.076.107.214,0,.061-.015.138-.031.26a1.949,1.949,0,0,1-.061.275,6.416,6.416,0,0,1-.719,1.988c-.29.474-.581.7-.887.7a.992.992,0,0,1-.994-.657,4.228,4.228,0,0,1-.275-1.651l.061-.107a8.2,8.2,0,0,1,.076-.9c.046-.428.122-.963.214-1.559a2.29,2.29,0,0,1,.061-.367c.015-.122,0-.168-.061-.168a6.632,6.632,0,0,1-.428.673,6.914,6.914,0,0,1-1.437,1.391,13.94,13.94,0,0,1-2.431,1.407c-.443.214-1.009.443-1.667.688a27.831,27.831,0,0,1-4.893,1.33c-1.529.275-3.134.474-4.785.612q-1.72.138-3.715.138a31.589,31.589,0,0,1-3.654-.168,6.061,6.061,0,0,1-1.193-.275,1.363,1.363,0,0,1-.871-.887,3.426,3.426,0,0,1-.153-1.177c0-.26,0-.474.015-.627s.046-.229.092-.229a3.564,3.564,0,0,1,.443.153,7.506,7.506,0,0,0,.887.26,23.405,23.405,0,0,0,5.718.612c1.789,0,3.654-.092,5.626-.275a32.606,32.606,0,0,0,5.366-.917,25.169,25.169,0,0,0,2.477-.764,14.338,14.338,0,0,0,3.1-1.544,4.694,4.694,0,0,0,1.131-1.04,4.613,4.613,0,0,0,.566-1.07l.367-1.3c.107-.214.229-.489.367-.81a8.553,8.553,0,0,1,.459-.917c.092-.138.153-.183.214-.168a.1.1,0,0,1,.076.107c-.183.871-.382,1.728-.566,2.584a20.389,20.389,0,0,0-.489,3.654Zm2.844-10.947a1.028,1.028,0,0,0-.2-.459,3.955,3.955,0,0,0-.612-.566,1.1,1.1,0,0,1-.168-.107.84.84,0,0,1-.138-.107c-.061.092-.107.153-.138.2-.138.229-.26.459-.4.673-.076.138-.183.382-.321.688-.046.107-.107.245-.2.428a.316.316,0,0,0,.138.214,3,3,0,0,0,.321.275c.122.092.26.214.413.336.153.138.245.2.29.2a.458.458,0,0,0,.275-.168,2.026,2.026,0,0,0,.443-.581,5.276,5.276,0,0,0,.245-.566.793.793,0,0,0,.046-.459Zm2.813,19.264a1.023,1.023,0,0,1-.031.474,3.324,3.324,0,0,1-.245.566,2.258,2.258,0,0,1-.443.581.459.459,0,0,1-.275.168c-.046,0-.138-.061-.29-.2s-.291-.245-.413-.336a2.992,2.992,0,0,1-.321-.275c-.092-.092-.138-.153-.138-.214.092-.183.153-.336.2-.428.138-.321.26-.55.321-.688.138-.214.26-.443.4-.673.031-.046.076-.107.138-.2a.839.839,0,0,0,.138.107c.046.031.107.061.168.107a3.954,3.954,0,0,1,.612.566A1.05,1.05,0,0,1,62.667,61.631Z" transform="translate(0 17.11)" fill="#fff"/>
  </g>
</svg>
