<svg xmlns="http://www.w3.org/2000/svg" width="91.915" height="70.031" viewBox="0 0 91.915 70.031">
  <g id="Mehr-Eghtesad" transform="translate(-2.97 8.326)">
    <path id="Path_2058" data-name="Path 2058" d="M92.4,23.239c4.375-4.3,8.68-8.675,13.055-12.979,1.667,1.591,3.269,3.254,4.911,4.87a11.914,11.914,0,0,1,3.2-2.137c-.005,1.7-.359,3.476.328,5.093a9.053,9.053,0,0,0,2.294,2.849c3.855,3.89,7.755,7.735,11.605,11.635-1.586,1.758-3.4,3.289-4.946,5.078A8.264,8.264,0,0,1,125,40.766c-2.243-.187-4.855-.434-6.608,1.293-4.35,4.264-8.619,8.6-12.949,12.888-1.677-1.6-3.375-3.2-4.911-4.936,4.047-4.178,8.19-8.26,12.287-12.393a6.77,6.77,0,0,1,6.361-1.874,11.289,11.289,0,0,1,3.208,1.41c-3.971-4.163-8.159-8.114-12.181-12.226a6.808,6.808,0,0,1-1.627-6.083,13.867,13.867,0,0,1,1.187-2.93C105.815,19.8,101.935,23.77,98,27.68a6.5,6.5,0,0,1-4.582,1.95,8.173,8.173,0,0,1-7.563-5.168c2.208.192,4.795.465,6.543-1.223M83.05,32.566c1.657-1.6,3.249-3.274,4.916-4.865,4.2,4.1,8.326,8.276,12.494,12.4a6.8,6.8,0,0,1,1.718,6.664,8.488,8.488,0,0,1-4.9,5.482c.081-2.213.465-4.81-1.248-6.553-3.41-3.476-6.886-6.876-10.3-10.352-.889-.935-1.89-1.763-2.683-2.779Z" transform="translate(-56.496 -18.586)" fill="#fff"/>
    <path id="Path_2059" data-name="Path 2059" d="M118.565,40.359a7.353,7.353,0,0,1,5.689,1.207,7.2,7.2,0,1,1-5.689-1.207Z" transform="translate(-71.236 -33.412)" fill="#fff"/>
    <path id="Path_2060" data-name="Path 2060" d="M76.657,82.629a9.856,9.856,0,0,1,2.628.311,1.176,1.176,0,0,1,.858,1.372,4.651,4.651,0,0,1-1.867,2.721c-1.774,1.464-4.492,1.335-5.959,3.231.824.037,2.081-.2,2.436.8A3.163,3.163,0,0,1,73.607,94.1a10.542,10.542,0,0,1-4.1,1.978A9.373,9.373,0,0,0,66.842,97.6c-5.952,3.952-12.628,7.1-19.789,7.937a65,65,0,0,1-10.037.222,19.312,19.312,0,0,1-6.122-1.224c-1.013,1.859-1.7,3.948-3.161,5.523-.521.518-1.213,1.22-2.011.858-.115-.787.536-1.338.98-1.885,1.974-2.118,2.957-4.9,4.362-7.382a1.544,1.544,0,0,1,1.32-.843c1.1.007,2.074.6,3.15.747a48,48,0,0,0,11.512.466,40.364,40.364,0,0,0,15.811-4.41,6.069,6.069,0,0,0,2.676-2.151,38.733,38.733,0,0,1,2.676-4.639,2.214,2.214,0,0,1,1.353-1.006,2.544,2.544,0,0,1,1.567.617,11.291,11.291,0,0,1,4.5-3.59c-.3-.037-.6-.059-.9-.089a12.333,12.333,0,0,1,1.922-4.122m-8.222,9.456a13.564,13.564,0,0,0-2.17,3.652,14.293,14.293,0,0,0,3.116-1.878c.466-.4,1.135-.976.839-1.664a1.065,1.065,0,0,0-1.786-.111m3.135.2a12.116,12.116,0,0,0-2.277,3.183,8.358,8.358,0,0,0,4.077-2.432c.266-.285.41-.828.011-1.068-.554-.484-1.335-.081-1.811.318M88.86,90.7c2.07-1.93,4.011-3.989,6.026-5.967A12.712,12.712,0,0,1,91.5,89.575c-1.889,1.822-3.863,3.549-5.841,5.272A13.369,13.369,0,0,1,83.5,96.525a4.864,4.864,0,0,1,1.538-2.314c1.246-1.2,2.551-2.34,3.826-3.512m-67.554-.6a5.819,5.819,0,0,1,.854-1.168A1.426,1.426,0,0,1,23.287,90c.015.7-.543,1.213-.976,1.686-.388-.27-.754-.562-1.128-.85a4.145,4.145,0,0,1-.924,1.235c-.4-.318-.965-.536-1.161-1.028a6.639,6.639,0,0,1,1.128-1.859c.373.288.728.6,1.079.913m-3.907.965A1.574,1.574,0,0,1,18.6,92.3a2.574,2.574,0,0,1-1.054,1.575c-.347-.274-.684-.555-1.035-.821-.318.384-.506,1.054-1.061,1.128a5.8,5.8,0,0,1-1.1-.843,10.4,10.4,0,0,1,1.1-1.933,5.665,5.665,0,0,1,1.168.887c.262-.407.525-.813.784-1.224m64.977,9.489a8.941,8.941,0,0,1,1.652-3.833c-.274,1.882-.813,3.723-.92,5.626a4.042,4.042,0,0,0,.17,1.915.855.855,0,0,0,1.227.373c.307-.34.477-.78.78-1.127a5.546,5.546,0,0,1-.584,2.521c-.27.536-.713,1.124-1.375,1.116-.617.022-1.024-.566-1.139-1.105a13.526,13.526,0,0,1,.067-3.582,17.207,17.207,0,0,1-2.137,2.351c-2,1.7-4.654,2.307-7.194,2.632a11.56,11.56,0,0,1-4.48-.277,1.729,1.729,0,0,1-.917-1.867,4.214,4.214,0,0,1,.4-2.126,1.816,1.816,0,0,0,1.438,1.782,18.741,18.741,0,0,0,8.351-.643c1.911-.647,3.992-1.708,4.665-3.756m5.808,2.466c.285-2.081.362-4.325,1.556-6.133-.081,2.251-.688,4.469-.64,6.728-.018.662.614,1.42,1.316,1.087.373-.325.536-.828.887-1.179a5.3,5.3,0,0,1-1.076,3.212,1.1,1.1,0,0,1-1.767-.07c-.651-1.094-.347-2.444-.277-3.645M23.173,98.787a3.985,3.985,0,0,1,.957-1.745c-.059,1.286-.185,2.569-.174,3.859a7.664,7.664,0,0,1-.854,3.893,1.722,1.722,0,0,1-.569.573c.081-.795.3-1.575.311-2.377.063-1.4-.192-2.861.329-4.2m-14.979,3.4a11.66,11.66,0,0,1,1.39-4.95c-.018,2.2-.669,4.366-.6,6.573a1.586,1.586,0,0,0,2.007,1.5c.762-.152.895-1.091,1.512-1.434a11.794,11.794,0,0,1,1.224.255c.717-.976,1.194-2.273,2.373-2.784a.836.836,0,0,1,1.2.433,4.1,4.1,0,0,1-.473,2.1,14.271,14.271,0,0,0,2.03-1.867A14.048,14.048,0,0,1,20.282,102c-.011-.359.115-.884-.292-1.079-.451-.037-.965.163-1.371-.1-.44-.477,0-1.087.174-1.578.244-.506.543-1.246,1.227-1.179a2.131,2.131,0,0,1,1.342,2.214,5.538,5.538,0,0,1-1.2,2.854c-.384.514-1.065.1-1.579.255-.532.388-.943.932-1.508,1.275a12.265,12.265,0,0,1-2.654,1.1,3.386,3.386,0,0,1-2.384-.288c-.643.7-1.031,1.811-2.089,1.985a1.625,1.625,0,0,1-1.919-1.246,14.794,14.794,0,0,1,.163-4.018m7.334.274a4.55,4.55,0,0,0-1.261,1.671,3.136,3.136,0,0,0,2.388-1.371,1.18,1.18,0,0,0-1.128-.3m69.864-2.643A4.573,4.573,0,0,1,86.45,97.8a2.387,2.387,0,0,1,1.216,1.235,2.628,2.628,0,0,1-.994,1.63,3.732,3.732,0,0,1-1.279-.839M5.21,100.869a2.76,2.76,0,0,1,1.693,1.9,4.208,4.208,0,0,1-3.933,4.71c.843-.935,2.1-1.482,2.739-2.617-.233-.817-1.054-1.242-1.575-1.856.351-.717.7-1.438,1.076-2.14m83.409,9.46a4.5,4.5,0,0,1,1.2-2.033,3.343,3.343,0,0,1,1.139,1.19,3.629,3.629,0,0,1-.935,1.73,11.478,11.478,0,0,1-1.4-.887Z" transform="translate(0 -49.51)" fill="#fff"/>
  </g>
</svg>
