<svg xmlns="http://www.w3.org/2000/svg" width="61.478" height="74.326" viewBox="0 0 61.478 74.326">
  <g id="Refah" transform="translate(-48.478 -13)">
    <path id="Path_2931" data-name="Path 2931" d="M36.423,15.97a19.927,19.927,0,0,0-4.189,2.255c-6.724,4.833-6.509,13.92.451,18.452a2.444,2.444,0,0,0,1.418.43c5.349-.021,10.719-.021,16.068,0a2.784,2.784,0,0,0,1.59-.494c7.218-4.833,7-14.2-.43-19.054-.924-.6-1.912-1.074-2.878-1.74h13.34a.965.965,0,0,1,.859.473,17.952,17.952,0,0,1,.215,21.416,1.846,1.846,0,0,1-1.654.859Q42.33,38.5,23.427,38.547a1.762,1.762,0,0,1-1.525-.73,16.74,16.74,0,0,1-.473-21.2,1.343,1.343,0,0,1,1.181-.644q6.7,0,13.383-.043A1.156,1.156,0,0,1,36.423,15.97Z" transform="translate(37.412 3.238)" fill="#fff"/>
    <path id="Path_2932" data-name="Path 2932" d="M25.124,35.491c4.79-1.912,7.282-5.585,7.518-11.106.107-2.835-1.2-5.091-2.857-7.2A13.721,13.721,0,0,0,23.32,13H37.6a.968.968,0,0,1,.795.43c4.769,6.337,5.263,14.392,1.1,20.815a2.44,2.44,0,0,1-2.384,1.267C33.072,35.448,29.1,35.491,25.124,35.491Z" transform="translate(43.663 0)" fill="#fff"/>
    <path id="Path_2933" data-name="Path 2933" d="M32.22,38.626a5.831,5.831,0,0,1-5.8-5.864,5.854,5.854,0,1,1,11.707.086A5.836,5.836,0,0,1,32.22,38.626Z" transform="translate(47.222 16.004)" fill="#fff"/>
    <path id="Path_2934" data-name="Path 2934" d="M49.462,44.935c1.976,0,3.952-.064,5.929.021.924.043,1.074-.3,1.053-1.117-.043-2.17,0-4.339-.043-6.509-.021-.644.129-.881.838-.881,1.74.021,1.74,0,1.74,1.761v5.821c0,.924.344,1.246,1.267,1.246S61.427,45,61.427,43.99c0-.258,0-.516-.021-.773-.021-2.17-.021-2.17,2.191-1.955.43.043.537.193.537.58-.021.9.021,1.783-.021,2.685-.021.795-1.031,1.676-2.148,1.847a3.719,3.719,0,0,1-3.33-.709c-.365-.344-.58-.107-.816.064a4.769,4.769,0,0,1-3.222.859c-4.167-.043-8.356-.021-12.523-.021-1.8,0-2.341-.537-2.341-2.3,0-.795.021-1.59,0-2.384-.021-.473.086-.666.623-.687,2.105-.043,2.105-.064,2.105,2.105,0,1.633,0,1.633,1.654,1.633Z" transform="translate(35.77 23.987)" fill="#fff"/>
    <path id="Path_2935" data-name="Path 2935" d="M30.411,46.619c0-3.265.021-6.38-.021-9.495,0-.494.15-.644.644-.666,2.191-.107,2.191-.107,2.191,2.062,0,1.912.043,3.824-.021,5.735-.021.709.279.967.9,1.074a4.886,4.886,0,0,0,2.363-.086c.193-.064.473-.172.387-.451-.064-.236-.322-.107-.494-.107-1.847.043-1.847.043-1.847-1.74-.021-1.633.451-2.234,2.062-2.642a4.568,4.568,0,0,1,.945-.15c2.148-.15,2.32.021,2.3,2.127a13.8,13.8,0,0,0,0,1.633,1.809,1.809,0,0,1-1.2,2.019,5.334,5.334,0,0,1-5.048.172,2.1,2.1,0,0,0-2.341.129A4.937,4.937,0,0,1,30.411,46.619Zm6.595-3.867v-.924c.021-.322-.086-.494-.43-.408s-.859.043-.838.558c.021.666-.215,1.375.172,2,.043.064.236.043.365.043C37.371,44.063,36.9,43.225,37.006,42.753Z" transform="translate(25.048 23.956)" fill="#fff"/>
    <path id="Path_2936" data-name="Path 2936" d="M29.452,39.919c0,1.461-.021,2.835.021,4.21a1.814,1.814,0,0,1-.73,1.568,4.041,4.041,0,0,1-4.726.215,1.1,1.1,0,0,0-1.482-.086c-.387.215-.795.365-1.181.559-.279-.172-.172-.408-.172-.623,0-2.835.021-5.671-.021-8.506,0-.623.172-.816.795-.795,1.847.021,1.847-.021,1.847,1.826v5.735c0,.924.6,1.4,1.74,1.4.924,0,1.31-.387,1.31-1.332v-.58C26.831,41.058,26.917,40.95,29.452,39.919Z" transform="translate(73.113 40.044)" fill="#fff"/>
    <path id="Path_2937" data-name="Path 2937" d="M2,41.975V41.2c0-2.019,0-2.019,2.062-1.826.408.043.559.172.537.58a18.849,18.849,0,0,1-.021,1.912c-.107.795.279,1.16.945,1.418a9.66,9.66,0,0,0,6.638-.021.873.873,0,0,0,.666-.988c-.043-1.138.021-2.3.021-3.437,0-.451.15-.6.6-.623,2.105-.129,2.105-.15,2.105,1.976a6.041,6.041,0,0,0,.021,1.246c.279,1.353-.43,2-1.568,2.513a9.933,9.933,0,0,1-9.194-.064c-.73-.387-1.138.129-1.654.322-1.181.43-1.16.451-1.16-.795V41.975Z" transform="translate(51.116 42.006)" fill="#fff"/>
    <path id="Path_2938" data-name="Path 2938" d="M52.21,46.57V37.011c0-.344.107-.559.494-.516h.086c1.933-.129,1.933-.129,1.933,1.826,0,1.933.021,3.888-.021,5.821-.021.924.516,1.16,1.267,1.16s1.31-.215,1.224-1.16c-.064-.666-.021-1.332-.043-2,0-.15-.064-.365,0-.473.6-.773,1.439-.215,2.148-.365.408-.086.559.129.559.537-.021.924.021,1.847-.021,2.771-.021.709-.988,1.568-2.019,1.761a3.881,3.881,0,0,1-3.437-.666c-.279-.258-.473-.193-.752-.021C53.241,45.947,52.811,46.2,52.21,46.57Z" transform="translate(50.099 23.984)" fill="#fff"/>
    <path id="Path_2939" data-name="Path 2939" d="M11.47,44.744c2-.279,2.213-.537,2.255-2.6,0-.258,0-.516.021-.773.021-2.019.043-2.019,2.084-1.826.43.043.537.193.516.58-.021.838.021,1.654-.021,2.492a1.2,1.2,0,0,0,.9,1.289,3.206,3.206,0,0,0,2.148,0,1.234,1.234,0,0,0,.924-1.289c0-.773.043-1.525-.021-2.3a1.065,1.065,0,0,1,.709-1.181c.623-.3,1.224-.687,1.976-1.117,0,1.783.043,3.437-.021,5.091-.021.43-.494.73-.859.988a5.184,5.184,0,0,1-5.5.172c-.322-.215-.365-.193-.6.129A3.432,3.432,0,0,1,11.47,44.744Z" transform="translate(61.988 41.836)" fill="#fff"/>
    <path id="Path_2940" data-name="Path 2940" d="M9.7,46.6V39.9c0-.859.021-1.718,0-2.578-.021-.537.086-.773.709-.773,1.826,0,1.826-.043,1.826,1.761,0,1.869-.043,3.759.021,5.628a1.445,1.445,0,0,1-.773,1.461A15.336,15.336,0,0,0,9.7,46.6Z" transform="translate(59.955 40.148)" fill="#fff"/>
    <path id="Path_2941" data-name="Path 2941" d="M32.327,41.283v.279c0,2.256,0,2.256-2.3,2.47-2.75.279-2.878.172-2.878-2.535,0-1.869.9-2.771,2.814-2.814C32.284,38.641,32.327,38.684,32.327,41.283Zm-2.814.215h0a5.742,5.742,0,0,0-.021-.859c-.043-.258.193-.623-.172-.752-.279-.107-.559.064-.816.193s-.3.365-.3.644c0,.644,0,1.267-.021,1.912-.021.408.021.687.537.666.451-.021.838-.064.795-.666C29.491,42.25,29.513,41.863,29.513,41.5Z" transform="translate(21.328 26.543)" fill="#fff"/>
    <path id="Path_2942" data-name="Path 2942" d="M17.44,43.957a1.038,1.038,0,0,1,.795-.279c1.611-.215,1.611-.215,1.611-1.869,0-.795.021-1.59-.021-2.384-.021-.516.193-.623.666-.644,2.084-.064,2.084-.086,2.084,1.976v1.332c0,1.418-.322,1.912-1.7,2.32A3.594,3.594,0,0,1,17.44,43.957Z" transform="translate(68.842 42.687)" fill="#fff"/>
    <path id="Path_2943" data-name="Path 2943" d="M35.38,43.033c2.234-.258,2.234-.258,2.213-2.406-.021-2-.021-1.976,2.019-1.955.559,0,.816.129.773.752-.043.666-.021,1.332-.021,2,0,1.633-.58,2.32-2.213,2.578A3.138,3.138,0,0,1,35.38,43.033Z" transform="translate(30.777 26.533)" fill="#fff"/>
    <path id="Path_2944" data-name="Path 2944" d="M21.482,35.78c-.215.623-.816.58-.859.988.193.451.752-.344.795.322.021.365.215.773-.236,1.031-1.826,1.1-3.63,2.191-5.478,3.287a1.425,1.425,0,0,1,.773-1.869c.408-.236,1.59-.193.9-1.289a.244.244,0,0,1,.129-.129C18.8,37.37,20.064,36.618,21.482,35.78ZM20.3,37.133c-.043-.086-.086-.215-.236-.15-.129.064-.279.107-.322.279a.16.16,0,0,0,.193.215A.4.4,0,0,0,20.3,37.133Zm-.967.58c.021-.107-.107-.172-.215-.129a.81.81,0,0,0-.344.258c-.107.129.043.258.15.236A.446.446,0,0,0,19.334,37.713Zm-1.375.945c.172-.064.365-.129.387-.344a.149.149,0,0,0-.215-.172.862.862,0,0,0-.344.279C17.7,38.573,17.851,38.615,17.959,38.658Z" transform="translate(66.734 39.264)" fill="#fff"/>
    <path id="Path_2945" data-name="Path 2945" d="M29.582,36.21a1.373,1.373,0,0,1-.773,1.8c-1.59.881-3.115,1.847-4.661,2.793a1.371,1.371,0,0,1-.193.043c-.279-.859.021-1.375.838-1.8C26.382,38.143,27.95,37.155,29.582,36.21Z" transform="translate(76.204 39.758)" fill="#fff"/>
    <path id="Path_2946" data-name="Path 2946" d="M7.634,39.231a1.6,1.6,0,0,1-1.611,1.633A1.622,1.622,0,0,1,5.98,37.62,1.646,1.646,0,0,1,7.634,39.231Z" transform="translate(53.859 41.377)" fill="#fff"/>
    <path id="Path_2947" data-name="Path 2947" d="M52.6,37.814a1.4,1.4,0,0,1-2.793.107,1.4,1.4,0,1,1,2.793-.107Z" transform="translate(47.343 23.998)" fill="#fff"/>
    <path id="Path_2948" data-name="Path 2948" d="M34.408,36.46A1.456,1.456,0,0,1,35.783,37.9,1.411,1.411,0,0,1,34.3,39.21a1.386,1.386,0,0,1-1.31-1.375A1.437,1.437,0,0,1,34.408,36.46Z" transform="translate(28.033 23.998)" fill="#fff"/>
    <path id="Path_2949" data-name="Path 2949" d="M56.29,42.944a1.376,1.376,0,0,1-1.353,1.418,1.422,1.422,0,0,1-1.4-1.4,1.456,1.456,0,0,1,1.332-1.375A1.362,1.362,0,0,1,56.29,42.944Z" transform="translate(51.626 29.887)" fill="#fff"/>
    <path id="Path_2950" data-name="Path 2950" d="M44.518,39.372a2.724,2.724,0,0,1-.43,0c-.3-.086-.816.236-.838-.279-.021-.451.473-.3.752-.322.344-.021.6-.172.623-.473.086-1.1.795-1.117,1.611-1.031.15.021.322-.021.473,0,.215.043.58-.172.623.215.021.408-.344.408-.623.387-.387-.021-.752.064-.795.494C45.828,39.393,45.227,39.522,44.518,39.372Z" transform="translate(39.812 24.889)" fill="#fff"/>
  </g>
</svg>
