<svg xmlns="http://www.w3.org/2000/svg" width="74.128" height="79.356" viewBox="0 0 74.128 79.356">
  <g id="Saderat" transform="translate(-5.82 -4.333)">
    <g id="Group_1252" data-name="Group 1252" transform="translate(16.834 4.333)">
      <g id="Group_1251" data-name="Group 1251">
        <path id="Path_2372" data-name="Path 2372" d="M38.763,57.9H56.151V13.4C50.066-1.067,28.471,4.729,26.93,10.606c5.346-3,9.778-3.612,11.833,1.156Z" transform="translate(-4.051 -4.333)" fill="#fff"/>
        <path id="Path_2373" data-name="Path 2373" d="M30.068,4.34H12.68V48.829C18.765,63.3,40.359,57.5,41.9,51.623c-5.346,3-9.778,3.612-11.833-1.156V4.34Z" transform="translate(-12.68 -4.33)" fill="#fff"/>
      </g>
      <circle id="Ellipse_96" data-name="Ellipse 96" cx="8.525" cy="8.525" r="8.525" transform="matrix(0.378, -0.926, 0.926, 0.378, 14.936, 31.45)" fill="#fff"/>
    </g>
    <g id="Group_1253" data-name="Group 1253" transform="translate(5.82 61.003)">
      <path id="Path_2374" data-name="Path 2374" d="M48.241,48.54v.273a1.23,1.23,0,0,0,.4,1.06.978.978,0,0,0,.578.161c.177,0,.321-.193.466-.578.032-.08.048-.193.08-.289.032-.112.064-.161.112-.161q.1,0,.1.193a1.84,1.84,0,0,1-.032.225q-.024.144-.048.241a5.882,5.882,0,0,1-.61,1.7c-.241.4-.5.594-.755.594a.835.835,0,0,1-.835-.562,3.885,3.885,0,0,1-.225-1.413Z" transform="translate(19.401 -34.235)" fill="#fff"/>
      <path id="Path_2375" data-name="Path 2375" d="M49.192,53.154a.7.7,0,0,1-.032.4,2.915,2.915,0,0,1-.209.482,2.188,2.188,0,0,1-.385.5.394.394,0,0,1-.241.145.739.739,0,0,1-.257-.161c-.128-.112-.241-.209-.353-.289s-.193-.161-.273-.225c-.08-.08-.112-.128-.112-.193.08-.161.128-.289.161-.369.128-.273.209-.466.273-.594.112-.193.225-.369.337-.578.032-.032.064-.1.112-.161.032.032.08.064.112.1s.08.048.145.1a3.142,3.142,0,0,1,.514.482A.516.516,0,0,1,49.192,53.154Z" transform="translate(19.316 -32.073)" fill="#fff"/>
      <path id="Path_2376" data-name="Path 2376" d="M48.251,50.405c-.1.321-.193.642-.289.947-.128.337-.289.5-.482.5,0-.145.064-.787.209-1.943.128-1.14.241-2.023.337-2.617.016-.048.112-.305.289-.755.193-.45.337-.8.45-1.044.032-.016.048-.032.08-.032a1,1,0,0,1-.016.289l-.08.482-.321,2.264c-.064.45-.112.851-.128,1.188A4.764,4.764,0,0,0,48.251,50.405Z" transform="translate(19.407 -36.1)" fill="#fff"/>
      <path id="Path_2377" data-name="Path 2377" d="M46.011,48.54v.273a1.23,1.23,0,0,0,.4,1.06.978.978,0,0,0,.578.161c.177,0,.321-.193.466-.578.032-.08.048-.193.08-.289.032-.112.064-.161.112-.161q.1,0,.1.193a1.842,1.842,0,0,1-.032.225q-.024.144-.048.241a5.882,5.882,0,0,1-.61,1.7c-.241.4-.5.594-.755.594a.835.835,0,0,1-.835-.562,3.885,3.885,0,0,1-.225-1.413Z" transform="translate(18.05 -34.235)" fill="#fff"/>
      <path id="Path_2378" data-name="Path 2378" d="M47.162,43.434a.7.7,0,0,1-.032.4,2.914,2.914,0,0,1-.209.482,2.188,2.188,0,0,1-.385.5.394.394,0,0,1-.241.145.739.739,0,0,1-.257-.161c-.128-.112-.241-.209-.353-.289s-.193-.161-.273-.225c-.08-.08-.112-.128-.112-.193.08-.161.128-.289.161-.369.128-.273.209-.466.273-.594.112-.193.225-.369.337-.578.032-.032.064-.1.112-.161.032.032.08.064.112.1s.08.048.145.1a3.143,3.143,0,0,1,.514.482A.578.578,0,0,1,47.162,43.434Z" transform="translate(18.087 -37.959)" fill="#fff"/>
      <path id="Path_2379" data-name="Path 2379" d="M50.322,50.6c-.032.144-.08.305-.112.466a2.442,2.442,0,0,1-.177.514,1.345,1.345,0,0,1-.273.4c-.1.08-.177.112-.225.08a7.478,7.478,0,0,1,.064-.979c.048-.369.064-.594.08-.706l.016-.209a.12.12,0,0,0-.016-.08c-.016-.016-.032,0-.08.032q-.072.1-.241.337c-.241.321-.4.562-.514.706a7.23,7.23,0,0,1-1.381,1.317,8,8,0,0,1-1.782.963,13.6,13.6,0,0,1-2.135.594,12.575,12.575,0,0,1-2.489.257h-.273a7.172,7.172,0,0,1-1.3-.1,1.686,1.686,0,0,1-1.076-.5,1.588,1.588,0,0,1-.289-1.044,10.609,10.609,0,0,1,.08-1.22c.048-.417.128-.626.225-.626.032,0,.064.112.08.353a1.1,1.1,0,0,0,.273.642,3.49,3.49,0,0,0,2.424.562q1.06,0,1.686-.048a11.1,11.1,0,0,0,4.961-1.461,4.454,4.454,0,0,0,1.429-1.284,4.632,4.632,0,0,0,.61-1.365l.257-1.06a8.849,8.849,0,0,1,.4-.947c.161-.337.273-.546.321-.642a.979.979,0,0,1,.193-.257v.273a6.213,6.213,0,0,0-.128.626l-.385,1.943c-.08.53-.128,1.011-.161,1.461A9.591,9.591,0,0,0,50.322,50.6Z" transform="translate(13.739 -36.197)" fill="#fff"/>
      <path id="Path_2380" data-name="Path 2380" d="M46.941,47.272a21.624,21.624,0,0,1,1.734-1.525c.787-.626,1.573-1.268,2.376-1.911.562-.466,1.108-.947,1.622-1.429.369-.353.851-.819,1.461-1.413.931-.883,1.381-1.349,1.381-1.365a.475.475,0,0,1-.032.161,2.939,2.939,0,0,1-.353.771,5.412,5.412,0,0,1-.5.771c-.193.257-.417.514-.642.771s-.417.45-.546.578c-.193.193-.5.482-.947.867q-.506.433-1.493,1.3-.7.6-1.252,1.011c-.5.385-1,.755-1.477,1.124l-1.284,1c-.193.145-.353.289-.53.417q-.241.193-.289.145a2.914,2.914,0,0,1,.771-1.268Z" transform="translate(18.613 -39.63)" fill="#fff"/>
      <path id="Path_2381" data-name="Path 2381" d="M33.4,49.1a2,2,0,0,0,.257,1.14,1.114,1.114,0,0,0,.963.53,1.309,1.309,0,0,0,.594-.112,1.184,1.184,0,0,0,.433-.417,3.917,3.917,0,0,1,.273-.4c.161-.209.321-.305.466-.273q.169.072.385.144a.543.543,0,0,0,.353.016,2.682,2.682,0,0,0,.385-.578c.128-.209.257-.434.385-.642a4.686,4.686,0,0,1,.69-.771,1.083,1.083,0,0,1,.674-.321c.466,0,.706.209.706.626a3.168,3.168,0,0,1-.819,1.975,2.6,2.6,0,0,1-2.071,1.14,1.915,1.915,0,0,1-.755-.112c-.177-.08-.321-.145-.433-.209-.048-.016-.128.048-.225.193a4.647,4.647,0,0,0-.353.546,2.553,2.553,0,0,1-.594.706,1.272,1.272,0,0,1-.787.209,1.072,1.072,0,0,1-1-.562,2.812,2.812,0,0,1-.305-1.4,6.981,6.981,0,0,1,.321-.755c.144-.225.289-.45.45-.674Zm5.973-.433c0-.1-.064-.177-.209-.241a.921.921,0,0,0-.4-.1c-.193,0-.433.177-.69.514l-.562.867a1.333,1.333,0,0,0,.5-.016,1.5,1.5,0,0,0,.578-.225,2.645,2.645,0,0,0,.514-.45C39.293,48.839,39.373,48.727,39.373,48.662Z" transform="translate(10.414 -34.919)" fill="#fff"/>
      <path id="Path_2382" data-name="Path 2382" d="M33.391,50.405c-.1.321-.193.642-.289.947-.128.337-.289.5-.482.5,0-.145.064-.787.209-1.943.128-1.14.241-2.023.337-2.617.016-.048.112-.305.289-.755.193-.45.337-.8.45-1.044.032-.016.048-.032.08-.032a1,1,0,0,1-.016.289l-.08.482-.321,2.264c-.064.45-.112.851-.128,1.188A4.763,4.763,0,0,0,33.391,50.405Z" transform="translate(10.408 -36.1)" fill="#fff"/>
      <path id="Path_2383" data-name="Path 2383" d="M30.918,49.9l-.321.867a5.281,5.281,0,0,1-.321.61,2.531,2.531,0,0,1-.289.433,2.758,2.758,0,0,1-.433.433,5.959,5.959,0,0,1-.578.385,8.13,8.13,0,0,1-.739.385,2.889,2.889,0,0,1-.578.209.239.239,0,0,1-.144.032H27.37c.016-.048.032-.1.048-.161a.975.975,0,0,1,.112-.161q.072-.072.337-.289c.177-.144.337-.273.482-.369l1.011-.883c.305-.289.482-.45.5-.482.1-.112.209-.257.353-.45l.385-.69c.161-.241.273-.369.321-.369.032,0,.048.064.032.193a.663.663,0,0,1-.032.305Zm1.06-1.317a.2.2,0,0,1,.016-.1,2.406,2.406,0,0,1,.193-.433l.5-1.092c.016-.016.048-.08.128-.209a.371.371,0,0,1,.08-.112,1.216,1.216,0,0,0,.209.161,2.463,2.463,0,0,1,.353.337,1.628,1.628,0,0,1,.4.578,1.669,1.669,0,0,1,.225.69q.048.361.048.433a4.891,4.891,0,0,1-.1.867,4.711,4.711,0,0,1-.353,1.044,4.946,4.946,0,0,1-1.108,1.573c-.177.128-.305.225-.4.289a2.421,2.421,0,0,1-.5.289q-.313.217-.433.145l.016-.161a2.141,2.141,0,0,1,.289-.369c.1-.112.193-.209.273-.289l.578-.594.385-.514a3.349,3.349,0,0,0,.225-.482,1.334,1.334,0,0,0,.1-.45.966.966,0,0,0-.112-.433,3.39,3.39,0,0,0-.289-.433c-.128-.144-.225-.241-.289-.321-.08-.064-.144-.128-.225-.193a1.013,1.013,0,0,0-.161-.112A.213.213,0,0,1,31.978,48.583Z" transform="translate(7.229 -35.385)" fill="#fff"/>
      <path id="Path_2384" data-name="Path 2384" d="M28.244,46.475A2.9,2.9,0,0,1,28.4,46.2a.512.512,0,0,1,.1-.112.37.37,0,0,1,.048.145l-.1.626L28.34,47.9l-.209,1.654a7.158,7.158,0,0,1-.177.915,6.419,6.419,0,0,1-.273.771l-.433.883c-.193.321-.321.53-.4.642s-.144.161-.209.161L26.59,52.8c.1-.337.193-.658.273-.979s.144-.562.193-.739a13.513,13.513,0,0,0,.257-1.509c.048-.434.1-.835.128-1.172l.209-.578Z" transform="translate(6.757 -35.718)" fill="#fff"/>
      <path id="Path_2385" data-name="Path 2385" d="M21.031,50.1a6.642,6.642,0,0,0,1.092.161c.353.016.755.032,1.188.032.514,0,1.092-.032,1.734-.08a13.444,13.444,0,0,0,1.846-.273,8.048,8.048,0,0,0,1.589-.5,4.113,4.113,0,0,0,1.108-.642,1.5,1.5,0,0,0,.273-.289c.016-.016.064-.1.161-.241s.161-.225.193-.225a.629.629,0,0,1,.048.209,3.982,3.982,0,0,1-.241.771,6.2,6.2,0,0,1-.514,1,2.9,2.9,0,0,1-.626.626,6.9,6.9,0,0,1-1.188.642,11.4,11.4,0,0,1-1.252.433,14.25,14.25,0,0,1-2.071.4,16.664,16.664,0,0,1-1.975.112,11.412,11.412,0,0,1-1.7-.1,2.3,2.3,0,0,1-1.365-.578,1.2,1.2,0,0,1-.369-.915A4.022,4.022,0,0,1,19.024,50c.048-.273.1-.562.144-.835a3.444,3.444,0,0,1,.128-.546c.032-.08.08-.128.145-.128s.1.048.112.161.032.273.048.5.193.434.53.626A2.536,2.536,0,0,0,21.031,50.1Z" transform="translate(2.137 -34.537)" fill="#fff"/>
      <path id="Path_2386" data-name="Path 2386" d="M22.922,47.526a.7.7,0,0,1-.032.4,2.914,2.914,0,0,1-.209.482,2.188,2.188,0,0,1-.385.5.394.394,0,0,1-.241.145.739.739,0,0,1-.257-.161c-.128-.112-.241-.209-.353-.289s-.193-.161-.273-.225c-.08-.08-.112-.128-.112-.193.08-.161.128-.289.161-.369.128-.273.209-.466.273-.594.112-.193.225-.369.337-.578.032-.032.064-.1.112-.161.032.032.08.064.112.1s.08.048.144.1a3.142,3.142,0,0,1,.514.482.516.516,0,0,1,.209.369Zm1.911-.112a.7.7,0,0,1-.032.4,2.915,2.915,0,0,1-.209.482,2.188,2.188,0,0,1-.385.5.394.394,0,0,1-.241.145.739.739,0,0,1-.257-.161c-.128-.112-.241-.209-.353-.289s-.193-.161-.273-.225c-.08-.08-.112-.128-.112-.193.08-.161.128-.289.161-.369.128-.273.209-.466.273-.594.112-.193.225-.369.337-.578.032-.032.064-.1.112-.161.032.032.08.064.112.1s.08.048.144.1a3.142,3.142,0,0,1,.514.482A.516.516,0,0,1,24.833,47.414Z" transform="translate(3.408 -35.549)" fill="#fff"/>
      <path id="Path_2387" data-name="Path 2387" d="M18.114,46.475a2.9,2.9,0,0,1,.161-.273.512.512,0,0,1,.1-.112.37.37,0,0,1,.048.145l-.1.626L18.21,47.9,18,49.558a7.157,7.157,0,0,1-.177.915,6.419,6.419,0,0,1-.273.771l-.433.883c-.193.321-.321.53-.4.642s-.144.161-.209.161L16.46,52.8c.1-.337.193-.658.273-.979s.144-.562.193-.739a13.514,13.514,0,0,0,.257-1.509c.048-.434.1-.835.128-1.172l.209-.578Z" transform="translate(0.623 -35.718)" fill="#fff"/>
      <path id="Path_2388" data-name="Path 2388" d="M18.371,47.286c-.289,1.076-.642,1.7-1.011,1.895l-.706.353a1.946,1.946,0,0,0-.257.161.968.968,0,0,0-.225.209,3.7,3.7,0,0,0-.353.642c-.209.546-.369.931-.482,1.172a1.694,1.694,0,0,1-.883.883,3.869,3.869,0,0,1-.739.193,4.726,4.726,0,0,1-.755.1.277.277,0,0,1-.289-.112c-.016-.048.048-.128.193-.225a5.134,5.134,0,0,1,.5-.353c.032-.032.241-.161.642-.433a3.717,3.717,0,0,1,.45-.289,4.611,4.611,0,0,0,.722-.642,9.1,9.1,0,0,0,.433-.915,6.516,6.516,0,0,1,.562-1.076,2.142,2.142,0,0,1,.594-.514c.048-.032.225-.112.53-.273a4.009,4.009,0,0,0,.466-.273,2.5,2.5,0,0,0,.337-.466c.128-.241.225-.353.273-.337C18.419,46.965,18.435,47.077,18.371,47.286Z" transform="translate(-1.673 -35.18)" fill="#fff"/>
      <path id="Path_2389" data-name="Path 2389" d="M15.422,53.246a.7.7,0,0,1-.032.4,2.915,2.915,0,0,1-.209.482,2.188,2.188,0,0,1-.385.5.394.394,0,0,1-.241.145.739.739,0,0,1-.257-.161c-.128-.112-.241-.209-.353-.289s-.193-.161-.273-.225c-.08-.08-.112-.128-.112-.193.08-.161.128-.289.161-.369.128-.273.209-.466.273-.594.112-.193.225-.369.337-.578.032-.032.064-.1.112-.161.032.032.08.064.112.1s.08.048.144.1a3.142,3.142,0,0,1,.514.482.578.578,0,0,1,.209.369Zm1.895-.112a.7.7,0,0,1-.032.4,2.914,2.914,0,0,1-.209.482,2.188,2.188,0,0,1-.385.5.394.394,0,0,1-.241.144.739.739,0,0,1-.257-.161c-.128-.112-.241-.209-.353-.289s-.193-.161-.273-.225c-.08-.08-.112-.128-.112-.193.08-.161.128-.289.161-.369.128-.273.209-.466.273-.594.112-.193.225-.369.337-.578.032-.032.064-.1.112-.161.032.032.08.064.112.1s.08.048.144.1a3.142,3.142,0,0,1,.514.482A.516.516,0,0,1,17.317,53.134Z" transform="translate(-1.133 -32.085)" fill="#fff"/>
      <path id="Path_2390" data-name="Path 2390" d="M13.284,46.475a2.9,2.9,0,0,1,.161-.273.512.512,0,0,1,.1-.112.37.37,0,0,1,.048.145l-.1.626L13.38,47.9l-.209,1.654a7.157,7.157,0,0,1-.177.915,6.418,6.418,0,0,1-.273.771l-.433.883c-.193.321-.321.53-.4.642s-.145.161-.209.161L11.63,52.8c.1-.337.193-.658.273-.979s.144-.562.193-.739a13.513,13.513,0,0,0,.257-1.509c.048-.434.1-.835.128-1.172l.209-.578Z" transform="translate(-2.302 -35.718)" fill="#fff"/>
      <path id="Path_2391" data-name="Path 2391" d="M13.35,51.423c-.064.257-.112.466-.144.594a3.059,3.059,0,0,1-.144.466,6.213,6.213,0,0,1-.578,1.317,6.933,6.933,0,0,1-.835,1.268,5.515,5.515,0,0,1-1.573,1.349,3.787,3.787,0,0,1-1.846.45,2.209,2.209,0,0,1-1.782-.722,2.751,2.751,0,0,1-.626-1.862,5.742,5.742,0,0,1,.144-1.236,7.318,7.318,0,0,1,.321-1.108c.112-.289.257-.594.417-.915.209-.417.433-.851.69-1.284a2.122,2.122,0,0,1,.177-.289c.016-.016.048-.016.1-.016.032.016.032.08.016.209a1.619,1.619,0,0,1-.064.321l-.61,1.333c-.161.4-.273.69-.321.835a2.923,2.923,0,0,0-.128.835A1.732,1.732,0,0,0,7.3,54.538a2.528,2.528,0,0,0,1.413.369,5.352,5.352,0,0,0,1.076-.1,3.436,3.436,0,0,0,.979-.385,3.439,3.439,0,0,0,.931-.739,5.509,5.509,0,0,0,.642-.851,4.506,4.506,0,0,0,.337-.69,2.3,2.3,0,0,0,.112-.8l.032-1.333a2.34,2.34,0,0,1,.08-.61,6.178,6.178,0,0,1,.241-.706l.369-.722c.08-.128.112-.225.144-.257a1.089,1.089,0,0,1,.1-.144.315.315,0,0,1,.08.241l-.1.642-.1.931a5.607,5.607,0,0,1-.064.947c-.064.273-.128.642-.225,1.092Zm-2.376-.963a.8.8,0,0,0-.161-.385,3.515,3.515,0,0,0-.53-.466,1.751,1.751,0,0,0-.177-.1c-.064-.032-.145-.064-.209-.1a.857.857,0,0,1-.112.161c-.1.144-.209.337-.353.578L9,51.118a.33.33,0,0,0,.177.225c.112.064.225.145.337.209.016.016.161.128.45.337a.47.47,0,0,0,.161.1c.128-.032.353-.241.642-.674a1.154,1.154,0,0,0,.225-.642A.725.725,0,0,0,10.974,50.46Z" transform="translate(-5.82 -34.822)" fill="#fff"/>
    </g>
  </g>
</svg>
