<svg xmlns="http://www.w3.org/2000/svg" width="108.75" height="72.489" viewBox="0 0 108.75 72.489">
  <g id="SanatVaMadan" transform="translate(-7.509 5.267)">
    <path id="Path_2435" data-name="Path 2435" d="M78.593,3.97H93.1V57.512H39.56V3.97H54.069L66.331,16.232,78.593,3.97ZM51.54,10.11H45.7V51.389H86.979V10.11h-5.84L70.673,20.575l4.043,4.043H86.979l-6.123,6.123H72.188l-5.84-5.84-5.84,5.84-4.326-4.326,5.84-5.84L51.54,10.11Zm14.791,35.14L76.513,35.067l-4.326-4.326-5.84,5.84-5.84-5.84H51.839l-6.123,6.123H57.979Z" transform="translate(-3.146 -9.237)" fill="#fff"/>
    <path id="Path_2436" data-name="Path 2436" d="M114.131,51.593h-2.039c-1.517,0-2.514-.7-2.514-2.294V42.952h2V49.01c0,.429.093.718.579.718h1.645c.475,0,.614-.22.614-.672V47.041h1.969v2.108c0,1.494-.683,2.444-2.259,2.444ZM98.1,47.029v-1.8l2.27-2.294h2.4l-2.236,2.294h.012a4.068,4.068,0,0,1,1.367.371,2.566,2.566,0,0,1,1.089.95,2.6,2.6,0,0,1,.382,1.39v1.772h2.224c.475,0,.614-.22.614-.672V47.029H108.2v2.328a2.107,2.107,0,0,1-2.27,2.236H93.222a2.6,2.6,0,0,1-2.027-.857,3.449,3.449,0,0,1-.765-2.294,3.98,3.98,0,0,1,.626-2.131l.035-.07H93c-1.066.927-1.193,3.487.394,3.487h8V48.187a.935.935,0,0,0-.44-.846,2.671,2.671,0,0,0-1.413-.3L98.1,47.029Zm-51.78,3.093c0,2.931-2.317,3.846-4.993,3.892V52.265c.3-.012,2.479-.116,2.919-1.077a3.352,3.352,0,0,1-1.587.023c-2.143-.637-2.27-4.622.162-5.792a3.48,3.48,0,0,1,1.135-.185h1.656a.7.7,0,0,1,.707.707v4.182Zm-2.224-3.406a1.416,1.416,0,0,0-.579.093,1.044,1.044,0,0,0-.371.266,1.537,1.537,0,0,0-.348.683c-.174.683-.151,1.935.8,1.958a2.319,2.319,0,0,0,.741-.127V46.96a.258.258,0,0,0-.243-.243Zm30.257-2.8A1.147,1.147,0,1,1,73.2,45.06a1.142,1.142,0,0,1,1.147-1.147Zm38.829,8.4a1.147,1.147,0,1,1-1.147,1.147,1.142,1.142,0,0,1,1.147-1.147Zm-5.977-8.4a1.147,1.147,0,1,0,1.147,1.147,1.142,1.142,0,0,0-1.147-1.147ZM11.8,45.234a1.147,1.147,0,1,1-1.147,1.147A1.142,1.142,0,0,1,11.8,45.234Zm73.894,3.139a1.256,1.256,0,0,0-.093-.487.869.869,0,0,0-.278-.336,1.377,1.377,0,0,0-.371-.174c-1.552-.5-2.85.51-3.753,1.668-.012-.012-.429.6-.463.66H85.7V48.373ZM65.814,49.717h-3.2c-.487,0-.591-.278-.591-.718V47.029H60.046V49c0,.429-.151.718-.614.718H52.006c-1.622,0-1.425-2.456-.533-3.475h-1.83a4.678,4.678,0,0,0-.44,1,3.894,3.894,0,0,0-.162,1.135,3.574,3.574,0,0,0,.776,2.352,2.572,2.572,0,0,0,2.039.88h7.923a2.848,2.848,0,0,0,.7-.081,1.931,1.931,0,0,0,.579-.243,2.193,2.193,0,0,0,.591.243,2.876,2.876,0,0,0,.707.081c.5,0,.776,0,1.193.012.973.012,1.958.023,2.919-.012H66.5a2.229,2.229,0,0,0,1.239-.29,3.66,3.66,0,0,0,.6.2,2.959,2.959,0,0,0,.707.093h4.066a2.291,2.291,0,0,0,.7-.093,2.439,2.439,0,0,0,.544-.22,1.991,1.991,0,0,0,.544.22,3.15,3.15,0,0,0,.73.093h9c1.842-.058,2.989-.8,3.081-2.56V48.2a2.4,2.4,0,0,0-.95-1.969,4.266,4.266,0,0,0-2.548-.753c-1.946,0-3.765,1.633-4.923,3.07V47.052H77.306v1.83h0a1.424,1.424,0,0,1-.093.637c-.069.127-.22.209-.5.209h-.776a.557.557,0,0,1-.463-.162.811.811,0,0,1-.127-.51V47.041H73.356v2.016c0,.44-.127.672-.6.672h-3.22l.023-.012c.452-.44.9-.869,1.4-1.274L71,48.408V48.35a2.189,2.189,0,0,0-.266-1.031,2.511,2.511,0,0,0-.718-.776,3.753,3.753,0,0,0-2.039-.73,4.052,4.052,0,0,0-2.178.463,2.842,2.842,0,0,0-1.043.9,2.037,2.037,0,0,0-.359,1.182v.058l.266.243c.382.336.765.7,1.147,1.054Zm3.243-1.772-1.378,1.3c-.336-.313-.672-.637-1.008-.95-.116-.116-.232-.232-.348-.336a.661.661,0,0,1,.151-.162,1.5,1.5,0,0,1,.359-.22,2.245,2.245,0,0,1,.9-.151,2.461,2.461,0,0,1,.9.185.952.952,0,0,1,.29.185h0a.387.387,0,0,1,.127.151ZM35.777,46.728a1.168,1.168,0,0,0-1.228.8,2.4,2.4,0,0,0,.035,1.726c.2.44.591.544,1.436.313V46.983a.236.236,0,0,0-.07-.174.162.162,0,0,0-.174-.081ZM25.305,49.705l-1.147-1.077-.232-.22-.035-.035v-.046a2.125,2.125,0,0,1,.359-1.182,3.042,3.042,0,0,1,1.043-.9,4.137,4.137,0,0,1,2.178-.463,3.787,3.787,0,0,1,2.039.73,2.645,2.645,0,0,1,.718.776,2.189,2.189,0,0,1,.266,1.031v.058l-.046.035c-.5.405-.95.834-1.4,1.274l-.012.012h4.112a3.007,3.007,0,0,1,1.031-4.159,3.215,3.215,0,0,1,1.564-.313h1.541a.712.712,0,0,1,.707.707V48.94a1.4,1.4,0,0,1-.012.22,2.286,2.286,0,0,1-.834,1.749,3.856,3.856,0,0,1-2.421.66H28.537a2.959,2.959,0,0,1-.707-.093c-.209-.058-.417-.127-.614-.2a2.7,2.7,0,0,1-.8.266,6.515,6.515,0,0,1-.846.035H17.313V49.7h3.232l.012-1.286h0a1.044,1.044,0,0,0-.9-1.054h-1V45.384c1.8.012,3.243.255,3.765,2.2a4.012,4.012,0,0,1,.139,1.066V49.7Zm3.267-1.761a.743.743,0,0,0-.116-.151h0a.951.951,0,0,0-.29-.185,2.516,2.516,0,0,0-1.807-.035,1.5,1.5,0,0,0-.359.22.661.661,0,0,0-.151.162c.116.116.232.22.348.336.336.324.66.637,1.008.95l1.367-1.3ZM15.946,50.319V46.241H13.976L13.965,49.6c-.012,3.6-4.344,3.209-4.344.371V47.377H7.64v2.641c0,5.6,7.935,5.352,8.306.3Zm41.019-6.545a1.147,1.147,0,1,1-1.147,1.147,1.142,1.142,0,0,1,1.147-1.147Zm-2.467,0a1.147,1.147,0,1,1-1.147,1.147A1.142,1.142,0,0,1,54.5,43.774Z" transform="translate(-0.131 12.617)" fill="#fff"/>
  </g>
</svg>
