<svg xmlns="http://www.w3.org/2000/svg" width="89.046" height="95.819" viewBox="0 0 89.046 95.819">
  <g id="Sarmaye" transform="translate(-5.865 -3)">
    <path id="Path_2968" data-name="Path 2968" d="M54.485,23.765c0,2.987-.038,5.975.019,8.943.019.921-.207,1.184-1.165,1.184a56.583,56.583,0,0,0-20.93,3.889c-6.82,2.687-12.569,6.764-16.59,13.039a36.574,36.574,0,0,0-2.255,4.171c-.263-.488,0-.845.019-1.221.207-3.025.395-6.069.62-9.093.207-2.875.658-5.73.658-8.586a7.748,7.748,0,0,1,2.067-5.035A43.163,43.163,0,0,1,25.1,23.2a44.567,44.567,0,0,1,22.508-8.116,39.993,39.993,0,0,1,5.805-.207c.752.038,1.108.244,1.071,1.146C54.428,18.6,54.485,21.172,54.485,23.765Z" transform="translate(6.664 10.404)" fill="#e4e4e4"/>
    <path id="Path_2969" data-name="Path 2969" d="M49.052,34.169c0-2.593-.056-5.185.019-7.759.019-.9-.319-1.108-1.071-1.146a42.626,42.626,0,0,0-5.805.207A46.066,46.066,0,0,0,28.4,28.758a47.007,47.007,0,0,0-8.718,4.829c-.019-3.138-.019-6.294-.056-9.432,0-.564.15-.7.7-.7a52.393,52.393,0,0,0,7.083-.188c10.39-1.127,19.746-4.49,26.98-12.438A40.24,40.24,0,0,0,59.78,3v.808C59.78,9.9,59.8,16,59.8,22.089a1.453,1.453,0,0,1-.207.921A48.741,48.741,0,0,1,49.052,34.169Z" transform="translate(12.097)" fill="#fff"/>
    <path id="Path_2970" data-name="Path 2970" d="M33.807,44.866A9.178,9.178,0,1,1,43.089,35.7,9.145,9.145,0,0,1,33.807,44.866Z" transform="translate(16.482 20.661)" fill="#fff"/>
    <path id="Path_2971" data-name="Path 2971" d="M63.55,40.69a4.666,4.666,0,0,1-2.987,3.288,20.594,20.594,0,0,0-4.829,3.213,56.269,56.269,0,0,1-16.176,8.83A40.558,40.558,0,0,1,21.07,57.674a10.463,10.463,0,0,1-2.705-.714c-.526-.244-.808-.075-1.052.413a18.3,18.3,0,0,1-2.067,3.7,3.645,3.645,0,0,1-1.522,1.184.877.877,0,0,1-1-.169c-.319-.3-.038-.639.132-.864a16.768,16.768,0,0,1,1.2-1.39,25.346,25.346,0,0,0,3.288-5.129c.714-1.372,1.334-1.672,2.837-1.24,5.2,1.484,10.446,1.127,15.688.3,7.534-1.184,14.053-4.716,20.235-9a39.632,39.632,0,0,1,5.524-3.4A4.936,4.936,0,0,1,63.55,40.69Z" transform="translate(5.904 33.122)" fill="#fff"/>
    <path id="Path_2972" data-name="Path 2972" d="M33.487,51.821c.15.225.225.3.244.395.357,1.841,1.691,2.217,3.307,2.292,4.378.188,8.642-.188,12.55-2.461a7.155,7.155,0,0,0,3.626-5,12.869,12.869,0,0,1,1.822-4.359A8.586,8.586,0,0,1,54.624,46a29.583,29.583,0,0,0-.639,6.162,1.861,1.861,0,0,0,.789,1.766c.582.357,1.071.376,1.39-.376a2.46,2.46,0,0,1,.545-1.108c.376,1.108-.582,4.133-1.5,4.791a1.552,1.552,0,0,1-2.367-.977,9.453,9.453,0,0,1-.15-4.227c.038-.282.094-.564.15-.939a1.518,1.518,0,0,0-.789.733c-2.424,3.682-6.125,5.2-10.277,5.862a17.707,17.707,0,0,1-6.745.019,2.109,2.109,0,0,1-1.9-2.386c0-.845.019-1.691.056-2.518A3.455,3.455,0,0,1,33.487,51.821Z" transform="translate(23.96 34.879)" fill="#fff"/>
    <path id="Path_2973" data-name="Path 2973" d="M13.342,41.98c.019,2.161-.545,4.152-.714,6.162a16.66,16.66,0,0,0-.132,3.87,2.018,2.018,0,0,0,.338.883c.413.545.827.488,1.127-.132a3.241,3.241,0,0,1,.188-.451c.207-.244.056-.845.582-.7a1.017,1.017,0,0,1,.733.939,5.014,5.014,0,0,1-.62,2.987A2.182,2.182,0,0,1,12.779,56.9c-.789-.056-1.635-1.108-1.785-2.085a17.9,17.9,0,0,1,.225-5.11c.3-2.33.395-4.7,1.5-6.858.113-.225.225-.47.338-.7A1.06,1.06,0,0,0,13.342,41.98Z" transform="translate(4.406 34.256)" fill="#fff"/>
    <path id="Path_2974" data-name="Path 2974" d="M44.83,49.842a6.026,6.026,0,0,1,2.085-3.175c3.72-3.213,7.741-6.087,11.179-9.619a29.626,29.626,0,0,1,2.574-2.518,6.09,6.09,0,0,1-1.6,3.307,55.747,55.747,0,0,1-8.511,7.647c-1.6,1.259-3.213,2.5-4.829,3.758C45.525,49.391,45.281,49.542,44.83,49.842Z" transform="translate(34.243 27.709)" fill="#fff"/>
    <path id="Path_2975" data-name="Path 2975" d="M51.525,52.182a10.462,10.462,0,0,1-1.2,4.133,1.548,1.548,0,0,1-1.541.958,1.637,1.637,0,0,1-1.409-1.3,5.174,5.174,0,0,1-.263-1.522,45,45,0,0,1,1-8.549,9.387,9.387,0,0,1,1.315-2.987,26.511,26.511,0,0,1-.507,4.565,31.96,31.96,0,0,0-.357,4.641,1.936,1.936,0,0,0,.376,1.278c.658.827,1.428.733,1.86-.244C50.962,52.859,50.924,52.408,51.525,52.182Z" transform="translate(36.246 35.082)" fill="#fff"/>
    <path id="Path_2976" data-name="Path 2976" d="M9.931,54.253a2.326,2.326,0,0,1-.094.357c-.282.658-.582,1.541-1.259,1.6-.733.056-1.259-.789-1.822-1.3-.075-.075-.169-.244-.132-.319a17.434,17.434,0,0,1,1.428-2.837c.188-.263.357-.15.564-.019A2.733,2.733,0,0,1,10.1,54.253c.451-.883.827-1.6,1.165-2.292.263-.545.507-.658,1.09-.244,1.822,1.315,1.165,2.8.094,4.133a.531.531,0,0,1-.789.075A5.847,5.847,0,0,1,9.931,54.253Z" transform="translate(0.66 42.593)" fill="#fff"/>
    <path id="Path_2977" data-name="Path 2977" d="M13.559,47.27c-.47,1.954-1.127,3.645-2.875,4.678a1.55,1.55,0,0,1-1.2.282,2.926,2.926,0,0,0-2.875.676c-.188.15-.432.395-.658.169-.188-.169-.019-.432.075-.62a7.984,7.984,0,0,1,2.969-3.344,1.758,1.758,0,0,1,1.3-.282A2.25,2.25,0,0,0,12.845,47.7.8.8,0,0,1,13.559,47.27Z" transform="translate(0 38.904)" fill="#fff"/>
    <path id="Path_2978" data-name="Path 2978" d="M50.857,53.706a4.857,4.857,0,0,1-.169.752c-.263.658-.582,1.559-1.24,1.6-.6.019-1.184-.7-1.672-1.2-.075-.075-.169-.263-.132-.338.451-.921.9-1.841,1.372-2.762.075-.132.188-.094.338-.038A2.863,2.863,0,0,1,50.857,53.706Z" transform="translate(36.708 42.765)" fill="#fff"/>
    <path id="Path_2979" data-name="Path 2979" d="M46.911,40.307a4.824,4.824,0,0,1-.169.526c-.207.639-.564,1.409-1.146,1.447-.7.038-1.221-.752-1.747-1.24-.188-.169-.075-.376,0-.545.357-.714.714-1.428,1.071-2.161.244-.488.507-.451.883-.15A2.2,2.2,0,0,1,46.911,40.307Z" transform="translate(33.289 30.724)" fill="#fff"/>
  </g>
</svg>
