<svg xmlns="http://www.w3.org/2000/svg" width="74.128" height="63.408" viewBox="0 0 74.128 63.408">
  <g id="Shahr" transform="translate(-2.45 81.653)">
    <g id="Group_1254" data-name="Group 1254" transform="translate(2.45 -81.653)">
      <path id="Path_2439" data-name="Path 2439" d="M103.661,43.794l.047-5.583a9.612,9.612,0,0,1,4.026.613.913.913,0,0,1,.582.959c0,1.667-4.576,4.058-5.017,4.293C97.512,47,89.35,47.49,89.35,47.49l.079,6.133a47.083,47.083,0,0,0,17.394-5.253c3.759-2.013,7.832-5.331,7.077-10.081-.739-4.577-5.583-5.866-10.144-5.677l-.047,5.583a9.612,9.612,0,0,1-4.026-.613.913.913,0,0,1-.582-.959c0-1.667,4.577-4.058,5.017-4.293,5.787-2.925,13.95-3.413,13.95-3.413l-.079-6.133a47.4,47.4,0,0,0-17.394,5.253c-3.774,2.029-7.832,5.347-7.077,10.1.739,4.577,5.583,5.866,10.144,5.662ZM96.207,21.729a3.523,3.523,0,1,1-3.523,3.523,3.517,3.517,0,0,1,3.523-3.523ZM111.949,15.8a3.523,3.523,0,1,1-3.523,3.523,3.517,3.517,0,0,1,3.523-3.523Zm-8.209,2.312a3.523,3.523,0,1,1-3.523,3.523,3.517,3.517,0,0,1,3.523-3.523Z" transform="translate(-64.506 -15.8)" fill="#fff"/>
      <path id="Path_2451" data-name="Path 2451" d="M78.924,35.62a1.967,1.967,0,1,0,2,1.967A1.988,1.988,0,0,0,78.924,35.62Z" transform="translate(-7.83 23.725)" fill="#fff"/>
      <path id="Path_2452" data-name="Path 2452" d="M69.4,21.57a1.967,1.967,0,1,0,2,1.967A1.988,1.988,0,0,0,69.4,21.57Z" transform="translate(-7.142 24.74)" fill="#fff"/>
      <path id="Path_2453" data-name="Path 2453" d="M45.514,21.58a1.967,1.967,0,1,0,2,1.967A1.988,1.988,0,0,0,45.514,21.58Z" transform="translate(-5.416 24.739)" fill="#fff"/>
      <path id="Path_2454" data-name="Path 2454" d="M39.584,21.58a1.967,1.967,0,1,0,2,1.967A1.988,1.988,0,0,0,39.584,21.58Z" transform="translate(-4.988 24.739)" fill="#fff"/>
      <path id="Path_2455" data-name="Path 2455" d="M33.484,21.58a1.967,1.967,0,1,0,2,1.967A1.988,1.988,0,0,0,33.484,21.58Z" transform="translate(-4.547 24.739)" fill="#fff"/>
      <path id="Path_2456" data-name="Path 2456" d="M17.266,26.916h-.2a5.913,5.913,0,0,1,1.1-3.924c.065-.074.1-.111.1-.111a5.381,5.381,0,0,1,1.7,3.59,10.649,10.649,0,0,1-2.7.445Zm8.888,0a4.464,4.464,0,0,0-3.813,2.19c-.909,1.317-.7,2.329-1.206,4.379-.334,1.364-1.763-.547-2.653-2a5.323,5.323,0,0,1-.575-1.15,16.1,16.1,0,0,0,1.716-.427q2.185-1.155,2.19-4.388a9.6,9.6,0,0,0-1.15-4.008c-.649-1.28-1.132-2.282-2.041-1.633-2.96,2.115-3.34,4.333-3.34,7.042H14.39c-1.308,0-2.7-1.076-4.231-3.2-.176-.139-.288-.139-.343,0,0,0-1.818,2.44-1.614,3.349.158.705.965,1.2,1.726,1.772.13.093.232.186.334.269a1.836,1.836,0,0,1,.779,1.54,4.835,4.835,0,0,1-.241,1.6,4.722,4.722,0,0,1-2.06,2.412c-2.143,1.364-3.525,1.41-6.132,2.032-.111.028-.158.093-.158.167a.461.461,0,0,0,.306.371c1.41.529,3.739,1.642,6.16.789a6.322,6.322,0,0,0,2.013-1.494,6.975,6.975,0,0,0,1.494-2.783,11.988,11.988,0,0,0,.334-3.071s-.009-.241,0-.3h0c.065.019.13.028.195.046a10.516,10.516,0,0,0,2.9.186,22.178,22.178,0,0,0,1,3.1c1.429,2.746,3.609,6,6.7,4.416.854-.445.427-1.809-.056-2.653a4.618,4.618,0,0,1-.881-3.108,1.575,1.575,0,0,1,1.317-1.271,12.861,12.861,0,0,1,2.217-.121h18.37V26.916H26.154Z" transform="translate(-2.45 24.877)" fill="#fff"/>
      <path id="Path_2457" data-name="Path 2457" d="M81.651,30.681V26.636H78.07c-1.679,0-2.514-.761-2.514-2.254l.028-8.155a1.2,1.2,0,0,0-.074-.427h-.028a1.626,1.626,0,0,0-.557.343l-2.171,2.115c-.1.093-.083.278-.056.584a34.906,34.906,0,0,1,.315,6.569A5.119,5.119,0,0,0,74.5,29.586a3.739,3.739,0,0,0,2.635,1.095h4.518Z" transform="translate(-7.523 25.156)" fill="#fff"/>
      <path id="Path_2458" data-name="Path 2458" d="M68.049,26.636h-.928c-1.679,0-2.514-.761-2.514-2.254l.028-8.155a.945.945,0,0,0-.083-.427h-.028a1.626,1.626,0,0,0-.557.343L61.8,18.259c-.1.093-.121.278-.056.584.306,4.11.529,3.776.315,6.077-.139,1.141-.918,1.707-2.254,1.707H49.55v4.045H59.83a3.023,3.023,0,0,0,1.716-.594,4.4,4.4,0,0,0,1.317-1.336c.056.093.111.176.167.26a2.924,2.924,0,0,0,1,1.03,3.6,3.6,0,0,0,2.013.631h4.064V26.618h-2.06Z" transform="translate(-5.853 25.156)" fill="#fff"/>
      <path id="Path_2459" data-name="Path 2459" d="M58.681,23.749c.148-.019.139-.343.158-.659a2.516,2.516,0,0,0,0-.659c-.362.1-.7.2-.993.3a2.931,2.931,0,0,1-1.039.232,1.328,1.328,0,0,1-1-.4,1.153,1.153,0,0,1-.4-.789c0-.195.139-.362.427-.5a1.523,1.523,0,0,1,.677-.186,2.1,2.1,0,0,1,.724.176,2.049,2.049,0,0,0,.612.176c.288,0,.427-.186.427-.547a1.014,1.014,0,0,0-.5-.677,1.67,1.67,0,0,0-.974-.334,2.677,2.677,0,0,0-1.726.928,2.445,2.445,0,0,0-.863,1.559,1.333,1.333,0,0,0,.4.9,1.906,1.906,0,0,0,.649.538c-.464.241-.881.464-1.243.659a.674.674,0,0,0,0,.974C55.267,27.061,55.081,24.268,58.681,23.749Z" transform="translate(-6.161 24.862)" fill="#fff"/>
    </g>
  </g>
</svg>
