<svg xmlns="http://www.w3.org/2000/svg" width="50.08" height="71.676" viewBox="0 0 50.08 71.676">
  <g id="Sina" transform="translate(-12.1 -5)">
    <path id="Path_2460" data-name="Path 2460" d="M19.3,47.126l1.449.861,11.193,6.472,11.207-6.472,11.207-6.472V15.643L46.22,10.85l-12.6,7.5,8.021,4.635V34.182Z" transform="translate(3.132 2.545)" fill="#fff"/>
    <path id="Path_2461" data-name="Path 2461" d="M47.616,12.333l-1.449-.861L34.96,5,23.767,11.472,12.56,17.929V43.8l8.122,4.807,12.6-7.519-8.007-4.621V25.276Z" transform="translate(0.2 0)" fill="#fff"/>
    <circle id="Ellipse_97" data-name="Ellipse 97" cx="7.275" cy="7.275" r="7.275" transform="translate(26.132 25.282) rotate(-11.526)" fill="#fff"/>
    <path id="Path_2462" data-name="Path 2462" d="M42.528,49.03v.287a1.265,1.265,0,0,0,.43,1.1,1.061,1.061,0,0,0,.6.172c.187,0,.344-.2.488-.6.029-.086.057-.2.086-.316s.072-.172.129-.172.1.072.1.2a1.963,1.963,0,0,1-.029.23q-.022.151-.043.258a5.976,5.976,0,0,1-.646,1.779c-.258.416-.531.631-.8.631a.9.9,0,0,1-.89-.588,3.923,3.923,0,0,1-.244-1.478Z" transform="translate(12.879 19.151)" fill="#fff"/>
    <path id="Path_2463" data-name="Path 2463" d="M43.617,54.175a.834.834,0,0,1-.029.416,2.767,2.767,0,0,1-.215.5,1.935,1.935,0,0,1-.4.517.43.43,0,0,1-.258.158q-.065,0-.258-.172c-.129-.115-.258-.215-.373-.3s-.2-.172-.287-.244a.326.326,0,0,1-.115-.2q.108-.258.172-.387c.129-.287.23-.488.287-.617l.344-.6c.029-.043.072-.1.115-.172a.719.719,0,0,0,.115.1c.043.029.086.057.158.1a3.35,3.35,0,0,1,.545.5A.6.6,0,0,1,43.617,54.175Z" transform="translate(12.866 20.908)" fill="#fff"/>
    <path id="Path_2464" data-name="Path 2464" d="M42.518,50.609c-.1.33-.2.674-.316.99-.143.344-.316.531-.5.531,0-.158.072-.832.215-2.038s.258-2.124.344-2.755c.014-.057.115-.316.316-.8s.344-.847.474-1.091a.314.314,0,0,0,.072-.043,1.326,1.326,0,0,1-.014.316l-.072.5-.33,2.368a11.544,11.544,0,0,0-.129,1.248A7.118,7.118,0,0,0,42.518,50.609Z" transform="translate(12.875 17.572)" fill="#fff"/>
    <path id="Path_2465" data-name="Path 2465" d="M39.9,49.03v.287a1.265,1.265,0,0,0,.43,1.1,1.061,1.061,0,0,0,.6.172c.187,0,.344-.2.488-.6.029-.086.057-.2.086-.316s.072-.172.129-.172.1.072.1.2a1.965,1.965,0,0,1-.029.23q-.022.151-.043.258a5.976,5.976,0,0,1-.646,1.779c-.258.416-.531.631-.8.631a.9.9,0,0,1-.89-.588,3.923,3.923,0,0,1-.244-1.478Z" transform="translate(11.735 19.151)" fill="#fff"/>
    <path id="Path_2466" data-name="Path 2466" d="M41.947,47.085a.834.834,0,0,1-.029.416,2.767,2.767,0,0,1-.215.5,1.936,1.936,0,0,1-.4.517.43.43,0,0,1-.258.158q-.065,0-.258-.172c-.129-.115-.258-.215-.373-.3s-.2-.172-.287-.244a.326.326,0,0,1-.115-.2q.108-.258.172-.387c.129-.287.23-.488.287-.617l.344-.6c.029-.043.072-.1.115-.172a.718.718,0,0,0,.115.1c.043.029.086.057.158.1a3.35,3.35,0,0,1,.545.5A.717.717,0,0,1,41.947,47.085Z" transform="translate(12.14 17.825)" fill="#fff"/>
    <path id="Path_2467" data-name="Path 2467" d="M43.524,50.713c-.043.158-.072.316-.115.488a2.945,2.945,0,0,1-.187.531,1.061,1.061,0,0,1-.287.416c-.1.086-.187.115-.23.072a9.154,9.154,0,0,1,.072-1.019c.043-.387.072-.631.086-.746l.014-.215c0-.043,0-.072-.014-.072s-.043,0-.072.043q-.086.108-.258.344c-.244.344-.43.588-.545.746a7.525,7.525,0,0,1-1.464,1.378A8.152,8.152,0,0,1,38.66,53.7a15.26,15.26,0,0,1-2.253.631,12.9,12.9,0,0,1-2.612.258h-.287a7.051,7.051,0,0,1-1.363-.1,1.859,1.859,0,0,1-1.134-.517,1.693,1.693,0,0,1-.3-1.1,9.71,9.71,0,0,1,.086-1.277c.057-.445.143-.66.244-.66.043,0,.072.129.086.373a1.1,1.1,0,0,0,.287.674c.344.387,1.205.588,2.554.588.746,0,1.335-.014,1.765-.057a11.628,11.628,0,0,0,5.209-1.535,4.548,4.548,0,0,0,1.492-1.349,4.892,4.892,0,0,0,.646-1.435l.273-1.1a8.857,8.857,0,0,1,.43-.99c.172-.344.273-.574.33-.674a.894.894,0,0,1,.2-.258v.287c-.072.287-.115.5-.143.66l-.4,2.038c-.072.56-.129,1.062-.172,1.521S43.524,50.484,43.524,50.713Z" transform="translate(8.095 17.468)" fill="#fff"/>
    <path id="Path_2468" data-name="Path 2468" d="M40.958,46.587a18.289,18.289,0,0,1,1.822-1.593c.832-.66,1.665-1.335,2.5-2.009.6-.488,1.162-.99,1.708-1.492.387-.359.9-.861,1.535-1.478.976-.933,1.464-1.421,1.464-1.435a.306.306,0,0,1-.043.172,3.065,3.065,0,0,1-.373.818,6.831,6.831,0,0,1-.531.818,8.7,8.7,0,0,1-.674.8c-.244.273-.43.474-.574.617-.2.2-.531.5-.99.918-.344.316-.875.761-1.578,1.363-.488.416-.933.775-1.32,1.076-.517.4-1.033.8-1.55,1.191L41,47.4c-.2.158-.373.3-.56.43s-.273.187-.3.143a4.842,4.842,0,0,1,.344-.775A2.781,2.781,0,0,1,40.958,46.587Z" transform="translate(12.196 14.606)" fill="#fff"/>
    <path id="Path_2469" data-name="Path 2469" d="M19.01,52.84a20.622,20.622,0,0,0,7.663-1.464c.387-.158.918-.4,1.593-.746.9-.459,1.908-1.019,3.013-1.708q.452-.28,1.679-1.076c.961-.631,1.578-1.048,1.865-1.248a5.109,5.109,0,0,1,1.148-.617c.187-.057.359-.115.545-.172q.258-.3.387-.474a4.008,4.008,0,0,0,.5-.7.845.845,0,0,0,.086-.258c0-.1-.072-.129-.23-.1a7.506,7.506,0,0,0-1.435.5q-.581.3-1.937,1.205c-.9.6-1.564,1.033-1.98,1.263a32.066,32.066,0,0,1-3.444,1.708,23.342,23.342,0,0,1-3.544,1.191,22.1,22.1,0,0,1-5.295.646l-.617-.014V52.84Z" transform="translate(3.006 17.078)" fill="#fff"/>
    <path id="Path_2470" data-name="Path 2470" d="M16.255,49.957c-.072,0-.187.086-.316.273a3.016,3.016,0,0,1-.316.4,1.745,1.745,0,0,1-.373.316.662.662,0,0,1-.33-.014V49.8l.474.072a.509.509,0,0,0,.4-.187,5.111,5.111,0,0,0,.445-.574c.33-.5.66-.761.976-.761a2.306,2.306,0,0,1,.588.129,7.776,7.776,0,0,0,1.406.33c.5.072.861.129,1.076.158a6.721,6.721,0,0,0,.847.043,2.128,2.128,0,0,1,.158.316,2.042,2.042,0,0,1,.172.717,1.9,1.9,0,0,1-.158.7,1.837,1.837,0,0,1-.172.316l-1.22-.014a8.684,8.684,0,0,1-.9-.043c-.273-.029-.6-.086-.947-.143a4.388,4.388,0,0,1-.875-.244,3.855,3.855,0,0,1-.5-.258,1.1,1.1,0,0,1-.258-.258C16.355,50.015,16.3,49.957,16.255,49.957Z" transform="translate(1.227 18.855)" fill="#fff"/>
    <path id="Path_2471" data-name="Path 2471" d="M16.057,54.1a.834.834,0,0,1-.029.416,2.766,2.766,0,0,1-.215.5,1.936,1.936,0,0,1-.4.517.43.43,0,0,1-.258.158q-.065,0-.258-.172c-.129-.115-.258-.215-.373-.3s-.2-.172-.287-.244a.326.326,0,0,1-.115-.2q.108-.258.172-.387c.129-.287.23-.488.287-.617l.344-.6c.029-.043.072-.1.115-.172a.719.719,0,0,0,.115.1c.043.029.086.057.158.1a3.35,3.35,0,0,1,.545.5.765.765,0,0,1,.2.4Zm2.009-.115a.834.834,0,0,1-.029.416,2.767,2.767,0,0,1-.215.5,1.936,1.936,0,0,1-.4.517.43.43,0,0,1-.258.158q-.065,0-.258-.172c-.143-.115-.258-.215-.373-.3s-.2-.172-.287-.244a.326.326,0,0,1-.115-.2q.108-.258.172-.387c.129-.287.23-.488.287-.617l.344-.6c.029-.043.072-.1.115-.172a.719.719,0,0,0,.115.1c.043.029.086.057.158.1a3.35,3.35,0,0,1,.545.5A.717.717,0,0,1,18.066,53.985Z" transform="translate(0.879 20.826)" fill="#fff"/>
    <path id="Path_2472" data-name="Path 2472" d="M16.233,50.623a1.045,1.045,0,0,0-.43,0c-.33.1-.66.459-1.019,1.076a1.53,1.53,0,0,1-1.234.918,1.2,1.2,0,0,1-1.076-.6,2.772,2.772,0,0,1-.373-1.464l.818-1.521a1.779,1.779,0,0,0,.474,1.378,1.214,1.214,0,0,0,.818.316,1.308,1.308,0,0,0,1.076-.56,2.529,2.529,0,0,1,.531-.56.52.52,0,0,1,.416-.1.156.156,0,0,1,.014.072,1.539,1.539,0,0,1,.1.488,1.119,1.119,0,0,1-.043.316A1.212,1.212,0,0,1,16.233,50.623Z" transform="translate(0 19.151)" fill="#fff"/>
    <path id="Path_2473" data-name="Path 2473" d="M15.927,43.235a.834.834,0,0,1-.029.416,2.766,2.766,0,0,1-.215.5,1.935,1.935,0,0,1-.4.517.43.43,0,0,1-.258.158q-.065,0-.258-.172c-.129-.115-.258-.215-.373-.3s-.2-.172-.287-.244a.326.326,0,0,1-.115-.2q.108-.258.172-.387c.129-.287.23-.488.287-.617l.344-.6c.029-.043.072-.1.115-.172a.719.719,0,0,0,.115.1c.043.029.086.057.158.1a3.35,3.35,0,0,1,.545.5A.717.717,0,0,1,15.927,43.235Z" transform="translate(0.822 16.15)" fill="#fff"/>
    <path id="Path_2474" data-name="Path 2474" d="M12.928,50.609c-.1.33-.2.674-.316.99-.143.344-.316.531-.5.531,0-.158.072-.832.215-2.038s.258-2.124.344-2.755c.014-.057.115-.316.316-.8s.344-.847.474-1.091a.314.314,0,0,0,.072-.043,1.325,1.325,0,0,1-.014.316l-.072.5-.33,2.368a11.545,11.545,0,0,0-.129,1.248A7.121,7.121,0,0,0,12.928,50.609Z" transform="translate(0.004 17.572)" fill="#fff"/>
  </g>
</svg>
