<svg xmlns="http://www.w3.org/2000/svg" width="81.015" height="93.114" viewBox="0 0 81.015 93.114">
  <g id="Tose_e" data-name="Tose&apos;e" transform="translate(-7.425 -6)">
    <path id="Path_2980" data-name="Path 2980" d="M42.13,26.962a9.784,9.784,0,0,1-9.983,9.8,9.814,9.814,0,1,1,.548-19.62A9.792,9.792,0,0,1,42.13,26.962Z" transform="translate(15.563 11.461)" fill="#fff"/>
    <path id="Path_2981" data-name="Path 2981" d="M27.318,47.6c-3.409.264-5.6-1.542-7.243-4.261-1.116-1.826-1.968-3.794-2.983-5.681a.462.462,0,0,1,.122-.649c2.9-2.678,5.783-5.377,8.684-8.055.71-.67,1.461-1.3,2.13-1.988.386-.406.609-.2.893.061a13.345,13.345,0,0,0,3.125,2.191,12.97,12.97,0,0,0,4.423,1.319c.365.041.548.162.528.568-.162,1.988-.284,4-.426,5.985-.081,1.258-.183,2.516-.264,3.774-.122,1.684-.243,3.348-.325,5.032-.02.325-.142.446-.467.507-2.232.406-4.443.913-6.7,1.2A12.359,12.359,0,0,1,27.318,47.6Z" transform="translate(9.862 21.338)" fill="#fff"/>
    <path id="Path_2982" data-name="Path 2982" d="M37.509,47.788a33.175,33.175,0,0,1-6.554-.994c-.487-.1-.974-.223-1.461-.284-.284-.041-.365-.162-.386-.426-.223-3.145-.467-6.27-.69-9.414-.142-1.826-.284-3.652-.446-5.478-.041-.446.122-.588.548-.649a13.062,13.062,0,0,0,7.365-3.368c.649-.588.629-.588,1.258,0,3.49,3.226,7,6.432,10.49,9.638.2.183.406.345.223.67-1.116,1.988-2.029,4.058-3.246,5.985a9.325,9.325,0,0,1-3.53,3.571A7.459,7.459,0,0,1,37.509,47.788Z" transform="translate(21.137 21.333)" fill="#fff"/>
    <path id="Path_2983" data-name="Path 2983" d="M53.838,30.187a7.048,7.048,0,0,1-2.029,5.052,54.2,54.2,0,0,1-5.823,5.154c-.243.223-.406.061-.609-.081-2.09-1.42-4.159-2.82-6.249-4.241-1.948-1.339-3.9-2.678-5.864-3.977-.345-.223-.426-.365-.183-.751a13.08,13.08,0,0,0,2.151-8.217c-.041-.649.2-.791.751-.872,3.064-.467,6.128-.954,9.191-1.441l4.565-.73c.3-.041.568-.081.751.325.893,2.171,1.968,4.261,2.719,6.493A9.157,9.157,0,0,1,53.838,30.187Z" transform="translate(26.255 14.466)" fill="#fff"/>
    <path id="Path_2984" data-name="Path 2984" d="M30.219,24.082a12.736,12.736,0,0,0,2.13,7.183c.243.386.183.548-.183.791-3.875,2.658-7.771,5.336-11.626,8.035-.507.345-.812.406-1.319-.061-1.5-1.339-3.125-2.577-4.565-4a9.911,9.911,0,0,1-2.861-4.22,8.724,8.724,0,0,1,.446-5.478c.71-1.988,1.7-3.875,2.536-5.823a.582.582,0,0,1,.71-.386c3.165.487,6.33.974,9.5,1.441,1.6.243,3.206.487,4.809.71.325.041.426.142.406.446C30.2,23.189,30.219,23.636,30.219,24.082Z" transform="translate(4.222 14.524)" fill="#fff"/>
    <path id="Path_2985" data-name="Path 2985" d="M13.815,25.722c.061-1.867.081-3.774.223-5.681a10.628,10.628,0,0,1,1.38-5.133,8.309,8.309,0,0,1,4.646-3.328c2.07-.71,4.241-1.116,6.351-1.7a.477.477,0,0,1,.609.264q3.013,5.235,6.026,10.449c.365.649.73,1.3,1.136,1.928.162.243.122.386-.122.548A13.389,13.389,0,0,0,28.5,30.388c-.122.386-.325.284-.548.223-2.455-.73-4.89-1.481-7.325-2.212-2.09-.629-4.2-1.278-6.29-1.887C13.876,26.371,13.713,26.168,13.815,25.722Z" transform="translate(6.545 3.957)" fill="#fff"/>
    <path id="Path_2986" data-name="Path 2986" d="M51.43,23.7c0,.67-.02,1.339,0,2.009,0,.3-.061.467-.406.568-3.429,1.055-6.838,2.11-10.267,3.186-1.116.345-2.232.67-3.328,1.055-.426.142-.67.122-.832-.386a13.219,13.219,0,0,0-5.3-6.959c-.426-.3-.446-.487-.2-.893,1.664-2.881,3.287-5.762,4.93-8.643.649-1.136,1.3-2.293,1.948-3.429.122-.223.223-.426.568-.325,2.516.73,5.113,1.238,7.568,2.212a7.618,7.618,0,0,1,5.052,6.878A40.767,40.767,0,0,1,51.43,23.7Z" transform="translate(24.199 3.969)" fill="#fff"/>
    <path id="Path_2987" data-name="Path 2987" d="M43.167,11.864c-.122.345-.243.67-.386,1.014C41.2,16.936,39.6,21.015,37.993,25.073c-.345.852-.183.71-.994.446a13.281,13.281,0,0,0-8.643.061c-.528.183-.71.081-.913-.426-1.684-4.3-3.409-8.583-5.113-12.864-.081-.2-.2-.406.081-.588,2.11-1.481,4.078-3.145,6.31-4.464a7.673,7.673,0,0,1,8.481.081c2.029,1.258,3.855,2.78,5.762,4.22C43.065,11.62,43.207,11.681,43.167,11.864Z" transform="translate(15.236)" fill="#fff"/>
    <path id="Path_2988" data-name="Path 2988" d="M36.567,48.769c-1.055,1.1-1.928,1.116-2.841.02-1.481,1.4-2.719,1.116-4.281-.994-.507,1.664-1.785,1.867-3.246,1.765-1.3-.081-1.583-1.055-1.867-2.07-.528.832-.528.832-1.806.568-.649-.142-1.359-.284-1.5-1.014a2.137,2.137,0,0,1,.791-1.928,5.74,5.74,0,0,1,1.441-.852.658.658,0,0,0,.426-.67c-.041-.893.67-1.359,1.1-1.988.183-.264.325,0,.345.2.122.852.223,1.7.345,2.556.081.568.142,1.136.243,1.684.2,1.014.467,1.2,1.5,1.1A2.05,2.05,0,0,0,27.822,47c.325-.142.812-.284.791-.629-.02-.284-.446-.487-.812-.629a1.1,1.1,0,0,1-.69-.913c-.061-.467.325-.568.629-.71a3.362,3.362,0,0,1,3.328-.183,1.077,1.077,0,0,1-.02,1.968,4.8,4.8,0,0,1-.73.345c-.243.122-.264.223-.041.386a3.2,3.2,0,0,0,2.455.487.61.61,0,0,0,.487-.446c.061-.183.1-.365.162-.548.061-.162.081-.406.345-.385s.284.243.3.406c.061.446.183.852.71.994a.875.875,0,0,0,1.136-.609,1.006,1.006,0,0,1,.061-.264c.122-.2.1-.609.467-.528.264.061.325.3.325.609a.813.813,0,0,0,.649.73c.386.1.791.284,1.157.02a.719.719,0,0,0,.223-.771,1.441,1.441,0,0,0-.162-.365,1.388,1.388,0,0,1,.467-1.826c.223-.162.325-.061.386.122a5.186,5.186,0,0,1-.041,4.322A1.581,1.581,0,0,1,36.567,48.769Zm-12.4-2.536c-.041-.365.041-.974-.223-1.075-.365-.142-.771.284-1.136.507a.364.364,0,0,1-.142.1c-.264.2-.183.345.081.426a10.447,10.447,0,0,0,1.136.325C24.129,46.6,24.292,46.537,24.17,46.232Z" transform="translate(13.963 36.524)" fill="#fff"/>
    <path id="Path_2989" data-name="Path 2989" d="M44.33,44.006A26.368,26.368,0,0,0,46.5,47.353a2.166,2.166,0,0,0,1.765.791c.812-.02,1.6,0,2.414-.02.284,0,.609,0,.751-.3.142-.284-.142-.487-.284-.69-.061-.081-.122-.142-.183-.223-.243-.325-.832-.568-.73-.893a5.953,5.953,0,0,1,.974-1.6c.183-.264.365-.041.507.122a3.714,3.714,0,0,1,.852,1.907A4.228,4.228,0,0,1,52,49.524a1.884,1.884,0,0,1-1.4.994,12.548,12.548,0,0,1-3.023-.041,2.771,2.771,0,0,1-1.806-1.116c-.142-.183-.284-.365-.446-.568a2.473,2.473,0,0,1-2.638,1.765q-2.891,0-5.783-.061a3.448,3.448,0,0,1-1.38-.446.227.227,0,0,1-.142-.325c.183-.528.345-1.075.528-1.623.061-.162.122-.3.365-.243a14.6,14.6,0,0,0,4.1.3,24.171,24.171,0,0,0,3.206-.081c.162-.02.345-.061.507-.081.406-.081.507-.3.284-.649a21.482,21.482,0,0,0-1.238-1.968,2.079,2.079,0,0,1-.3-1.786,1.343,1.343,0,0,1,1.177-1.278c1.786-.467,3.51-1.1,5.255-1.7.446-.162.528-.061.528.365.02,1.217.02,1.217-1.116,1.6C47.211,43.052,45.811,43.519,44.33,44.006Z" transform="translate(28.742 35.545)" fill="#fff"/>
    <path id="Path_2990" data-name="Path 2990" d="M20.631,48.834a5.526,5.526,0,0,1-.325.609A2.061,2.061,0,0,1,18.5,50.579a10.443,10.443,0,0,1-1.38-.02c-.893-.061-1.522-.852-1.684-2.029-.081-.609-.081-1.217-.1-1.826-.041-1.359-.061-2.739-.162-4.1a1.691,1.691,0,0,1,1.035-1.765c.223-.122.467-.487.73-.3.2.142.081.507.081.751v5.62c0,1.136.3,1.38,1.42,1.238a1.52,1.52,0,0,0,.325-.081c.386-.122.872-.243.974-.629s-.467-.446-.71-.69c-.264-.284-.832-.365-.751-.913s.588-.71,1.014-.893a3.367,3.367,0,0,1,2.658-.122,1.152,1.152,0,0,1,.832,1.055,1.14,1.14,0,0,1-.751,1.116,2.915,2.915,0,0,0-.812.446,1.917,1.917,0,0,0,1.217.69,6.272,6.272,0,0,0,1.948,0c.568-.081.649-.325.325-.771a7.205,7.205,0,0,0-.832-.933c-.223-.223-.3-.386-.1-.67a10.421,10.421,0,0,0,.71-1.116c.223-.406.446-.325.69-.02a4.231,4.231,0,0,1,.852,3.165,5.651,5.651,0,0,1-.467,1.583c-.67,1.542-3.612,1.725-4.423.345A4,4,0,0,0,20.631,48.834Z" transform="translate(7.966 35.485)" fill="#fff"/>
    <path id="Path_2991" data-name="Path 2991" d="M36.628,48.627c-1.1,0-1.1,0-1.339,1.1a7.189,7.189,0,0,1-1.481,3.125c-.243.3-.446.325-.73.061a5.166,5.166,0,0,0-1.319-.974c-.345-.183-.2-.325.02-.426a6.366,6.366,0,0,0,2.232-1.7c.041-.041.1-.061.142-.1.183-.264.487-.568.386-.852s-.507-.1-.771-.122a6.465,6.465,0,0,1-1.867-.243,1.351,1.351,0,0,1-1.055-1.7,7.576,7.576,0,0,1,.933-2.942,1.508,1.508,0,0,1,1.4-.893,2.057,2.057,0,0,1,1.7,1.2,5.112,5.112,0,0,1,.588,1.725c.041.223.081.365.325.365.771-.02,1.522.02,2.293-.041.609-.041.73-.345.345-.832a12.2,12.2,0,0,0-.852-.933.372.372,0,0,1-.061-.588,12.93,12.93,0,0,0,.71-1.116c.223-.406.426-.426.73-.061a4.477,4.477,0,0,1,.2,4.991C38.576,48.444,38.556,48.627,36.628,48.627ZM33.3,46.334c.2-.02.406-.02.629-.041.142-.02.183-.081.183-.223a1.407,1.407,0,0,0-1.725-.872.651.651,0,0,0-.345.609c.02.264.223.3.426.386A3.755,3.755,0,0,0,33.3,46.334Z" transform="translate(24.067 37.457)" fill="#fff"/>
    <path id="Path_2992" data-name="Path 2992" d="M11.432,51.191a3.706,3.706,0,0,1-2.719-.71,2.677,2.677,0,0,1-1.238-1.928,9.152,9.152,0,0,1,.142-2.678,3.771,3.771,0,0,1,.568-1.1.324.324,0,0,1,.406-.162c.183.061.162.243.142.386-.081.528-.2,1.055-.243,1.583a1.83,1.83,0,0,0,2.049,1.948c.365-.061.487.264.751.243a8.55,8.55,0,0,0,4.078-.812,1.068,1.068,0,0,0,.426-1.6A6.135,6.135,0,0,0,14.5,44.7a.622.622,0,0,1-.1-.994c.223-.3.386-.649.588-.994.325-.548.446-.548.812-.02a6.357,6.357,0,0,1,1.035,3.1,6.7,6.7,0,0,1-.2,2.272,3.641,3.641,0,0,1-2.414,2.658A5.245,5.245,0,0,1,11.432,51.191Z" transform="translate(0 37.348)" fill="#fff"/>
    <path id="Path_2993" data-name="Path 2993" d="M46.366,43.954V47c.02.954.243,1.177,1.2,1.177a6.256,6.256,0,0,0,1.075-.061c.507-.1.588-.3.284-.71a7.239,7.239,0,0,0-.913-1.014.386.386,0,0,1-.061-.588c.264-.365.487-.771.73-1.157.2-.325.406-.365.649-.061a4.326,4.326,0,0,1,0,5.336,1.813,1.813,0,0,1-.954.588,5.083,5.083,0,0,1-2.212,0,1.426,1.426,0,0,1-.974-.832,3.67,3.67,0,0,1-.446-1.542c0-2.07-.02-4.119-.2-6.168,0-.1,0-.264.061-.325a13.321,13.321,0,0,1,1.542-1.1c.325-.183.243.183.243.345.02,1.035,0,2.07,0,3.084C46.386,43.954,46.386,43.954,46.366,43.954Z" transform="translate(38.19 35.495)" fill="#fff"/>
    <path id="Path_2994" data-name="Path 2994" d="M16.422,48.3H14.231a.9.9,0,0,1-.386-.061c-1.136-.446-1.5-.649-1.136-2.293a7.561,7.561,0,0,1,.913-2.557,1.523,1.523,0,0,1,2.617-.142A4.623,4.623,0,0,1,17.274,46.1a8.7,8.7,0,0,1-1.583,6.168c-.081.1-.1.264-.183.345-.2.2-.406.426-.71.142-.487-.467-1.014-.913-1.522-1.38C14.576,50.588,15.834,49.837,16.422,48.3Zm-1.4-2.354v-.02h.629c.122,0,.264-.02.2-.183a1.582,1.582,0,0,0-.893-.913.861.861,0,0,0-.994.162c-.325.325-.223.69.223.812A5.475,5.475,0,0,0,15.022,45.942Z" transform="translate(5.297 37.626)" fill="#fff"/>
    <path id="Path_2995" data-name="Path 2995" d="M45.354,51.837V50.295c0-.751,0-.751.771-.751h.223c.264-.02.365.081.365.365-.02,1.319,0,2.638,0,3.957,0,.243-.081.345-.325.345-.629.02-1.217.081-1.542-.69a10.872,10.872,0,0,0-1.2-1.765c0,.791-.02,1.4,0,2.029.02.345-.1.446-.446.446-.933,0-.933.02-.933-.933,0-1.1.02-2.171,0-3.267,0-.385.122-.467.487-.487a1.172,1.172,0,0,1,1.359.71,11.344,11.344,0,0,0,1.116,1.664A.425.425,0,0,1,45.354,51.837Z" transform="translate(35.854 44.798)" fill="#fff"/>
    <path id="Path_2996" data-name="Path 2996" d="M40.87,51.681c.71.426.913.812.791,1.441-.122.568-.528.872-1.238.994a22.771,22.771,0,0,1-2.638.081c-.325.02-.386-.142-.386-.406V49.957c0-.223,0-.426.3-.406.872.041,1.745-.061,2.617.061A1.146,1.146,0,0,1,41.4,50.4,1.032,1.032,0,0,1,40.87,51.681Zm-1.461.568c-.3,0-.609-.1-.588.426,0,.426.183.507.548.487.345-.041.832.061.852-.446C40.241,52.188,39.774,52.249,39.409,52.249Zm-.041-1.725c-.365-.081-.548,0-.548.406s.2.406.487.406c.325-.02.71.061.71-.426C40.038,50.444,39.652,50.545,39.368,50.525Z" transform="translate(30.843 44.811)" fill="#fff"/>
    <path id="Path_2997" data-name="Path 2997" d="M35.065,51.9c0,.609-.02,1.2,0,1.806.02.365-.081.507-.487.507-1.035-.02-.852.061-.852-.852-.02-1.1.02-2.171,0-3.267,0-.406.081-.568.528-.568a1.2,1.2,0,0,1,1.217.609c.345.609.791,1.157,1.258,1.826a8.849,8.849,0,0,0,.041-1.928c0-.406.1-.568.507-.507a2.121,2.121,0,0,0,.507,0c.284-.02.365.1.365.365v3.957c0,.243-.081.325-.325.345-.629.041-1.177,0-1.522-.69a17.01,17.01,0,0,0-1.116-1.664A.122.122,0,0,1,35.065,51.9Z" transform="translate(27.05 44.775)" fill="#fff"/>
    <path id="Path_2998" data-name="Path 2998" d="M49.739,54.11c-1.238.365-2.049.061-2.374-1.2a3.575,3.575,0,0,0-.284-.548c-.467.345-.893.67-.751,1.339.081.406-.122.548-.507.487a2.122,2.122,0,0,0-.507,0c-.3.041-.386-.122-.386-.406q.03-1.917,0-3.835c0-.325.1-.426.426-.426.994-.02.994-.041.994.954v.69a3.92,3.92,0,0,0,1.075-1.177,1.164,1.164,0,0,1,1.136-.467c.345.02.69,0,1.136,0A7.55,7.55,0,0,1,48.44,50.9a.585.585,0,0,0-.1.872C48.826,52.547,49.272,53.339,49.739,54.11Z" transform="translate(38.591 44.777)" fill="#fff"/>
    <path id="Path_2999" data-name="Path 2999" d="M33.334,49.525a2.12,2.12,0,0,1,2.435,2.354,2.144,2.144,0,0,1-2.333,2.394,2.375,2.375,0,1,1-.1-4.748Zm.994,2.333c0-.081-.02-.2-.02-.325a.923.923,0,1,0-1.846-.02,5.973,5.973,0,0,0,0,.852.884.884,0,0,0,.933.832.864.864,0,0,0,.893-.852C34.308,52.183,34.308,52.041,34.328,51.859Z" transform="translate(24.237 44.776)" fill="#fff"/>
    <path id="Path_3000" data-name="Path 3000" d="M12.218,49.52a2.041,2.041,0,0,1,2.252,2.333,2.084,2.084,0,0,1-2.333,2.394c-1.522,0-2.516-.609-2.435-2.435A2.191,2.191,0,0,1,12.218,49.52Zm.832,2.516c.02-.872-.264-1.359-.791-1.441a.817.817,0,0,0-.913.426,1.884,1.884,0,0,0,.122,1.887.867.867,0,0,0,1.055.183A1.052,1.052,0,0,0,13.05,52.036Z" transform="translate(2.338 44.781)" fill="#fff"/>
    <path id="Path_3001" data-name="Path 3001" d="M17.9,51.834c0-.609.02-1.217,0-1.826-.02-.325.061-.487.446-.467.994.02,1.988.041,2.983,0,.487-.02.406.264.406.548.02.3,0,.507-.406.487-.548-.041-1.116,0-1.664-.02-.284,0-.345.122-.345.385s.1.325.345.325c.467-.02.913.02,1.38-.02.406-.02.507.122.528.507.02.446-.183.507-.548.487a9.868,9.868,0,0,0-1.1,0c-.284,0-.609-.122-.609.406,0,.487.264.446.588.446.487,0,.994.02,1.481,0,.426-.02.406.243.386.507s.1.609-.386.588q-1.552-.03-3.1,0c-.3,0-.386-.122-.386-.406Q17.9,52.808,17.9,51.834Z" transform="translate(10.777 44.801)" fill="#fff"/>
    <path id="Path_3002" data-name="Path 3002" d="M14.731,51.834c0-.609.02-1.217,0-1.826-.02-.325.081-.487.446-.467q1.461.03,2.922,0c.426-.02.426.223.446.548.02.365-.061.528-.467.507-.487-.041-.994,0-1.481,0-.243,0-.446-.02-.446.345,0,.345.162.365.426.365.487-.02.954.02,1.441,0,.406-.02.345.243.345.487s.081.528-.345.507c-.446-.02-.872,0-1.319,0-.284,0-.548-.061-.548.406,0,.426.2.446.528.446.507-.02,1.035.02,1.542-.02.426-.02.406.243.386.528,0,.264.1.609-.386.588q-1.552-.03-3.1,0c-.325,0-.386-.142-.386-.406Z" transform="translate(7.515 44.801)" fill="#fff"/>
    <path id="Path_3003" data-name="Path 3003" d="M27.138,54.207c-.365.02-.812.041-.832-.609,0-.183-.162-.183-.3-.183h-.913c-.325-.02-.568.041-.487.467a.242.242,0,0,1-.284.3h-.061c-1.3.1-1.278.1-.872-1.1a31.222,31.222,0,0,0,1.157-3.267c.041-.162.1-.284.3-.264h.122c1.278-.1,1.278-.1,1.745,1.1.365.933.71,1.846,1.055,2.78C28.031,54.207,28.031,54.207,27.138,54.207Zm-1.583-3.165h-.122c-.1.365-.223.71-.325,1.075-.041.1-.081.264.061.284a.947.947,0,0,0,.71-.041c.162-.122-.02-.3-.061-.467C25.758,51.61,25.636,51.326,25.555,51.042Z" transform="translate(16.169 44.781)" fill="#fff"/>
    <path id="Path_3004" data-name="Path 3004" d="M28.628,53.442c-.487-.081-.893-.081-.974.588-.041.243-.386.3-.609.284-.933-.061-.933-.081-.588-.974.426-1.1.852-2.212,1.238-3.328a.574.574,0,0,1,.71-.467,3.258,3.258,0,0,0,.629,0,.458.458,0,0,1,.548.365c.467,1.3.933,2.577,1.441,3.855.142.345.081.487-.3.446-.264-.02-.528,0-.791,0-.142,0-.284-.02-.3-.2C29.562,53.341,29.115,53.361,28.628,53.442Zm.02-2.6c-.162.507-.284.913-.426,1.3-.041.1-.061.223.061.243a1.489,1.489,0,0,0,.67,0c.223-.1.041-.325,0-.507A7.832,7.832,0,0,0,28.649,50.845Z" transform="translate(19.366 44.796)" fill="#fff"/>
    <path id="Path_3005" data-name="Path 3005" d="M42.077,49.58c.609-.183.832.142,1.014.67.365,1.116.812,2.212,1.238,3.328.243.649.243.649-.406.649a4.233,4.233,0,0,0-.507,0c-.264.02-.426-.081-.446-.325-.041-.406-.264-.487-.629-.467-.264.02-.528,0-.812,0-.142,0-.325-.02-.345.183-.081.71-.588.568-1.055.588-.487.041-.588-.1-.406-.568.446-1.1.872-2.191,1.238-3.328C41.143,49.722,41.407,49.377,42.077,49.58Zm0,1.461h-.122c-.122.365-.223.751-.345,1.116-.041.122-.061.243.1.243a1.463,1.463,0,0,0,.67-.041c.183-.1,0-.345-.041-.507C42.259,51.568,42.158,51.3,42.077,51.041Z" transform="translate(33.146 44.783)" fill="#fff"/>
    <path id="Path_3006" data-name="Path 3006" d="M14.416,49.543c1.1,0,1.6.264,1.846.913.122.325.122.487-.3.467-.446-.02-.933.162-1.238-.406-.081-.162-.365-.162-.588-.1a.367.367,0,0,0-.284.325.3.3,0,0,0,.243.284c.426.122.852.2,1.258.345.791.264,1.136.69,1.116,1.38a1.452,1.452,0,0,1-1.238,1.441,3.641,3.641,0,0,1-1.867-.041,1.14,1.14,0,0,1-.629-.386c-.243-.3-.588-.73-.365-1.014.223-.3.771-.122,1.177-.142.162,0,.142.2.2.3a.716.716,0,0,0,.629.406c.284,0,.568-.041.649-.345.1-.345-.183-.487-.426-.568-.406-.142-.852-.2-1.258-.386-.446-.2-.852-.426-.913-1.035-.1-.994.609-1.3,1.38-1.461A5.7,5.7,0,0,1,14.416,49.543Z" transform="translate(5.01 44.778)" fill="#fff"/>
    <path id="Path_3007" data-name="Path 3007" d="M31.011,52.654c.426-.791.386-1.7.73-2.5.1-.223.122-.548.345-.588a5.218,5.218,0,0,1,1.258,0c.162.02.081.183.061.284l-1.522,4.078a.4.4,0,0,1-.426.284c-1.319-.061-1.238.345-1.684-1.2-.3-1.055-.872-2.009-1.2-3.043-.142-.426.02-.406.3-.406C30,49.529,30,49.529,30.321,50.584c.223.69.446,1.38.67,2.049C30.95,52.613,30.971,52.633,31.011,52.654Z" transform="translate(21.71 44.793)" fill="#fff"/>
    <path id="Path_3008" data-name="Path 3008" d="M9.68,49.54c.588,0,1.177.02,1.786,0,.487-.02.365.325.365.588s.122.568-.365.588c-1.1.041-1.1.061-1.1,1.157,0,.609-.02,1.217,0,1.826.02.365-.081.507-.467.487-1.157-.02-.933.081-.954-.933q-.03-1.065,0-2.13c.02-.345-.1-.487-.446-.446a1.33,1.33,0,0,1-.284,0c-.71,0-.872-.2-.71-.933.061-.264.223-.2.386-.223h.122a14.984,14.984,0,0,0,1.664.02Z" transform="translate(0.027 44.781)" fill="#fff"/>
    <path id="Path_3009" data-name="Path 3009" d="M23.26,49.54c.568,0,1.136.02,1.7,0,.528-.02.446.325.467.649s-.041.528-.446.528c-.994.02-.994.041-.994,1.014v2.11c0,.3,0,.446-.426.365-.974-.162-.994-.122-.994-1.136,0-.629-.02-1.258,0-1.887.02-.365-.081-.548-.487-.487a1.329,1.329,0,0,1-.284,0c-.71,0-.872-.223-.71-.913.061-.243.223-.2.386-.223h.061c.588-.02,1.157-.02,1.725-.02Z" transform="translate(14 44.802)" fill="#fff"/>
    <path id="Path_3010" data-name="Path 3010" d="M35.279,43.15a1.624,1.624,0,0,1-.588-.467c-.2-.2-.345-.325-.629-.02-.588.629-1.116.548-1.562-.2a.336.336,0,0,1,0-.426,1.88,1.88,0,0,1,.284-.284c.73-.73.588-.649,1.217-.041.284.284.467.284.73-.02.162-.2.345-.568.67-.446a1.869,1.869,0,0,1,.872.852C36.374,42.318,35.583,43.19,35.279,43.15Z" transform="translate(25.721 36.239)" fill="#fff"/>
    <path id="Path_3011" data-name="Path 3011" d="M19.755,43.194a4.711,4.711,0,0,1-.893-.791c-.2-.284.122-.507.325-.71.588-.629.609-.649,1.157,0,.3.345.487.183.751-.02.2-.162.325-.568.649-.487.406.122.649.528.893.852.162.223-.122.446-.3.609-.588.609-.609.629-1.2.041-.325-.325-.507-.284-.751.041A.858.858,0,0,1,19.755,43.194Z" transform="translate(11.703 36.194)" fill="#fff"/>
    <path id="Path_3012" data-name="Path 3012" d="M47.891,46.808c-.02.243-.812,1.157-1.035,1.116a1.905,1.905,0,0,1-1.055-.852c-.2-.284.02-.446.183-.629.1-.1.162-.243.264-.365.243-.325.528-.406.852-.1.2.183.365.446.629.548A.238.238,0,0,1,47.891,46.808Z" transform="translate(39.404 40.939)" fill="#fff"/>
    <path id="Path_3013" data-name="Path 3013" d="M43.776,42.991a3.155,3.155,0,0,1-1.116-1.075,2.843,2.843,0,0,1,1.1-1.1,3.339,3.339,0,0,1,1.075,1.055C44.831,42.1,43.979,43.011,43.776,42.991Z" transform="translate(36.256 35.829)" fill="#fff"/>
    <path id="Path_3014" data-name="Path 3014" d="M10.255,43.1a3.275,3.275,0,0,1,1.055,1.055c.02.223-.812,1.116-1.035,1.1A2.642,2.642,0,0,1,9.2,44.216,2.787,2.787,0,0,1,10.255,43.1Z" transform="translate(1.826 38.175)" fill="#fff"/>
    <path id="Path_3015" data-name="Path 3015" d="M18.287,50.286c.02.71-.081,1.359-.852,1.684-.2.081-.284.041-.345-.122-.061-.142-.264-.284-.02-.426a.9.9,0,0,0,.3-.243c.162-.183.243-.345-.142-.385-.69-.1-.2-.629-.3-.954-.1-.3.162-.325.386-.3h.223C18.347,49.536,18.287,49.373,18.287,50.286Z" transform="translate(9.702 44.786)" fill="#fff"/>
    <path id="Path_3016" data-name="Path 3016" d="M26.843,50.389a1.47,1.47,0,0,1-.812,1.562c-.183.1-.3.122-.406-.1-.061-.162-.264-.325.02-.467a.837.837,0,0,0,.264-.2c.162-.2.223-.325-.142-.385-.67-.1-.2-.629-.3-.954-.1-.3.162-.325.386-.3h.223C26.985,49.516,26.822,49.415,26.843,50.389Z" transform="translate(18.494 44.785)" fill="#fff"/>
  </g>
</svg>
