<svg xmlns="http://www.w3.org/2000/svg" width="27.654" height="27.515" viewBox="0 0 27.654 27.515">
  <g id="edit" transform="translate(0 -0.261)">
    <path id="Path_3518" data-name="Path 3518" d="M25.524,53.76a.689.689,0,0,0-.689.689v6.115a2.068,2.068,0,0,1-2.066,2.066H3.444a2.068,2.068,0,0,1-2.066-2.066V42.616A2.069,2.069,0,0,1,3.444,40.55H9.559a.689.689,0,0,0,0-1.377H3.444A3.448,3.448,0,0,0,0,42.616V60.564a3.448,3.448,0,0,0,3.444,3.444H22.769a3.448,3.448,0,0,0,3.444-3.444V54.448a.689.689,0,0,0-.689-.689Zm0,0" transform="translate(0 -36.231)" fill="#f9f9f9"/>
    <path id="Path_3519" data-name="Path 3519" d="M126.679,1.169a3.1,3.1,0,0,0-4.383,0L110.008,13.456a.688.688,0,0,0-.177.3l-1.616,5.834a.689.689,0,0,0,.847.848l5.834-1.616a.689.689,0,0,0,.3-.177L127.487,6.36a3.1,3.1,0,0,0,0-4.383ZM111.509,13.9,121.565,3.847l3.243,3.243L114.752,17.147Zm-.648,1.3,2.591,2.591-3.584.993Zm15.652-9.818-.73.73-3.244-3.244.731-.73a1.722,1.722,0,0,1,2.435,0l.808.808A1.724,1.724,0,0,1,126.513,5.386Zm0,0" transform="translate(-100.739 0)" fill="#f9f9f9"/>
  </g>
</svg>
