<svg xmlns="http://www.w3.org/2000/svg" width="45.414" height="27.65" viewBox="0 0 45.414 27.65">
  <g id="Group_1944" data-name="Group 1944" transform="translate(-1225.749 -875.976)">
    <path id="Path_3343" data-name="Path 3343" d="M1225.749,888.64c.131-.707.235-1.42.4-2.119a14.027,14.027,0,0,1,2.537-5.264.863.863,0,0,1,.77-.334c2.792.007,5.584,0,8.375.007a.7.7,0,0,0,.574-.236,13.666,13.666,0,0,1,14.284-4.17,1.34,1.34,0,0,0,.732,0,13.832,13.832,0,1,1,.031,26.548,1.4,1.4,0,0,0-.818.008,13.66,13.66,0,0,1-8.151-.155.973.973,0,0,0-.639.023,13.827,13.827,0,0,1-17.693-9.836c-.189-.743-.251-1.506-.4-2.254Zm24.066-5.833a13.917,13.917,0,0,1-20.477.012,12.4,12.4,0,1,0,20.477-.012Zm-3.529,19.085a12.255,12.255,0,0,0,13.706-6.753,12.4,12.4,0,0,0-5.471-16.361c-5.626-2.906-11.7-.8-14.282,2.148h.5q4.475,0,8.951,0a.853.853,0,0,1,.776.323,16.545,16.545,0,0,1,1.538,2.479,13.935,13.935,0,0,1,1.4,6.646c-.015.44.116.557.545.467a1.15,1.15,0,0,0,.9-.826.708.708,0,0,1,.915-.535.736.736,0,0,1,.416,1.015,2.524,2.524,0,0,1-2.655,1.768c-.226-.014-.332,0-.385.263a13.6,13.6,0,0,1-2.488,5.568c-.115.153-.189.235.029.406a.68.68,0,0,1-.109,1.175,2.435,2.435,0,0,1-1.353.348c-.129,0-.262-.045-.379.06A14.379,14.379,0,0,1,1246.285,901.893Zm9.072.111a12.227,12.227,0,0,0,12.375-5.474,12.381,12.381,0,0,0-1.3-15.157,12.612,12.612,0,0,0-5.059-3.316c-1.94-.7-4.952-.872-5.962-.445A13.9,13.9,0,0,1,1255.357,902Zm-24.351-19.634a12.229,12.229,0,0,0,17.146,0Z" fill="#fff"/>
    <path id="Path_3344" data-name="Path 3344" d="M1261.766,972.392a.721.721,0,0,1,.707-.7.706.706,0,1,1-.016,1.412A.721.721,0,0,1,1261.766,972.392Z" transform="translate(-31.751 -84.382)" fill="#fff"/>
    <path id="Path_3345" data-name="Path 3345" d="M1400.907,972.4a.7.7,0,0,1-.692.705.706.706,0,1,1,0-1.412A.7.7,0,0,1,1400.907,972.4Z" transform="translate(-153.166 -84.381)" fill="#fff"/>
    <path id="Path_3346" data-name="Path 3346" d="M1335.038,996.341a.7.7,0,0,1-.678.72.706.706,0,1,1-.026-1.412A.7.7,0,0,1,1335.038,996.341Z" transform="translate(-95.1 -105.498)" fill="#fff"/>
    <path id="Path_3347" data-name="Path 3347" d="M1293.12,1038.261a.7.7,0,0,1-.679.718.706.706,0,1,1-.023-1.412A.7.7,0,0,1,1293.12,1038.261Z" transform="translate(-58.147 -142.452)" fill="#fff"/>
    <path id="Path_3348" data-name="Path 3348" d="M1370.285,1037.562a.706.706,0,1,1-.071,1.411.707.707,0,0,1,.071-1.411Z" transform="translate(-126.768 -142.446)" fill="#fff"/>
    <path id="Path_3349" data-name="Path 3349" d="M1430.148,899.836a.706.706,0,1,1-.02,1.411.706.706,0,0,1,.02-1.411Z" transform="translate(-179.564 -21.034)" fill="#fff"/>
    <path id="Path_3350" data-name="Path 3350" d="M1478.756,966.416a.7.7,0,0,1-.7.7.706.706,0,1,1,.012-1.412A.7.7,0,0,1,1478.756,966.416Z" transform="translate(-221.795 -79.1)" fill="#fff"/>
    <path id="Path_3351" data-name="Path 3351" d="M1472.767,1038.272a.7.7,0,0,1-.692.705.706.706,0,1,1,0-1.412A.7.7,0,0,1,1472.767,1038.272Z" transform="translate(-216.515 -142.45)" fill="#fff"/>
    <path id="Path_3352" data-name="Path 3352" d="M1508,899.863a.706.706,0,1,1-.022,1.411.715.715,0,0,1-.688-.715A.724.724,0,0,1,1508,899.863Z" transform="translate(-248.192 -21.058)" fill="#fff"/>
    <path id="Path_3353" data-name="Path 3353" d="M1556.605,966.434a.7.7,0,0,1-.684.711.714.714,0,0,1-.728-.719.724.724,0,0,1,.714-.692A.7.7,0,0,1,1556.605,966.434Z" transform="translate(-290.423 -79.127)" fill="#fff"/>
    <path id="Path_3354" data-name="Path 3354" d="M1550.615,1038.3a.7.7,0,0,1-.7.7.716.716,0,0,1-.716-.731.726.726,0,0,1,.726-.68A.7.7,0,0,1,1550.615,1038.3Z" transform="translate(-285.142 -142.473)" fill="#fff"/>
    <path id="Path_3355" data-name="Path 3355" d="M1353,936.478a.7.7,0,0,1-.7.695.706.706,0,1,1,.023-1.412A.7.7,0,0,1,1353,936.478Z" transform="translate(-110.937 -52.704)" fill="#fff"/>
  </g>
</svg>
