<svg xmlns="http://www.w3.org/2000/svg" width="12.202" height="21.409" viewBox="0 0 12.202 21.409">
  <g id="Group_1953" data-name="Group 1953" transform="translate(-421.05 -526.104) rotate(-90)">
    <path id="Path_3373" data-name="Path 3373" d="M-547.513,422.339a1.712,1.712,0,0,1,.572-.966,1.489,1.489,0,0,1,1.839-.009,3.528,3.528,0,0,1,.294.267q3.919,3.917,7.833,7.839c.132.132.2.14.335,0q3.941-3.955,7.891-7.9a1.518,1.518,0,0,1,1.637-.44,1.5,1.5,0,0,1,.726,2.28,2.334,2.334,0,0,1-.218.253q-4.538,4.541-9.078,9.078a1.5,1.5,0,0,1-1.887.294,2.047,2.047,0,0,1-.417-.346q-4.406-4.406-8.814-8.81a2.249,2.249,0,0,1-.713-1.126Z" transform="translate(0)" fill="#f9f9f9"/>
  </g>
</svg>
