<svg xmlns="http://www.w3.org/2000/svg" width="26.693" height="29.547" viewBox="0 0 26.693 29.547">
  <g id="Group_1951" data-name="Group 1951" transform="translate(44.045 105.414)">
    <path id="Path_3504" data-name="Path 3504" d="M-31.156-75.867a9.115,9.115,0,0,1-1.027-.27,4.228,4.228,0,0,1-2.724-3.281c-.042-.221-.132-.265-.337-.264-1.827.007-3.654.015-5.481,0A3.314,3.314,0,0,1-43.8-84.222a3.345,3.345,0,0,1,2.983-2.12c.538-.051.592-.107.592-.657,0-1.846-.038-3.693.008-5.538a9.284,9.284,0,0,1,5.748-8.741.746.746,0,0,0,.541-.856,3.208,3.208,0,0,1,3.253-3.28,3.25,3.25,0,0,1,3.226,3.326,1.474,1.474,0,0,1-.025.344c-.052.192.027.26.2.329a9.494,9.494,0,0,1,3.858,2.842,9.579,9.579,0,0,1,2.241,6.1c.02,1.846.005,3.692.006,5.539,0,.467.078.55.54.588a3.419,3.419,0,0,1,3.218,2.735,3.329,3.329,0,0,1-3.234,3.93c-1.836.016-3.673.007-5.51,0-.215,0-.293.061-.329.273a4.286,4.286,0,0,1-3.508,3.485c-.065.011-.137,0-.186.059Zm.472-5.716q4.962,0,9.924,0a1.425,1.425,0,0,0,1.495-1.3,1.438,1.438,0,0,0-1.318-1.54c-.219-.03-.444-.024-.658-.07a2.275,2.275,0,0,1-1.829-2.279q-.01-2.726,0-5.453a8.027,8.027,0,0,0-.415-2.635,7.643,7.643,0,0,0-8.881-5.129,7.647,7.647,0,0,0-5.944,7.237c-.02,1.99,0,3.981-.008,5.972a2.281,2.281,0,0,1-1.849,2.293c-.244.049-.5.039-.744.081a1.417,1.417,0,0,0-1.01,2.137,1.464,1.464,0,0,0,1.342.692Q-35.631-81.586-30.684-81.582Zm-.009,1.9c-.7,0-1.4.005-2.1,0-.188,0-.23.04-.174.228a2.41,2.41,0,0,0,2.277,1.68,2.408,2.408,0,0,0,2.278-1.678c.055-.183.022-.233-.171-.23C-29.29-79.672-29.992-79.678-30.693-79.678Zm0-23.83a1.349,1.349,0,0,0-1.339,1.31c0,.153.025.224.207.2A8.7,8.7,0,0,1-29.56-102c.177.024.21-.048.21-.2A1.349,1.349,0,0,0-30.7-103.508Z" transform="translate(0 0)" fill="#f9f9f9"/>
  </g>
</svg>
