<svg xmlns="http://www.w3.org/2000/svg" width="18.278" height="21.783" viewBox="0 0 18.278 21.783">
  <g id="Group_1572" data-name="Group 1572" transform="translate(-966.745 -898.722)">
    <path id="Path_3496" data-name="Path 3496" d="M966.745,909.593q0-4.458,0-8.915a1.9,1.9,0,0,1,2.115-1.955h8.346a1.9,1.9,0,0,1,2.11,1.96q0,1.69,0,3.38a.424.424,0,0,1-.153.388.4.4,0,0,1-.625-.223,1.184,1.184,0,0,1-.008-.226q0-1.679,0-3.357a1.145,1.145,0,0,0-1.3-1.194h-8.4a1.147,1.147,0,0,0-1.3,1.214q0,8.949,0,17.9c0,.784.472,1.217,1.325,1.217H977.2c.864,0,1.328-.432,1.328-1.237q0-3.437,0-6.874c0-.053,0-.106,0-.159,0-.279.16-.448.4-.441a.387.387,0,0,1,.38.44q0,2.393,0,4.787c0,.779,0,1.558,0,2.337a1.891,1.891,0,0,1-2.031,1.873q-4.247,0-8.493,0a1.892,1.892,0,0,1-2.045-1.9Q966.744,914.1,966.745,909.593Z" fill="#fff"/>
    <path id="Path_3497" data-name="Path 3497" d="M1022.607,1006.515h7.292c.449,0,.563.114.563.566q0,2.193,0,4.386c0,.415-.124.537-.543.537h-14.632c-.416,0-.537-.123-.537-.542q0-2.205,0-4.411c0-.415.123-.536.543-.536Zm0,.784q-3.424,0-6.848,0c-.177,0-.235.036-.234.225q.015,1.739,0,3.478c0,.191.058.225.234.225q6.836-.007,13.671,0c.185,0,.248-.038.246-.237q-.016-1.727,0-3.454c0-.2-.063-.237-.247-.237Q1026.022,1007.3,1022.61,1007.3Z" transform="translate(-45.437 -101.417)" fill="#fff"/>
    <path id="Path_3498" data-name="Path 3498" d="M1029.118,923.458c-.614,0-1.227,0-1.841,0-.313,0-.492-.14-.5-.383s.179-.4.5-.4h3.707c.314,0,.492.14.5.383s-.18.4-.505.4Q1030.051,923.46,1029.118,923.458Z" transform="translate(-56.264 -22.383)" fill="#fff"/>
    <path id="Path_3499" data-name="Path 3499" d="M1051.543,1222.816c-.131,0-.262.009-.392,0a.387.387,0,0,1-.37-.385.379.379,0,0,1,.364-.389c.277-.014.556-.013.834,0a.38.38,0,0,1,.37.384.386.386,0,0,1-.364.39C1051.838,1222.825,1051.69,1222.815,1051.543,1222.816Z" transform="translate(-78.718 -303.882)" fill="#fff"/>
    <path id="Path_3500" data-name="Path 3500" d="M1048.325,1035.493c-.008-.19.137-.3.262-.411.1-.094.112-.164,0-.252a1.076,1.076,0,0,1-.171-.175.39.39,0,0,1,.539-.558c.114.076.178.256.31.257s.2-.179.31-.256a.381.381,0,0,1,.514.026.39.39,0,0,1,.028.532c-.081.11-.265.178-.247.31.015.106.166.189.246.291a.389.389,0,0,1-.026.532.4.4,0,0,1-.534.009c-.1-.079-.166-.242-.291-.242s-.189.163-.291.243a.39.39,0,0,1-.435.059A.36.36,0,0,1,1048.325,1035.493Z" transform="translate(-76.417 -127.143)" fill="#fff"/>
    <path id="Path_3501" data-name="Path 3501" d="M1096.289,1035.313a.452.452,0,0,1,.221-.375c.158-.124.146-.226-.005-.339a.6.6,0,0,1-.135-.141.371.371,0,0,1,.03-.512.333.333,0,0,1,.5-.032c.245.288.417.267.656,0a.331.331,0,0,1,.487.023.374.374,0,0,1,.053.51.474.474,0,0,1-.046.057c-.225.266-.225.266.006.545a.391.391,0,0,1-.551.555.261.261,0,0,1-.053-.051c-.157-.233-.3-.205-.461,0a.381.381,0,0,1-.484.121A.359.359,0,0,1,1096.289,1035.313Z" transform="translate(-121.346 -126.959)" fill="#fff"/>
    <path id="Path_3502" data-name="Path 3502" d="M1145.828,1035.913c-.185.011-.3-.117-.4-.237s-.166-.141-.289-.013c-.28.29-.5.325-.688.141s-.152-.409.136-.687c.121-.117.118-.193-.007-.287a.841.841,0,0,1-.1-.1.4.4,0,0,1-.019-.586.4.4,0,0,1,.571.027.42.42,0,0,1,.069.07c.127.188.234.154.375,0,.212-.234.443-.261.619-.107a.4.4,0,0,1,.024.569c-.079.1-.253.163-.231.292.017.1.154.18.235.271a.38.38,0,0,1,.068.432A.355.355,0,0,1,1145.828,1035.913Z" transform="translate(-166.354 -127.163)" fill="#fff"/>
    <path id="Path_3503" data-name="Path 3503" d="M1192.712,1035.937a.362.362,0,0,1-.363-.216.386.386,0,0,1,.061-.433c.081-.1.244-.164.243-.29s-.164-.188-.243-.29a.391.391,0,0,1,.544-.559c.019.015.036.033.055.049.245.222.245.222.492,0a.4.4,0,0,1,.588-.021.381.381,0,0,1-.046.582c-.218.184-.207.3,0,.484a.384.384,0,0,1,.042.582.4.4,0,0,1-.588-.026.968.968,0,0,1-.121-.121c-.087-.114-.159-.1-.252,0C1193.012,1035.8,1192.9,1035.944,1192.712,1035.937Z" transform="translate(-211.373 -127.187)" fill="#fff"/>
  </g>
</svg>
