<svg xmlns="http://www.w3.org/2000/svg" width="23.592" height="23.591" viewBox="0 0 23.592 23.591">
  <g id="Group_2008" data-name="Group 2008" transform="translate(-80.674 -81.406)">
    <path id="Path_3529" data-name="Path 3529" d="M80.674,93.191A11.8,11.8,0,1,1,92.331,105,11.811,11.811,0,0,1,80.674,93.191Zm11.8-9.636a9.648,9.648,0,1,0,9.642,9.635A9.653,9.653,0,0,0,92.476,83.554Z" transform="translate(0 0)" fill="#fff"/>
    <path id="Path_3530" data-name="Path 3530" d="M240.444,149.711c0-1.088-.008-2.176,0-3.264a1.035,1.035,0,0,1,.912-1.006,1.067,1.067,0,0,1,1.178.762,1.644,1.644,0,0,1,.038.473c0,1.85,0,3.7,0,5.55a.557.557,0,0,0,.182.438q1.348,1.333,2.683,2.679a1.043,1.043,0,0,1,.3,1.078,1.02,1.02,0,0,1-.794.755,1,1,0,0,1-.972-.271q-1.622-1.609-3.232-3.231a1.1,1.1,0,0,1-.3-.824c.005-1.046,0-2.093,0-3.139Z" transform="translate(-149.04 -59.728)" fill="#fff"/>
  </g>
</svg>
