<svg xmlns="http://www.w3.org/2000/svg" width="18.167" height="18.171" viewBox="0 0 18.167 18.171">
  <g id="Group_1945" data-name="Group 1945" transform="translate(-223.111 -195.078)">
    <path id="Path_3369" data-name="Path 3369" d="M223.111,328.072c.061-.055.056-.139.091-.206a.889.889,0,0,1,.757-.507c.053,0,.106-.005.159-.006.427,0,.577-.129.655-.551a.32.32,0,0,0-.1-.289c-.093-.1-.193-.192-.279-.3a.876.876,0,0,1-.008-1.113,9.317,9.317,0,0,1,1-1.005.872.872,0,0,1,1.154.011c.1.084.187.18.282.27a.309.309,0,0,0,.343.072c.088-.033.175-.072.262-.107a.331.331,0,0,0,.225-.344c0-.106,0-.213,0-.319a.887.887,0,0,1,.868-.861c.431-.014.863-.014,1.294,0a.879.879,0,0,1,.855.852c0,.041,0,.083,0,.124.005.459.042.507.48.656a.325.325,0,0,0,.358-.076c.1-.1.2-.2.311-.29a.862.862,0,0,1,1.125.019c.341.31.668.637.978.978a.867.867,0,0,1,0,1.14,3.1,3.1,0,0,1-.255.271.335.335,0,0,0-.081.418c.03.064.058.129.082.2a.349.349,0,0,0,.367.247,1.746,1.746,0,0,1,.528.04.871.871,0,0,1,.636.808c.013.437.015.875,0,1.312a.887.887,0,0,1-.849.861c-.047,0-.095,0-.142,0-.441,0-.563.1-.659.543a.322.322,0,0,0,.1.3c.093.1.194.191.279.3a.863.863,0,0,1,.007,1.1,8.517,8.517,0,0,1-1.04,1.039.873.873,0,0,1-1.085-.013,3.086,3.086,0,0,1-.285-.266.336.336,0,0,0-.417-.087c-.07.032-.14.064-.212.091a.341.341,0,0,0-.235.357,2.027,2.027,0,0,1-.024.477.888.888,0,0,1-.837.7c-.431.014-.864.016-1.295,0a.9.9,0,0,1-.866-.867,1.631,1.631,0,0,1,0-.248.393.393,0,0,0-.291-.444c-.384-.151-.389-.157-.692.142a.926.926,0,0,1-1.433.005c-.244-.241-.487-.483-.728-.727a.921.921,0,0,1,0-1.4l.025-.025a.543.543,0,0,0,.059-.85.3.3,0,0,0-.208-.122.728.728,0,0,0-.142,0,.988.988,0,0,1-1.132-.746Zm10.424-2.422a.358.358,0,0,0-.1-.221c-.275-.277-.548-.556-.829-.827a.3.3,0,0,0-.458,0c-.088.078-.166.169-.256.246a.879.879,0,0,1-.925.174c-.105-.038-.208-.083-.311-.127a.913.913,0,0,1-.583-.856c0-.089,0-.177,0-.266-.006-.248-.11-.352-.361-.355-.278,0-.556,0-.834,0-.6,0-.608.008-.62.616a.892.892,0,0,1-.542.844c-.112.053-.227.1-.343.143a.891.891,0,0,1-.954-.192c-.079-.071-.149-.152-.228-.223a.3.3,0,0,0-.457-.009q-.429.411-.84.841a.3.3,0,0,0,0,.43c.085.1.179.189.27.281a1.2,1.2,0,0,1-.591,1.778c-.1.016-.2.025-.3.031-.077.005-.154,0-.231,0a.3.3,0,0,0-.321.306q-.013.594,0,1.188a.306.306,0,0,0,.331.318c.106.005.213,0,.319,0a.886.886,0,0,1,.794.508,3.381,3.381,0,0,1,.157.375.885.885,0,0,1-.19.953c-.079.088-.169.166-.245.256a.291.291,0,0,0,0,.416q.418.435.852.853a.3.3,0,0,0,.431,0,2.41,2.41,0,0,0,.228-.223c.539-.6,1.73-.048,1.827.53a2.474,2.474,0,0,1,.03.405c0,.381.086.465.473.465h.763c.539,0,.574-.033.579-.567a.911.911,0,0,1,.47-.855,2.617,2.617,0,0,1,.489-.206.852.852,0,0,1,.831.17c.1.086.195.19.3.279a.3.3,0,0,0,.43,0q.436-.417.853-.853a.29.29,0,0,0,0-.43,2.547,2.547,0,0,0-.224-.227c-.6-.541-.045-1.749.548-1.83a2.045,2.045,0,0,1,.263-.027c.095,0,.19,0,.284,0a.294.294,0,0,0,.3-.31q.009-.594,0-1.188a.292.292,0,0,0-.311-.312c-.071,0-.142,0-.213,0a1.18,1.18,0,0,1-1.127-1.342,1.126,1.126,0,0,1,.395-.653A.458.458,0,0,0,233.535,325.65Z" transform="translate(0 -121.676)" fill="#fff"/>
    <path id="Path_3370" data-name="Path 3370" d="M300.53,195.078c.07.029.143.053.21.087a.918.918,0,0,1,.53.873c0,.284.005.568,0,.852a.336.336,0,0,0,.242.349c.241.1.483.191.719.3a.351.351,0,0,0,.447-.08c.188-.2.383-.387.577-.577a.911.911,0,0,1,1.381,0q.6.59,1.193,1.19a.911.911,0,0,1,0,1.381q-.292.3-.589.59a.329.329,0,0,0-.077.417,6.725,6.725,0,0,1,.3.736.335.335,0,0,0,.365.244c.266-.007.532,0,.8,0a.922.922,0,0,1,1,.995q0,.825,0,1.65a.918.918,0,0,1-.98.993c-.272,0-.544.005-.816,0a.351.351,0,0,0-.372.262c-.091.243-.193.482-.3.719a.338.338,0,0,0,.077.418q.3.293.589.59a.91.91,0,0,1,0,1.38q-.592.6-1.192,1.191a.909.909,0,0,1-1.368.006q-.477-.464-.941-.94a.3.3,0,1,1,.42-.432c.036.031.068.066.1.1q.4.4.8.8c.229.227.367.226.6,0q.559-.558,1.116-1.116c.226-.226.227-.362.006-.585-.191-.193-.387-.383-.576-.579a.888.888,0,0,1-.194-1.058c.109-.242.211-.487.305-.736a.888.888,0,0,1,.879-.62c.284,0,.568,0,.852,0s.384-.112.385-.391q0-.825,0-1.65c0-.265-.113-.378-.378-.382-.284,0-.568,0-.851,0a.886.886,0,0,1-.883-.612c-.1-.254-.2-.5-.312-.752a.881.881,0,0,1,.193-1.042c.2-.2.4-.4.6-.6s.194-.342,0-.534q-.593-.6-1.192-1.191a.312.312,0,0,0-.509,0c-.2.2-.4.4-.6.6a.894.894,0,0,1-1.087.2q-.356-.158-.72-.3a.888.888,0,0,1-.617-.9c0-.272,0-.544,0-.816,0-.289-.111-.4-.4-.4q-.816,0-1.632,0c-.288,0-.393.107-.4.4,0,.266,0,.532,0,.8a.91.91,0,0,1-.649.932c-.242.095-.48.2-.719.3a.885.885,0,0,1-1.029-.184c-.21-.2-.41-.409-.617-.612a.321.321,0,0,0-.534,0q-.592.587-1.179,1.179a.323.323,0,0,0,0,.535c.282.287.568.569.851.855a.849.849,0,0,1,.126.148.3.3,0,0,1-.4.4.633.633,0,0,1-.124-.1c-.3-.3-.6-.591-.89-.891a.91.91,0,0,1,0-1.368q.591-.6,1.192-1.192a.911.911,0,0,1,1.381,0c.194.19.388.382.577.577a.345.345,0,0,0,.446.085,5.649,5.649,0,0,1,.719-.3.336.336,0,0,0,.247-.363c-.005-.272,0-.544,0-.816a.914.914,0,0,1,.691-.953.182.182,0,0,0,.041-.03Z" transform="translate(-66.349)" fill="#fff"/>
    <path id="Path_3371" data-name="Path 3371" d="M376.342,284.648a3.908,3.908,0,0,1,3.861,3.213,3.85,3.85,0,0,1-1.046,3.458.309.309,0,0,1-.454.048.3.3,0,0,1,.013-.455,3.4,3.4,0,0,0,.919-1.783,3.327,3.327,0,0,0-5.517-3.03,1.608,1.608,0,0,1-.161.138.3.3,0,0,1-.413-.044.3.3,0,0,1,.034-.416,3.745,3.745,0,0,1,.941-.687A3.858,3.858,0,0,1,376.342,284.648Z" transform="translate(-143.236 -85.324)" fill="#fff"/>
    <path id="Path_3372" data-name="Path 3372" d="M298.878,395.893a2.632,2.632,0,0,1-2.716,2.71,2.718,2.718,0,1,1,2.716-2.71Zm-2.724-2.121a2.116,2.116,0,1,0,2.114,2.138A2.114,2.114,0,0,0,296.154,393.773Z" transform="translate(-66.99 -188.699)" fill="#fff"/>
  </g>
</svg>
