<svg xmlns="http://www.w3.org/2000/svg" width="26.734" height="27.996" viewBox="0 0 26.734 27.996">
  <g id="Group_1578" data-name="Group 1578" transform="translate(-21.785 -22.623)">
    <g id="Group_1577" data-name="Group 1577" transform="translate(21.785 22.623)">
      <path id="Path_3504" data-name="Path 3504" d="M-31.833-77.418a8.638,8.638,0,0,1-.973-.256,4.006,4.006,0,0,1-2.581-3.109c-.04-.209-.125-.251-.319-.25-1.731.007-3.462.014-5.193,0a3.14,3.14,0,0,1-2.911-4.3,3.169,3.169,0,0,1,2.826-2.008c.51-.049.561-.1.561-.622,0-1.749-.036-3.5.008-5.248a8.8,8.8,0,0,1,5.447-8.282.707.707,0,0,0,.513-.811,3.04,3.04,0,0,1,3.082-3.108,3.08,3.08,0,0,1,3.056,3.151,1.4,1.4,0,0,1-.024.326c-.049.182.026.246.189.312A9,9,0,0,1-24.5-98.932a9.076,9.076,0,0,1,2.124,5.78c.019,1.749,0,3.5.006,5.248,0,.442.073.521.511.557a3.24,3.24,0,0,1,3.049,2.591,3.154,3.154,0,0,1-3.064,3.723c-1.74.015-3.48.007-5.221,0-.2,0-.278.058-.312.258a4.061,4.061,0,0,1-3.324,3.3c-.061.01-.13,0-.176.056Zm.448-5.416q4.7,0,9.4,0a1.351,1.351,0,0,0,1.416-1.234,1.362,1.362,0,0,0-1.249-1.459c-.207-.029-.42-.023-.624-.066a2.156,2.156,0,0,1-1.733-2.16q-.01-2.583,0-5.166a7.606,7.606,0,0,0-.394-2.5,7.242,7.242,0,0,0-8.415-4.86,7.246,7.246,0,0,0-5.632,6.857c-.019,1.886,0,3.772-.008,5.658a2.161,2.161,0,0,1-1.752,2.172c-.231.046-.473.037-.705.077a1.342,1.342,0,0,0-.957,2.025,1.387,1.387,0,0,0,1.272.655Q-36.073-82.836-31.385-82.833Zm-.009,1.8c-.665,0-1.33,0-1.994,0-.178,0-.218.038-.165.216A2.284,2.284,0,0,0-31.4-79.224a2.282,2.282,0,0,0,2.158-1.59c.052-.173.02-.22-.162-.218C-30.064-81.023-30.729-81.028-31.394-81.028Zm0-22.58a1.278,1.278,0,0,0-1.269,1.241c0,.145.023.212.2.19a8.247,8.247,0,0,1,2.15-.005c.168.023.2-.046.2-.193A1.278,1.278,0,0,0-31.4-103.608Z" transform="translate(44.045 105.414)" fill="#f9f9f9"/>
    </g>
    <circle id="Ellipse_11" data-name="Ellipse 11" cx="5.211" cy="5.211" r="5.211" transform="translate(38.096 24.843)" fill="#fb0"/>
    <text id="_1" data-name="1" transform="translate(42.308 32.621)" fill="#fff" font-size="7" font-family="IRANYekanFN-ExtraBold, IRANYekanFN" font-weight="800"><tspan x="0" y="0">1</tspan></text>
  </g>
</svg>
