<svg xmlns="http://www.w3.org/2000/svg" width="22.532" height="15.959" viewBox="0 0 22.532 15.959">
  <path id="reader" d="M22.532,76.841a.226.226,0,0,0,0-.041l0-.011a.236.236,0,0,0-.012-.037l0,0a.234.234,0,0,0-.017-.031l-.006-.009a.233.233,0,0,0-.025-.03h0a.231.231,0,0,0-.029-.024l-.009-.006-.009-.006L12.97,71.188a.231.231,0,0,0-.232,0L.115,78.525l-.008.006L.1,78.536a.228.228,0,0,0-.029.024h0a.232.232,0,0,0-.025.03L.037,78.6a.227.227,0,0,0-.017.031l0,0a.226.226,0,0,0-.012.037l0,.01a.226.226,0,0,0,0,.04H0v2.707a.231.231,0,0,0,.115.2l9.446,5.454.021.011.005,0a.233.233,0,0,0,.037.012l.01,0a.231.231,0,0,0,.041,0,.235.235,0,0,0,.041,0l.01,0a.229.229,0,0,0,.038-.012l0,0,.023-.011,12.624-7.336a.231.231,0,0,0,.115-.2V76.842h0S22.532,76.842,22.532,76.841ZM9.676,83.911l-7.965-4.6,12.163-7.069,7.965,4.6Zm3.179-12.256.559.322L1.25,79.046l-.559-.323ZM9.908,86.484v-.219a.231.231,0,0,0-.462,0v.221L.462,81.3V79.124l.672.388.006,0,8.306,4.8v.8a.231.231,0,0,0,.462,0v-.8L22.07,77.243v2.173Zm-1.2-1.348a.231.231,0,0,1-.315.085L1.3,81.125a.231.231,0,0,1,.231-.4l7.094,4.1A.231.231,0,0,1,8.707,85.136ZM21.318,78.8a.231.231,0,0,1-.084.316L10.988,85.07a.231.231,0,1,1-.232-.4L21,78.716A.231.231,0,0,1,21.318,78.8Zm-12.757.842a1.783,1.783,0,0,0-1.642,0,.658.658,0,0,0,.005,1.217,1.669,1.669,0,0,0,.822.2h0a1.657,1.657,0,0,0,.82-.2.658.658,0,0,0-.005-1.217Zm-.227.818a1.327,1.327,0,0,1-1.179,0c-.112-.065-.179-.143-.179-.21s.065-.143.175-.207a1.327,1.327,0,0,1,1.179,0c.112.065.179.143.179.21S8.444,80.395,8.334,80.458Zm7.88-5.342a5.5,5.5,0,0,0-2.7-.651,5.455,5.455,0,0,0-2.7.652l-.7.409a.231.231,0,0,0,0,.4l1.415.817a.231.231,0,0,0,.232,0l.7-.409a2.143,2.143,0,0,1,1.058-.251,2.19,2.19,0,0,1,1.062.251.628.628,0,0,1,.375.484.619.619,0,0,1-.368.479,2.686,2.686,0,0,1-1.308.311,3.187,3.187,0,0,1-.495-.038,5.823,5.823,0,0,0-.907-.07,4.956,4.956,0,0,0-2.451.592l-1.135.66a.231.231,0,0,0,0,.4l1.431.826a.231.231,0,0,0,.231,0l1.161-.675a1.6,1.6,0,0,1,.78-.184,1.916,1.916,0,0,1,.3.023,7.016,7.016,0,0,0,1.091.085,5.963,5.963,0,0,0,2.948-.711,1.808,1.808,0,0,0-.017-3.4Zm-.215,3a5.577,5.577,0,0,1-2.716.649,6.555,6.555,0,0,1-1.019-.079,2.375,2.375,0,0,0-.37-.029,2.045,2.045,0,0,0-1.012.247l-1.046.608-.97-.56.79-.459a4.555,4.555,0,0,1,2.219-.53,5.366,5.366,0,0,1,.835.065,3.653,3.653,0,0,0,.567.044,3.112,3.112,0,0,0,1.54-.373.945.945,0,0,0-.008-1.761,2.82,2.82,0,0,0-2.583,0l-.587.341-.954-.551.358-.208a4.99,4.99,0,0,1,2.466-.589,5.03,5.03,0,0,1,2.474.589,1.618,1.618,0,0,1,.964,1.3A1.6,1.6,0,0,1,16,78.112Z" transform="translate(0 -71.157)" fill="#fff"/>
</svg>
