<svg xmlns="http://www.w3.org/2000/svg" width="82.073" height="62.5" viewBox="0 0 82.073 62.5">
  <g id="eghtesad_novin" data-name="eghtesad novin" transform="translate(-5.495 89.62)">
    <rect id="Rectangle_1329" data-name="Rectangle 1329" width="1.637" height="1.637" transform="translate(84.938 -29.414) rotate(-45)" fill="#606060"/>
    <path id="Path_2163" data-name="Path 2163" d="M74.826,24.725H73.512V24.7a2.038,2.038,0,0,1-1.13-.542,3.012,3.012,0,0,1-.8-2.295c0-.7-.046-1.753-.127-3.159-.092-1.58-.2-2.617-.277-3.125-.035-.161-.023-.277.035-.323l1.4-1.142a1.077,1.077,0,0,1,.3-.208l.012.012c.035.012.046.081.046.242v7.172a1.084,1.084,0,0,0,1.13,1.2h.357c.819,0,1.222-.15,1.222-.461,0-.265-.311-.749-.957-1.453a.21.21,0,0,1,0-.277l1-1.384c.081-.115.173-.138.254-.046a3.11,3.11,0,0,1,.634,1.153,4.034,4.034,0,0,1,.242,1.314,4.323,4.323,0,0,1-.484,2.133,2.17,2.17,0,0,1-1.545,1.153v.058Z" transform="translate(10.713 -56.792)" fill="#606060"/>
    <path id="Path_2164" data-name="Path 2164" d="M70.676,16.173l-1.142,1.153L68.37,16.173l1.165-1.153Z" transform="translate(10.286 -56.623)" fill="#606060"/>
    <path id="Path_2165" data-name="Path 2165" d="M72.987,21.376A4.323,4.323,0,0,1,72.5,23.51,2.182,2.182,0,0,1,70.462,24.7H68.4a2.791,2.791,0,0,1-1.753-.773,22.034,22.034,0,0,1-1.868-1.949,2.814,2.814,0,0,1-1.176,2.2,5.233,5.233,0,0,1-2.145.519,24.736,24.736,0,0,1-2.721.161,9.638,9.638,0,0,1-3.413-.438,2.649,2.649,0,0,1-1.6-2.7,3.505,3.505,0,0,1,.438-1.66c.265-.484.484-.726.669-.726.219,0,.323.115.323.357a2.164,2.164,0,0,1-.127.53,1.934,1.934,0,0,0-.138.6,1.621,1.621,0,0,0,1.326,1.718,16.367,16.367,0,0,0,2.975.161,21.4,21.4,0,0,0,3.874-.231c.507-.115.773-.311.773-.6,0-.369-.357-.934-1.049-1.706A9,9,0,0,0,61.007,18.6l.415-2.2c2.375-.945,4.543-1.741,6.48-2.375l-.438,1.949c-1,.311-2.617.865-4.82,1.649.876.83,1.822,1.787,2.825,2.86a15.47,15.47,0,0,0,1.6,1.557,2.164,2.164,0,0,0,1.314.473h2.2c.819,0,1.222-.15,1.222-.461,0-.265-.311-.749-.957-1.453a.21.21,0,0,1,0-.277l1-1.384c.081-.115.173-.138.254-.046a3.11,3.11,0,0,1,.634,1.153A4.219,4.219,0,0,1,72.987,21.376Z" transform="translate(8.044 -56.776)" fill="#606060"/>
    <path id="Path_2166" data-name="Path 2166" d="M52.868,22.8a5.669,5.669,0,0,1-.646,1.983c-.115.242-.2.357-.242.357q-.1,0-.173-.8L51,15.35l1.568-1.3c.1-.081.173-.127.219-.127s.081.058.081.184Z" transform="translate(7.627 -56.791)" fill="#606060"/>
    <path id="Path_2167" data-name="Path 2167" d="M51.452,14.939l-1.038,1.049-1.049-1.049,1.049-1.049,1.038,1.049Zm2.329,0-1.038,1.049-1.049-1.049,1.049-1.049,1.038,1.049ZM52.755,19.9a1.846,1.846,0,0,0-.738-.9,1.294,1.294,0,0,0-.669-.231.689.689,0,0,0-.484.184.551.551,0,0,0-.219.45c0,.4.392.6,1.153.6a4.936,4.936,0,0,0,.957-.1Zm-6.688-1.9-1.049,1.038L43.98,17.995l1.038-1.038,1.049,1.038Zm2.329,0-1.049,1.038-1.038-1.038,1.038-1.038L48.4,17.995ZM42.25,21.777a.9.9,0,0,0-.565-.819,2.141,2.141,0,0,0-1.026-.242c-.738,0-1.637.611-2.733,1.856.473.035.911.058,1.326.058a7.051,7.051,0,0,0,2.329-.311c.45-.184.669-.357.669-.542Zm-8.279,2.952v-.1a2.285,2.285,0,0,0,1.268-1.061,2.4,2.4,0,0,0,1.28.945,5.435,5.435,0,0,0,1.614.184,11.176,11.176,0,0,0,2.11-.15,4.225,4.225,0,0,0,1.9-.842,1.542,1.542,0,0,0,1.038.945v.069h1.66v-.012a2.4,2.4,0,0,0,1.879-1.234,2.4,2.4,0,0,0,.945.911,2.355,2.355,0,0,0,.761.288v.058h1.545a5.434,5.434,0,0,0,2.975-.634c.749-.5,1.118-1.476,1.118-2.917a7.528,7.528,0,0,0-.369-2.4c-.392-1.165-1.038-1.741-1.914-1.741a1.86,1.86,0,0,0-1.6,1.222,4.468,4.468,0,0,0-.519,2.041c0,.83.565,1.257,1.695,1.257q.45,0,1.522-.1c.231-.023.346.046.346.2a.551.551,0,0,1-.3.53,7.033,7.033,0,0,1-2.721.346H48.88a1.633,1.633,0,0,1-1.418-.553,2.726,2.726,0,0,1-.323-1.026c-.069-.369-.2-.553-.4-.553s-.346.184-.415.553a2.264,2.264,0,0,1-.381,1.026,2.192,2.192,0,0,1-1.718.553H43.2a3.436,3.436,0,0,0,.473-1.706,1.717,1.717,0,0,0-.634-1.384,2.165,2.165,0,0,0-1.453-.507,4.343,4.343,0,0,0-2.64,1.384,16.558,16.558,0,0,0-2.006,2.2A1.088,1.088,0,0,1,35.92,22a5.585,5.585,0,0,1-.3-.957c-.081-.346-.231-.519-.438-.519-.173,0-.3.173-.369.519a2.544,2.544,0,0,1-.357.957,1.606,1.606,0,0,1-1.234.519,1.076,1.076,0,0,1-1.072-1.2V14.144c0-.15-.023-.231-.046-.242l-.012-.012a1.076,1.076,0,0,0-.3.208l-1.4,1.142c-.058.046-.069.161-.035.323.092.5.184,1.545.277,3.125.081,1.407.127,2.456.127,3.159a3.03,3.03,0,0,0,.8,2.295,2.038,2.038,0,0,0,1.13.542v.023h1.28Z" transform="translate(4.466 -56.795)" fill="#606060"/>
    <path id="Path_2168" data-name="Path 2168" d="M31.287,21.206q0,3.1-3.863,3.09-2.214,0-2.214-2.075c0-.127.012-.265.023-.4.092-.761.288-1.13.611-1.13.184,0,.277.127.3.392a1.4,1.4,0,0,0,.219.738,1.819,1.819,0,0,0,1.384.392,9.1,9.1,0,0,0,1.418-.127c.749-.127,1.118-.311,1.118-.565,0-.45-.4-1-1.188-1.672a5.407,5.407,0,0,0-1.776-1.1l.507-1.914c.035-.127.069-.2.115-.2a.545.545,0,0,1,.184.081,8.545,8.545,0,0,1,2.11,1.891A4.354,4.354,0,0,1,31.287,21.206Z" transform="translate(3.68 -56.375)" fill="#606060"/>
    <path id="Path_2169" data-name="Path 2169" d="M27.485,16.173l-1.142,1.153-1.165-1.153,1.153-1.153,1.153,1.153Zm-4.716,6.215a1.765,1.765,0,0,0-.726-.9,1.284,1.284,0,0,0-.669-.242.708.708,0,0,0-.484.184.567.567,0,0,0-.219.45c0,.4.311.6.957.6a9.916,9.916,0,0,0,1.142-.092Zm2.756,2.168h-1.51a5.576,5.576,0,0,1-1.464,3.817c-.311.357-.507.53-.6.53a10.774,10.774,0,0,1-3.4-.438c-.161-.058-.161-.115-.023-.161A10.468,10.468,0,0,0,21.489,26.6c1.049-.83,1.58-1.522,1.58-2.075H21.927a3.7,3.7,0,0,1-1.672-.254,1.371,1.371,0,0,1-.7-1.349,4.726,4.726,0,0,1,.565-2.052c.461-.934,1-1.407,1.637-1.407a1.826,1.826,0,0,1,1.591,1.015A4.725,4.725,0,0,1,24,22.353h1.118c.819,0,1.222-.15,1.222-.461,0-.265-.311-.749-.957-1.453a.21.21,0,0,1,0-.277l1-1.384c.081-.115.173-.138.254-.046a3.11,3.11,0,0,1,.634,1.153A4.034,4.034,0,0,1,27.52,21.2a4.323,4.323,0,0,1-.484,2.133A2.135,2.135,0,0,1,25.5,24.475v.081ZM16.785,27.1l-1.038,1.049L14.7,27.1l1.049-1.038L16.785,27.1Zm2.329,0-1.038-1.038L17.027,27.1l1.049,1.049L19.114,27.1Zm-8.878-7.6L9.094,20.67,7.941,19.505l1.165-1.153,1.13,1.153Zm5.143,5.05v-.023A2.119,2.119,0,0,0,17.1,23.356a4.353,4.353,0,0,0,.484-2.133,4.034,4.034,0,0,0-.242-1.314,3.181,3.181,0,0,0-.634-1.153c-.081-.092-.173-.081-.254.046l-1,1.384a.21.21,0,0,0,0,.277c.634.7.957,1.176.957,1.453,0,.3-.415.461-1.222.461H14.144a1.808,1.808,0,0,1-1.222-.473,6.392,6.392,0,0,1-.876-1.1c-.081-.127-.161-.127-.219,0l-.842,1.718a7.82,7.82,0,0,1,1.13,1.314,3.113,3.113,0,0,1,.738,1.5c0,.507-.427.922-1.257,1.245A6.883,6.883,0,0,1,9.152,27a4.888,4.888,0,0,1-2.075-.346,1.726,1.726,0,0,1-.957-1.695,4.351,4.351,0,0,1,.254-1.165,4.978,4.978,0,0,0,.265-.911c0-.311-.115-.473-.346-.473-.323,0-.646.507-.957,1.51a6.984,6.984,0,0,0-.415,1.96,3.17,3.17,0,0,0,.773,2.2,3.688,3.688,0,0,0,2.929,1.084,6.384,6.384,0,0,0,3.505-.853A3.458,3.458,0,0,0,13.672,25.2a7.017,7.017,0,0,0-.058-.83,1.527,1.527,0,0,0,.623.184v.023h1.142Z" transform="translate(0.575 -56.623)" fill="#606060"/>
    <g id="Group_1234" data-name="Group 1234" transform="translate(24.636 -31.456)">
      <path id="Path_2170" data-name="Path 2170" d="M23.2,26.334a.876.876,0,0,1-.945.945c-.484,0-.738-.208-.738-.634A1.018,1.018,0,0,1,21.739,26c.023-.035.046-.046.058-.046s.012.012.012.023a.453.453,0,0,1-.023.069.862.862,0,0,0-.127.415.417.417,0,0,0,.173.357.61.61,0,0,0,.392.115,1.246,1.246,0,0,0,.646-.161c.127-.081.2-.138.2-.2a1.419,1.419,0,0,0-.127-.5,2.139,2.139,0,0,0-.231-.427l.115-.231c.012-.035.023-.046.035-.046s.023.012.035.035a1.417,1.417,0,0,1,.311.922Zm-.784-1.326-.2.288-.288-.2.208-.3.277.208Zm1.5,1.268v.069a1.237,1.237,0,0,1-.127.565c-.012.012-.023.023-.035.023s-.023-.012-.023-.035a6.452,6.452,0,0,0-.035-.865c-.012-.115-.035-.323-.069-.611a4.377,4.377,0,0,1-.035-.53.607.607,0,0,1,.069-.173c.081-.138.127-.2.15-.2s.023.035.023.092a1.4,1.4,0,0,0-.012.231c.012.219.035.692.092,1.43Zm1.776.623h-.115c-.069,0-.115.046-.127.127a1.444,1.444,0,0,1-.277.611.722.722,0,0,1-.588.357.978.978,0,0,1-.438-.161c-.035-.023-.058-.046-.058-.058s.023-.023.058-.023h.035a1.776,1.776,0,0,0,.219.023.585.585,0,0,0,.323-.081,1.126,1.126,0,0,0,.288-.265,1.626,1.626,0,0,0,.161-.208.5.5,0,0,0,.1-.242c0-.046-.069-.138-.2-.288l.138-.3c.012-.023.023-.023.046,0,.092.115.184.184.265.184h.161V26.9Zm.565-.553a.831.831,0,0,0-.115-.461c-.023-.035-.046-.035-.069.012l-.15.254a.654.654,0,0,1,.184.311c0,.035-.058.058-.184.081a1.94,1.94,0,0,1-.231.023h-.138v.346h.138a.553.553,0,0,0,.4-.138.6.6,0,0,0,.1-.2.823.823,0,0,0,.058-.231Zm.277,1.245-.288-.2-.127.208-.254-.173-.173.277.277.184.138-.219.265.173.161-.254Zm.715-1.314v.069a1.237,1.237,0,0,1-.127.565c-.012.012-.023.023-.035.023s-.023-.012-.023-.035a6.451,6.451,0,0,0-.035-.865c-.012-.115-.035-.323-.069-.611a4.376,4.376,0,0,1-.035-.53A.607.607,0,0,1,27,24.719c.081-.138.127-.2.15-.2s.023.035.023.092a1.4,1.4,0,0,0-.012.231c.012.219.035.692.092,1.43Zm3.574.623h-.392a.793.793,0,0,0-.277.058c-.081.035-.127.069-.127.092s.058.046.161.058c.219.046.346.069.369.081a.205.205,0,0,1,.161.2.45.45,0,0,1-.081.288,1.227,1.227,0,0,1-.6.381,2.494,2.494,0,0,1-.715.1.9.9,0,0,1-.577-.161.578.578,0,0,1-.254-.519,1.259,1.259,0,0,1,.242-.773c.023-.035.046-.046.058-.046s.012.012.012.023a.293.293,0,0,1-.023.081,1.118,1.118,0,0,0-.127.473.477.477,0,0,0,.265.45,1.155,1.155,0,0,0,.553.127,2.366,2.366,0,0,0,.749-.115c.219-.069.323-.127.323-.184,0-.023-.046-.046-.127-.058-.058-.012-.15-.023-.277-.046-.231-.035-.334-.115-.334-.231a.55.55,0,0,1,.231-.392.8.8,0,0,1,.553-.219h.242V26.9Zm1.165-.415a1.061,1.061,0,0,0-.081-.438.37.37,0,0,0-.1-.173.278.278,0,0,0-.173-.046.3.3,0,0,0-.231.127,1.9,1.9,0,0,0-.127.219c-.081.161-.138.254-.15.277a.322.322,0,0,1-.254.127h-.184v.346h.127a.284.284,0,0,0,.254-.115c.035-.069.069-.115.081-.15.035-.058.069-.092.1-.092.012,0,.081.035.231.1a.864.864,0,0,0,.288.1q.052,0,.138-.1a.66.66,0,0,0,.081-.184Zm-.242-.15c0,.046-.012.058-.046.046q-.277-.1-.277-.173a.1.1,0,0,1,.046-.081.125.125,0,0,1,.081-.035.2.2,0,0,1,.138.092.271.271,0,0,1,.058.15Zm2.94.565h-.161c-.219,0-.357-.161-.415-.5-.023-.092-.058-.381-.127-.876a2,2,0,0,1-.692,1.487,1.373,1.373,0,0,1-.381.081,2.186,2.186,0,0,1-.4.035q-.1,0-.1-.035c0-.012.023-.035.081-.046a2.617,2.617,0,0,0,.773-.4c.231-.161.334-.288.334-.369,0-.1-.1-.265-.3-.507s-.346-.357-.45-.357c-.012,0-.035.023-.081.058l-.069.058a.628.628,0,0,1-.277-.127c-.15-.092-.231-.161-.231-.219,0-.3.046-.45.127-.45a1.159,1.159,0,0,1,.565.277,2.129,2.129,0,0,1,.842,1.038,4.768,4.768,0,0,0,.161-1.407c.046-.058.092-.115.15-.2.012-.023.023-.023.035-.035s.012.012.012.046l.069.922a4.738,4.738,0,0,0,.173.911q.069.208.242.208h.127v.4Zm1.9-.692a.384.384,0,0,0-.1-.288c-.035-.035-.058-.035-.069.012-.035.115-.058.208-.081.3.046.046.069.081.069.115s-.046.058-.138.035a.424.424,0,0,1-.173-.092.264.264,0,0,1-.069-.161c-.012-.058-.023-.092-.046-.092s-.035.046-.069.127a.8.8,0,0,1-.138.231.4.4,0,0,1-.3.127c-.138,0-.208-.058-.208-.161v-.115c0-.023-.012-.046-.023-.046s-.046.035-.081.092a.422.422,0,0,1-.127.173.575.575,0,0,1-.334.092h-.173V26.9h.127a.5.5,0,0,0,.438-.242.563.563,0,0,0,.115.15.424.424,0,0,0,.231.058c.138,0,.288-.1.461-.323a.459.459,0,0,0,.346.173.262.262,0,0,0,.242-.184.539.539,0,0,0,.1-.323Zm.715.069v.069a1.237,1.237,0,0,1-.127.565c-.012.012-.023.023-.035.023s-.023-.012-.023-.035a6.452,6.452,0,0,0-.035-.865c-.012-.115-.035-.323-.069-.611a4.376,4.376,0,0,1-.035-.53.607.607,0,0,1,.069-.173c.081-.138.127-.2.15-.2s.023.035.023.092a1.4,1.4,0,0,0-.012.231c0,.219.035.692.092,1.43Zm3.609-.68a.578.578,0,0,1-.035.161c-.023.081-.035.115-.046.115l-.1-.035a.452.452,0,0,0-.15-.035.69.69,0,0,0-.45.184c-.15.115-.219.219-.219.311s.081.173.231.208c.081.012.231.035.438.069.161.023.231.081.231.161a.683.683,0,0,1-.173.5,1.736,1.736,0,0,1-.473.277,2.322,2.322,0,0,1-.865.2.829.829,0,0,1-.53-.15.581.581,0,0,1-.231-.484,1.559,1.559,0,0,1,.311-.922c.023-.023.035-.046.046-.046s.012.012.012.023a.042.042,0,0,1-.012.035,1.615,1.615,0,0,0-.208.646.445.445,0,0,0,.219.4.812.812,0,0,0,.438.127,2.449,2.449,0,0,0,.957-.2c.219-.092.323-.161.323-.208a1.952,1.952,0,0,0-.461-.081.811.811,0,0,1-.323-.1.389.389,0,0,1-.1-.311.959.959,0,0,1,.323-.623.871.871,0,0,1,.588-.357.4.4,0,0,1,.15.035c.081.012.115.058.115.1Zm1.614.992a1.2,1.2,0,0,1-.311.807.769.769,0,0,1-.553.334.98.98,0,0,1-.288-.058.867.867,0,0,1-.254-.15c-.012-.012-.023-.023-.023-.035a.031.031,0,0,1,.035-.035h.023a.793.793,0,0,0,.277.058,1.007,1.007,0,0,0,.6-.3c.219-.2.334-.346.334-.473a.946.946,0,0,0-.3-.519l.127-.3c.012-.035.035-.046.058-.023a.87.87,0,0,1,.277.692Zm1.914.311h-.231a1.2,1.2,0,0,1-.3.646.889.889,0,0,1-.692.4.761.761,0,0,1-.392-.2c-.081-.069-.127-.115-.127-.138s.012-.023.035-.023a.8.8,0,0,1,.184.035.871.871,0,0,0,.2.035.984.984,0,0,0,.588-.254.7.7,0,0,0,.346-.507,1.214,1.214,0,0,1-.346-.035.221.221,0,0,1-.161-.219.9.9,0,0,1,.127-.415c.092-.161.184-.242.288-.242s.161.081.208.231a1.2,1.2,0,0,1,.058.334h.208V26.9Zm-.369-.346A.357.357,0,0,0,44,26.4a.223.223,0,0,0-.15-.069c-.058,0-.092.035-.092.115s.069.127.219.127a.271.271,0,0,0,.092-.023Zm1.949.346v-.346h-.184a1.677,1.677,0,0,0-.334.058,1.109,1.109,0,0,1-.323.058,1.458,1.458,0,0,0,.231-.219.929.929,0,0,0,.138-.53c0-.2-.035-.288-.115-.288q-.173,0-.381.346a2.191,2.191,0,0,0-.242.5.852.852,0,0,1-.392.081H44.3V26.9h.1c.058,0,.15-.012.254-.023V27h.1a1.168,1.168,0,0,0,.127.5c.092.2.208.288.334.288a.29.29,0,0,0,.265-.184.749.749,0,0,0,.092-.357.422.422,0,0,0-.1-.288,1.091,1.091,0,0,1,.381-.058Zm-.6-.738c0,.081-.15.161-.438.265q.173-.415.311-.415a.1.1,0,0,1,.092.046.366.366,0,0,1,.035.1Zm.023,1.153a.139.139,0,0,1-.069.1.232.232,0,0,1-.127.035c-.081,0-.138-.046-.2-.15a.655.655,0,0,1-.081-.254,1.1,1.1,0,0,1,.288.081c.127.058.184.115.184.184Zm2.364-.415h-.115a.8.8,0,0,1-.473-.173,1.261,1.261,0,0,1-.035.2.111.111,0,0,1-.1.069.934.934,0,0,1-.438-.208,2.509,2.509,0,0,0-.231-.15c.069,0,.035.046-.115.127a.96.96,0,0,1-.3.127h-.115v-.346h.161a.49.49,0,0,0,.45-.254c.115-.184.219-.265.311-.265a.379.379,0,0,1,.242.138l.265.254a.559.559,0,0,0,.357.138h.161V26.9Zm-.842-.277a.565.565,0,0,0-.035-.219c-.035-.1-.081-.161-.127-.161s-.1.058-.173.161a2.388,2.388,0,0,0,.334.219Zm2.986-.484h0c0-.023,0-.023-.023-.023h-.277a2.179,2.179,0,0,1-.611-.092q-.1-.035-.45-.173a1.052,1.052,0,0,0-.334-.092.477.477,0,0,0-.473.346q-.017.052,0,.069a.051.051,0,0,0,.058,0,.806.806,0,0,1,.311-.046.921.921,0,0,1,.265.058c.115.035.231.081.323.115.023.012.035.012.035.023s-.012.012-.035.023q-.069.017-.45.138a1.808,1.808,0,0,1-.45.092h-.173v.346h.173a1.163,1.163,0,0,0,.473-.127c.288-.138.473-.231.565-.265a2.119,2.119,0,0,1,.749-.1h.242l.081-.288ZM49.02,27.36l-.2.288-.288-.2.208-.288.277.2Zm4.531-.461h-.392a.793.793,0,0,0-.277.058c-.081.035-.127.069-.127.092s.058.046.161.058c.219.046.346.069.369.081a.205.205,0,0,1,.161.2.45.45,0,0,1-.081.288,1.227,1.227,0,0,1-.6.381,2.494,2.494,0,0,1-.715.1.9.9,0,0,1-.577-.161.578.578,0,0,1-.254-.519,1.259,1.259,0,0,1,.242-.773c.023-.035.046-.046.058-.046s.012.012.012.023a.293.293,0,0,1-.023.081,1.118,1.118,0,0,0-.127.473.477.477,0,0,0,.265.45,1.155,1.155,0,0,0,.553.127,2.366,2.366,0,0,0,.749-.115c.219-.069.323-.127.323-.184,0-.023-.046-.046-.127-.058-.058-.012-.15-.023-.277-.046-.231-.035-.334-.115-.334-.231a.55.55,0,0,1,.231-.392.8.8,0,0,1,.553-.219h.242V26.9Zm2.606-.842a.321.321,0,0,0-.357-.369,1.137,1.137,0,0,0-.738.346c-.219.208-.357.346-.438.427a.369.369,0,0,1-.265.092.786.786,0,0,1-.208-.023.21.21,0,0,1-.115-.127.436.436,0,0,1-.012-.092c0-.035-.012-.046-.035-.046s-.035.023-.069.081a.473.473,0,0,1-.369.219h-.138v.346h.1a.415.415,0,0,0,.346-.242.336.336,0,0,0,.208.208,1.294,1.294,0,0,0,.369.035.946.946,0,0,0-.035.208c0,.058.012.081.046.081s.046-.035.069-.1c.046-.127.081-.2.081-.208a3.29,3.29,0,0,0,.934-.161c.415-.138.623-.369.623-.669Zm-.254.161c0,.058-.115.127-.357.208a2.66,2.66,0,0,1-.761.138,1.489,1.489,0,0,1,.334-.323.793.793,0,0,1,.461-.184.439.439,0,0,1,.2.046c.081.023.127.069.127.115Zm2.168.68h-.231a1.2,1.2,0,0,1-.3.646.889.889,0,0,1-.692.4.761.761,0,0,1-.392-.2c-.081-.069-.127-.115-.127-.138s.012-.023.035-.023a.8.8,0,0,1,.184.035.87.87,0,0,0,.2.035.984.984,0,0,0,.588-.254.7.7,0,0,0,.346-.507,1.214,1.214,0,0,1-.346-.035.221.221,0,0,1-.161-.219.9.9,0,0,1,.127-.415c.092-.161.184-.242.288-.242s.161.081.208.231a1.2,1.2,0,0,1,.058.334h.208V26.9Zm-.369-.346a.357.357,0,0,0-.069-.15.2.2,0,0,0-.15-.069c-.058,0-.092.035-.092.115s.069.127.219.127a.271.271,0,0,0,.092-.023Zm3.24.346v-.346h-.127a1.366,1.366,0,0,0-.392.081,3.453,3.453,0,0,1-.4.1c.45-.184.669-.415.669-.68a.321.321,0,0,0-.357-.369,1.137,1.137,0,0,0-.738.346c-.219.208-.357.346-.438.427a.369.369,0,0,1-.265.092.786.786,0,0,1-.208-.023.21.21,0,0,1-.115-.127.436.436,0,0,1-.012-.092c0-.035-.012-.046-.035-.046s-.035.023-.069.081a.473.473,0,0,1-.369.219h-.15v.346h.1a.4.4,0,0,0,.346-.242.336.336,0,0,0,.208.208,1.294,1.294,0,0,0,.369.035.946.946,0,0,0-.035.208c0,.058.012.081.046.081s.046-.035.069-.092a1.129,1.129,0,0,0,.081-.208Zm-.519-.68c0,.058-.115.127-.357.208a2.66,2.66,0,0,1-.761.138,1.489,1.489,0,0,1,.334-.323.793.793,0,0,1,.461-.184.439.439,0,0,1,.2.046c.081.023.127.069.127.115Zm2.664-.081-.092.288h-.242a2.163,2.163,0,0,0-.749.1,5.706,5.706,0,0,0-.565.265,1.118,1.118,0,0,1-.473.127h-.173v-.346h.184a1.807,1.807,0,0,0,.45-.092c.254-.081.415-.127.45-.138s.035-.012.035-.023-.012-.012-.035-.023c-.1-.035-.208-.069-.323-.115a.921.921,0,0,0-.265-.058.806.806,0,0,0-.311.046.051.051,0,0,1-.058,0q-.017-.017,0-.069a.468.468,0,0,1,.473-.346,1.052,1.052,0,0,1,.334.092q.329.138.45.173a2.179,2.179,0,0,0,.611.092h.277c.012,0,.023,0,.023.023Zm-.7-1.038-.2.288-.288-.2.208-.3.277.208Zm6.123,1.8h-.15c-.115,0-.277-.1-.5-.3-.334-.311-.53-.484-.577-.519a.522.522,0,0,1,.035.184.51.51,0,0,1-.288.461,1.737,1.737,0,0,1-.553.173,5.473,5.473,0,0,1-1.107.1,2.048,2.048,0,0,1-.68-.092.509.509,0,0,1-.357-.519.865.865,0,0,1,.208-.542c.012-.023.023-.023.046-.023s.023.023.012.069a1.35,1.35,0,0,0-.092.334c0,.173.138.3.415.369a2.348,2.348,0,0,0,.611.069,5.026,5.026,0,0,0,.98-.081c.427-.081.634-.2.634-.357,0-.092-.1-.208-.323-.346-.288-.184-.45-.288-.484-.323a.523.523,0,0,1-.1-.369.271.271,0,0,1,.058-.184,3.914,3.914,0,0,1,1.015-.715,5.25,5.25,0,0,1,1.049-.473,2.013,2.013,0,0,1-.173.381,5.953,5.953,0,0,0-1.718.945c-.035.035-.058.058-.058.081s.023.058.081.081l.357.184a3.554,3.554,0,0,1,.5.288,7.961,7.961,0,0,1,.7.577.781.781,0,0,0,.381.231h.1V26.9ZM65.785,25.63q0-.086-.173-.173c-.115-.046-.173-.069-.173-.081,0-.046.069-.081.219-.127.035-.012.058-.069.058-.15s-.023-.1-.058-.1a.691.691,0,0,0-.346.277.526.526,0,0,0-.092.254c0,.058.058.1.184.15s.161.069.161.081q-.052.1-.311.1a1.284,1.284,0,0,1-.2-.023.011.011,0,0,0-.012.012c0,.012.012.012.023.023a.516.516,0,0,0,.357.138.318.318,0,0,0,.242-.127.327.327,0,0,0,.115-.254Zm3.275.715a.831.831,0,0,0-.115-.461c-.023-.035-.046-.035-.069.012l-.15.254a.654.654,0,0,1,.184.311c0,.035-.058.058-.184.081a1.94,1.94,0,0,1-.231.023h-.138v.346h.138a.553.553,0,0,0,.4-.138.6.6,0,0,0,.1-.2.551.551,0,0,0,.058-.231Zm.035-1.326-.2.288-.288-.2.208-.3.277.208ZM70.167,26.9h-.184c-.173,0-.288-.1-.346-.323-.012-.058-.035-.288-.081-.7-.046-.53-.081-.9-.115-1.084a1.824,1.824,0,0,1,.173-.265.086.086,0,0,1,.035-.035c.012,0,.023.023.023.058l.1,1.568a1.089,1.089,0,0,0,.046.311c.035.092.115.127.242.127h.092V26.9Zm.553-.553a.831.831,0,0,0-.115-.461c-.023-.035-.046-.035-.069.012l-.15.254a.654.654,0,0,1,.184.311c0,.035-.058.058-.184.081a1.94,1.94,0,0,1-.231.023h-.138v.346h.138a.553.553,0,0,0,.4-.138.6.6,0,0,0,.1-.2.55.55,0,0,0,.058-.231Zm.035,1.268-.2.288-.288-.2.208-.288.277.2Zm3.39-.715h-.265a1.388,1.388,0,0,1-.323.888,1.172,1.172,0,0,1-.888.311.732.732,0,0,1-.507-.173.6.6,0,0,1-.208-.484.984.984,0,0,1,.288-.657c.012-.012.023-.023.035-.023s.023,0,.023.012a.042.042,0,0,1-.012.035.772.772,0,0,0-.173.473.4.4,0,0,0,.242.357.925.925,0,0,0,.45.1,1.522,1.522,0,0,0,.45-.069.674.674,0,0,0,.381-.231.92.92,0,0,0,.058-.45.33.33,0,0,0-.046-.2.887.887,0,0,0-.1-.15.051.051,0,0,1,0-.058l.127-.242q.035-.052.069,0a.3.3,0,0,0,.254.184h.138V26.9Zm-.876-1.165-.2.288-.288-.2.208-.3Z" transform="translate(-21.52 -23.82)" fill="#909090"/>
      <path id="Path_2171" data-name="Path 2171" d="M68.068,26.776h-.127a.4.4,0,0,1-.4-.219.469.469,0,0,1-.4.219h-.1V26.43h.161a.414.414,0,0,0,.254-.069.732.732,0,0,0,.115-.138c.035-.046.046-.069.058-.069s.046.035.058.1c.023.115.127.184.288.184h.092v.334Zm-.1.692-.173.254-.265-.173-.138.219-.277-.184.173-.277.254.173.127-.208.3.2Zm1-.692V26.43h-.092c-.161,0-.254-.058-.288-.184-.023-.069-.035-.1-.058-.1s-.035.023-.058.069a.461.461,0,0,1-.115.138.438.438,0,0,1-.254.069h-.161v.346h.1a.433.433,0,0,0,.4-.219.418.418,0,0,0,.4.219h.115Zm-.127-1.407-.173.254L68.4,25.45l-.138.208-.277-.184.173-.277.254.173.127-.208.3.208Zm2.237,1.407h-.161a.24.24,0,0,1-.173-.081.317.317,0,0,1-.092-.173q-.1.242-.277.242c-.127,0-.231-.092-.3-.265a.49.49,0,0,1-.392.265.292.292,0,0,1-.288-.231.5.5,0,0,1-.415.242h-.15V26.43h.2a.445.445,0,0,0,.427-.254c.035-.058.058-.092.069-.092s.035.023.035.069h0v.069c0,.115.058.173.184.173a.354.354,0,0,0,.254-.081.562.562,0,0,0,.115-.15c.023-.058.046-.081.069-.081s.035.023.035.081a.4.4,0,0,0,.023.15.182.182,0,0,0,.173.081.207.207,0,0,0,.173-.081.617.617,0,0,0,.069-.15c.023-.058.046-.081.058-.081s.035.035.046.092a.336.336,0,0,0,.046.161.2.2,0,0,0,.184.092h.092v.346Zm2.41,0V26.43h-.346a1.136,1.136,0,0,1-.242-.012c-.081-.023-.127-.058-.127-.127h.357L73.222,26v-.012c0-.012-.012-.012-.023-.012h-.277a2.179,2.179,0,0,1-.611-.092q-.1-.035-.45-.173a1.052,1.052,0,0,0-.334-.092.477.477,0,0,0-.473.346q-.017.052,0,.069a.051.051,0,0,0,.058,0,.72.72,0,0,1,.288-.046,1.073,1.073,0,0,1,.277.058,2.9,2.9,0,0,0,.334.1c.023.012.046.012.046.023s-.012.012-.046.023-.2.058-.45.138a1.714,1.714,0,0,1-.45.092h-.184v.346H71.1a.815.815,0,0,0,.357-.1l.45-.208A2.639,2.639,0,0,1,72.6,26.3a.619.619,0,0,0-.046.219c0,.173.138.265.427.265h.507Zm-1.51-1.949-.2.288-.288-.2.208-.3.277.208Zm2.1,1.4a.673.673,0,0,1-.046.231.491.491,0,0,1-.1.2.553.553,0,0,1-.4.138h-.138v-.346h.138a2.2,2.2,0,0,0,.231-.023c.127-.023.184-.046.184-.081a.654.654,0,0,0-.184-.311l.15-.254c.023-.046.046-.046.069-.012a1.089,1.089,0,0,1,.1.461ZM74.11,24.9l-.2.288-.288-.2.208-.3Z" transform="translate(-14.555 -23.698)" fill="#909090"/>
    </g>
    <g id="Group_1235" data-name="Group 1235" transform="translate(28.095 -89.62)">
      <path id="Path_2175" data-name="Path 2175" d="M88.09,29.521a7.29,7.29,0,1,0-7.29-7.29A7.3,7.3,0,0,0,88.09,29.521Z" transform="translate(-80.8 -14.94)" fill="#606060"/>
      <circle id="Ellipse_93" data-name="Ellipse 93" cx="7.29" cy="7.29" r="7.29" transform="translate(24.683 30.822) rotate(-32.018)" fill="#606060"/>
      <path id="Path_2176" data-name="Path 2176" d="M95.88,55h.445l20.09-39.721h-12.1Z" transform="translate(-74.899 -14.807)" fill="#606060"/>
      <path id="Path_2177" data-name="Path 2177" d="M90.6,55h6.122l8.431-39.721h-6.08Z" transform="translate(-76.965 -14.807)" fill="#606060"/>
      <path id="Path_2178" data-name="Path 2178" d="M81.12,55H93.085l8.487-39.721h-.362Z" transform="translate(-80.675 -14.807)" fill="#606060"/>
    </g>
  </g>
</svg>
