<svg xmlns="http://www.w3.org/2000/svg" width="77.572" height="94.154" viewBox="0 0 77.572 94.154">
  <g id="Keshavarzi" transform="translate(-6.666 -1.404)">
    <path id="Path_2571" data-name="Path 2571" d="M9.985,42.169a7.492,7.492,0,0,0-3.276,1.146c-.43-3.544,2.4-7.662,5.692-8.342a1.1,1.1,0,0,0,.913-.734,3.024,3.024,0,0,1,2.828-2.059c.555,0,.716-.269.7-.806-.036-1.629.018-3.276-.036-4.9-.018-.734.233-.931.913-.877s1.343-.018,2.023.036c.573.036.752-.215.734-.752-.036-1,.054-1.987-.036-2.989-.072-.9.3-1.11,1.092-1.038.591.054,1.217-.018,1.808.018.537.036.806-.143.734-.716a3.44,3.44,0,0,1,0-.43c0-1.915,0-1.915,1.862-2.166-.483-.841-.967-1.665-1.432-2.47.662-.2,1.253-.5,1.289-1.325.412.161.5.555.7.877.68,1.128,1.343,2.273,2,3.4v.9c-.644.054-.823.644-1.092,1.056-2.059,3.168-4.081,6.355-6.14,9.523a25.182,25.182,0,0,1-3.4,4.618c-.555.286-1.289-.2-1.79.376a2.287,2.287,0,0,0-1,1.9c-.018.269.072.644-.358.627-.573-.018-1.074.269-1.665.251-1.611-.018-2.184.43-2.721,2.023-.09.179-.2.358-.286.555-.018.018-.054.054-.054.072a.523.523,0,0,0,.036.161,2.617,2.617,0,0,0,.358.09C10.916,41,10.182,41.524,9.985,42.169Z" transform="translate(0 9.762)" fill="#909090"/>
    <path id="Path_2572" data-name="Path 2572" d="M15.315,41.411c-.322.018-.644.036-.967.036a4.554,4.554,0,0,1-1.79-.072c-.591-.286-.269-1.092-.34-1.665-.107-.716-.537-.609-.985-.627C9.39,39.03,9.39,39.03,9.39,37.168v-.43c0-1.45,0-1.45,1.432-1.45,1.4,0,1.4,0,1.468-1.486.09-1.7.09-1.7,1.826-1.7a1.935,1.935,0,0,0,.644-.018c.394-.125,1.164.376,1.146-.43-.018-.591-.322-1.253-1.217-1.11a2.646,2.646,0,0,1-.644-.036c.233-.609.931-1.128.43-1.9,2.273-.018,4.547-.054,6.838-.072a.935.935,0,0,1,.644.734c-.358.609-.537,1.36-1.36,1.522H18.108c.644,1.074,1.235,2.023,1.808,2.989-.09.859-.107,1.736-1.11,2.13-.054.018-.036.2-.036.3-.412.018-.841.054-1.253.072-.34.018-.752-.072-.68.5.054.465-.233,1.128.662,1.074a2.544,2.544,0,0,1-.358,1.289A20.492,20.492,0,0,1,15.315,41.411Z" transform="translate(2.152 21.439)" fill="#909090"/>
    <path id="Path_2573" data-name="Path 2573" d="M41.9,11.07c1.181,1.36,2.363,2.7,3.652,4.171a4.167,4.167,0,0,1-1.235.233c-1.378-.251-2.059.519-2.649,1.593-.394.734-.931,1.414-1.378,2.094.107.107.143.179.2.179,1.629.09,1.629.09,1.629,1.79,0,1.808,0,1.808,2.148,1.915a1.664,1.664,0,0,1-.09,2.273c-1.164,1.647-2.238,3.33-3.347,4.994-.2,0-.412-.018-.609-.018-.3-.34-.591-.34-.877.018-.376,1.11-.036,2.255-.233,3.383-.573.358-1.02-.054-1.5-.215,0-4.4-.018-8.807-.018-13.229.823-1.4,1.665-2.793,2.488-4.189.233-.394.34-.7-.286-.716a14.223,14.223,0,0,1,1.378-2.47A2.777,2.777,0,0,0,41.9,11.07Z" transform="translate(24.433 7.636)" fill="#909090"/>
    <path id="Path_2574" data-name="Path 2574" d="M19.56,17c2.023-.018,4.046-.054,6.068-.018.752.018.967-.215.949-.967-.072-2.828-.054-5.675-.125-8.521-.018-.788.2-1.056,1-1.02,1.164.072,2.345,0,3.509.036.591.018.806-.161.788-.77-.036-1.378,0-2.775.018-4.153.054-.054.107-.09.161-.143h6.623c.179.752-.537,1.217-.644,1.862a.872.872,0,0,0-.215.018c-1.2-.018-2.417,0-3.616-.036-.519-.018-.662.179-.662.68.036,1.486.018,2.972.018,4.475-1.45.018-2.9.09-4.35.054-.734-.018-.967.179-.967.949.054,2.578.018,5.155.018,7.751a2.639,2.639,0,0,0-1.128,1.88c-2.7-.036-5.424-.09-8.127-.125.018-.215.036-.465.251-.555C19.882,18.052,19.775,17.551,19.56,17Z" transform="translate(9.65 0.028)" fill="#909090"/>
    <path id="Path_2575" data-name="Path 2575" d="M37.953,28.189c.483.161.949.573,1.5.215.251.859.931.358,1.4.394.573.036.3-.519.322-.806.036-.985,0-1.969,0-2.954,1.11-1.665,2.2-3.347,3.347-4.994a1.683,1.683,0,0,0,.09-2.273C46.1,17.7,46.1,17.7,46.1,19.185V22.46c.251.716.841.34,1.271.394.841.107,1.092.448.68,1.181-.34.627-.788,1.164-1.146,1.772a51.659,51.659,0,0,0-3.151,5.12c-.286.018-.573.054-.877.072-1.915-.018-3.831-.054-5.746-.072.143-.627.573-1.181.43-1.862a1.1,1.1,0,0,1,.215-.09c.036-.018.09-.054.125-.072l-.054-.054C37.882,28.636,37.918,28.4,37.953,28.189Z" transform="translate(24.069 12.912)" fill="#909090"/>
    <path id="Path_2576" data-name="Path 2576" d="M49.128,30.566c.465-.125.644.072.644.537-.018.609,0,1.2,0,1.808,0,.358-.054.734.43.841a5.3,5.3,0,0,0-1.951,2.22c-.662,1.307-1.88,2.291-2.094,3.849-.662,0-.734.412-.68.931.054.591-.251.859-.823.806h-.107c-.859.09-2.023-.394-2.524.251-.412.555-.143,1.629-.161,2.488-.018,2.13,0,4.26,0,6.391,0,.376.107.788-.161,1.128-.465-.358.018-1.038-.358-1.325-.555-.465-.68.716-1.271.465V42.2c.143-.018.34.018.412-.072a44.04,44.04,0,0,0,3.544-5.657c.036-.054.018-.143.018-.215,1.056.143,1.486-.286,1.271-1.343a.722.722,0,0,1,0-.2,4.565,4.565,0,0,1,.394-.967C46.586,32.517,46.854,30.6,49,30.8,49.02,30.817,49.074,30.656,49.128,30.566Z" transform="translate(26.392 23.011)" fill="#909090"/>
    <path id="Path_2577" data-name="Path 2577" d="M50.247,32.172c-.054.09-.107.251-.161.251-2.148-.179-2.417,1.736-3.294,2.954a4.21,4.21,0,0,0-.394.967c-.859.072-1.754-.34-2.56.215a2.976,2.976,0,0,0-.734,1.02c-.018.054-.054.107-.072.161,0,.018.036.072.054.072.68.018,1.378.054,2.059.072,0,.072.018.161-.018.215a44.04,44.04,0,0,1-3.544,5.657c-.054.072-.269.054-.412.072-.107-1.5-.107-1.5-1.718-1.522-.251,0-.483-.036-.734-.036-.286-.7.465-1.271.215-1.969a5.493,5.493,0,0,0,1.325-1.539c1.128-1.844,2.309-3.634,3.437-5.478a8.784,8.784,0,0,0,1.4-2.452,3.634,3.634,0,0,0,1.754-2.255,27.617,27.617,0,0,1,3.849-.018c-.125.734-1.2,1.056-.841,2-.788.143-1.808-.322-2.184.913-.143.465-.107.644.394.644C48.779,32.118,49.513,32.154,50.247,32.172Z" transform="translate(25.272 21.406)" fill="#909090"/>
    <path id="Path_2578" data-name="Path 2578" d="M40.685,47.709c-1.092.018-2.2.054-3.294.036-.609-.018-.806.215-.788.806q.027,2.443,0,4.887c-.018,1.307-.233,1.522-1.539,1.557-1.665.054-1.647.054-1.665,1.736a22.111,22.111,0,0,1-.072,3.079c-.09.555-.269.788-.859.77-1.665-.054-3.33-.036-4.994-.036-.644-.859.376-1.343.448-2.041.9-.018,1.772-.072,2.667-.036.627.036.77-.2.752-.788-.036-1.593,0-3.2,0-4.8.859,0,1.7-.036,2.56,0,.519.018.662-.161.644-.662-.036-1.486-.018-2.989,0-4.475-.143-.806.519-1.36.644-2.094h5.549C40.6,46.348,40.291,47.028,40.685,47.709Z" transform="translate(16.272 34.957)" fill="#909090"/>
    <path id="Path_2579" data-name="Path 2579" d="M15.832,50.553c-.018-2.882-.036-5.764-.054-8.664,0-.519.018-1-.7-1.02.054-.161.036-.376.143-.483a10.156,10.156,0,0,0,2.81-4.547c.752,1.325,1.486,2.631,3.419,2.184.591-.143.752-.179.376-.734C20.9,35.91,20,34.514,19.09,33.118A2.894,2.894,0,0,0,20.2,31.31c1.36,2.059,2.7,4.1,4.063,6.158a5.378,5.378,0,0,0-.591.967c-.233.662-1.2.77-1.146,1.611-1.36.018-2.721,0-4.081.054-.34.018-.77-.251-1.02.215-.018.394-.036.77-.036,1.164v9.094A1.345,1.345,0,0,1,15.832,50.553Z" transform="translate(6.648 23.628)" fill="#909090"/>
    <path id="Path_2580" data-name="Path 2580" d="M44.251,12.026a2.71,2.71,0,0,1-.752,1.808,13.138,13.138,0,0,0-1.378,2.47c-.448.143-.985-.107-1.307.483-.806,1.486-1.665,2.936-2.506,4.421-.036.644-.054,1.271-.089,1.915-.5-.036-.9.627-1.45.215-.072-1.7-.269-3.383.877-4.941a47.466,47.466,0,0,0,2.56-4.332,9.3,9.3,0,0,1,2.112-.107c.2-.018.483.125.573-.107.107-.251-.143-.43-.34-.591-.143-.2-.286-.394-.448-.591-.233-.465-.68-.269-1.038-.286-2.148-.036-4.3-.036-6.444-.054,0-.215-.018-.448.2-.573.788-.465.716-1.128.448-1.844,2.184-.018,4.368,0,6.552-.054a1.344,1.344,0,0,1,1.164.609C43.427,10.988,43.839,11.507,44.251,12.026Z" transform="translate(22.086 6.68)" fill="#909090"/>
    <path id="Path_2581" data-name="Path 2581" d="M44.932,33.427c-.358-.931.716-1.271.841-2,1.307-.018,2.614-.054,3.938-.054.806,0,.7-.34.358-.823-.483-1.683-1.343-2.273-3.007-2.094-1.325.143-1.486.036-1.808-1.253-.09-.34-.215-.662-.322-1,.662-.394.77-1.593,1.915-1.271a2.076,2.076,0,0,0,1.718,1.289,4.714,4.714,0,0,1,2.936,2.13,17.2,17.2,0,0,1,2.56,6.05c-.09.072-.125.107-.143.107C51.018,33.14,47.922,33.731,44.932,33.427Z" transform="translate(30.176 18.539)" fill="#909090"/>
    <path id="Path_2582" data-name="Path 2582" d="M50,28.485c-1.146-.322-1.253.9-1.915,1.271a2.517,2.517,0,0,0-2.255-.841c-1.665.054-3.33-.018-4.994-.054a51.658,51.658,0,0,1,3.151-5.12c.358-.609.823-1.164,1.146-1.772.394-.752.161-1.092-.68-1.181-.43-.054-1.038.322-1.271-.394.841,0,1.7.054,2.542-.018.931-.09,1.128.3,1.092,1.146-.054,1.486,0,2.972-.036,4.457-.018.662.072,1,.9,1.056A2.671,2.671,0,0,1,50,28.485Z" transform="translate(26.992 14.979)" fill="#909090"/>
    <path id="Path_2583" data-name="Path 2583" d="M38.295,11.786c.269.716.34,1.36-.448,1.844-.2.125-.179.358-.2.573a23.7,23.7,0,0,0-2.757.143,20.41,20.41,0,0,0-2.166,3.92c-.358.3-.233.716-.233,1.092-.036,1.02-.036,2.059-.072,3.079-.34-.018-.5.125-.591.465a.775.775,0,0,1-.967.609c-.018-1.915-.018-3.849-.036-5.764a38.274,38.274,0,0,0,2.721-4.063c.036-1.7.072-3.4.107-5.12.43-.018.913.125,1.038-.519a.625.625,0,0,1,.537-.555c.018,1.164.054,2.327.018,3.491-.018.591.179.823.788.788C36.809,11.732,37.543,11.768,38.295,11.786Z" transform="translate(19.092 4.808)" fill="#909090"/>
    <path id="Path_2584" data-name="Path 2584" d="M19.932,35.728a10.061,10.061,0,0,1-2.81,4.547c-.107.107-.107.322-.143.483-.537.018-1.056.018-1.593.054-.823.072-1.325-.018-1.253-1.092.072-1.146-.985-.3-1.432-.627a13.713,13.713,0,0,0,1.79-2.273,2.544,2.544,0,0,0,.358-1.289c.806-.018,1.611-.018,2.417-.036.448,0,.358-.2.125-.412a2.738,2.738,0,0,0-.859-1.056c-.143-.054-.269-.09-.412-.143.018-.107,0-.286.036-.3,1-.376,1.038-1.271,1.11-2.13C18.16,32.9,19.037,34.314,19.932,35.728Z" transform="translate(4.767 23.738)" fill="#909090"/>
    <path id="Path_2585" data-name="Path 2585" d="M23.044,10.19c.215.555.322,1.074-.394,1.378-.2.09-.233.322-.251.555-.716.215-1.539-.2-2.2.376-.09.107-.233.179-.286.3-.107.269-.555.43-.358.806.2.34.573.179.877.2.448.036.913.036,1.36.072.179,1.038-.68,1.557-1.11,2.309-.34.2-1.056-.3-1.038.573-.054.823-.627,1.11-1.289,1.325a.179.179,0,0,1-.09-.072,2.58,2.58,0,0,0-3.168-1.7,3.014,3.014,0,0,1-.627-.054c.985-1.486,2.4-2.452,3.33-3.795A4.684,4.684,0,0,1,23.044,10.19Z" transform="translate(6.166 6.834)" fill="#909090"/>
    <path id="Path_2586" data-name="Path 2586" d="M30.447,55.985c-.054.7-1.092,1.181-.448,2.041-2.757.125-2.757.125-2.757-2.614V55.2c-.054-.841.322-1.88-.161-2.488s-1.539-.179-2.327-.215c-.555-.018-.752-.215-.734-.77.036-.734.036-1.486.054-2.238.609.448,1.2.859,1.432-.34.054-.286.358-.286.609-.286.09,1.486.09,1.486,1.647,1.486.537,0,1.074,0,1.593.018,0,1.486.072,2.954-.018,4.439C29.283,55.716,29.534,56.11,30.447,55.985Z" transform="translate(13.711 37.494)" fill="#909090"/>
    <path id="Path_2587" data-name="Path 2587" d="M43.47,38.416c.215-1.539,1.45-2.542,2.094-3.849a5.092,5.092,0,0,1,1.951-2.22c.716,0,1.414,0,2.13-.018.072.125.143.233.215.358.018.841,0,1.7.054,2.542.054.734-.269.949-.931.877a1.936,1.936,0,0,0-.322,0c-1.522,0-1.539,0-1.575,1.557-.018.573-.161.841-.77.806C45.367,38.4,44.419,38.416,43.47,38.416Z" transform="translate(29.078 24.434)" fill="#909090"/>
    <path id="Path_2588" data-name="Path 2588" d="M41.766,42.2c.591.269.7-.913,1.271-.465.358.286-.107.967.358,1.325,0,2.291,0,4.583.036,6.892.018.7-.143,1.02-.931.985-1.486-.072-2.972-.054-4.439-.072-.394-.716.179-1.343.2-2.023a13.869,13.869,0,0,1,2.112-.018c1.056.125,1.45-.179,1.4-1.325C41.641,45.727,41.748,43.955,41.766,42.2Z" transform="translate(24.696 31.783)" fill="#909090"/>
    <path id="Path_2589" data-name="Path 2589" d="M15.54,42.06a1.464,1.464,0,0,0,1.611.018c.018,1.164,0,2.327.072,3.473a8.242,8.242,0,0,0,.161,2.882c1.271.036,2.542.054,3.813.09.072.7-.072,1.253-.841,1.432a.513.513,0,0,0-.448.591l-3.723.054c-.465.018-.734-.107-.734-.644C15.486,47.323,15.5,44.691,15.54,42.06Z" transform="translate(6.94 32.121)" fill="#909090"/>
    <path id="Path_2590" data-name="Path 2590" d="M27.141,51.4c-.251,0-.555,0-.609.286-.233,1.2-.823.806-1.432.34-.018-1.092-.072-2.184-.018-3.276.036-.788-.2-1.11-1-1.02a8.638,8.638,0,0,1-1.36-.036c.072-.448.483-.3.752-.412.734-.3,1.414-.644,1.378-1.611H30.4c.233.788-.77,1.146-.644,1.9-.823.233-1.7-.2-2.524.215C27.2,48.982,27.177,50.181,27.141,51.4Z" transform="translate(12.684 34.973)" fill="#909090"/>
    <path id="Path_2591" data-name="Path 2591" d="M28.627,45.668c.036.967-.644,1.307-1.378,1.611-.269.107-.68-.036-.752.412-2.846.072-5.692.107-8.557-.018a.513.513,0,0,1,.448-.591c.788-.179.931-.734.841-1.432C22.361,45.668,25.494,45.668,28.627,45.668Z" transform="translate(8.907 34.957)" fill="#909090"/>
    <path id="Path_2592" data-name="Path 2592" d="M29.518,3.33c.107-.662.823-1.11.644-1.862.77-.2,1.11.054,1.038.9-.072,1.02.036,2.059-.054,3.079-.072.931.286,1.2,1.146,1.092a10.086,10.086,0,0,1,1.271.018c.018.519.089,1.038-.537,1.325-.286.125-.322.43-.34.716L29.5,8.646C29.518,6.874,29.518,5.1,29.518,3.33Z" transform="translate(18.041)" fill="#909090"/>
    <path id="Path_2593" data-name="Path 2593" d="M31.29,6.321c.018-.286.054-.573.34-.716.609-.269.555-.806.537-1.325h2.578l.179.179v5.549c-.34.018-.483.286-.537.555-.125.644-.627.5-1.038.519-.018-.877-.054-1.772-.054-2.649C33.259,6.428,33.259,6.428,31.29,6.321Z" transform="translate(19.455 2.272)" fill="#909090"/>
    <path id="Path_2594" data-name="Path 2594" d="M15.143,28.626c.5.77-.2,1.289-.43,1.9-2.059,0-4.135-.018-6.194-.018.179-.644.913-1.164.43-1.969C11.026,28.537,13.085,28.465,15.143,28.626Z" transform="translate(1.465 21.424)" fill="#909090"/>
    <path id="Path_2595" data-name="Path 2595" d="M40.826,45.66c-.018.68-.591,1.307-.2,2.023-1.933.107-3.849.072-5.782.018-.394-.68-.09-1.36,0-2.041Z" transform="translate(22.11 34.965)" fill="#909090"/>
    <path id="Path_2596" data-name="Path 2596" d="M47.125,32.688c-.072-.125-.143-.233-.215-.358C47.143,32.348,47.143,32.527,47.125,32.688Z" transform="translate(31.796 24.434)" fill="#e6db8a"/>
    <path id="Path_2597" data-name="Path 2597" d="M26.243,1.445c-.054.054-.107.09-.161.143C26.064,1.463,26.117,1.409,26.243,1.445Z" transform="translate(15.337 0.023)" fill="#d3b363"/>
    <path id="Path_2598" data-name="Path 2598" d="M33.389,4.459,33.21,4.28C33.335,4.28,33.389,4.334,33.389,4.459Z" transform="translate(20.972 2.272)" fill="#dcc776"/>
    <path id="Path_2599" data-name="Path 2599" d="M29.3,42.358c-1.36-2.059-2.7-4.1-4.063-6.158-.931-1.414-1.862-2.81-2.793-4.225a.907.907,0,0,0-.644-.734c-.2-.537-.662-.322-1-.322-3.67-.018-7.321,0-10.991-.018-.43,0-.985.143-1.056-.555.537-1.593,1.11-2.059,2.721-2.023.591.018,1.092-.269,1.665-.251.43,0,.34-.358.358-.627a2.243,2.243,0,0,1,1-1.9c3.956,0,7.912.018,11.886.018.3,0,.662.09.788-.34.412-.018.841-.036,1.253-.072h.251c.143-.018.269-.018.412-.036l4.6,4.332c.251.3.5.609.752.9,0,3.67-.054,7.321.018,10.991.018,1.128-.34,1.4-1.378,1.325-1.128-.09-2.273-.018-3.419,0A3.174,3.174,0,0,1,29.3,42.358Z" transform="translate(1.647 18.737)" fill="#e2e2e2"/>
    <path id="Path_2600" data-name="Path 2600" d="M12.94,31.858a25.4,25.4,0,0,0,3.4-4.618c2.059-3.168,4.081-6.355,6.14-9.523.269-.43.448-1,1.092-1.056v5.764l-2.094,3.383c-.806-.072-1.271.179-1.092,1.11a4.205,4.205,0,0,1-.036,1.056c-.215.018-.465-.018-.555.2a16.315,16.315,0,0,1-2.6,3.652C15.786,31.84,14.354,31.84,12.94,31.858Z" transform="translate(4.957 12.053)" fill="#909090"/>
    <path id="Path_2601" data-name="Path 2601" d="M17.36,14.023c-.018-.877.7-.358,1.038-.573.537.036.77.412,1,.823.591,1.038,1.181,2.076,1.808,3.079a3.294,3.294,0,0,1,.627,2.059c-.036,1.844-.09,3.67-.125,5.513-.465.233-.322.662-.322,1.038-.018,2.076,0,4.153,0,6.247-.823.143-1.092-.161-1.092-1.02.036-3.9.018-7.787.018-11.689,0-.412.161-.859-.233-1.2-.662-1.128-1.325-2.273-2-3.4C17.879,14.6,17.772,14.184,17.36,14.023Z" transform="translate(8.449 9.517)" fill="#e2e2e2"/>
    <path id="Path_2602" data-name="Path 2602" d="M13.73,25.158c1.414,0,2.846-.018,4.26-.018,2.2.018,4.4.054,6.623.072-.125.43-.483.34-.788.34-3.956,0-7.912-.018-11.886-.018C12.441,24.961,13.175,25.444,13.73,25.158Z" transform="translate(4.167 18.753)" fill="#e2e2e2"/>
    <path id="Path_2603" data-name="Path 2603" d="M8.89,28.04c.072.7.627.555,1.056.555,3.67,0,7.321,0,10.991.018.358,0,.806-.215,1,.322-2.273.018-4.547.054-6.838.072-2.059-.179-4.117-.107-6.194-.09a2.617,2.617,0,0,0-.358-.09c0-.072.018-.161.018-.233A4.437,4.437,0,0,0,8.89,28.04Z" transform="translate(1.489 21.044)" fill="#e2e2e2"/>
    <path id="Path_2604" data-name="Path 2604" d="M18.888,16.17c.394.34.233.788.233,1.2.018,3.9.036,7.787-.018,11.689-.018.859.269,1.164,1.092,1.02h.269c-1.253.537-1.539.376-1.557-.877-.018-2.112-.018-4.242-.036-6.355V17.083C18.888,16.761,18.888,16.456,18.888,16.17Z" transform="translate(9.642 11.666)" fill="#e2e2e2"/>
    <path id="Path_2605" data-name="Path 2605" d="M8.605,28.35c0,.072-.018.161-.018.233a.523.523,0,0,1-.036-.161C8.534,28.386,8.587,28.368,8.605,28.35Z" transform="translate(1.487 21.289)" fill="#928853"/>
    <path id="Path_2606" data-name="Path 2606" d="M18.707,37.032c-.877-1.414-1.772-2.828-2.649-4.242-.573-.949-1.164-1.915-1.808-2.989h2.488c1.02,1.5,2.023,3.007,3.043,4.511.913,1.4,1.808,2.793,2.739,4.171.376.555.215.591-.376.734C20.193,39.663,19.459,38.357,18.707,37.032Z" transform="translate(5.992 22.435)" fill="#e2e2e2"/>
    <path id="Path_2607" data-name="Path 2607" d="M18.673,34.983c-1.02-1.5-2.023-3.007-3.043-4.511.841-.161,1.02-.931,1.36-1.522.931,1.414,1.862,2.81,2.793,4.225A2.776,2.776,0,0,1,18.673,34.983Z" transform="translate(7.082 21.763)" fill="#909090"/>
    <path id="Path_2608" data-name="Path 2608" d="M16.726,34.019c.233.233.322.412-.125.412-.806.018-1.611.018-2.417.036-.9.054-.609-.609-.662-1.074-.054-.573.34-.483.68-.5.412-.018.841-.036,1.253-.072.143.054.269.09.412.143-.519.358-1.11.107-1.647.179-.376.054-.465.251-.448.591.018.286.143.5.448.483A6.251,6.251,0,0,0,16.726,34.019Z" transform="translate(5.413 24.821)" fill="#e2e2e2"/>
    <path id="Path_2609" data-name="Path 2609" d="M36.69,18.365c.841-1.468,1.7-2.918,2.506-4.421.322-.591.859-.358,1.307-.483.627.018.537.322.286.716-.841,1.4-1.665,2.793-2.488,4.189-.591.215-.34.734-.34,1.11-.018,3.9,0,7.8-.018,11.707,0,.394.251,1.02-.519,1.038s-.537-.609-.537-1.02c-.018-3.9,0-7.8-.018-11.707C36.851,19.1,36.994,18.687,36.69,18.365Z" transform="translate(23.721 9.525)" fill="#e2e2e2"/>
    <path id="Path_2610" data-name="Path 2610" d="M36.729,16.2c.3.34.161.752.161,1.128.018,3.9,0,7.8.018,11.707,0,.394-.233,1.02.537,1.02.77-.018.519-.644.519-1.038.018-3.9,0-7.8.018-11.707,0-.376-.251-.877.34-1.11,0,4.4.018,8.807.018,13.229-.036.215-.072.43-.107.662a.113.113,0,0,0-.054.143,1.1,1.1,0,0,1-.215.09c-1.164.179-1.325-.376-1.307-1.432.054-3.6,0-7.178-.018-10.776C36.676,17.471,36.694,16.827,36.729,16.2Z" transform="translate(23.682 11.69)" fill="#e2e2e2"/>
    <path id="Path_2611" data-name="Path 2611" d="M40.158,21.836c0,.985.036,1.969,0,2.954,0,.286.251.841-.322.806-.465-.036-1.146.465-1.4-.394.2-1.11-.143-2.273.233-3.383a.555.555,0,0,0,.877-.018C39.747,21.818,39.944,21.836,40.158,21.836Z" transform="translate(25.104 16.114)" fill="#e2e2e2"/>
    <path id="Path_2612" data-name="Path 2612" d="M39.447,21.922a.555.555,0,0,1-.877.018C38.856,21.582,39.143,21.582,39.447,21.922Z" transform="translate(25.207 16.01)" fill="#e9e290"/>
    <path id="Path_2613" data-name="Path 2613" d="M33.654,2.48c0,1.772,0,3.544.018,5.317.269.34.644.215.985.215.985.018,1.987.054,2.972,0,.734-.036.985.215.967.967-.036,2.506-.018,5.03,0,7.536,0,.376-.143.788.179,1.11a39.2,39.2,0,0,1-2.721,4.063c-.376.251-.233.644-.233.985V41.987c-.9.627-1.79,1.253-2.667,1.862-.358.251-.734.269-.716-.251.054-1.629-.519-3.437,1.235-4.618.394-.286.233-.716.233-1.092q.027-13.318,0-26.636c0-.358.161-.788-.233-1.092H29.232c-.358.251-.233.644-.233.985V38.12c0,.358-.179.806.286,1.056a3.008,3.008,0,0,1,1,.77A6.629,6.629,0,0,1,30.2,43.9c-.609-.322-1.217-.662-1.808-.985-.448-.3-.877-.609-1.325-.913V22.726c0-.358.161-.806-.322-1.038-.68-1.038-1.36-2.076-2.059-3.133.018-.215.018-.412-.269-.448l.018.036c-.322-3.186-.072-6.373-.143-9.559-.018-.5.322-.555.716-.555H28.3c.43,0,.877.072,1.11-.43,0-1.307.054-2.614-.018-3.92-.036-.823.269-1,1.038-1a7.835,7.835,0,0,0,3.025-.161A.643.643,0,0,1,33.654,2.48Z" transform="translate(13.905 0.85)" fill="#e2e2e2"/>
    <path id="Path_2614" data-name="Path 2614" d="M25.312,12.44c.68,1.038,1.36,2.076,2.059,3.133a25.441,25.441,0,0,1,.036,4.046c-.483-.072-.537.3-.662.627-.161.43-.412.716-.913.662-.036-1.486-.054-2.972-.089-4.457-.752-1.36-1.486-2.739-2.238-4.1-.018-.09-.036-.161-.054-.251a2.616,2.616,0,0,1,1.128-1.88c.2.591-.269,1.378.519,1.808l-.018-.036A.4.4,0,0,0,25.312,12.44Z" transform="translate(13.261 6.965)" fill="#909090"/>
    <path id="Path_2615" data-name="Path 2615" d="M24.587,15.891c-.77-.43-.322-1.217-.519-1.808,0-2.578.018-5.173-.018-7.751-.018-.77.233-.967.967-.949,1.45.036,2.9-.036,4.35-.054h.215c-.251.519-.7.448-1.128.448H25.16c-.394,0-.716.054-.716.555C24.516,9.519,24.247,12.705,24.587,15.891Z" transform="translate(13.734 3.101)" fill="#e2e2e2"/>
    <path id="Path_2616" data-name="Path 2616" d="M28.007,11.325c.018.09.036.161.054.251H17.66c.662-.573,1.486-.161,2.2-.376C22.583,11.236,25.286,11.29,28.007,11.325Z" transform="translate(8.686 7.739)" fill="#e2e2e2"/>
    <path id="Path_2617" data-name="Path 2617" d="M27.233,7.616h-.215c0-1.486.018-2.972-.018-4.475-.018-.5.125-.7.662-.68,1.2.036,2.417.036,3.616.036a7.835,7.835,0,0,1-3.025.161c-.77,0-1.074.179-1.038,1C27.269,4.984,27.233,6.309,27.233,7.616Z" transform="translate(16.065 0.833)" fill="#e2e2e2"/>
    <path id="Path_2618" data-name="Path 2618" d="M46.758,25.12c1.665.018,3.33.09,4.994.054a2.534,2.534,0,0,1,2.255.841c.107.34.251.662.322,1,.322,1.289.465,1.414,1.808,1.253,1.683-.179,2.542.412,3.007,2.094-.036.734-.609.555-1.038.555-3.688.018-7.357,0-11.045.018-.394,0-.859-.2-1.164.269-.251.34-.483.7-.716,1.038-2.309,3.473-4.636,6.945-6.945,10.418-1.235,0-2.488-.054-3.723.018-.806.036-1.02-.251-1.02-1.038.036-3.33.018-6.677.018-10.007,0-.376.125-.788-.161-1.128a70.464,70.464,0,0,1,5.3-5.3,21.107,21.107,0,0,0,4.511.143,6.565,6.565,0,0,0,2.7-.161C46.185,25.156,46.471,25.138,46.758,25.12Z" transform="translate(21.083 18.737)" fill="#e2e2e2"/>
    <path id="Path_2619" data-name="Path 2619" d="M39.6,31.4a70.465,70.465,0,0,0-5.3,5.3c-.036,1.128-.072,2.273-.09,3.4-.251,0-.537,0-.609.286-.233.806-.806.716-1.4.573-.018-1.7-.018-3.419-.036-5.12,1.933-1.826,3.849-3.652,5.818-5.442a2.017,2.017,0,0,0,.7-1.665c0-3.759.036-7.5.054-11.26.555.43.949-.251,1.45-.215.018,3.6.072,7.178.018,10.776-.018,1.038.143,1.611,1.307,1.432.143.68-.269,1.235-.43,1.862C40.583,31.349,40.082,31.384,39.6,31.4Z" transform="translate(20.15 12.526)" fill="#909090"/>
    <path id="Path_2620" data-name="Path 2620" d="M36.32,25.2c.5-.036.985-.054,1.486-.09,1.915.018,3.831.054,5.746.072a6.886,6.886,0,0,1-2.7.161A20.129,20.129,0,0,1,36.32,25.2Z" transform="translate(23.429 18.729)" fill="#e2e2e2"/>
    <path id="Path_2621" data-name="Path 2621" d="M37.5,24.083a.12.12,0,0,1,.054-.143l.054.054A.239.239,0,0,1,37.5,24.083Z" transform="translate(24.358 17.805)" fill="#1f2c13"/>
    <path id="Path_2622" data-name="Path 2622" d="M55.142,53.142h-34.8c-1.271-.036-2.542-.054-3.813-.09.376-.3.823-.143,1.235-.143,10.687-.018,21.374,0,32.06-.018.43,0,.931.215,1.271-.269.143.018.269.054.412.072.251.286.591.215.9.215,1.629,0,3.276-.054,4.9.018.9.036,1.056-.322,1.056-1.11-.036-4.762-.036-9.541,0-14.3,0-.877-.286-1.074-1.092-1.056-4.081.036-8.181,0-12.262,0l.054-.215,11.152-.054c.251.018.483.036.734.036,1.611.018,1.611.018,1.718,1.522V46.5c-.018,1.772-.125,3.544-.018,5.3.072,1.164-.322,1.45-1.4,1.325A20.786,20.786,0,0,0,55.142,53.142Z" transform="translate(7.793 27.483)" fill="#e2e2e2"/>
    <path id="Path_2623" data-name="Path 2623" d="M41.913,33.133c.806-.555,1.7-.161,2.56-.215v.2c.215,1.056-.215,1.486-1.271,1.343-.68-.018-1.378-.036-2.059-.072-.018,0-.054-.054-.054-.072.018-.054.054-.107.072-.161l2.327.054c.358,0,.734.036.752-.5.018-.609-.394-.573-.788-.573Z" transform="translate(27.198 24.83)" fill="#e2e2e2"/>
    <path id="Path_2624" data-name="Path 2624" d="M43.675,42.25,32.523,42.3a.421.421,0,0,1-.143-.036,3.02,3.02,0,0,1,1.7-2.076c1.02,0,2.023.054,3.043,0,.627-.036,1.307.286,1.88-.215,2.309-3.473,4.636-6.946,6.946-10.418.233-.358.483-.7.716-1.038,1.7.018,3.4.018,5.1.036-.394.9-.734,1.844-1.754,2.255-.537,0-1.056-.018-1.593-.018-.34,0-.662-.107-.913.286-1.933,2.972-3.9,5.943-5.854,8.915-.179.018-.358.107-.215.3s.358.107.5-.072c.644.018,1.289.054,1.933.072C44.141,40.979,43.389,41.552,43.675,42.25Z" transform="translate(20.316 21.423)" fill="#909090"/>
    <path id="Path_2625" data-name="Path 2625" d="M39.8,39.291c-.644-.018-1.289-.054-1.933-.072a.251.251,0,0,0-.286-.233c1.951-2.972,3.92-5.925,5.854-8.915.251-.394.591-.286.913-.286.537,0,1.056.018,1.593.018a8.538,8.538,0,0,1-1.4,2.452c-1.128,1.826-2.309,3.634-3.437,5.478A5.018,5.018,0,0,1,39.8,39.291Z" transform="translate(24.425 22.413)" fill="#e2e2e2"/>
    <path id="Path_2626" data-name="Path 2626" d="M45.472,28.917c-1.7-.018-3.4-.018-5.1-.036.3-.465.77-.269,1.164-.269,3.688-.018,7.357,0,11.045-.018.412,0,.985.2,1.038-.555.358.483.448.806-.358.823-1.307,0-2.614.036-3.938.054A30.676,30.676,0,0,0,45.472,28.917Z" transform="translate(26.629 21.044)" fill="#e2e2e2"/>
    <path id="Path_2627" data-name="Path 2627" d="M41.874,33h1.557c.394,0,.806-.036.788.573-.018.537-.394.5-.752.5l-2.327-.054A3.449,3.449,0,0,1,41.874,33Z" transform="translate(27.237 24.963)" fill="#e2e2e2"/>
    <path id="Path_2628" data-name="Path 2628" d="M27.313,45.66h8.324c-.107.734-.788,1.289-.644,2.094-.841-.018-1.7-.018-2.542-.072-.573-.036-.716.2-.7.734.036.77,0,1.557-.018,2.345-1.056.018-2.112-.018-3.168.09-.967.089-1.45-.143-1.289-1.217.072-.448-.036-.913.018-1.36.072-.555-.215-.662-.662-.68C26.543,46.824,27.545,46.448,27.313,45.66Z" transform="translate(15.771 34.965)" fill="#909090"/>
    <path id="Path_2629" data-name="Path 2629" d="M28.1,55.321c-.913.125-1.164-.269-1.11-1.164.09-1.468.018-2.954.018-4.439l.018-.018a6.694,6.694,0,0,1,.2,2.918c.054,2.435.018,2.435,2.47,2.435,1.808,0,1.539.2,1.611-1.575.054-1.253-.286-2.524.2-3.759l.018.018c0,1.593-.036,3.2,0,4.8.018.573-.125.806-.752.788A26.51,26.51,0,0,0,28.1,55.321Z" transform="translate(16.055 38.157)" fill="#e2e2e2"/>
    <path id="Path_2630" data-name="Path 2630" d="M29.49,49.861c0-.788.036-1.557.018-2.345-.018-.537.125-.77.7-.734.841.054,1.7.054,2.542.072,0,1.486-.018,2.989,0,4.475.018.5-.125.7-.644.662-.859-.036-1.7,0-2.56,0l-.018-.018a1.778,1.778,0,0,1,.358-.2c.841-.161,2.023.43,2.488-.3.412-.644.143-1.718.125-2.614-.018-2.023.358-1.754-1.808-1.808-.734-.018-.985.215-.985.967C29.723,48.643,30.009,49.323,29.49,49.861Z" transform="translate(18.033 35.849)" fill="#e2e2e2"/>
    <path id="Path_2631" data-name="Path 2631" d="M51.2,52.526c-.34.483-.841.269-1.271.269-10.687.018-21.374,0-32.06.018-.412,0-.859-.143-1.235.143a8.2,8.2,0,0,1-.161-2.882c-.072-1.164-.054-2.309-.072-3.473V37.507c0-.394.018-.77.036-1.164q13.318,0,26.654.018c.43,0,.931-.215,1.289.251-1.79,2.112-4.386,3.365-6.283,5.531.555.2.7-.143.877-.3,2.184-1.683,4.618-3.1,6.122-5.513,4.081,0,8.181.036,12.262,0,.823,0,1.11.179,1.092,1.056-.036,4.762-.036,9.541,0,14.3,0,.788-.143,1.146-1.056,1.11-1.629-.072-3.276-.018-4.9-.018-.3,0-.644.09-.9-.215A7.245,7.245,0,0,0,52,51.953a.732.732,0,0,0-.251-1c-.125-.107-.322-.3-.448-.143-.251.3-.627.537-.591,1.038C50.769,52.2,51.11,52.258,51.2,52.526Zm-11.85-5.531c-.591,1.79-.412,2.059.806,2.739,1.092.609,2.13,0,3.1-.125A6.325,6.325,0,0,0,47.816,46.6c-.072.662-.125.967-.143,1.289a4.162,4.162,0,0,0,.09.949c.072.394.412.609.662.9a3.865,3.865,0,0,0,.662-.662,12.391,12.391,0,0,0,.68-1.378c-1.056.537-1.36.358-1.4-.662a16.189,16.189,0,0,1,.269-2.631c.018-.161.412-.448-.054-.555-.412-.107-.3.233-.358.448-.322,1.074-.537,2.22-1.683,2.828a9.927,9.927,0,0,1-6.158,1.056C39.85,48.1,39.42,47.926,39.349,46.995Zm-18.67-3.2c-1.235.806-2.184,3.938-1.629,5.03a2.018,2.018,0,0,0,2.452.841,4.914,4.914,0,0,0,2.327-3.616c.054-.358.179-.823-.215-1.074-1-.644-.358-1.11.2-1.468A2,2,0,0,1,24.9,43c.43,0,.465-.627.644-1a.255.255,0,0,0-.107-.269c-.358-.09-.591.179-.841.34a6.211,6.211,0,0,0-2.076,2.238c-.286.483-.77,1.4.286,1.9.644.286.3.77.09,1.11a2.647,2.647,0,0,1-2.793.752,1.067,1.067,0,0,1-.573-1.289A10.468,10.468,0,0,1,20.678,43.791Zm17.507-1.36a3.379,3.379,0,0,0-.841,2.6c.072,1.7-.465,1.9-1.844,2.47-.161.072-.358.054-.5.143-.483.34-.949.7-1.539.3-.627-.412-.43-1.074-.358-1.665.09-.788.251-1.557.412-2.452-.841.859-1.378,4.3-.931,5.155.376.716.949.931,1.468.269a4.324,4.324,0,0,1,1.683-1.164c1.038-.483,2.041-1.056,2.2-2.345C38.042,44.757,38.1,43.755,38.185,42.43Zm-2.7-.286c.358.179.537-.09.68-.322.179-.286.358-.662.036-.967a1.373,1.373,0,0,1-.591-1.325c.054-.358-.269-.591-.537-.716-.394-.161-.34.358-.555.465-.68.322.036,1.02-.483,1.45-.269.233-.716.662-.394,1.164.34.555.788.34,1.253.179A.523.523,0,0,1,35.482,42.144Zm13.461.788c2.506-1.718,5.138-3.258,6.784-5.943C53.6,39.154,50.913,40.622,48.944,42.931Zm1.915,1.343c-.161,1.128-.3,2.255-.465,3.383a1.855,1.855,0,0,0-.018.627,2.689,2.689,0,0,0,.269.913c.2.322.555.519.877.179a1.774,1.774,0,0,0,.716-1.343c0-.036-.09-.09-.143-.072-1.486.269-1.038-.788-1.02-1.522A3.269,3.269,0,0,0,50.859,44.274ZM29.324,49.412a2.634,2.634,0,0,0,2.614-2.864.825.825,0,0,0-.627-.77c-.34-.072-.465.233-.609.483-.412.7-.913,1.4.448,1.665A7.456,7.456,0,0,1,29.324,49.412Zm-.161-3.526a6.011,6.011,0,0,1-2.47,3.526.327.327,0,0,0-.018.286c.107.072.3.125.376.072.537-.43,1.307-.537,1.647-1.289A5.384,5.384,0,0,0,29.163,45.885Zm-5.531,3.723c2.059.143,2.775-1.253,2.828-3.6C25.87,47.389,25.3,48.8,23.632,49.608Zm3.9-6.444c-.036-.412-.269-.823-.662-.788-.448.036-.591.609-.68.967-.107.448.376.716.734.7C27.355,44.023,27.445,43.558,27.534,43.164Zm21.893-1.987c-.09-.43-.376-.841-.716-.806-.43.054-.573.627-.68,1-.107.394.34.68.644.7C49.212,42.108,49.23,41.535,49.427,41.177Z" transform="translate(7.691 27.58)" fill="#e2e2e2"/>
    <path id="Path_2632" data-name="Path 2632" d="M32.316,32.379c.609.322,1.217.662,1.808.985.179.179.519.394.5.018-.018-1.307.34-2.649-.215-3.92a11.859,11.859,0,0,0,2.452-3.616c.143-.322.2-.7.68-.627.018,1.074.036,2.13.036,3.2-1.754,1.181-1.181,2.989-1.235,4.618-.018.519.358.5.716.251.9-.627,1.79-1.235,2.667-1.862.43-.269.215-.716.215-1.056.036-4.493.036-8.986.054-13.479a.771.771,0,0,0,.967-.609.505.505,0,0,1,.591-.465c.09,5.692.072,11.385-.018,17.059-1.593,1.02-3.2,2.059-4.8,3.079-.609.161-.412.662-.412,1.056-.018,4.153-.036,8.324-.054,12.477a10.356,10.356,0,0,0-2.309,2.757H19.231c-.054-.841.913-.949,1.146-1.611a6.085,6.085,0,0,1,.591-.967c.107.107.215.2.322.3,1.36.5,2.793.09,4.171.251.662.072.841-.161.823-.806-.036-2.309,0-4.618.018-6.91a1.168,1.168,0,0,0,1.307-.77c.107-.251.233-.519.591-.5.018.43.036.841.054,1.271.036,2.506.054,4.994.072,7.5a.275.275,0,0,0,.3.215l5.513-.054c.161-.072.161-.2.161-.34,0-4.35-.018-8.718,0-13.068a.954.954,0,0,0-.555-.913c-.931-.573-1.844-1.181-2.757-1.772C31.833,33.793,32.442,33.346,32.316,32.379Z" transform="translate(9.926 11.389)" fill="#909090"/>
    <path id="Path_2633" data-name="Path 2633" d="M21.5,36.193H36.236l8.557.054a.876.876,0,0,1-.43.483c-.358-.465-.859-.251-1.289-.251q-13.318-.027-26.654-.018c.251-.465.68-.2,1.02-.215C18.783,36.193,20.143,36.211,21.5,36.193Z" transform="translate(7.707 27.48)" fill="#e2e2e2"/>
    <path id="Path_2634" data-name="Path 2634" d="M29.133,39.557c1.593-1.02,3.2-2.059,4.8-3.079.483-.233.322-.662.322-1.038V15.23a20.41,20.41,0,0,1,2.166-3.92c.34.3.752.179,1.11.179,3.043.018,6.068.018,9.111.018.143.2.286.394.448.591-.072.644-.591.412-.949.483-.465.09-1.038-.269-1.4.322a47.466,47.466,0,0,1-2.56,4.332c-1.128,1.557-.949,3.24-.877,4.941-.018,3.759-.072,7.5-.054,11.26a2.039,2.039,0,0,1-.7,1.665c-1.951,1.79-3.884,3.616-5.818,5.442-.412.286-.251.716-.251,1.074-.018,3.652-.018,7.321,0,10.973,0,.734-.2,1.02-.967.985a34.807,34.807,0,0,0-3.616,0c-.841.054-1-.286-1-1.056.036-3.9.018-7.823.018-11.725A3.661,3.661,0,0,1,29.133,39.557Z" transform="translate(17.567 7.826)" fill="#e2e2e2"/>
    <path id="Path_2635" data-name="Path 2635" d="M43.321,11.57c-3.043,0-6.068,0-9.111-.018-.376,0-.788.143-1.11-.179a23.7,23.7,0,0,1,2.757-.143c2.148.018,4.3.018,6.444.054C42.641,11.3,43.089,11.1,43.321,11.57Z" transform="translate(20.885 7.763)" fill="#e2e2e2"/>
    <path id="Path_2636" data-name="Path 2636" d="M37.74,12.556c.358-.591.931-.233,1.4-.322.376-.072.877.161.949-.483.179.161.43.322.34.591-.09.233-.376.09-.573.107A8.374,8.374,0,0,0,37.74,12.556Z" transform="translate(24.551 8.174)" fill="#e2e2e2"/>
    <path id="Path_2637" data-name="Path 2637" d="M32.032,13.5V33.71c0,.358.161.806-.322,1.038.09-5.692.107-11.385.018-17.059.018-1.02.036-2.059.072-3.079C31.8,14.216,31.674,13.8,32.032,13.5Z" transform="translate(19.787 9.556)" fill="#e2e2e2"/>
    <path id="Path_2638" data-name="Path 2638" d="M30.99,18.974c-.018,4.493-.018,8.986-.054,13.479,0,.358.215.788-.215,1.056V14.195c0-.34-.143-.716.233-.985C30.972,15.125,30.972,17.059,30.99,18.974Z" transform="translate(18.985 9.327)" fill="#e2e2e2"/>
    <path id="Path_2639" data-name="Path 2639" d="M34.612,15.3c-.322-.322-.179-.734-.179-1.11-.018-2.506-.036-5.03,0-7.536.018-.752-.233-1-.967-.967-.985.054-1.987.018-2.972,0-.34,0-.716.125-.985-.215L32.7,5.42c1.987.107,1.969.107,1.987,2.112,0,.877.036,1.772.054,2.649C34.683,11.882,34.648,13.6,34.612,15.3Z" transform="translate(18.049 3.173)" fill="#e2e2e2"/>
    <path id="Path_2640" data-name="Path 2640" d="M16.622,33.956a6.313,6.313,0,0,1-2.524.2c-.3.018-.43-.179-.448-.483-.018-.322.09-.537.448-.591.555-.072,1.146.179,1.647-.179A2.5,2.5,0,0,1,16.622,33.956Z" transform="translate(5.517 24.884)" fill="#e2e2e2"/>
    <path id="Path_2641" data-name="Path 2641" d="M32.579,37.553c.913.591,1.826,1.2,2.757,1.772a.943.943,0,0,1,.555.913c-.018,4.35,0,8.718,0,13.068,0,.143-.018.286-.161.34-.3-.286-.662-.161-1-.161-1.5-.018-3.025-.018-4.529-.018q0-5.961-.018-11.922c0-.376.251-.9-.376-1.074-.823-.394-1.181-1.307-1.933-1.772-1.486-1.414-2.989-2.81-4.475-4.225a.872.872,0,0,1,.018-.215c.215-.2.179-.448.179-.7V19.473c0-.269.072-.573-.215-.788-.573-.931-1.146-1.862-1.736-2.775a21.485,21.485,0,0,0-2.059-3.133c-.448-.018-.913-.036-1.36-.072-.3-.018-.68.125-.877-.2-.215-.358.233-.519.358-.806.054-.125.179-.2.286-.3h10.4c.752,1.36,1.486,2.739,2.238,4.1-.233.233-.161.537-.161.806V35.512c0,.3-.107.644.233.877C31.29,36.783,31.934,37.177,32.579,37.553Z" transform="translate(8.392 7.897)" fill="#e2e2e2"/>
    <path id="Path_2642" data-name="Path 2642" d="M19.068,12.17A22.494,22.494,0,0,1,21.126,15.3c.591.913,1.164,1.862,1.736,2.775-.018.716-.036,1.432-.054,2.13l-1.432.215a3.294,3.294,0,0,0-.627-2.059c-.644-1-1.217-2.041-1.808-3.079-.233-.412-.465-.788-1-.823C18.37,13.727,19.229,13.208,19.068,12.17Z" transform="translate(8.907 8.506)" fill="#909090"/>
    <path id="Path_2643" data-name="Path 2643" d="M25.19,50.466c.036-1.2.054-2.417.089-3.616a14.641,14.641,0,0,1,.143,3.956c.018.752.251.967.967.967.68,0,1.4-.233,2.041.2h0c-.537,0-1.074-.018-1.593-.018C25.28,51.952,25.28,51.952,25.19,50.466Z" transform="translate(14.636 35.905)" fill="#e2e2e2"/>
    <path id="Path_2644" data-name="Path 2644" d="M28.4,52.054c-.644-.43-1.36-.2-2.041-.2-.734,0-.967-.215-.967-.967a14.641,14.641,0,0,0-.143-3.956c.806-.412,1.7.018,2.524-.215.43.018.734.125.662.68-.054.448.054.931-.018,1.36-.179,1.074.3,1.307,1.289,1.217,1.038-.107,2.112-.072,3.168-.09.519-.537.233-1.217.233-1.826,0-.752.233-.985.985-.967,2.166.072,1.79-.215,1.808,1.808.018.9.269,1.969-.125,2.614-.465.734-1.647.143-2.488.3a1.189,1.189,0,0,0-.358.2c-.483,1.235-.143,2.506-.2,3.759-.072,1.772.179,1.575-1.611,1.575-2.452.018-2.417,0-2.47-2.435A7.457,7.457,0,0,0,28.4,52.054Z" transform="translate(14.683 35.803)" fill="#e2e2e2"/>
    <path id="Path_2645" data-name="Path 2645" d="M23.457,16.885l1.432-.215c.018.465.036.931.036,1.378.018,4.01.036,8.037.054,12.047a.872.872,0,0,1-.018.215A3.327,3.327,0,0,0,23.869,31.8c-.143.018-.269.018-.412.036h-.251c-.412.018-.841.036-1.253.072-2.2-.018-4.4-.054-6.623-.072a15.919,15.919,0,0,0,2.6-3.652c.107-.233.358-.2.555-.2a7.535,7.535,0,0,1,.018,1.271c-.072.627.251.7.752.662.412-.036.859.107.823-.591-.054-.985-.036-1.969-.018-2.954,0-.34-.107-.519-.465-.537l2.094-3.383c.018,2.112.036,4.242.036,6.355,0,1.253.286,1.414,1.557.877.018-2.417.036-4.851.054-7.268C23.367,20.554,23.4,18.711,23.457,16.885Z" transform="translate(6.845 12.061)" fill="#909090"/>
    <path id="Path_2646" data-name="Path 2646" d="M23.635,26.65c.77.465,1.11,1.378,1.933,1.772-.018,1.414-.018,2.846-.036,4.26-.34,0-.465.251-.591.5a1.132,1.132,0,0,1-1.307.77c-.018-.609,0-1.2-.036-1.808-.072-1,.233-2.041-.2-3.025-.251-.3-.5-.609-.752-.9C23.473,28.01,23.33,27.187,23.635,26.65Z" transform="translate(12.629 19.946)" fill="#909090"/>
    <path id="Path_2647" data-name="Path 2647" d="M25.657,28.515c-.3.537-.179,1.36-.967,1.593l-4.6-4.332a3.327,3.327,0,0,1,1.092-1.486C22.686,25.7,24.171,27.1,25.657,28.515Z" transform="translate(10.606 18.081)" fill="#909090"/>
    <path id="Path_2648" data-name="Path 2648" d="M25.19,28.04c.43.985.125,2,.2,3.025.054.591.036,1.2.036,1.808-.018,2.309-.054,4.618-.018,6.91,0,.662-.161.9-.823.806-1.378-.161-2.81.251-4.171-.251,1.146,0,2.273-.072,3.419,0,1.038.072,1.414-.2,1.378-1.325C25.136,35.379,25.19,31.71,25.19,28.04Z" transform="translate(10.859 21.044)" fill="#e2e2e2"/>
    <path id="Path_2649" data-name="Path 2649" d="M19.72,25.14h0Z" transform="translate(10.314 18.753)" fill="#928853"/>
    <path id="Path_2650" data-name="Path 2650" d="M18.2,21.785c.358,0,.465.2.465.537-.018.985-.036,1.969.018,2.954.036.7-.412.573-.823.591-.5.036-.823-.036-.752-.662.036-.412-.018-.841-.018-1.271a5.258,5.258,0,0,0,.036-1.056C16.933,21.946,17.4,21.714,18.2,21.785Zm-.859,2v1.271c0,.394.143.591.555.591.358-.018.5-.179.5-.537v-2.56a.464.464,0,0,0-.5-.537c-.412-.018-.573.2-.555.591Z" transform="translate(8.232 16.093)" fill="#e2e2e2"/>
    <path id="Path_2651" data-name="Path 2651" d="M19.951,19.87c-.018,2.417-.036,4.851-.054,7.268h-.269V20.89C19.629,20.532,19.486,20.1,19.951,19.87Z" transform="translate(10.226 14.589)" fill="#e2e2e2"/>
    <path id="Path_2652" data-name="Path 2652" d="M31.417,25.871c-.483-.072-.537.3-.68.627a12.08,12.08,0,0,1-2.452,3.616c-.072-.018-.143-.036-.2-.054a3.008,3.008,0,0,0-1-.77c-.125-3.061-.072-6.1-.036-9.165a1.1,1.1,0,0,0,1.128-.573c.823-1.235,1.683-2.452,2.381-3.759.2-.358.269-.841.859-.77Q31.443,20.42,31.417,25.871Z" transform="translate(16.07 10.754)" fill="#909090"/>
    <path id="Path_2653" data-name="Path 2653" d="M27.02,6.77h4.439c0,1.217-.018,2.435-.018,3.652-.519-.09-.662.3-.823.662A31.9,31.9,0,0,1,28.291,14.9a1.19,1.19,0,0,1-1.235.627C27.038,12.606,27.02,9.688,27.02,6.77Z" transform="translate(16.081 4.239)" fill="#909090"/>
    <path id="Path_2654" data-name="Path 2654" d="M26.683,30c-.644-.376-1.289-.77-1.933-1.146.018-2.273.018-4.547.036-6.82a.805.805,0,0,0,.877-.573c.125-.3.3-.537.7-.483.018,1.826.018,3.67.054,5.5,0,.322-.179.716.233.949.448.3.877.609,1.325.913C28.08,29.279,27.471,29.727,26.683,30Z" transform="translate(14.288 15.455)" fill="#909090"/>
    <path id="Path_2655" data-name="Path 2655" d="M29.488,10.422c0-1.217.018-2.435.018-3.652.394.286.233.716.233,1.092q.027,13.318,0,26.636c0,.376.161.788-.233,1.092-.018-1.074-.036-2.13-.036-3.2V21.5C29.488,17.815,29.488,14.109,29.488,10.422Z" transform="translate(18.017 4.239)" fill="#e2e2e2"/>
    <path id="Path_2656" data-name="Path 2656" d="M27.138,6.77c0,2.918.018,5.836.018,8.753v11.1c-.036,3.061-.107,6.1.036,9.165-.465-.251-.286-.7-.286-1.056q-.027-13.479,0-26.976C26.9,7.414,26.78,7.021,27.138,6.77Z" transform="translate(15.964 4.239)" fill="#e2e2e2"/>
    <path id="Path_2657" data-name="Path 2657" d="M25.952,33.527c-.412-.233-.215-.627-.233-.949-.036-1.826-.036-3.67-.054-5.5V17.256a23.49,23.49,0,0,0-.036-4.046c.483.233.322.68.322,1.038Z" transform="translate(14.983 9.327)" fill="#e2e2e2"/>
    <path id="Path_2658" data-name="Path 2658" d="M27.649,23.41c.072.018.143.036.2.054.555,1.271.179,2.614.215,3.92,0,.376-.34.161-.5-.018A6.629,6.629,0,0,0,27.649,23.41Z" transform="translate(16.508 17.386)" fill="#e2e2e2"/>
    <path id="Path_2660" data-name="Path 2660" d="M26.345,15.472V25.3c-.376-.054-.573.179-.7.483a.788.788,0,0,1-.877.573V16.743a.818.818,0,0,0,.913-.662C25.79,15.777,25.862,15.419,26.345,15.472Z" transform="translate(14.304 11.11)" fill="#909090"/>
    <path id="Path_2661" data-name="Path 2661" d="M24.894,18.157V27.77c-.018,2.273-.018,4.547-.036,6.82-.322-.233-.233-.573-.233-.877V14.506c0-.269-.072-.573.161-.806Z" transform="translate(14.18 9.714)" fill="#e2e2e2"/>
    <path id="Path_2662" data-name="Path 2662" d="M38.276,40.285c-.573.483-1.253.179-1.88.215-1,.054-2.023,0-3.043,0L33.3,31.531c.036-1.128.072-2.273.09-3.4.286.34.143.752.161,1.128.018,3.33.036,6.677-.018,10.007-.018.788.2,1.074,1.02,1.038C35.806,40.231,37.041,40.267,38.276,40.285Z" transform="translate(21.043 21.115)" fill="#e2e2e2"/>
    <path id="Path_2663" data-name="Path 2663" d="M37.9,30.02q.027,4.484.054,8.968a3.057,3.057,0,0,0-1.7,2.076l-.215.054-8.557-.054a10.356,10.356,0,0,1,2.309-2.757c-.018.483.09.752.7.734q2.282-.081,4.565,0c.68.018.806-.215.806-.841-.018-2.435.018-4.869.018-7.3.609.161,1.181.251,1.4-.573C37.361,30.02,37.648,30.02,37.9,30.02Z" transform="translate(16.445 22.608)" fill="#909090"/>
    <path id="Path_2664" data-name="Path 2664" d="M34.857,33.2c-.018,2.435-.054,4.869-.018,7.3,0,.627-.125.859-.806.841q-2.282-.081-4.565,0c-.609.018-.716-.233-.7-.734.018-4.153.018-8.324.054-12.477,0-.394-.179-.9.412-1.056a3.764,3.764,0,0,0-.215,1.253c0,3.9.018,7.823-.018,11.725,0,.77.161,1.092,1,1.056a34.8,34.8,0,0,1,3.616,0c.752.036.967-.251.967-.985-.036-3.652-.018-7.321,0-10.973,0-.358-.179-.788.251-1.074C34.839,29.783,34.857,31.5,34.857,33.2Z" transform="translate(17.463 20.286)" fill="#e2e2e2"/>
    <path id="Path_2665" data-name="Path 2665" d="M35.215,36.244l.215-.054a.337.337,0,0,0,.143.036l-.054.215c-1.5,2.435-3.938,3.849-6.122,5.513-.2.143-.34.483-.877.3,1.9-2.166,4.475-3.419,6.283-5.531A.794.794,0,0,0,35.215,36.244Z" transform="translate(17.267 27.483)" fill="#606060"/>
    <path id="Path_2666" data-name="Path 2666" d="M36.039,46.144c-.09-.269-.43-.322-.448-.662-.036-.5.34-.734.591-1.038.125-.143.3.036.448.143a.732.732,0,0,1,.251,1,4.544,4.544,0,0,1-.412.609C36.307,46.18,36.182,46.162,36.039,46.144Z" transform="translate(22.851 33.962)" fill="#606060"/>
    <path id="Path_2667" data-name="Path 2667" d="M37.688,34.92a.251.251,0,0,1,.286.233c-.143.179-.358.251-.5.072C37.33,35.027,37.509,34.956,37.688,34.92Z" transform="translate(24.299 26.48)" fill="#e9e290"/>
    <path id="Path_2668" data-name="Path 2668" d="M29.364,43.68c.072.913.5,1.11,1.038,1.181A9.927,9.927,0,0,0,36.56,43.8c1.146-.609,1.36-1.736,1.683-2.828.072-.215-.036-.555.358-.448.465.107.072.394.054.555a18.731,18.731,0,0,0-.269,2.631c.036,1.02.358,1.2,1.4.662-.269.537-.43.985-.68,1.378a3.863,3.863,0,0,1-.662.662c-.233-.286-.573-.5-.662-.9a5.5,5.5,0,0,1-.09-.949,10.473,10.473,0,0,1,.143-1.289,6.467,6.467,0,0,1-4.565,3.007c-.967.125-2,.734-3.1.125C28.952,45.738,28.773,45.488,29.364,43.68Z" transform="translate(17.676 30.895)" fill="#606060"/>
    <path id="Path_2669" data-name="Path 2669" d="M19.585,41.406A11.327,11.327,0,0,0,18.421,44.4a1.1,1.1,0,0,0,.573,1.289,2.6,2.6,0,0,0,2.793-.752c.215-.34.555-.806-.09-1.11-1.056-.483-.591-1.414-.286-1.9a6.527,6.527,0,0,1,2.076-2.238c.269-.161.5-.43.841-.34a.338.338,0,0,1,.107.269c-.179.376-.215.985-.644,1a2,2,0,0,0-1.092.5c-.555.34-1.2.823-.2,1.468.412.251.269.716.215,1.074a4.914,4.914,0,0,1-2.327,3.616,2.039,2.039,0,0,1-2.452-.841C17.4,45.345,18.349,42.212,19.585,41.406Z" transform="translate(8.784 29.964)" fill="#606060"/>
    <path id="Path_2670" data-name="Path 2670" d="M31.122,39.73c-.107,1.325-.143,2.309-.269,3.294-.161,1.289-1.164,1.862-2.2,2.345a3.977,3.977,0,0,0-1.683,1.164c-.519.68-1.074.448-1.468-.269-.448-.841.09-4.3.931-5.155-.161.913-.34,1.683-.412,2.452-.072.573-.251,1.235.358,1.665.591.394,1.074.036,1.539-.3a2.052,2.052,0,0,1,.5-.143c1.378-.573,1.915-.77,1.844-2.47A3.635,3.635,0,0,1,31.122,39.73Z" transform="translate(14.754 30.28)" fill="#606060"/>
    <path id="Path_2671" data-name="Path 2671" d="M27.92,41.053a.557.557,0,0,0-.591-.072c-.465.161-.931.376-1.253-.179-.3-.519.125-.949.394-1.164.5-.412-.2-1.128.483-1.45.2-.09.161-.627.555-.465a.716.716,0,0,1,.537.716,1.373,1.373,0,0,0,.591,1.325c.322.286.161.662-.036.967C28.457,40.945,28.278,41.232,27.92,41.053Z" transform="translate(15.253 28.671)" fill="#606060"/>
    <path id="Path_2672" data-name="Path 2672" d="M34.58,42.633c1.969-2.309,4.654-3.795,6.784-5.943C39.718,39.393,37.086,40.915,34.58,42.633Z" transform="translate(22.054 27.878)" fill="#606060"/>
    <path id="Path_2673" data-name="Path 2673" d="M35.862,40.76a3.33,3.33,0,0,1,.233,2.184c-.036.716-.465,1.772,1.02,1.522a.36.36,0,0,1,.143.072,1.8,1.8,0,0,1-.716,1.343c-.34.34-.68.143-.877-.179a2.575,2.575,0,0,1-.269-.913,2.449,2.449,0,0,1,.018-.627C35.54,43.015,35.7,41.888,35.862,40.76Z" transform="translate(22.688 31.094)" fill="#606060"/>
    <path id="Path_2674" data-name="Path 2674" d="M23.62,45.239a7.362,7.362,0,0,0,1.808-1.486c-1.36-.269-.841-.967-.448-1.665.143-.251.269-.555.609-.483a.825.825,0,0,1,.627.77A2.6,2.6,0,0,1,23.62,45.239Z" transform="translate(13.395 31.753)" fill="#606060"/>
    <path id="Path_2675" data-name="Path 2675" d="M24.647,41.66a5.225,5.225,0,0,1-.483,2.6c-.34.77-1.092.859-1.647,1.289-.072.054-.269-.018-.376-.072a.327.327,0,0,1,.018-.286A6.039,6.039,0,0,0,24.647,41.66Z" transform="translate(12.207 31.805)" fill="#606060"/>
    <path id="Path_2676" data-name="Path 2676" d="M20.44,45.328c1.683-.806,2.238-2.22,2.828-3.6C23.215,44.075,22.5,45.471,20.44,45.328Z" transform="translate(10.883 31.86)" fill="#606060"/>
    <path id="Path_2677" data-name="Path 2677" d="M23.227,40.489c-.107.376-.2.859-.627.877-.358.018-.841-.269-.734-.7.09-.358.233-.913.68-.967C22.977,39.665,23.191,40.077,23.227,40.489Z" transform="translate(11.998 30.255)" fill="#606060"/>
    <path id="Path_2678" data-name="Path 2678" d="M35.474,39.386c-.179.358-.215.913-.752.9-.322-.018-.752-.3-.644-.7.09-.376.251-.949.68-1C35.1,38.545,35.384,38.975,35.474,39.386Z" transform="translate(21.644 29.371)" fill="#606060"/>
    <path id="Path_2679" data-name="Path 2679" d="M24.27,31.9c.018-1.414.018-2.846.036-4.26.627.179.376.7.376,1.074q.027,5.961.018,11.922c-.09.018-.2.018-.286.036-.018-2.506-.054-4.994-.072-7.5C24.306,32.742,24.288,32.33,24.27,31.9Z" transform="translate(13.909 20.728)" fill="#e2e2e2"/>
    <path id="Path_2680" data-name="Path 2680" d="M24.34,34.94c.09-.018.2-.018.286-.036,1.5,0,3.025,0,4.529.018.34,0,.716-.125,1,.161l-5.513.054A.249.249,0,0,1,24.34,34.94Z" transform="translate(13.964 26.46)" fill="#e2e2e2"/>
    <path id="Path_2681" data-name="Path 2681" d="M20.75,31.036c-.018-4.01-.036-8.037-.054-12.047,0-.465-.018-.931-.036-1.378.018-.716.036-1.432.054-2.13.269.215.215.5.215.788V30.356A.8.8,0,0,1,20.75,31.036Z" transform="translate(11.056 11.121)" fill="#e2e2e2"/>
    <path id="Path_2682" data-name="Path 2682" d="M17.231,23.675V22.511c0-.394.143-.609.555-.591.358.018.5.179.5.537v2.56a.464.464,0,0,1-.5.537c-.412.018-.573-.2-.555-.591Z" transform="translate(8.346 16.208)" fill="#e2e2e2"/>
    <path id="Path_2683" data-name="Path 2683" d="M27.03,25.016v-11.1a1.19,1.19,0,0,0,1.235-.627,31.9,31.9,0,0,0,2.327-3.813c.161-.358.286-.752.823-.662V19.9c-.591-.072-.662.412-.859.77-.7,1.307-1.557,2.524-2.381,3.759A1.094,1.094,0,0,1,27.03,25.016Z" transform="translate(16.089 5.845)" fill="#909090"/>
  </g>
</svg>
