<svg xmlns="http://www.w3.org/2000/svg" width="67.446" height="70.031" viewBox="0 0 67.446 70.031">
  <g id="Kosar-logo" transform="translate(-48.27 -3.865)">
    <path id="Path_2056" data-name="Path 2056" d="M86.33,5.212c1.641-.54,3.264-1.332,5.025-1.341.407-.069.4.441.505.694.505,1.889,1.221,3.718,1.641,5.629-.133.386-.63.278-.938.36a30.3,30.3,0,0,0-10.979,3.427,18.908,18.908,0,0,0-8.542,9.57,20.374,20.374,0,0,0-1.508,8.662,21.644,21.644,0,0,0,1.735,8.4A29.735,29.735,0,0,1,69.945,30.34a24.544,24.544,0,0,1,.433-7.406,20.61,20.61,0,0,1,3.547-7.955A29.86,29.86,0,0,1,86.33,5.212m-.707,11.934a9.232,9.232,0,0,1,2.664.36,22.658,22.658,0,0,1,14.779,9.741,28.561,28.561,0,0,1,3.881,17.859A29.275,29.275,0,0,1,105.5,51.3c-.086.437-.617.257-.917.231-2.048-.467-4.057-1.1-6.087-1.632a29.836,29.836,0,0,0,3.273-12.071,18.925,18.925,0,0,0-1.032-7.312c-1.611-4.789-5.359-8.58-9.63-11.129-1.028-.488-2.065-.968-3.119-1.392a13.91,13.91,0,0,1-2.369-.844m-2.613,5.967a8.7,8.7,0,0,1,10.778,9.1,9.4,9.4,0,0,1-1.546,4.356A8.748,8.748,0,1,1,79.117,25.144a9.082,9.082,0,0,1,3.894-2.03m.475.548a8.088,8.088,0,0,0-5.5,4.082,8.336,8.336,0,0,0-1,4.476,8.457,8.457,0,0,0,2.446,5.123A7.963,7.963,0,0,0,88.1,39.036a7.786,7.786,0,0,0,4.382-4.314,8.019,8.019,0,0,0-3.834-10.345,7.569,7.569,0,0,0-5.158-.715M58.341,38.3c1.165-1.1,2.129-2.39,3.29-3.5,1,1.105,1.859,2.339,2.917,3.388A23.694,23.694,0,0,0,77.33,45.847c5.535,1.054,11.279-.707,15.815-3.894a31.3,31.3,0,0,0,4.7-4.584,29.8,29.8,0,0,1-5.3,6.34,21.856,21.856,0,0,1-12.431,5.727,28.328,28.328,0,0,1-6.627-.291,26.91,26.91,0,0,1-5.44-1.542,25.588,25.588,0,0,1-9.4-5.864,11.407,11.407,0,0,1-1.666-1.795A7.151,7.151,0,0,1,58.341,38.3m4.142,18.668c.835-.784,1.512-1.713,2.352-2.485a7.04,7.04,0,0,1-2.185,3.363,53.63,53.63,0,0,1-5.033,4.635,3.835,3.835,0,0,1,1.161-1.958c1.238-1.187,2.506-2.335,3.705-3.555m-9.673,1.268c.381.056.9.073,1,.544a1.715,1.715,0,0,1-.591,1.739c-.33-.24-.655-.48-.985-.715.18-.531.368-1.054.578-1.568m21.294,2.6c.283-.54.57-1.084.844-1.632.373.368.758.733,1.131,1.1.236-.368.334-.9.771-1.092.865.411.664,1.379.523,2.146a1.538,1.538,0,0,1-1.482-.454c-.3.257-.6.514-.908.762-.287-.278-.583-.548-.878-.831m-22.781.934a3.532,3.532,0,0,1,1.084-1.5,9.948,9.948,0,0,0,.75,1,11.9,11.9,0,0,1-.724,1.439,4.408,4.408,0,0,1-1.109-.938m2.592-1.581c.321.3.891.54.844,1.062.039.54-.356.955-.617,1.384-.36-.321-1.058-.535-.882-1.139a6.019,6.019,0,0,1,.655-1.307m39.358,5.059a5.579,5.579,0,0,1,.78-3.32c.047.87.034,1.743.017,2.613a6.537,6.537,0,0,1-.822,2.352c.171.583.553,1.071.767,1.641a6.273,6.273,0,0,1-2.163,4.451,2.86,2.86,0,0,1-2.583.523,2.267,2.267,0,0,1-1.349-2.176c-.2-1.889,1.032-3.448,1.594-5.158.1-.039.3-.116.4-.154-.321,1.491-1.482,2.776-1.281,4.374a1.3,1.3,0,0,0,1.345,1.3,3.54,3.54,0,0,0,3.041-1.037,1.048,1.048,0,0,0,.291-.925,8.078,8.078,0,0,1-1.161-1.2c.026-1.2,1.212-2.043,1.127-3.281m1.765,1.936c.287-1.7.2-3.564,1.187-5.05-.069,1.589-.42,3.157-.45,4.746.111.326.094.814.51.912.274-.248.514-.531.767-.8a1.675,1.675,0,0,1-1.169,2.622c-.942-.407-.968-1.559-.844-2.429M71.946,63.547a2.445,2.445,0,0,1,.535-1.135c.064,1.491-.488,2.947-.326,4.438a1.336,1.336,0,0,0,.942,1.105c.544.06.9-.424,1.294-.715A2.845,2.845,0,0,1,75.78,66.7a3.266,3.266,0,0,1,.364-2.039c.188.244.373.493.565.737l.471-.039c.18-.39.364-.78.544-1.169q.109.508.206,1.015c.685.043,1.1-.5,1.534-.934a4.251,4.251,0,0,1-1.6,2.39,5.382,5.382,0,0,1-1.653.308,6.413,6.413,0,0,1-1.564,1.007c-.87.291-.981,1.7-2,1.6-.583.069-1.041-.544-1.088-1.071a16.413,16.413,0,0,1,.39-4.965m9.66-.655c.069-.039.206-.111.27-.154-.308,1.833-.231,3.791-1.122,5.47a1.957,1.957,0,0,1-.762,1,21.808,21.808,0,0,0,.711-3.5,9.694,9.694,0,0,1,.9-2.814m-24.631.874c-.069-.424.227-.784.407-1.139a2.322,2.322,0,0,1,1.024,1.1,3.829,3.829,0,0,1-.985,2.9c-.57.758-.754,1.812-1.568,2.382a7.218,7.218,0,0,1-2.395.621c.818-.531,1.653-1.028,2.45-1.589.206-.236.39-.488.578-.741-.3-.051-.6-.111-.908-.171-.681-.116-.266-.908-.133-1.315.248-.39.535-1.109,1.114-.891a5.905,5.905,0,0,1,.874.668c.09-.154.266-.467.356-.621.141-.574-.544-.792-.814-1.208m56.12,1.778a11.057,11.057,0,0,1,1.936-2.66,11.557,11.557,0,0,1,.685,1.007v.917a18.837,18.837,0,0,1-2.018.775c-.934.99-1.088,2.527-2.2,3.38a5.945,5.945,0,0,1-2.343.694,17.019,17.019,0,0,0,2.874-2.146c-.39-.141-.78-.278-1.169-.416a2.726,2.726,0,0,1,1.058-2.283c.394.244.788.488,1.178.733m-49.309.69a6.666,6.666,0,0,1,3.148-2.84c-.021.647-.051,1.688-.865,1.8a3.59,3.59,0,0,0-2.33,1.911c.51.248,1.144.54,1.242,1.169a6.673,6.673,0,0,1-1.521,4.181A3.261,3.261,0,0,1,60.915,73.6a2.062,2.062,0,0,1-1.932-1.444,5.616,5.616,0,0,1,.218-2.6,13.483,13.483,0,0,1,1.743-3.688c-.206,1.825-1.8,3.371-1.268,5.3a3.161,3.161,0,0,0,3.65-.021c.561-.33.767-.985,1.071-1.516a8.074,8.074,0,0,1-1.225-.844,3.16,3.16,0,0,1,.613-2.557M77.716,64.2a1.345,1.345,0,0,1,1.358-.8c.043.176.137.527.18.7a14.178,14.178,0,0,0-1.538.094M51.881,65.574c.617-.463,1.221-.938,1.795-1.456a5.205,5.205,0,0,1-.531,1.572c-.565.69-1.572.96-1.923,1.833a4.166,4.166,0,0,1-1.054,1.713,4.226,4.226,0,0,1-1.9.42v-.291a11.5,11.5,0,0,0,2.146-1.521c.625-.673.7-1.713,1.465-2.27m55.315-.184a8.782,8.782,0,0,1,1.97-1.092c-.133.505-.368,1.049-.955,1.122-.741.09-.955.99-1.658,1.135-1.289.308-2.176,1.469-3.487,1.739-.771.1-1.182.831-1.795,1.225-.484.278-1.037.03-1.538-.056-.613-.184-1.174.266-1.765.368a4.467,4.467,0,0,1,2.163-2.1c.617-.129,1.251.094,1.868-.017,1.161-.4,2.322-.8,3.453-1.268a12.319,12.319,0,0,1,.57-1.542c.33.278.7.733,1.174.488m-37.658-.557c.12.073.244.141.368.214-.394,1.02-.441,2.146-.887,3.148a3.055,3.055,0,0,1-2.446,1.456c.03-.129.09-.39.116-.523a6.866,6.866,0,0,0,1.778-1.5,7.928,7.928,0,0,0,1.071-2.8m15.6.257a.658.658,0,0,1,1.165.248,5.106,5.106,0,0,1-.587,2.981,2.554,2.554,0,0,1-2.206,1.122c.54-.75,1.4-1.174,1.975-1.889-.334-.248-.955-.287-1.037-.771a2.729,2.729,0,0,1,.69-1.692M72.246,72.954A6.118,6.118,0,0,1,73.09,71.3a4.67,4.67,0,0,1,.784,1.2,10.63,10.63,0,0,1-.441,1.4H72.9a4.738,4.738,0,0,1-.651-.942Z" fill="#606060"/>
    <path id="Path_2057" data-name="Path 2057" d="M121.777,49.843a7.544,7.544,0,0,1,5.158.715A8.015,8.015,0,0,1,130.769,60.9a7.8,7.8,0,0,1-4.382,4.314,7.956,7.956,0,0,1-8.657-1.692,8.422,8.422,0,0,1-2.446-5.123,8.336,8.336,0,0,1,1-4.476,8.088,8.088,0,0,1,5.5-4.082" transform="translate(-38.291 -26.181)" fill="#909090"/>
  </g>
</svg>
