<svg xmlns="http://www.w3.org/2000/svg" width="94.491" height="72.158" viewBox="0 0 94.491 72.158">
  <g id="Markazi" transform="translate(-2.558 -9.426)">
    <path id="Path_2684" data-name="Path 2684" d="M33.895,41.346a11.927,11.927,0,0,1-12.034-11.8A11.95,11.95,0,0,1,33.913,17.97a11.695,11.695,0,1,1-.018,23.376Z" transform="translate(15.892 7.035)" fill="#606060"/>
    <path id="Path_2685" data-name="Path 2685" d="M50.676,22.265c-1.386-1.349-2.626-2.516-3.793-3.738a1.871,1.871,0,0,0-1.5-.62c-5.835.018-11.688.018-17.523.018H26.68c1.532-1.568,2.936-2.99,4.321-4.413.255-.255.565-.164.857-.164,5.981,0,11.943,0,17.924-.018.693,0,.93.146.912.875C50.657,16.813,50.676,19.42,50.676,22.265Z" transform="translate(19.862 3.214)" fill="#606060"/>
    <path id="Path_2686" data-name="Path 2686" d="M21.735,37.058c-1.55-1.55-2.881-2.917-4.248-4.248a1.186,1.186,0,0,1-.346-.985c.018-4.121-.018-8.26.091-12.381.055-1.805.055-3.61.073-5.415,0-.529.073-.821.711-.766,2.662.2,5.342.109,8.078.128-1.149,1.167-2.188,2.316-3.319,3.373a2.8,2.8,0,0,0-.966,2.261c.018,5.762-.036,11.542-.055,17.3A7.117,7.117,0,0,0,21.735,37.058Z" transform="translate(12.007 3.154)" fill="#606060"/>
    <path id="Path_2687" data-name="Path 2687" d="M38.958,22.36c1.477,1.422,2.808,2.7,4.157,3.957a1.44,1.44,0,0,1,.474,1.149c.055,5.871.109,11.724.219,17.6.018.729-.128.966-.912.948-2.626-.055-5.27-.018-7.986-.018,1.2-1.222,2.37-2.443,3.592-3.61a2.187,2.187,0,0,0,.711-1.75c-.109-5.689-.164-11.4-.237-17.085C38.958,23.2,38.958,22.871,38.958,22.36Z" transform="translate(26.638 10.649)" fill="#606060"/>
    <path id="Path_2688" data-name="Path 2688" d="M40.661,34.774c-1.24,1.368-2.553,2.808-3.847,4.248-.237.274-.547.2-.839.2q-9.053,0-18.124-.036c-.365,0-.821.164-.821-.529.018-2.7,0-5.415.237-8.278,1.2,1.24,2.425,2.443,3.592,3.72a2.03,2.03,0,0,0,1.659.675c5.835-.018,11.67,0,17.523,0Z" transform="translate(11.916 17.253)" fill="#606060"/>
    <path id="Path_2689" data-name="Path 2689" d="M45.156,29.02c0,1.933-.018,3.774.018,5.616a1.217,1.217,0,0,1-.419.948q-5.716,5.662-11.433,11.341a2.451,2.451,0,0,1-3.72.055c-1.44-1.331-2.863-2.717-4.413-4.176a25.775,25.775,0,0,1,4.394-.146,3.708,3.708,0,0,0,3.009-1.185C36.44,37.5,40.379,33.6,44.3,29.676A1.514,1.514,0,0,1,45.156,29.02Z" transform="translate(18.635 16.133)" fill="#606060"/>
    <path id="Path_2690" data-name="Path 2690" d="M33.41,16.88h5.908c.346,0,.529.237.748.438,3.774,3.72,7.549,7.421,11.3,11.159,1.477,1.459,1.44,2.662-.036,4.121-1.313,1.313-2.607,2.662-4.084,4.176-.128-2.042.018-3.811-.146-5.561a1.978,1.978,0,0,0-.638-1.368Q40.2,23.8,33.975,17.737C33.775,17.536,33.428,17.372,33.41,16.88Z" transform="translate(25.403 6.137)" fill="#606060"/>
    <path id="Path_2691" data-name="Path 2691" d="M18.4,20.98c0,1.951.055,3.592-.018,5.233a2.277,2.277,0,0,0,.821,1.9c4.212,4.03,8.388,8.1,12.581,12.162.146.146.274.292.565.6-2.188,0-4.212,0-6.236-.018-.164,0-.346-.182-.474-.31-3.9-3.829-7.822-7.64-11.688-11.505a2.334,2.334,0,0,1,.055-3.61C15.394,24.025,16.8,22.621,18.4,20.98Z" transform="translate(8.701 9.513)" fill="#606060"/>
    <path id="Path_2692" data-name="Path 2692" d="M40.728,14.557c-1.805.091-3.574-.055-5.342.109a2.1,2.1,0,0,0-1.4.6q-6.181,6.181-12.4,12.344a4.112,4.112,0,0,0-.438.656c-.091-.055-.182-.109-.255-.146V22.251c0-.346.274-.529.474-.729q5.662-5.58,11.341-11.123a2.543,2.543,0,0,1,4.03.036C38.066,11.785,39.379,13.153,40.728,14.557Z" transform="translate(15.094 0)" fill="#606060"/>
    <path id="Path_2693" data-name="Path 2693" d="M53.922,46.634c-2.243,2.954-5.178,3.3-8.223,3.173-1.532-.073-1.9-.638-1.7-2.133.036-.255-.073-.529.219-.857a1.4,1.4,0,0,0,1.422,1.167,12.471,12.471,0,0,0,6.674-.8A3,3,0,0,0,54.1,44.92a5.371,5.371,0,0,1,.748-2.06c.091,1.4-.456,2.5-.346,3.647.055.62-.292,1.623,1,1.222.036-.018.146.018.146.036a1.29,1.29,0,0,1-.109.966c-.2.4-.438.8-.912.839a.8.8,0,0,1-.729-.583A4.468,4.468,0,0,1,53.922,46.634Z" transform="translate(34.083 27.529)" fill="#606060"/>
    <path id="Path_2694" data-name="Path 2694" d="M12.992,46.738a7.314,7.314,0,0,0-.492,2.334,1.2,1.2,0,0,0,1.149,1.258,3.187,3.187,0,0,0,3.136-1.349c.237-.4.2-.638-.237-.839-1.076-.492-1.2-.857-.711-1.878a1.665,1.665,0,0,1,.274-.419,4.736,4.736,0,0,0,1.313-2.425c.055-.274.2-.675.675-.583a1,1,0,0,1,.839.474.837.837,0,0,1-.274.985c-.511.565-1.258.748-1.805,1.258-.419.4-.966.821.073,1.149a.7.7,0,0,1,.456.6,4.734,4.734,0,0,1-3.227,4.759,1.8,1.8,0,0,1-2.206-1.714,5.943,5.943,0,0,1,1-3.665Z" transform="translate(7.73 27.498)" fill="#606060"/>
    <path id="Path_2695" data-name="Path 2695" d="M40.583,43.08c-.109.729-.219,1.4-1.167,1.44-.438.018-.8.438-1.13.784-.456.474-.638.912.182,1.167a.684.684,0,0,1,.492.675,4.591,4.591,0,0,1-2.972,4.613,1.833,1.833,0,0,1-2.5-1.86,5.96,5.96,0,0,1,1.076-3.264c-.128.438-.237.875-.365,1.331-.419,1.532.237,2.316,1.842,2.206a3.157,3.157,0,0,0,1.969-.875c.729-.675.675-1.021-.255-1.44a.849.849,0,0,1-.583-1.039A5.589,5.589,0,0,1,40.583,43.08Z" transform="translate(25.468 27.71)" fill="#606060"/>
    <path id="Path_2696" data-name="Path 2696" d="M22.709,46.756c-.164.62-.292,1.058-.4,1.513a1.418,1.418,0,0,0,1.422,1.915,3.076,3.076,0,0,0,2.68-1.094c.419-.492.547-.966-.274-1.167-.748-.182-.839-.693-.656-1.313a6.022,6.022,0,0,1,2.9-3.446c.146-.091.328-.164.438,0,.055.073.018.255-.036.365-.182.438-.237.966-.948.966-.6,0-.985.492-1.4.893-.456.438-.583.857.164,1.094a.791.791,0,0,1,.638.8c-.128,1.7-1,4.011-3.027,4.522a1.879,1.879,0,0,1-2.516-1.659A5.715,5.715,0,0,1,22.709,46.756Z" transform="translate(15.737 27.698)" fill="#606060"/>
    <path id="Path_2697" data-name="Path 2697" d="M31.807,48.438c-.2-.274,0-.438.018-.638.036-.365.128-.766-.346-.948-.383-.146-.583.109-.821.383a5.977,5.977,0,0,0-1.039,1.7,1.755,1.755,0,0,1-1.969,1.331c.565-.6,1.368-.893,1.732-1.732-.438-.128-1.24.128-1.13-.675a1.722,1.722,0,0,1,1.021-1.6c.511-.182.711.328.839.766a2.569,2.569,0,0,0,.912-.912c.219-.274.565-.6.839-.383.693.565.93,0,1.185-.4a5.081,5.081,0,0,1,2.735-2.462,1.44,1.44,0,0,0-1.86.292,1.788,1.788,0,0,1,2.79-.948c.456.328.128.638-.109.784a14.581,14.581,0,0,1-1.513.748c-.529.237-.966.419-.346,1.094a.719.719,0,0,1-.62,1.185c-1.13-.164-1.459.565-1.787,1.349A3.938,3.938,0,0,1,31.807,48.438Z" transform="translate(20.66 26.692)" fill="#606060"/>
    <path id="Path_2698" data-name="Path 2698" d="M18.889,42.786v2.37c0,.474.018.966.547,1.185a1.145,1.145,0,0,0,1.295-.237c.492-.474,1.349-.31,1.787-.948a.463.463,0,0,1,.365.055.3.3,0,0,1-.036.438,3.961,3.961,0,0,1-.529.438c-.8.6-1.9.784-2.407,1.769-.055.109-.237.237-.328.2-1.13-.365-1.368.638-1.915,1.185-.31.328-.729.656-1.24.31-.492-.346-.146-.693-.073-1.112a28.177,28.177,0,0,0,.328-3.282,3.327,3.327,0,0,1,.383-1.276c0,1.714.346,3.282-.456,4.8,1.13-.128,1.44-.547,1.5-1.769a11.425,11.425,0,0,1,.109-2.5c.146-.565.365-1.112.547-1.659A.464.464,0,0,0,18.889,42.786Z" transform="translate(11.206 27.438)" fill="#606060"/>
    <path id="Path_2699" data-name="Path 2699" d="M3.236,46.305c.182.511-.128.839-.146,1.24A1.611,1.611,0,0,0,4.713,49.4c2.152.164,3.72-1.349,3.793-3.7a2.049,2.049,0,0,1,.346-1.513c.693,2.68-1.4,6.455-3.774,6.856A2.023,2.023,0,0,1,2.562,49.04,5.121,5.121,0,0,1,3.236,46.305Z" transform="translate(0 28.624)" fill="#606060"/>
    <path id="Path_2700" data-name="Path 2700" d="M37.05,51.968c-.018-.31.255-.365.438-.474A4.621,4.621,0,0,0,39.8,49.251a1.318,1.318,0,0,1,.62-.638c1.2-.438,1.276-1.4,1.2-2.443a4.507,4.507,0,0,1,.766-3.1,18.306,18.306,0,0,1-.219,4.285,2.721,2.721,0,0,1-1.568,2.188,2.1,2.1,0,0,0-1.13,1.2C39.02,51.932,38.418,52.205,37.05,51.968Z" transform="translate(28.4 27.701)" fill="#606060"/>
    <path id="Path_2701" data-name="Path 2701" d="M39.56,50.429c2.152-1.149,2.79-3.61,4.522-5.105.146-.128.219-.328.365-.474.274-.292.292-.966.784-.821a1.06,1.06,0,0,1,.748,1.076c-.073.492-.255,1.149-.893,1.185a3,3,0,0,0-2.5,1.769A4.792,4.792,0,0,1,39.56,50.429Z" transform="translate(30.467 28.474)" fill="#606060"/>
    <path id="Path_2702" data-name="Path 2702" d="M53.116,47.108a4.528,4.528,0,0,1-.474,1.769c-.182.383-.474.729-.893.675-.547-.073-.729-.565-.766-1.039a12.54,12.54,0,0,1,.292-3.191,5.073,5.073,0,0,1,.656-2.462h.036c-.018.018-.036.036-.036.055.146,1.2-.31,2.389-.219,3.592.036.474-.2,1.076.419,1.331C52.7,48.075,52.7,47.309,53.116,47.108Z" transform="translate(39.849 27.529)" fill="#606060"/>
    <path id="Path_2703" data-name="Path 2703" d="M57.929,39.31c-.492,1.313-5.014,4.7-7.859,5.944a3.552,3.552,0,0,1,1.258-1.331C53.5,42.446,55.741,41.042,57.929,39.31Z" transform="translate(39.12 24.606)" fill="#606060"/>
    <path id="Path_2704" data-name="Path 2704" d="M46.043,39.79c-1.4,2.389-3.629,3.847-5.853,5.324C41.849,43.036,44.165,41.632,46.043,39.79Z" transform="translate(30.985 25.001)" fill="#606060"/>
    <path id="Path_2705" data-name="Path 2705" d="M11.97,43.89a2.148,2.148,0,0,1-1.295,2.1,1.562,1.562,0,0,0-.784,1c-.6,1.5-.784,1.641-2.571,1.641.128-.4.511-.529.784-.693a3.887,3.887,0,0,0,1.769-1.969C10.237,44.911,11.5,44.8,11.97,43.89Z" transform="translate(3.921 28.377)" fill="#606060"/>
    <path id="Path_2706" data-name="Path 2706" d="M9.684,48.332c.529-.018.383-1.167,1.167-.511.638.547.237.985-.128,1.44-.018.018-.055.073-.073.073a4.089,4.089,0,0,0-2.1.036c-.128.018-.6-.237-.474-.529.164-.419.365-.948.8-1.094C9.3,47.621,9.466,48.15,9.684,48.332Z" transform="translate(4.529 31.447)" fill="#606060"/>
    <path id="Path_2707" data-name="Path 2707" d="M11.334,43.05a20.1,20.1,0,0,1-.529,4.65c-.073.274-.182.711-.4.675-.474-.109-.073-.474-.055-.711.182-1.586.018-3.227.985-4.613Z" transform="translate(6.271 27.685)" fill="#606060"/>
    <path id="Path_2708" data-name="Path 2708" d="M7.794,43.05a20.1,20.1,0,0,1-.529,4.65c-.073.274-.182.711-.4.675-.474-.109-.073-.474-.055-.711.182-1.586.036-3.227.985-4.613Z" transform="translate(3.356 27.685)" fill="#606060"/>
    <path id="Path_2709" data-name="Path 2709" d="M21.195,43.26c-.146,1.714.109,3.519-.985,5.051C20.611,46.633,20.1,44.792,21.195,43.26Z" transform="translate(14.534 27.858)" fill="#606060"/>
    <path id="Path_2710" data-name="Path 2710" d="M25.73,48.11c1.44-1.021,2.516-2.006,2.7-3.61C28.757,46.743,27.863,48.037,25.73,48.11Z" transform="translate(19.079 28.879)" fill="#606060"/>
    <path id="Path_2711" data-name="Path 2711" d="M4.785,46.716c-.255-.346-.912-.438-.766-.93.128-.4.255-1.076.821-1.076a.864.864,0,0,1,.748.93A1.31,1.31,0,0,1,4.785,46.716Z" transform="translate(1.186 29.052)" fill="#606060"/>
    <path id="Path_2712" data-name="Path 2712" d="M39.747,44.261c-.164.438-.346.966-.839,1.021-.31.036-.875-.292-.784-.693.109-.474.346-1.094.893-1.167C39.383,43.367,39.674,43.823,39.747,44.261Z" transform="translate(29.276 27.988)" fill="#606060"/>
    <path id="Path_2713" data-name="Path 2713" d="M51.8,44.065c-.164.511-.346,1.039-.875,1.112-.274.036-.784-.346-.748-.656.091-.492.346-1.076.857-1.2C51.439,43.208,51.658,43.7,51.8,44.065Z" transform="translate(39.21 27.892)" fill="#606060"/>
    <path id="Path_2714" data-name="Path 2714" d="M52.673,48.887c-.128.4-.274.93-.821.948-.31.018-.839-.383-.748-.638.146-.474.383-1.112.912-1.2C52.363,47.921,52.691,48.358,52.673,48.887Z" transform="translate(39.964 31.749)" fill="#606060"/>
    <path id="Path_2715" data-name="Path 2715" d="M32.472,46.28c.383.255.766.456.729.93a1,1,0,0,1-.839.985c-.292.036-.8-.274-.729-.656A2.312,2.312,0,0,1,32.472,46.28Z" transform="translate(23.934 30.344)" fill="#606060"/>
    <path id="Path_2716" data-name="Path 2716" d="M12.608,44.844l.055-.274c.036.018.109.036.109.055,0,.128.018.274-.182.2Z" transform="translate(8.26 28.936)" fill="#606060"/>
    <path id="Path_2717" data-name="Path 2717" d="M12.48,45.119c0-.164-.018-.346.219-.4l-.018-.018a.337.337,0,0,1-.128.474C12.553,45.192,12.48,45.119,12.48,45.119Z" transform="translate(8.169 29.044)" fill="#606060"/>
    <path id="Path_2718" data-name="Path 2718" d="M3.088,45.155a1.429,1.429,0,0,0,.091-.255c.036.018.091.055.091.073,0,.128-.018.255-.2.164Z" transform="translate(0.422 29.208)" fill="#606060"/>
    <path id="Path_2719" data-name="Path 2719" d="M22.4,44.82c.128.146.036.274-.055.383-.036-.036-.109-.055-.109-.091-.018-.146.055-.219.182-.274Z" transform="translate(16.196 29.142)" fill="#606060"/>
    <path id="Path_2720" data-name="Path 2720" d="M3.133,45.03a2.444,2.444,0,0,0,.018.365.313.313,0,0,1-.146-.018.244.244,0,0,1,.146-.31A.064.064,0,0,0,3.133,45.03Z" transform="translate(0.359 29.315)" fill="#606060"/>
    <path id="Path_2721" data-name="Path 2721" d="M22.338,44.953l.055-.274c.036.018.109.036.109.055,0,.109.036.292-.182.2Z" transform="translate(16.272 29.027)" fill="#606060"/>
    <path id="Path_2722" data-name="Path 2722" d="M10.828,43.04h.036l-.055.018Z" transform="translate(6.795 27.677)" fill="#606060"/>
    <path id="Path_2723" data-name="Path 2723" d="M7.288,43.04h.036l-.055.018Z" transform="translate(3.88 27.677)" fill="#606060"/>
  </g>
</svg>
