<svg xmlns="http://www.w3.org/2000/svg" width="55.423" height="73.03" viewBox="0 0 55.423 73.03">
  <g id="Pasargad" transform="translate(-10.321 -5.001)">
    <path id="Path_2303" data-name="Path 2303" d="M41.057,46.659c-.175.321.088.467.248.657A5.9,5.9,0,0,0,43.73,49.01,7.914,7.914,0,0,1,46.724,51a3.926,3.926,0,0,1,.789,1.168,2.011,2.011,0,0,1-.117,2.22,2.159,2.159,0,0,1-2.205.7c-1.11-.2-2.147-.686-3.271-.8a4.579,4.579,0,0,0-3.417.876,2.98,2.98,0,0,0-.175,4.469A4.176,4.176,0,0,0,41.7,61.205c7.551-.029,15.1,0,22.652-.029.745,0,.92.234.905.92-.015.54-.2.657-.686.643-2.424-.015-4.849,0-7.258,0q-22.98,0-45.946.015c-.745,0-.935-.219-.905-.935.029-.526.2-.657.7-.657,2.03.029,4.045.015,6.075.015H31.681a6.978,6.978,0,0,0,1.1-.058,30.21,30.21,0,0,1-3.228-.92,15.168,15.168,0,0,1-7.872-7.7,29.875,29.875,0,0,1-2.527-8.719q-.964-6.134-1.957-12.253L15.353,20.05c-.219-1.373-.394-2.746-.672-4.1-.117-.54.073-.57.482-.555,1.11.015,2.205,0,3.315,0h24c.905,0,.92.029.774.935-.73,4.571-1.446,9.157-2.176,13.728-.438,2.76-.935,5.52-1.344,8.3a12.911,12.911,0,0,0,.716,7.565c.1.307.131.745.613.745Zm.978,7.273c-.19-.672-.365-1.183-.5-1.709a34.612,34.612,0,0,0-6.309-13.67c-1.519-1.884-3.067-3.812-3.637-6.28-.044-.2-.19-.277-.38-.336a3.28,3.28,0,0,0-3.169,1.139,2.551,2.551,0,0,0,.643,3.009c1.563,1.709,3.155,3.388,4.644,5.155a18.584,18.584,0,0,1,4.338,8.179,24.6,24.6,0,0,1,.424,5.462A4.965,4.965,0,0,1,42.036,53.932ZM27.2,25.439h-.044v.7c0,1.446,0,1.431,1.431,1.271a.648.648,0,0,0,.643-.54c.248-.745.511-1.475.774-2.22.555-1.533.321-1.869-1.314-1.855h-.161c-1.037.015-1.314.292-1.344,1.3C27.2,24.548,27.2,25,27.2,25.439Zm-.351.38h0V25.03c0-1.738-.628-2.088-2.205-1.285-.131.073-.263.161-.394.248a.972.972,0,0,0-.394,1.417c.321.628.628,1.271.935,1.9.57,1.154.57,1.154,1.68.526a.609.609,0,0,0,.38-.613C26.833,26.768,26.847,26.286,26.847,25.818Zm4.966-2.541c-.453.088-.876.2-1.052.7-.365,1.008-.745,2.015-1.11,3.023-.044.131-.161.263.044.394a1.655,1.655,0,0,0,1.986-.263c.424-.54.847-1.066,1.271-1.606.307-.38.73-.745.438-1.314A1.97,1.97,0,0,0,31.813,23.277Zm-10.574,4c-.146.351.088.511.292.672.482.409.964.8,1.431,1.212.92.789.905.774,1.694-.1a.637.637,0,0,0,.146-.818c-.336-.672-.628-1.373-.979-2.045-.161-.292-.161-.832-.613-.789a1.825,1.825,0,0,0-1.577.716A2.859,2.859,0,0,0,21.239,27.279Zm14.634-.832a1.709,1.709,0,0,0-1.008-1.373,1.126,1.126,0,0,0-1.373.482c-.526.643-1.052,1.3-1.592,1.942-.234.277-.2.555.088.716.336.19.336.935.979.584.759-.409,1.519-.8,2.264-1.227A1.185,1.185,0,0,0,35.873,26.446ZM20.392,27.892a1.247,1.247,0,0,0-1.008.949.972.972,0,0,0,.467,1.271c.8.438,1.65.789,2.439,1.227.628.351,1.008.292,1.212-.482.088-.365.131-.6-.2-.862-.657-.511-1.271-1.1-1.9-1.636A1.9,1.9,0,0,0,20.392,27.892Zm2.629,4.746c.117-.351-.073-.54-.409-.672-.862-.365-1.723-.759-2.6-1.11-.759-.307-1.11-.131-1.329.57-.307.949-.073,1.49.7,1.65.847.161,1.709.263,2.541.424C22.9,33.69,22.992,33.632,23.021,32.639ZM21.4,35.969v-.029h1.811c.146,0,.321.058.424-.117a4.067,4.067,0,0,0-.949-1.782,13.565,13.565,0,0,0-2.979-.175c-.73.088-.745.7-.759,1.256a.72.72,0,0,0,.8.847Zm4.922-6.7a3.621,3.621,0,0,0,1.606,2.468c.453.292.847-.088,1.241-.248.424-.175.088-.511.044-.745a11.567,11.567,0,0,1-.292-2.249c0-.234.029-.5-.365-.424-.511.1-1.022.161-1.533.277A.816.816,0,0,0,26.321,29.265ZM23.78,31.879a4.337,4.337,0,0,0,.073,2.731.91.91,0,0,0,1.022.686c.6-.058,1.2-.117,1.8-.19.38-.044.584-.248.482-.628s.365-.949-.424-1.125A6.142,6.142,0,0,1,23.78,31.879Zm-3.067,6.587a22.516,22.516,0,0,0,3.68-.8c.131-.044.248-.058.263-.234.015-.336-.847-1.241-1.183-1.183-.979.175-1.972.248-2.95.38-.365.044-.949.058-.832.686A1.234,1.234,0,0,0,20.713,38.466Zm5.959-5.491c.628.131.745-.263.949-.511.19-.219.088-.365-.088-.511a7.278,7.278,0,0,1-1.782-2.366c-.073-.146-.161-.321-.336-.263a2.184,2.184,0,0,0-1.2,1.168.854.854,0,0,0,.058,1.154A4.707,4.707,0,0,0,26.672,32.975ZM25.883,39.4c-.219-.263-.453-.438-.526-.672-.248-.716-.7-.672-1.3-.482-.745.219-1.519.351-2.278.57-.365.1-.92.175-.73.8.161.54.5,1.022,1.125.876C23.415,40.175,24.627,39.766,25.883,39.4Zm2.629,9.785c.8-.234,1.665-.5,2.512-.73,1.1-.321,1.066-.307.686-1.358-.131-.38-.292-.5-.672-.365-.964.307-1.928.613-2.906.876-.438.117-.628.365-.54.8A.908.908,0,0,0,28.512,49.186Zm-.979-1.753c1.11-.336,2.234-.657,3.344-.993.234-.073.2-.248.088-.438a1.445,1.445,0,0,1-.292-.628c-.029-.54-.292-.5-.672-.38-.92.292-1.855.555-2.775.818-.409.117-.759.277-.672.789A.913.913,0,0,0,27.534,47.433Zm6.689,6.441a2.512,2.512,0,0,1-.5-.832c-.117-.686-.467-.6-.949-.438-.818.263-1.65.467-2.483.73-.424.131-.935.277-.73.891.19.526.526.891,1.2.672C31.915,54.531,33.069,54.21,34.222,53.874ZM30.016,53c.7-.2,1.5-.409,2.308-.657.424-.131.993-.1,1.2-.482.161-.292-.365-.628-.365-1.052,0-.307-.161-.38-.482-.277-1.022.321-2.059.613-3.082.92-.365.1-.613.321-.511.745A.9.9,0,0,0,30.016,53Zm3.14-3.067c-.292-.394-.643-.643-.657-1.125-.015-.351-.307-.263-.54-.19-1.008.292-2,.584-3.009.876-.555.175-.643.555-.409,1.052.321.657.92.453,1.373.336C30.995,50.631,32.032,50.266,33.156,49.93Zm1.387,5.944a1.428,1.428,0,0,1-.7-.949c-.044-.424-.292-.438-.6-.351-.979.292-1.957.584-2.936.862-.467.131-.555.409-.5.832.1.6.511.832,1.271.628C32.192,56.59,33.288,56.24,34.544,55.874ZM34.5,57.992a3.21,3.21,0,0,1-.467-.862c-.088-.584-.351-.57-.8-.424-.818.263-1.665.453-2.483.716-.424.131-1.008.2-.818.891a.889.889,0,0,0,1.227.657C32.251,58.678,33.346,58.328,34.5,57.992ZM27.519,41.547c-.92.277-1.84.584-2.775.8-.555.131-.891.394-.716.964a.8.8,0,0,0,1.11.57c.92-.277,1.855-.526,2.775-.8.219-.073.73-.015.555-.394C28.264,42.278,28.162,41.664,27.519,41.547Zm-3.958.716c1.052-.307,2.191-.643,3.344-.993.088-.029.234-.161.219-.19a8.048,8.048,0,0,0-.643-1.154c-.146-.19-.438-.044-.657.029-.876.248-1.753.467-2.629.716-.409.117-.716.351-.6.847A.89.89,0,0,0,23.561,42.263ZM30,44.585a3.506,3.506,0,0,1-.482-.672c-.263-.672-.716-.686-1.314-.482a15.066,15.066,0,0,1-2.1.613c-.6.117-.789.409-.7.978.088.657.584.6,1.022.54A32,32,0,0,0,30,44.585ZM29.476,29.4a9,9,0,0,0,.073,1.1c.117.54.365.964,1.037.979.628,0,.964-.263.993-.891a1.717,1.717,0,0,1,.146-.438c.365-1.022.219-1.329-.847-1.694C29.666,27.994,29.491,28.111,29.476,29.4Zm2.687,16.518a10.911,10.911,0,0,0,2.249-.613c.248-.073.862-.044.54-.57-.248-.394-.234-1.227-1.11-.949-.643.2-1.3.336-1.942.511-.424.117-.745.307-.628.847C31.375,45.651,31.608,45.958,32.163,45.914Zm-1.125-1.636c.613-.19,1.212-.365,1.8-.555.365-.117.949-.088,1.008-.424.073-.424-.453-.716-.745-1.037a.537.537,0,0,0-.643-.117c-.57.175-1.154.336-1.723.511-.424.131-.818.277-.7.862C30.133,44.074,30.571,44.205,31.039,44.278Zm2.22,3.476c.7-.2,1.5-.438,2.293-.686.263-.088.643-.2.365-.584-.263-.351-.073-1.183-.92-.949-.7.19-1.387.424-2.088.643-.365.117-.73.263-.643.73A.935.935,0,0,0,33.258,47.754Zm-3.563-9.493c-.263-.321-.482-.6-.716-.876-.161-.2-.307-.38-.657-.292-.686.175-1.387.277-2.074.424-.336.073-.613.277-.5.657.175.57.54,1.022,1.2.905A11.342,11.342,0,0,0,29.695,38.261Zm3.461,10.428a.9.9,0,0,0,1.183.876c.628-.19,1.241-.38,1.855-.6.175-.058.409-.058.453-.351a.915.915,0,0,0-1.2-1.125c-.6.175-1.183.365-1.782.555C33.332,48.163,33.1,48.339,33.156,48.689ZM31.258,40c-1.022-1.358-1.022-1.358-2.512-.964-.248.073-.511.131-.759.19-.5.117-.832.365-.672.935a.851.851,0,0,0,1.1.643C29.344,40.569,30.265,40.291,31.258,40ZM29.68,42.438a20.939,20.939,0,0,0,2.658-.7c.263-.073.19-.248.1-.438a1.3,1.3,0,0,0-1.709-.716c-.424.117-.862.263-1.285.336-.482.088-.789.277-.716.818C28.8,42.336,29.184,42.468,29.68,42.438Zm5.082,9.128a13.221,13.221,0,0,0,2.132-.672c.584-.292,0-.832.029-1.271.015-.321-.292-.307-.54-.234-.7.2-1.4.424-2.1.643a.631.631,0,0,0-.482.847A.918.918,0,0,0,34.763,51.566Zm.526,1.972a7.089,7.089,0,0,1,1.183-.365c.891-.117.964-.613.818-1.358-.088-.438-.263-.511-.643-.409-.6.175-1.2.365-1.8.526-.438.131-.686.38-.57.862A.981.981,0,0,0,35.288,53.538Zm2.1-.234c-.818.248-1.592.467-2.351.716-.409.131-.716.365-.526.862.175.438.409.8.979.686.2-.044.394-.117.6-.175C37.479,54.925,37.479,54.925,37.392,53.3Zm-9.2-16.634c-.818-1.373-.832-1.373-2.381-1.11-.161.029-.321.015-.467.044-.613.073-.818.424-.526.964a1.061,1.061,0,0,0,1.256.57C26.774,36.991,27.475,36.83,28.191,36.67Zm7.521,20.914a2.265,2.265,0,0,0,.365-.058,1.556,1.556,0,0,0,1.212-1.738c-.029-.292-.161-.277-.351-.219-.584.175-1.154.321-1.738.5-.38.117-.7.321-.6.774C34.7,57.335,35,57.642,35.712,57.583Z" transform="translate(0.063 4.783)" fill="#606060"/>
    <path id="Path_2304" data-name="Path 2304" d="M38.35,9.21c-.365.19-.131.453-.029.657a5.671,5.671,0,0,1,.6,1.942,4.067,4.067,0,0,0,.818,2.088c.526.716-.088,2.015-1.139,2.556a2.62,2.62,0,0,1-3.549-1.168c-.146-.292-.219-.657-.555-.832-.219,1.241.993,2.585,2.512,2.775q2.782.329,3.374-3.2c.321.029.365.263.336.511-.161,1.344.672,2.015,1.723,2.527.277.131.643.1.555.657-.1.584-.453.467-.8.467h-27.7c-.336,0-.745.146-.876-.394s.219-.672.57-.862a2.32,2.32,0,0,0,1.46-2.454c-.015-.117-.015-.263.234-.38A3.192,3.192,0,0,0,17,16.6a2.924,2.924,0,0,0,2.658.57,2.458,2.458,0,0,0,2.074-2.556c-.394,0-.321.365-.409.555a2.587,2.587,0,0,1-2.643,1.592,2.64,2.64,0,0,1-2.322-2.045.7.7,0,0,1,.219-.832,2.132,2.132,0,0,0,.73-1.358,8.139,8.139,0,0,1,.8-2.862c.146-.277.044-.438-.277-.453.073-.234.336-.5.044-.686-.263-.175-.467.088-.628.292a.663.663,0,0,1-.2.088c-.19-.248.409-.628-.073-.774s-.438.38-.584.657l-.088.131c-.058,0-.131-.015-.19-.015,0-.336.015-.686,0-1.022,0-.161-.088-.234-.248-.234s-.219.117-.219.248V9.152c-.409-.351-.234-1.022-.8-.993-.336.029-.088.38-.131.584h-.321c-.19-.015-.263-.409-.511-.175-.351.351.073.54.19.8a.387.387,0,0,1-.088.073c-.146-.015-.482-.19-.307.146.774,1.431.394,3.271,1.636,4.527a.53.53,0,0,1,.088.584,3.1,3.1,0,0,1-.526,1.052c-.351.394-.745.935-1.256.818-.351-.088-.277-.759-.351-1.183-.453-2.789-.891-5.579-1.373-8.368-.088-.54.088-.73.584-.745.292-.015.584-.015.862-.015h29.91c1.533,0,1.533,0,1.285,1.533-.438,2.76-.876,5.535-1.256,8.31-.088.6-.336.643-.774.467a2.729,2.729,0,0,1-1.577-1.942.7.7,0,0,1,.263-.7,2.657,2.657,0,0,0,.745-1.606,7.858,7.858,0,0,1,.716-2.556c.073-.146.292-.438-.161-.38-.073,0-.161-.015-.234-.015.131-.234.57-.394.248-.759-.292-.336-.38.131-.584.175-.073-.015-.146-.029-.234-.044-.044-.2.307-.453-.044-.613s-.438.19-.555.409c-.1.19-.1.424-.351.57V7.9c0-.2-.117-.263-.307-.263s-.307.058-.292.277c.015.19.029.365.044.555a1.789,1.789,0,0,1-.277.029l.015-.029c-.044-.058-.073-.131-.117-.19a.375.375,0,0,0-.54-.1c-.234.219.131.453.088.7l-.044.263c-.1-.117-.2-.234-.292-.351-.131-.161-.248-.365-.5-.263s-.131.351-.131.54C38.365,9.064,38.365,9.137,38.35,9.21ZM23.176,8.67c-.088-.19.292-.453-.044-.57-.38-.131-.438.219-.584.453h-.277a2.149,2.149,0,0,0,0-.307c-.044-.234.19-.672-.321-.613-.351.044-.263.365-.234.628.044.365.044.73.073,1.1h-.131c-.131-.365-.248-.73-.394-1.081a.315.315,0,0,0-.467-.131c-.19.117-.015.263,0,.409.058.351.453.57.365.978-.321-.131-.365-.482-.584-.686-.175-.161-.336-.438-.57-.307-.292.175-.1.453.029.672-.1.029-.2.044-.307.073-.029.015-.073.029-.1.044l.088.088a16.462,16.462,0,0,1,.759,2.541,3.242,3.242,0,0,0,.248,1.139c.277.526.467,1.212,1.358,1.1.832-.117,1.081-.73,1.241-1.329a15.5,15.5,0,0,1,.862-3.155c.248-.526-.263-.175-.351-.307.015-.277.54-.482.161-.789-.351-.277-.467.131-.657.307A1.036,1.036,0,0,0,23.176,8.67Zm6.178.2c-.175-.234.277-.686-.2-.774-.438-.073-.365.424-.526.657-.058.073-.073.19-.248.131.015-.292.029-.613.044-.92,0-.19-.015-.365-.277-.38a.308.308,0,0,0-.351.321c-.015.161-.015.307-.015.467h-.263c-.117-.219-.307-.424-.526-.277-.321.219.088.482.029.745-.044.058-.088.1-.131.161-.2-.19-.321-.6-.7-.467-.321.117-.1.409-.117.613l-.044.044c-.482.015-.234.292-.146.467a6.729,6.729,0,0,1,.686,2.234,3.654,3.654,0,0,0,.8,2.015,1.089,1.089,0,0,1,.1,1.183,2.486,2.486,0,0,1-2.293,1.636,2.459,2.459,0,0,1-2.4-1.344,2.636,2.636,0,0,0-.511-.862,2.005,2.005,0,0,0,1.183,2.249c2.147,1.125,3.622.2,4.7-1.767.146.263.234.424.336.57a3.118,3.118,0,0,0,3.447,1.606,2.778,2.778,0,0,0,2.205-2.746c.015-.146-.029-.351.2-.336,1.008.029,1.2-.774,1.344-1.446a18.148,18.148,0,0,1,.935-3.3c.015-.1-.029-.131-.131-.1-.19-.92-.19-.92-.964-.38a1.1,1.1,0,0,0,0-.219c-.029-.19.321-.438-.088-.555-.307-.088-.38.161-.5.365-.131.234-.117.54-.365.73h0c0-.394.015-.789.015-1.168,0-.175.029-.394-.248-.409-.307-.015-.351.219-.336.424a4.018,4.018,0,0,1,.044,1.344c-.146-.394-.263-.686-.365-.978-.1-.263-.307-.409-.555-.277s-.015.321.015.482a4.633,4.633,0,0,0,.175.6c-.19.015-.234-.161-.336-.263-.175-.175-.292-.482-.6-.394-.365.117-.015.467-.175.657l.015-.015c-.54.015-.175.351-.131.467a8.84,8.84,0,0,1,.774,2.775,2.258,2.258,0,0,0,.482,1.139,1.41,1.41,0,0,1,.015,2.074,2.673,2.673,0,0,1-4.746-.92.762.762,0,0,1,.234-.847,2.4,2.4,0,0,0,.686-1.3,9.447,9.447,0,0,1,.847-3.009c.161-.292.073-.38-.234-.336-.058-.219.307-.438.029-.628C29.777,8.334,29.617,8.772,29.354,8.874Z" transform="translate(0.711 0.58)" fill="#606060"/>
    <path id="Path_2305" data-name="Path 2305" d="M31.694,42.038c-1.431-2.468-.935-4.966-.044-7.419A16.243,16.243,0,0,1,37.8,26.455a5.857,5.857,0,0,1,5.331-.686c.5.161.584.307.161.774-.526.584-.832.818-1.4.058-.38-.511-1.913-.175-2.6.467a1.2,1.2,0,0,0,.088,1.869c1.008.774.993,1.387.131,2.191a1.3,1.3,0,0,0-.292.964c-.015.526,0,1.037.745,1.022.146,0,.336.058.336.248a.524.524,0,0,1-.2.307c-.789.686-.789.686-.029,1.387.088.088.234.131.234.307-.219.175-.774-.1-.7.482.088.774.7.964,1.358,1.1-.058.321-.584.394-.394.774s.57.394.949.409c.686.015.686.029.38.716a2.624,2.624,0,0,0,.657.131c.993-.073,1.081.584,1.154,1.314.351,3.71.716,7.4,1.081,11.114.029.351,0,.482-.409.365a16.237,16.237,0,0,0-4.878-.716c-.438,0-.453-.146-.365-.511.789-3.184-.759-5.009-3.257-6.046a12.277,12.277,0,0,1-4.177-2.454Z" transform="translate(9.426 9.404)" fill="#606060"/>
    <path id="Path_2306" data-name="Path 2306" d="M53.4,48.039c.044.263-.117.292-.321.307-.526.015-1.052.073-1.577.073-5.973.088-11.932-.029-17.905-.117a3.649,3.649,0,0,1-3.271-1.548,2.376,2.376,0,0,1,.774-3.476,4.16,4.16,0,0,1,3.563-.409,38.964,38.964,0,0,0,6.207.876,27.277,27.277,0,0,1,4.323.73,4.913,4.913,0,0,0,3.826-.146,2.8,2.8,0,0,1,3.111.964,1.029,1.029,0,0,0,.555.526,2.4,2.4,0,0,1,1.4,1.49c.1.234.38.5.19.7-.248.292-.511-.029-.774-.131-.044-.058-.117-.131-.175-.044C53.309,47.879,53.368,47.981,53.4,48.039Zm-8.558-.891a4.754,4.754,0,0,0-2.5-.57c-2.527-.015-5.053,0-7.58,0a3.534,3.534,0,0,1-.789-.029c-.555-.161-1.052-.467-1.037-1.125s.628-.6,1.052-.686a2.861,2.861,0,0,1,.862.029c.7.073,1.4.234,2.1.248,3.476.044,6.849.935,10.282,1.314A4.837,4.837,0,0,1,49.7,47.455c.6.482.993.307,1.139-.394.088-.424.2-.511.613-.365a2.609,2.609,0,0,0,1.241.321,5.224,5.224,0,0,0-1.037-1.387c-.073-.088-.248-.248-.277-.044-.131.716-.351.131-.5.029-.424-.292-.643-.964-1.344-.745a1.918,1.918,0,0,0,.394.935c.131.234.453.511.219.745-.2.19-.54-.044-.789-.161a4.487,4.487,0,0,0-1.884-.73,18.928,18.928,0,0,1-4.221-.818c-3.3-.789-6.747-.175-10.062-1.052a1.641,1.641,0,0,0-1.869,1.1,1.869,1.869,0,0,0,1.227,2.191,4.679,4.679,0,0,0,2,.307c3.359-.058,6.718-.131,10.092-.19A.3.3,0,0,0,44.839,47.148Zm8.427.38c-.029-.029-.073-.1-.088-.1-.088.015-.117.073-.058.146.015.029.073.044.1.058C53.236,47.6,53.251,47.557,53.265,47.528Z" transform="translate(9.002 17.335)" fill="#606060"/>
    <path id="Path_2307" data-name="Path 2307" d="M28.433,5.043c5.345,0,10.676,0,16.021.015.234,0,.745-.248.7.292-.029.424.058.964-.774.964q-15.992-.044-31.969,0c-.672,0-.716-.38-.759-.818-.073-.686.467-.424.759-.424C17.742,5.043,23.087,5.043,28.433,5.043Z" transform="translate(0.61 0)" fill="#606060"/>
    <path id="Path_2308" data-name="Path 2308" d="M23.441,52.943a1.139,1.139,0,0,0-1.11-.511,42.6,42.6,0,0,1-5.112-.117,3.194,3.194,0,0,1-1.446-.467,1.535,1.535,0,0,1,1.271-2.468c.409.058.978,0,.672.8-.19.482.277.6.672.6,1.314,0,2.629-.015,3.943,0a7.175,7.175,0,0,1,1.256.117,1.529,1.529,0,0,1,1.358,1.577c0,1.9.424,1.84-1.738,1.855-2.439.029-4.892.015-7.331,0-2.161,0-2.278-.117-2.278-2.234a17.759,17.759,0,0,0-.015-1.972c-.073-.686.263-.745.818-.774.643-.029.818.2.774.8-.044.73-.015,1.475,0,2.205,0,.263-.015.584.365.584C18.111,52.958,20.725,53.323,23.441,52.943Z" transform="translate(1.497 20.42)" fill="#606060"/>
    <path id="Path_2309" data-name="Path 2309" d="M43.392,52.8a1.032,1.032,0,0,0-1.037-.409c-1.5,0-2.994.015-4.5-.015-.628-.015-1.3-.058-1.606-.759a1.588,1.588,0,0,1,.219-1.563.994.994,0,0,1,.613-.467c.424-.117.92-.38.643.482-.131.438.088.672.584.657,1.417-.015,2.848-.015,4.265,0,1.548.015,2.015.394,2.41,1.869.175.628.7.219,1.066.307.277.073.526,0,.511-.394-.015-.321.029-.628-.015-.949-.073-.643.146-.862.818-.862s.818.234.774.832a10.712,10.712,0,0,0,0,1.811c.073.657-.19.905-.8.92a3.626,3.626,0,0,1-2.074-.277c-.073-.044-.161-.117-.2-.1-1.592.847-3.3.219-4.951.38a27.817,27.817,0,0,1-2.921.015c-.292,0-.57-.073-.862-.073-.526-.015-.453-.394-.453-.73-.015-.424.248-.453.57-.453,1.942-.015,3.885-.044,5.827-.073A1.92,1.92,0,0,0,43.392,52.8Z" transform="translate(11.763 20.471)" fill="#606060"/>
    <path id="Path_2310" data-name="Path 2310" d="M28.211,54.288a21.261,21.261,0,0,1-3.856-.073.953.953,0,0,1-.949-.935,23.828,23.828,0,0,1-.044-3.388c.015-.686.57-.482.935-.5s.745-.015.716.555c-.029.759-.015,1.519,0,2.278,0,.365-.088.745.511.745.686.015.38-.482.438-.774.044-.175-.029-.38.015-.555.073-.321-.292-.876.394-.891.57-.015,1.212-.117,1.2.789,0,.365.073.73.1,1.1.015.234.146.307.365.307s.277-.117.277-.307a4.509,4.509,0,0,0-.073-1.4c-.1-.351.015-.453.365-.482,1.066-.088,1.241.088,1.3,1.183.015.321-.292.935.292.964.672.029.277-.613.38-.964a1.079,1.079,0,0,0,0-.307c0-.409-.2-.935.584-.876.628.044,1.154.1,1.11.949a13.519,13.519,0,0,0,0,1.884c.044.5-.175.672-.613.686C30.518,54.288,29.365,54.288,28.211,54.288Z" transform="translate(5.987 20.433)" fill="#606060"/>
    <path id="Path_2311" data-name="Path 2311" d="M37.727,55.124q-13.21,0-26.434-.015c-.277,0-.789.175-.8-.19,0-.511.54-.248.818-.248q26.529-.022,53.043,0c.277,0,.789-.19.789.2,0,.511-.54.248-.818.248Z" transform="translate(0.078 22.839)" fill="#606060"/>
    <path id="Path_2312" data-name="Path 2312" d="M37.773,48.529H11.66c-.161,0-.321.015-.467,0-.234-.029-.643.131-.643-.219,0-.321.409-.234.657-.248h7.813q22.454,0,44.894.015c.409,0,1.183-.2,1.168.2-.029.511-.774.234-1.183.234-8.719.015-17.423,0-26.127.015Z" transform="translate(0.105 19.81)" fill="#606060"/>
    <path id="Path_2313" data-name="Path 2313" d="M33.392,54.345a14.118,14.118,0,0,1-2.673-.131c-.482-.088-.832-.263-.905-.818a16.827,16.827,0,0,1-.029-3.534c.044-.657.6-.438.979-.467s.657.073.643.57c-.029.818.015,1.636-.015,2.439-.015.409.117.57.54.555.6-.029,1.212-.029,1.811,0,.438.015.555-.175.526-.555-.015-.234,0-.467,0-.716,0-.891.1-.964.993-.92.453.015.6.2.57.628-.029.73-.029,1.475,0,2.205.015.409-.1.6-.54.657A18.481,18.481,0,0,1,33.392,54.345Z" transform="translate(8.926 20.435)" fill="#606060"/>
    <path id="Path_2314" data-name="Path 2314" d="M47.711,54.376c-.657-.015-1.314-.073-1.957-.131a1.108,1.108,0,0,1-1.2-1.154,26.858,26.858,0,0,1-.015-3.067c.044-.847.657-.6,1.139-.643.672-.058.526.424.526.789.015.716.029,1.417,0,2.132-.029.5.146.73.643.73.263,0,.526.058.774.058.6.015.935-.234.818-.891a2.5,2.5,0,0,1,0-.467c0-.876.424-1.168,1.271-.935.336.088.277.336.277.555,0,.759-.015,1.519.015,2.278.015.424-.146.643-.57.657Z" transform="translate(15.74 20.433)" fill="#606060"/>
    <path id="Path_2315" data-name="Path 2315" d="M42.142,35.921a1.1,1.1,0,0,1-.643.964c-.365.2-.789.511-1.154.2-.321-.263.131-.613.146-.993-.57.073-1.154.161-1.811.248.234-.555.686-.891.73-1.49-.54-.073-1.066.277-1.636,0,.146-.438.657-.555.862-.949.146-.307.307-.511-.219-.54a6.923,6.923,0,0,1-1.022-.19c.19-.57.672-.905.832-1.446.131-.424.088-.555-.38-.555-.307,0-.745.2-.891-.234a1.336,1.336,0,0,1,.248-1.2A3.652,3.652,0,0,1,39.338,28.4a10.009,10.009,0,0,0,.394,4.557,8.151,8.151,0,0,0,.73,1.475c.117.19.19.54.555.38L41,34.8a1.26,1.26,0,0,0,1.139,1.125Z" transform="translate(12.24 10.774)" fill="#606060"/>
    <path id="Path_2316" data-name="Path 2316" d="M27.66,15.327H13.611c-.146,0-.336.015-.351-.2s.146-.248.307-.263c.292-.015.584-.029.862-.029H40.7c.365,0,.73.029,1.11.044a.247.247,0,0,1,.277.219c.029.234-.161.234-.307.248-.19.015-.365,0-.555,0C36.7,15.327,32.188,15.327,27.66,15.327Z" transform="translate(1.353 4.526)" fill="#606060"/>
    <path id="Path_2317" data-name="Path 2317" d="M13.167,52.5c-.38-.7-.935-.453-1.387-.467-.321-.015-.759.131-.657-.438.088-.453-.424-1.212.57-1.241a13.8,13.8,0,0,1,1.738.015,1.144,1.144,0,0,1,1.139,1.256c-.044,2.439.57,2.249-2.118,2.278-.467,0-.935-.088-1.4-.117a.687.687,0,0,1-.672-.657c-.073-.409-.2-.818.57-.657A11.144,11.144,0,0,0,13.167,52.5Z" transform="translate(0 20.874)" fill="#606060"/>
    <path id="Path_2318" data-name="Path 2318" d="M44.276,28.6a2.361,2.361,0,0,0-4.1-.38c-.467.628-.891,1.241-1.84,1.037A2.2,2.2,0,0,1,36.74,27.6c-.029-.7.584-.891,1.1-1.022a1.3,1.3,0,0,1,1.475.5c.351.511.657.365,1.008.044.1-.088.19-.175.292-.277.949-.891,1.212-.891,2.191-.088.657.54,1.49.891,1.928,1.694-.1.234-.365-.073-.453.146Z" transform="translate(12.164 9.745)" fill="#606060"/>
    <path id="Path_2319" data-name="Path 2319" d="M39.788,33.756c-.38-1.533-.117-1.942,1.49-2.234a10.236,10.236,0,0,0,3.432-.73c.1-.058.263-.117.365,0s.029.248-.029.365c-.175.292-.336.584-.526.876-.234.365-.424.5-.818.088-.5-.511-2.7-.321-3.2.2a.876.876,0,0,0,.365,1.46,1.944,1.944,0,0,0,2.191-.351,1.229,1.229,0,0,1,.745-.482,8.826,8.826,0,0,0-.978,2.22.834.834,0,0,1-.847.584c-.409,0-.789-.117-.891-.6-.029-.117-.029-.263-.2-.307v.015c-.1-.643-.745-.73-1.1-1.11Z" transform="translate(13.497 11.844)" fill="#606060"/>
    <path id="Path_2320" data-name="Path 2320" d="M21.29,54.922c1.2-.526,1.081-1.548,1.066-2.512-.015-.453.044-.905-.015-1.344-.1-.716.321-.716.847-.745.613-.044.774.19.73.774-.044.818,0,1.621-.015,2.439A1.743,1.743,0,0,1,21.29,54.922Z" transform="translate(5.051 20.865)" fill="#606060"/>
    <path id="Path_2321" data-name="Path 2321" d="M40.52,31.7a15.361,15.361,0,0,1,1.46-2,1.474,1.474,0,0,1,1.577-.394,1.818,1.818,0,0,1,.993,1.417c.073.263-.073.351-.321.409A8.237,8.237,0,0,1,40.52,31.7Z" transform="translate(13.905 11.151)" fill="#606060"/>
    <path id="Path_2322" data-name="Path 2322" d="M43.214,28.1c.19.336.394.686-.277.613-.394-.044-.73.292-1.139.19.117-.351.613-.263.73-.613a.908.908,0,0,0-.832-.117c-.365.088-.38.643-.8.686a2.262,2.262,0,0,1,.088-1.314,1.6,1.6,0,0,0-1.417,1.168.9.9,0,0,0,.292,1.168c.424.263.686-.131.993-.424a4.576,4.576,0,0,1-.6-.292c-.131-.088-.234-.234-.131-.394.161-.248.292-.058.424.058a.978.978,0,0,0,.263.161c.365.277.672-.161,1.008-.088-.058.511-.935.57-.7,1.256v.015c-.277-.2-.438.015-.628.161h-.073a1,1,0,0,1-1.387-.847,2.471,2.471,0,0,1,1.139-2.1,1,1,0,0,1,1.344.161c.453.424,1.168.292,1.709.555Z" transform="translate(13.212 10.223)" fill="#606060"/>
    <path id="Path_2323" data-name="Path 2323" d="M40.224,29.748H40.3c.307.321.424-.058.628-.161v-.015c.73-.672,1.446-1.358,2.57-1.037-.058.219-.424-.015-.453.277l.015-.015a1.368,1.368,0,0,0-1.563,1.271,2.66,2.66,0,0,1-.584,1.344c-.38.38-.964.6-1.329.248-.409-.394-.1-.905.292-1.271C40.063,30.215,40.443,30.142,40.224,29.748Z" transform="translate(13.384 10.799)" fill="#606060"/>
    <path id="Path_2324" data-name="Path 2324" d="M33.131,8.013c.073.015.146.029.234.044-.161.248-.336.5-.482.774-.131.248,0,.321.234.277a.675.675,0,0,0,.1.1c-1.256,1.49-1.256,1.49-2.585.117a2.276,2.276,0,0,1-.234-.292c.029-.029.058-.073.088-.1.175-.161.584.8.6-.117.263-.044.584-.015.424-.453-.073-.19-.1-.394-.161-.584a1.789,1.789,0,0,1,.277-.029c.146.424.015,1.1.555,1.2.482.1.584-.555.891-.862A.1.1,0,0,1,33.131,8.013ZM31.9,9.137a.406.406,0,0,0-.365.438c0,.219.088.453.321.467a.489.489,0,0,0,.482-.424C32.372,9.342,32.123,9.225,31.9,9.137Z" transform="translate(9.245 1.266)" fill="#606060"/>
    <path id="Path_2325" data-name="Path 2325" d="M15.3,8.091c.058,0,.131.015.19.015-.015.321-.161.759.453.453.234.161-.424.555.161.643-.088.555-.57.818-.891,1.2-.2.248-.38-.015-.5-.161-.292-.336-.57-.672-.847-1.022a.945.945,0,0,0,.117-.131c.161.1.394.2.234-.131A7.489,7.489,0,0,0,13.58,7.93H13.9c.351.277.409.92.964.905C15.245,8.835,15.128,8.339,15.3,8.091Zm.175,1.373c-.044-.2-.117-.438-.38-.38-.2.044-.526.1-.5.394.029.234.19.54.5.526C15.347,9.975,15.479,9.756,15.479,9.463Z" transform="translate(1.501 1.349)" fill="#606060"/>
    <path id="Path_2326" data-name="Path 2326" d="M41.89,28.709a6.694,6.694,0,0,1,2.673.453c.321.088.351.248.336.5a1.631,1.631,0,0,1-.277.862c-.073.088-.219-.015-.263-.1a4.008,4.008,0,0,0-2.468-1.709Z" transform="translate(14.536 10.903)" fill="#606060"/>
    <path id="Path_2327" data-name="Path 2327" d="M33.322,53.534c-.073.351-.263.511-.613.336a.944.944,0,0,0-.745-.015c-.161.044-.38.19-.482-.029a.792.792,0,0,1-.015-.745c.1-.2.336-.131.5-.044a.829.829,0,0,0,.862-.029c.234-.131.394-.029.5.19Z" transform="translate(9.697 22.078)" fill="#606060"/>
    <path id="Path_2328" data-name="Path 2328" d="M40.45,32.135a2.387,2.387,0,0,1,2.132-.263.322.322,0,0,1,.263.409c-.073.277-.248.19-.424.131A6.889,6.889,0,0,0,40.45,32.135Z" transform="translate(13.873 12.311)" fill="#606060"/>
    <path id="Path_2329" data-name="Path 2329" d="M32.715,53.549a2.367,2.367,0,0,0-.015-.321c.19.044.263-.117.38-.19.234-.146.54-.2.672.088a.621.621,0,0,1-.1.789.423.423,0,0,1-.672-.131A.3.3,0,0,0,32.715,53.549Z" transform="translate(10.304 22.063)" fill="#606060"/>
    <path id="Path_2330" data-name="Path 2330" d="M43.587,49.706c.044.351-.117.482-.453.438-.248-.029-.5-.073-.453-.394s.1-.643.555-.6C43.6,49.166,43.6,49.429,43.587,49.706Z" transform="translate(14.898 20.327)" fill="#606060"/>
    <path id="Path_2331" data-name="Path 2331" d="M47.234,53c.248-.029.365.131.365.453s-.1.5-.453.467-.482-.234-.5-.57C46.665,53,46.913,53.016,47.234,53Z" transform="translate(16.728 22.1)" fill="#606060"/>
    <path id="Path_2332" data-name="Path 2332" d="M13.876,8.935a.528.528,0,0,1-.336-.277.132.132,0,0,1,.088-.088c.117.088.248.161.365.248Z" transform="translate(1.482 1.643)" fill="#606060"/>
    <path id="Path_2333" data-name="Path 2333" d="M30,8.344c0-.073.015-.131.015-.2l.321.321-.088.088A3.059,3.059,0,0,0,30,8.344Z" transform="translate(9.061 1.445)" fill="#606060"/>
    <path id="Path_2334" data-name="Path 2334" d="M32.706,8.35c.073,0,.161.015.234.015l-.307.175c-.015-.029-.044-.044-.073-.073A1.023,1.023,0,0,0,32.706,8.35Z" transform="translate(10.24 1.542)" fill="#606060"/>
    <path id="Path_2335" data-name="Path 2335" d="M15.3,8.86c.058-.161.146-.234.321-.161C15.563,8.845,15.49,8.976,15.3,8.86Z" transform="translate(2.293 1.69)" fill="#606060"/>
    <path id="Path_2336" data-name="Path 2336" d="M32.606,8.618c-.073.073-.161.146-.234.234a.675.675,0,0,1-.1-.1l.263-.219A.387.387,0,0,0,32.606,8.618Z" transform="translate(10.106 1.625)" fill="#606060"/>
    <path id="Path_2337" data-name="Path 2337" d="M30.451,8.708l-.161-.161a.387.387,0,0,0,.073-.088l.175.131A.81.81,0,0,1,30.451,8.708Z" transform="translate(9.195 1.593)" fill="#606060"/>
    <path id="Path_2338" data-name="Path 2338" d="M13.485,8.579a1.547,1.547,0,0,1-.175-.146A.387.387,0,0,1,13.4,8.36l.161.161A.318.318,0,0,0,13.485,8.579Z" transform="translate(1.376 1.547)" fill="#606060"/>
    <path id="Path_2339" data-name="Path 2339" d="M30.331,8.594a1.6,1.6,0,0,1-.161-.146l.088-.088.161.161C30.389,8.55,30.36,8.564,30.331,8.594Z" transform="translate(9.139 1.547)" fill="#606060"/>
    <path id="Path_2340" data-name="Path 2340" d="M15.63,8.643c.015-.146.117-.19.248-.161A1.447,1.447,0,0,0,15.63,8.643Z" transform="translate(2.444 1.599)" fill="#606060"/>
    <path id="Path_2341" data-name="Path 2341" d="M32.688,8.5l-.161.161c-.029-.029-.058-.073-.088-.1a1.218,1.218,0,0,1,.175-.117C32.644,8.455,32.659,8.484,32.688,8.5Z" transform="translate(10.185 1.583)" fill="#606060"/>
    <path id="Path_2342" data-name="Path 2342" d="M16,8.464c-.161-.073-.175-.131,0-.2Z" transform="translate(2.557 1.501)" fill="#606060"/>
    <path id="Path_2343" data-name="Path 2343" d="M13.605,8.689c-.058-.058-.117-.1-.175-.161.029-.015.044-.044.073-.058.058.044.131.088.19.131A.248.248,0,0,0,13.605,8.689Z" transform="translate(1.432 1.597)" fill="#606060"/>
    <path id="Path_2344" data-name="Path 2344" d="M15.522,8.741c-.029-.131.044-.175.161-.161A.14.14,0,0,1,15.522,8.741Z" transform="translate(2.392 1.647)" fill="#606060"/>
    <path id="Path_2345" data-name="Path 2345" d="M24.954,8.981c-.234.248-.453.5-.686.73-.964.964-1.183.949-1.972-.161-.044-.058-.088-.131-.131-.19.905-.38-.088-.686-.044-1.022.044-.058.088-.1.131-.161.277.19.336.628.8.716-.117-.424-.219-.8-.307-1.183h.263a5.035,5.035,0,0,1,.175.672.641.641,0,0,0,.365.555c.248.117.365-.117.511-.263a3.491,3.491,0,0,0,.321-.336h.19l-.307.613c-.088.058-.161.175-.073.234.117.088.146-.073.19-.131C24.589,9.054,24.749,8.878,24.954,8.981Zm-1.606,1.11c.234-.088.453-.219.467-.467a.426.426,0,0,0-.453-.438.452.452,0,0,0-.424.394C22.909,9.828,23.128,9.974,23.347,10.091Z" transform="translate(5.432 1.247)" fill="#606060"/>
    <path id="Path_2346" data-name="Path 2346" d="M20.224,9.091a2.548,2.548,0,0,1-1.052,1.344c-.424.307-.57-.321-.832-.54.058-.073.131-.131.19-.2.2.131.263.511.555.409a.576.576,0,0,0,.336-.57c-.058-.453-.438-.424-.759-.409a.711.711,0,0,0-.015-.175c.015-.1.015-.2.029-.321h.131c.088.146.19.38.321.029A7.642,7.642,0,0,0,19.3,7.82h.277c-.073.307-.131.613-.2.92.38,0,.438-.394.716-.453C20.326,8.521,19.479,8.959,20.224,9.091Z" transform="translate(3.692 1.298)" fill="#606060"/>
    <path id="Path_2347" data-name="Path 2347" d="M30.684,8.01c.161.2.424.351.292.672-.219-.058-.277-.219-.336-.409Z" transform="translate(9.356 1.385)" fill="#606060"/>
    <path id="Path_2348" data-name="Path 2348" d="M19.523,8.261a.327.327,0,0,1,.131-.351c.058.058.1.117.161.175C19.756,8.217,19.7,8.348,19.523,8.261Z" transform="translate(4.233 1.339)" fill="#606060"/>
    <path id="Path_2349" data-name="Path 2349" d="M28.841,8.408a.8.8,0,0,1-.131-.1C28.812,8.262,28.856,8.291,28.841,8.408Z" transform="translate(8.467 1.513)" fill="#606060"/>
    <path id="Path_2350" data-name="Path 2350" d="M17.282,8.3c0,.044-.015.088-.015.131l-.088-.088C17.209,8.329,17.253,8.315,17.282,8.3Z" transform="translate(3.158 1.519)" fill="#606060"/>
    <path id="Path_2351" data-name="Path 2351" d="M31.1,7.8c-.044-.058-.073-.131-.117-.19A1.333,1.333,0,0,1,31.1,7.8Z" transform="translate(9.512 1.201)" fill="#606060"/>
    <path id="Path_2352" data-name="Path 2352" d="M45.943,46.02c-.015.044-.029.073-.044.117-.044-.015-.088-.029-.1-.058-.044-.073-.015-.146.058-.146C45.884,45.9,45.913,45.976,45.943,46.02Z" transform="translate(16.325 18.844)" fill="#606060"/>
    <path id="Path_2353" data-name="Path 2353" d="M46,46.411c-.015-.058-.073-.161-.058-.19.058-.073.131-.015.175.044A1.024,1.024,0,0,0,46,46.411Z" transform="translate(16.4 18.964)" fill="#606060"/>
    <path id="Path_2354" data-name="Path 2354" d="M15.192,8.471a.277.277,0,0,1,.161-.321c0,.073.015.146.015.234C15.338,8.442,15.309,8.544,15.192,8.471Z" transform="translate(2.24 1.45)" fill="#606060"/>
    <path id="Path_2355" data-name="Path 2355" d="M15.315,8.424c0-.073-.015-.146-.015-.234.029-.088.044-.161.161-.161C15.534,8.22,15.431,8.322,15.315,8.424Z" transform="translate(2.293 1.395)" fill="#606060"/>
    <path id="Path_2356" data-name="Path 2356" d="M26.825,8.668a1.681,1.681,0,0,0,2.059-.628c.044.263-.175.409-.263.613-.1.248-.029.336.219.292l.131.131c-.263.263-.424.686-.891.686.058-.336.029-.628-.336-.759a.337.337,0,0,0-.409.161.505.505,0,0,0,.015.584c.234.424.5-.029.745.015-.234.774-.307.8-.832.292-.336-.321-.672-.672-.993-1.008.219-.2.38.044.57.073.015.015.044.015.058.029-.015,0-.044-.015-.058-.015C26.825,8.989,26.825,8.829,26.825,8.668Z" transform="translate(7.344 1.399)" fill="#606060"/>
    <path id="Path_2357" data-name="Path 2357" d="M28.04,8.751c.131-.117.292-.38.453-.19.1.131-.161.248-.321.321Z" transform="translate(8.159 1.608)" fill="#606060"/>
    <path id="Path_2358" data-name="Path 2358" d="M24.063,8.691c-.058-.292.131-.321.351-.321C24.37,8.545,24.282,8.691,24.063,8.691Z" transform="translate(6.323 1.551)" fill="#606060"/>
    <path id="Path_2359" data-name="Path 2359" d="M26.545,8.25c.161.058.248.146.161.321C26.545,8.527,26.5,8.425,26.545,8.25Z" transform="translate(7.463 1.496)" fill="#606060"/>
    <path id="Path_2360" data-name="Path 2360" d="M25.78,8.275l.088.044c-.015,0-.029.015-.044,0s-.029-.044-.044-.058C25.795,8.26,25.78,8.275,25.78,8.275Z" transform="translate(7.118 1.501)" fill="#606060"/>
    <path id="Path_2361" data-name="Path 2361" d="M21.6,8.24c.015.029.029.073.044.1-.029-.015-.058-.044-.088-.058C21.575,8.284,21.6,8.24,21.6,8.24Z" transform="translate(5.175 1.491)" fill="#606060"/>
    <path id="Path_2362" data-name="Path 2362" d="M18.372,8.482c.219-.146.292.161.467.161a.711.711,0,0,0,.015.175l-.131.57c-.058.073-.131.131-.19.2-.248-.234-.613-.38-.643-.789C18.182,8.891,18.474,8.979,18.372,8.482Z" transform="translate(3.485 1.585)" fill="#606060"/>
    <path id="Path_2363" data-name="Path 2363" d="M19.62,8.747a.231.231,0,0,1,.321-.161C19.883,8.732,19.81,8.849,19.62,8.747Z" transform="translate(4.282 1.642)" fill="#606060"/>
    <path id="Path_2364" data-name="Path 2364" d="M17.55,8.513c.058-.146.131-.131.19,0Z" transform="translate(3.329 1.569)" fill="#606060"/>
    <path id="Path_2365" data-name="Path 2365" d="M19.95,8.535c0-.117.058-.161.175-.175C20.14,8.506,20.052,8.535,19.95,8.535Z" transform="translate(4.434 1.547)" fill="#606060"/>
    <path id="Path_2366" data-name="Path 2366" d="M17.681,8.47a.166.166,0,0,1,.161.175C17.71,8.66,17.666,8.6,17.681,8.47Z" transform="translate(3.388 1.597)" fill="#606060"/>
    <path id="Path_2367" data-name="Path 2367" d="M17.792,8.58c.1,0,.175.044.161.175C17.822,8.77,17.763,8.711,17.792,8.58Z" transform="translate(3.437 1.648)" fill="#606060"/>
    <path id="Path_2368" data-name="Path 2368" d="M19.841,8.641c-.015-.131.044-.175.161-.161C20.016,8.583,19.943,8.627,19.841,8.641Z" transform="translate(4.382 1.601)" fill="#606060"/>
    <path id="Path_2369" data-name="Path 2369" d="M27.428,8.26a.088.088,0,0,1-.015.058c0,.015-.029,0-.044.015.015-.029.044-.044.058-.073Z" transform="translate(7.85 1.501)" fill="#606060"/>
    <path id="Path_2370" data-name="Path 2370" d="M23.924,8.043c-.015.058-.029.1-.044.161h-.19C23.734,8.116,23.778,8,23.924,8.043Z" transform="translate(6.156 1.396)" fill="#606060"/>
    <path id="Path_2371" data-name="Path 2371" d="M26.65,8.8c.015,0,.044.015.058.015-.015,0-.029-.015-.058-.015Z" transform="translate(7.519 1.749)" fill="#606060"/>
  </g>
</svg>
