<svg xmlns="http://www.w3.org/2000/svg" width="61.904" height="81.078" viewBox="0 0 61.904 81.078">
  <g id="PostBank" transform="translate(-7.135 -0.993)">
    <path id="Path_2909" data-name="Path 2909" d="M46.281,2.816C63.053,8.859,69.2,29.935,57.924,44.364a26.835,26.835,0,0,1-42.992-32.1c.486-.693.8-.766,1.4-.177a7.257,7.257,0,0,0,4.481,2.2,5.509,5.509,0,0,1,3.331,2.24A48.6,48.6,0,0,1,30.451,26.87C31.7,29.39,33,31.881,34.283,34.4c.28.56.545.693,1.046.133,1.061-1.179,2.167-2.314,3.316-3.419a.86.86,0,0,0,.118-1.268c-1.68-2.476-3.125-5.085-4.687-7.635a43.568,43.568,0,0,0-4.7-6.485A7.215,7.215,0,0,0,26,13.531a12.009,12.009,0,0,1-6.647-4.937c-.413-.59-.368-.9.162-1.282.28-.206.545-.442.825-.648.781-.59,1.356-.648,1.99.368A32.13,32.13,0,0,0,25.19,10.8a7.84,7.84,0,0,0,4.51,2.579,6.545,6.545,0,0,1,3.832,2.4,49.925,49.925,0,0,1,5.439,8.4c.6,1.164,1.341,2.27,1.99,3.419.295.516.531.6.973.147.929-1,1.887-1.975,2.859-2.933.368-.368.265-.678.015-1.046-1.96-2.859-3.6-5.954-5.9-8.607a9.423,9.423,0,0,0-4.436-2.992,9.931,9.931,0,0,1-5.719-4.422c-.781-1.223-1.651-2.4-2.476-3.581-.4-.56-.324-.87.354-1.179,1.842-.855,1.8-.87,2.889.766,1.179,1.754,2.343,3.523,3.626,5.188a7.239,7.239,0,0,0,4.333,2.859c2.594.5,4.127,2.255,5.527,4.186,1.282,1.769,2.506,3.6,3.7,5.424.457.693.8.693,1.268.1a6.606,6.606,0,0,1,.531-.59c2.284-2.432,2.284-2.432.206-5.114-.486-.634-.958-1.253-1.415-1.916a6.985,6.985,0,0,0-4.628-3.051A7.673,7.673,0,0,1,37.7,7.223c-1.15-1.651-2.152-3.419-3.287-5.085-.516-.752-.354-.958.56-1.076a3.633,3.633,0,0,1,4.215,1.99,51.076,51.076,0,0,0,3.4,4.967,6.173,6.173,0,0,0,3.979,2.417,7.291,7.291,0,0,1,4.259,2.653c.678.752,1.312,1.548,1.945,2.329.354.442.693.486,1.076.029.236-.265.472-.516.722-.766,1.857-1.9,1.857-2-.162-3.817A7.287,7.287,0,0,0,50.6,9.183a3.7,3.7,0,0,1-2.741-1.842C47,5.926,46.133,4.511,45.278,3.1,45.367,2.33,45.838,2.61,46.281,2.816Z" transform="translate(1.349 0)" fill="#606060"/>
    <path id="Path_2910" data-name="Path 2910" d="M55.337,44.79a3.376,3.376,0,0,1-1.783,3.965c-1.12.722-2.55.958-3.449,2.063-.118.147-.442.295-.575.236-1.356-.575-2.034.531-2.948,1.091-2.977,1.8-6.249,1.945-9.58,1.474-1.12-.162-1.326-.973-1.046-2.845,4.024,1.5,7.841,1.061,11.835-.56,2-.811,3.92-1.813,5.94-2.565a1.13,1.13,0,0,0,.884-1.326A1.974,1.974,0,0,1,55.337,44.79Z" transform="translate(13.604 20.754)" fill="#606060"/>
    <path id="Path_2911" data-name="Path 2911" d="M32.618,49.239c-.634,1.415-1.975,1.945-3.257,2.432a14.667,14.667,0,0,1-5.969.87c-2.181-.118-2.682-.958-1.975-3.64a1.986,1.986,0,0,0,2.078,1.474c3.213.162,6.338-.133,9.094-2.063A.82.82,0,0,1,32.618,49.239Z" transform="translate(6.625 22.422)" fill="#606060"/>
    <path id="Path_2912" data-name="Path 2912" d="M14.1,51.861A5.133,5.133,0,0,1,11.077,54.6c-2.314.8-4.068-.545-3.935-2.977a13.215,13.215,0,0,1,.31-1.665c.84.177.088.973.516,1.312a2.757,2.757,0,0,0,3.39,1.253c.472-.118.914-.31,1.371-.472.368-.162.59-.545.943-.693C14.187,51.139,14.29,51.4,14.1,51.861Z" transform="translate(0 23.203)" fill="#606060"/>
    <path id="Path_2913" data-name="Path 2913" d="M28.934,51.039l-.044-.929c1.754-1.326,1.533-3.67,2.845-5.6-.206,2.122-.781,3.862-.752,5.674.015.531-.147,1.164.354,1.474.6.368.958-.324,1.459-.59A4.047,4.047,0,0,1,32.354,53c-.236.545-.6,1.061-1.253.987-.766-.074-.958-.752-1.017-1.356-.074-.855-.015-1.724-.015-2.623C29.671,50.361,29.3,50.7,28.934,51.039Z" transform="translate(10.309 20.621)" fill="#606060"/>
    <path id="Path_2914" data-name="Path 2914" d="M40.637,38.813c-2.108,2.9-5.129,4.8-7.8,7.089-.56.472-1.164.87-1.96,1.459a3.571,3.571,0,0,1,1.415-2.093c2.594-2.255,5.35-4.318,7.782-6.75.147-.133.324-.324.531-.206S40.829,38.636,40.637,38.813Z" transform="translate(11.252 17.666)" fill="#606060"/>
    <path id="Path_2915" data-name="Path 2915" d="M35.825,50.675a3.378,3.378,0,0,1-.619,2.343,1.018,1.018,0,0,1-1.091.575,1.1,1.1,0,0,1-.84-.914,2.806,2.806,0,0,1-.088-1.046c.295-2.108.4-4.259.9-6.323a.458.458,0,0,1,.5.648c-.472,1.326-.118,2.7-.354,4.038-.088.486-.192,1,.324,1.312C35.132,51.677,35.427,51.073,35.825,50.675Z" transform="translate(12.335 21)" fill="#606060"/>
    <path id="Path_2916" data-name="Path 2916" d="M48.092,55.505a1.1,1.1,0,0,1-1.474-.575c-.236-.634.31-1.135.6-1.651.177-.31.472-.133.678.044.251.221.486.413.722,0s.545-.737,1.032-.295a1.172,1.172,0,0,1,.265,1.415c-.206.6-1.091.575-1.046,1.312C48.505,55.947,48.3,55.741,48.092,55.505Z" transform="translate(18.682 24.556)" fill="#606060"/>
    <path id="Path_2917" data-name="Path 2917" d="M42.088,46.568c-.339.4-.221,1.607-1.415.825a.407.407,0,0,0-.648.162c-.324.545-.678.6-1.164.192-.59-.5-.206-.943.029-1.4s.5-.914,1.076-.383c.324.295.516.162.722-.133s.383-.648.825-.368A1.107,1.107,0,0,1,42.088,46.568Z" transform="translate(14.885 21.025)" fill="#606060"/>
    <path id="Path_2918" data-name="Path 2918" d="M20.1,54.425a1,1,0,0,1-1.371,1.032c-.383-.177-.531-.118-.737.192a.633.633,0,0,1-1.076.162c-.678-.531-.221-1,.029-1.489.206-.4.427-.855.973-.368.339.295.59.324.825-.088.192-.324.413-.575.84-.31A1.227,1.227,0,0,1,20.1,54.425Z" transform="translate(4.466 24.855)" fill="#606060"/>
    <path id="Path_2919" data-name="Path 2919" d="M14.711,45.73c-.192,2.329.442,4.775-1.061,6.912C14,50.328,13.119,47.867,14.711,45.73Z" transform="translate(3.087 21.199)" fill="#606060"/>
    <path id="Path_2920" data-name="Path 2920" d="M19.461,47.73l.8-1.99c.1.015.221.044.324.059-.177,2.152.192,4.348-.781,6.426-.192.4-.339.855-.59.044C19.564,50.766,19.092,49.218,19.461,47.73Z" transform="translate(5.722 21.204)" fill="#606060"/>
    <path id="Path_2921" data-name="Path 2921" d="M12.305,53.434c-.088-.177-.029-.59-.427-.295-.295.221-.516.545-.958.486a4.66,4.66,0,0,0,1.857-4.363,3.385,3.385,0,0,1,.855-2.623C13.735,49.028,13.823,51.386,12.305,53.434Z" transform="translate(1.793 21.63)" fill="#606060"/>
    <path id="Path_2922" data-name="Path 2922" d="M18.292,49.056c-.766,2.623-1.253,3.036-3.832,2.977,1.385-1.194,3.036-1.828,3.552-3.493C18.218,48.658,18.13,48.923,18.292,49.056Z" transform="translate(3.471 22.531)" fill="#606060"/>
    <path id="Path_2923" data-name="Path 2923" d="M10.242,50.785a1.233,1.233,0,0,1-.781-1.061c.029-.648.28-1.415.914-1.607.5-.147.914.457.987.987C11.465,49.915,10.861,50.343,10.242,50.785Z" transform="translate(1.101 22.32)" fill="#606060"/>
    <path id="Path_2924" data-name="Path 2924" d="M19.729,47.26c-.192,1.548-1.695,1.813-2.579,2.668-.236-.1-.251-.31-.28-.516.221-1.194,1.326-1.5,2.108-2.137.1-.133.531-.442.634-.575Z" transform="translate(4.613 21.659)" fill="#606060"/>
    <path id="Path_2925" data-name="Path 2925" d="M35.422,55.027c-.265.531-.251,1.3-1,1.238a.81.81,0,0,1-.811-.987c.147-.516.251-1.282.884-1.326C35.054,53.906,35.275,54.526,35.422,55.027Z" transform="translate(12.531 25.093)" fill="#606060"/>
    <path id="Path_2926" data-name="Path 2926" d="M32.587,45.26c.545.265.914.59.855,1.135s-.177,1.223-.9,1.223a.778.778,0,0,1-.811-.855A2.31,2.31,0,0,1,32.587,45.26Z" transform="translate(11.652 20.976)" fill="#606060"/>
    <path id="Path_2927" data-name="Path 2927" d="M47.8,54.64c.251.088.516.177.766.251,0,.044.015.088.015.133-.044.575.265,1.268-.472,1.592-.324.147-.6-.206-.737-.413C46.911,55.554,47.427,55.1,47.8,54.64Z" transform="translate(18.979 25.421)" fill="#606060"/>
    <path id="Path_2928" data-name="Path 2928" d="M7.876,52.091c-.5-.31-.029-1-.516-1.312a4.243,4.243,0,0,1,1.253-2.55C8.318,49.527,7.714,50.75,7.876,52.091Z" transform="translate(0.107 22.384)" fill="#606060"/>
    <path id="Path_2929" data-name="Path 2929" d="M35.09,2.408c-.368.044-.811-.147-1.061.295-.28-.177-.56-.59-.368-.707C34.176,1.671,34.692,1.951,35.09,2.408Z" transform="translate(12.539 0.409)" fill="#606060"/>
    <path id="Path_2930" data-name="Path 2930" d="M37.68,39.071c.059-.575-.265-.383-.56-.295A1.834,1.834,0,0,1,38.3,37.73,1.435,1.435,0,0,1,37.68,39.071Z" transform="translate(14.209 17.408)" fill="#606060"/>
  </g>
</svg>
