<svg xmlns="http://www.w3.org/2000/svg" width="76.387" height="89.154" viewBox="0 0 76.387 89.154">
  <g id="Resalat" transform="translate(-4.604 -1.44)">
    <path id="Path_2951" data-name="Path 2951" d="M10.807,40.61c-.866,1.432-1.8,2.847-2.6,4.312a18.391,18.391,0,0,0-2.647,8.89,5.925,5.925,0,0,0,7.058,5.926c3.862-.566,6.958-2.63,9.955-4.928a44.876,44.876,0,0,0,4-3.762q8.19-8.215,16.4-16.414a11.984,11.984,0,0,1,8.656-3.779,8.9,8.9,0,0,1,5.011,1.665c.749.5,1.482,1.015,2.214,1.515a7.989,7.989,0,0,0,2.314,1.1A1.31,1.31,0,0,0,62.6,34.8a1.263,1.263,0,0,0,.05-1.365,8.074,8.074,0,0,0-1.964-2.747q-6.567-6.542-13.118-13.1a14.47,14.47,0,0,1-2.514-3.263A8.012,8.012,0,0,1,47.131,3.771,11.6,11.6,0,0,1,51.942,1.44c-.2.25-.333.416-.466.566-1.731,1.748-1.831,3.413-.15,5.277,1.532,1.681,3.18,3.263,4.778,4.878,3.812,3.845,7.658,7.674,11.42,11.57a10.455,10.455,0,0,1,3.046,6.742c.283,4.844-3.5,8.773-9.073,7.308a25.359,25.359,0,0,0-2.9-.716c-2.131-.316-3.812.666-5.294,2.064-4.994,4.711-9.722,9.705-14.6,14.549-2.5,2.48-4.911,5.044-7.508,7.425-4,3.679-8.54,6.109-14.1,6.293a5.287,5.287,0,0,0,5.993,3.6,17.313,17.313,0,0,0,7.042-3.046,39.991,39.991,0,0,0,6.293-5.194C42.32,56.891,48.2,51,54.156,45.188a11.088,11.088,0,0,1,9.089-3.363c3.413.316,7.358,3.646,7.974,6.975-1.165-.966-2.331-1.665-3.845-1.282a7.452,7.452,0,0,0-3.463,2.147Q54.122,59.43,44.35,69.21c-.15.15-.283.3-.433.449,2.247,1.964,4.761,1.848,7.092-.416,2.464-2.414,4.878-4.878,7.325-7.325,2.347-2.347,4.678-4.694,7.025-7.025a12.769,12.769,0,0,1,4.578-2.93,7.279,7.279,0,0,1,7.291,1.165,9.673,9.673,0,0,1,3.762,6.226c-.15-.067-.216-.067-.266-.117-2.081-1.881-3.546-1.9-5.593.117C70.1,64.332,65.109,69.343,60.082,74.337A10.563,10.563,0,0,1,45.815,75,9.42,9.42,0,0,1,43,70.625a32.811,32.811,0,0,1-3.213,2.73c-3.929,2.8-8.207,4.511-13.118,4.112-5.876-.483-9.822-3.629-11.936-9.056a2.4,2.4,0,0,0-1.648-1.665A12.243,12.243,0,0,1,4.7,53.3c.549-4.794,2.8-8.79,5.71-12.485a1.149,1.149,0,0,1,.333-.216C10.79,40.577,10.807,40.61,10.807,40.61Z" transform="translate(0 0)" fill="#909090"/>
    <path id="Path_2952" data-name="Path 2952" d="M8.32,29.923c.449-.549.9-1.115,1.382-1.648,2.164-2.414,4.611-2.963,7.741-1.648-1.382-3.812-.533-6.842,3.18-8.623A5.9,5.9,0,0,1,27.7,19.8a6.155,6.155,0,0,1,.449,7.125c-1.6,2.614-4,3.3-8.09,2.3a6.35,6.35,0,0,1-.849,6.792A6.116,6.116,0,0,1,8.5,31.055c.05-.3.7-.866-.133-1.115A.036.036,0,0,1,8.32,29.923Z" transform="translate(2.47 10.654)" fill="#909090"/>
    <path id="Path_2953" data-name="Path 2953" d="M28.1,54.686v-1.4c0-.233-.05-.5.316-.549.383-.05.466.15.5.466a1.812,1.812,0,0,0,1.149,1.548,4.155,4.155,0,0,0,.166-1.5c.033-.233-.033-.5.333-.533.316-.017.416.166.433.449.033,1.282.816,1.6,1.931,1.565a9.669,9.669,0,0,0,2.58-.166,1.492,1.492,0,0,0-1.731-1.015c-.383.017-.949.166-.882-.5.05-.583.583-.266.9-.316A2.224,2.224,0,0,1,36.12,53.92a1.614,1.614,0,0,0,.6.7c1.015.483,1.665.1,1.665-1.015V51.423c0-.3-.067-.649.433-.633.433.017.383.3.383.583,0,1.215-.017,2.414.017,3.629.017.549-.25.6-.7.6a51.339,51.339,0,0,1-5.993-.067,15.158,15.158,0,0,0-3.23-.083c-.966.1-1.948-.4-2.963.083a2.341,2.341,0,0,1-2.264-.233.319.319,0,0,0-.416-.017,2.643,2.643,0,0,1-3.7-.932c-.183-.3-.2-.8-.716-.766-.283.017-.4.233-.416.516-.033.533.333.616.749.649.35.033.333.283.316.533-.017.35-.266.35-.516.316a1.452,1.452,0,0,1-1.4-1.3,1.38,1.38,0,0,1,.882-1.5,1.222,1.222,0,0,1,1.615.732c.117.216.216.433.35.633a1.453,1.453,0,0,0,1.665.533c.7-.133.266-.732.366-1.115.083-.3-.166-.749.35-.832.616-.1.4.4.466.683.166.616.366,1.165,1.149,1.265,1.115.15,1.215.067,1.265-1.065.017-.316-.266-.882.316-.916.483-.033.5.483.549.866A1.19,1.19,0,0,0,28.1,54.686Z" transform="translate(8.88 32.803)" fill="#5f5f60"/>
    <path id="Path_2954" data-name="Path 2954" d="M36.685,53.8c.183-.3.333-.6.533-.882a1.932,1.932,0,0,1,2.231-.882,2.7,2.7,0,0,1,1.648,2.3c-.017.283-.1.483-.416.466-1.465-.067-2.963.3-4.445-.316-.083.333-.166.683-.283,1.032a2.024,2.024,0,0,1-2.331,1.432,2.269,2.269,0,0,1-1.781-2.131,2.37,2.37,0,0,1,1.631-2.264c.2-.05.366-.166.483.15.133.366.05.516-.316.716-.982.516-1.2,1.149-.8,1.981a1.158,1.158,0,0,0,1.232.732,1.2,1.2,0,0,0,1.165-1,9.352,9.352,0,0,0,.083-2.264c0-.316-.3-.832.333-.9.533-.05.433.433.483.732A1.744,1.744,0,0,0,36.685,53.8Z" transform="translate(18.103 33.572)" fill="#5f5f60"/>
    <path id="Path_2955" data-name="Path 2955" d="M46.678,55.618c-1.065,0-2.147.05-3.213-.017a2.3,2.3,0,0,1-1.864-3.4c.1-.166.2-.433.433-.383.266.05.333.316.3.566a2.709,2.709,0,0,1-.117.5,1.343,1.343,0,0,0,1.4,1.848c1,.033,2,.017,3,0,.183,0,.466.117.549-.133a.676.676,0,0,0-.216-.649c-.333-.366-.716-.7-1.249-.533-.333.1-.449-.067-.566-.283-.15-.283.15-.333.283-.449.6-.566,1.215-1.132,1.815-1.681.166-.15.316-.416.566-.083.166.233.316.466,0,.7-.117.083-.2.183-.316.266-.566.4-.932.782-.117,1.332a1.285,1.285,0,0,1,.549.966c.017.566.366.533.749.566.849.1,1.315-.083,1.165-1.082-.05-.283-.3-.866.316-.882.7-.033.433.583.449.932.067,1.9.05,1.914-1.848,1.914-.7,0-1.382-.017-2.064-.017Z" transform="translate(24.39 32.786)" fill="#606061"/>
    <path id="Path_2956" data-name="Path 2956" d="M16.714,54.692V53.377c0-.266-.067-.566.35-.616s.4.216.466.5a1.9,1.9,0,0,0,1.3,1.532v-1.5c0-.3.033-.549.433-.533.333,0,.4.183.4.449.017.649.05,1.315.033,1.964-.017.732-.566.466-.916.416a10.887,10.887,0,0,0-3.746.033c-2.3.433-3.363-.449-3.363-2.763,0-.516.017-1.032.033-1.548,0-.233-.033-.516.333-.533s.483.166.483.516c-.017.766-.033,1.515.017,2.281a1.412,1.412,0,0,0,1.948,1.165c.333-.15.216-.383.216-.616,0-.316-.017-.616-.017-.932,0-.233.05-.4.333-.433.3-.033.383.1.483.383C15.865,54.393,15.882,54.376,16.714,54.692Z" transform="translate(4.697 32.796)" fill="#616162"/>
    <path id="Path_2957" data-name="Path 2957" d="M15.362,53.179v.932c0,1.6-.033,1.765-1.532,1.482-1.315-.266-2.547.183-3.829.05-.782-.083-1.581.033-2.381-.033A2.267,2.267,0,0,1,5.79,52.28c.1-.183.117-.549.449-.383.233.1.383.25.283.649-.416,1.615.017,2.147,1.665,2.2q.774.025,1.548,0c.516-.017,1.132.117,1.5-.133.383-.233.083-.9.15-1.348.033-.233-.033-.5.35-.5.4,0,.449.233.449.533a1.394,1.394,0,0,0,.333,1.065,1.737,1.737,0,0,0,1.748.35c.516-.15.216-.716.25-1.082.05-.749.017-1.515.017-2.281,0-.316.083-.533.433-.566.466-.05.383.3.383.549C15.362,51.931,15.346,52.547,15.362,53.179Z" transform="translate(0.605 32.794)" fill="#606061"/>
    <path id="Path_2958" data-name="Path 2958" d="M39.375,54.441a2.786,2.786,0,0,1-1.348,2.364c-.266.133-.649.433-.882,0-.183-.35.083-.549.4-.7.932-.416.966-1.249.966-2.1,0-.449-.033-.9-.033-1.348,0-.266-.166-.666.35-.7.483-.033.466.316.466.633.017.949.549,1.332,1.432,1.4.333.033.416-.017.35-.383a1.328,1.328,0,0,1,.849-1.581,1.171,1.171,0,0,1,1.4.366,2.925,2.925,0,0,1,.316,2.181c-.017.216-.233.233-.4.233C41.988,54.791,40.706,55.091,39.375,54.441Z" transform="translate(21.59 33.563)" fill="#606061"/>
    <path id="Path_2959" data-name="Path 2959" d="M47.971,52.5c0,.383-.033.766,0,1.132a1.4,1.4,0,0,0,1.914,1.065c.383-.183.166-.549.25-.816.117-.383-.383-1.115.433-1.115.716,0,.433.749.35,1.049-.15.6.716,1.631-.583,1.781-1.964.216-2.83-.3-3.146-1.665a10.967,10.967,0,0,1,0-2.664c0-.233-.1-.516.316-.449.25.05.466.117.449.433-.017.416,0,.832,0,1.232A.016.016,0,0,0,47.971,52.5Z" transform="translate(28.242 32.812)" fill="#646465"/>
    <path id="Path_2960" data-name="Path 2960" d="M18.392,53.582a5.137,5.137,0,0,1-.233,2.131,2.118,2.118,0,0,1-1.348,1.182c-.2.05-.483.216-.6-.15a.4.4,0,0,1,.2-.533c1.5-.549,1.1-1.831,1.215-2.947.05-.433-.366-1.249.333-1.265.832-.017.283.849.449,1.282A1.912,1.912,0,0,1,18.392,53.582Z" transform="translate(7.697 33.607)" fill="#646465"/>
    <path id="Path_2961" data-name="Path 2961" d="M31.816,53.26v1.748c0,.25.083.583-.35.6-.449.017-.466-.3-.466-.616V51.3c0-.25,0-.5.35-.516.35,0,.449.216.449.533-.017.649,0,1.3,0,1.948Z" transform="translate(17.546 32.796)" fill="#6e6e6f"/>
    <path id="Path_2962" data-name="Path 2962" d="M7.852,51.889H7.136c-.3,0-.416-.15-.416-.449.017-.266.166-.35.4-.35H8.551c.283,0,.566-.017.583.383s-.283.4-.566.4c-.233.017-.483.017-.716.017Z" transform="translate(1.407 33.002)" fill="#5f5f60"/>
    <path id="Path_2963" data-name="Path 2963" d="M40.725,51.892h-.716c-.283,0-.449-.067-.449-.4,0-.316.166-.416.449-.4.383,0,.766-.017,1.132.017.266.017.666-.183.7.333.05.566-.366.466-.7.466C40.992,51.909,40.858,51.892,40.725,51.892Z" transform="translate(23.235 32.999)" fill="#656566"/>
    <path id="Path_2964" data-name="Path 2964" d="M36.419,51.084c.333-.017.616.05.616.466,0,.449-.333.333-.6.35-.333.017-.616,0-.616-.466C35.853,51.018,36.136,51.068,36.419,51.084Z" transform="translate(20.749 32.991)" fill="#747475"/>
    <path id="Path_2965" data-name="Path 2965" d="M20.839,51.485c.017.4-.233.449-.533.433-.25-.017-.6.1-.616-.333,0-.383.183-.566.583-.5C20.556,51.119,20.872,51.052,20.839,51.485Z" transform="translate(10.028 32.99)" fill="#767677"/>
    <path id="Path_2966" data-name="Path 2966" d="M48.863,54.915c-.3,0-.6.017-.583-.4,0-.466.333-.449.633-.433.216.017.533-.083.5.316C49.4,54.748,49.246,54.981,48.863,54.915Z" transform="translate(29.031 34.987)" fill="#727273"/>
    <path id="Path_2967" data-name="Path 2967" d="M47.07,51.242c0,.416-.3.383-.583.4-.316.017-.549-.067-.516-.466.05-.416.366-.333.633-.333C46.887,50.843,47.1,50.893,47.07,51.242Z" transform="translate(27.495 32.833)" fill="#5f5f60"/>
  </g>
</svg>
