<svg xmlns="http://www.w3.org/2000/svg" width="84.468" height="84.41" viewBox="0 0 84.468 84.41">
  <g id="Saman" transform="translate(-2.64 79.886)">
    <path id="Path_2392" data-name="Path 2392" d="M76.453,45.792H71.086A3.6,3.6,0,0,1,67.5,42.206V34.847l2.224-1.257v8.453A1.372,1.372,0,0,0,71.086,43.4h5.367Z" transform="translate(10.655 -46.035)" fill="#606060"/>
    <path id="Path_2393" data-name="Path 2393" d="M9.37,45.522h2.515A4.419,4.419,0,0,0,16.1,41.3V35.23l-2.224,1.281v4.552c-.221,1.49-.792,1.886-2.34,2.084H6.226a1.372,1.372,0,0,1-1.362-1.362V36.511L2.64,37.768v4.18a3.6,3.6,0,0,0,3.586,3.586H9.37Z" transform="translate(0 -45.766)" fill="#606060"/>
    <path id="Path_2394" data-name="Path 2394" d="M69.884,45.792H63.41a3.594,3.594,0,0,1-3.074-1.746,4.146,4.146,0,0,1-3.307,1.746H45.62V43.4H57.5c1,0,1.944-1.048,2.317-2.084V34.847l2.224-1.257v8.453A1.372,1.372,0,0,0,63.4,43.4h6.485v2.387Z" transform="translate(7.061 -46.035)" fill="#606060"/>
    <path id="Path_2395" data-name="Path 2395" d="M45.946,45.792H33.116a3.6,3.6,0,0,1-3.586-3.586V34.847l2.224-1.257v8.453A1.372,1.372,0,0,0,33.116,43.4h12.83Z" transform="translate(4.417 -46.035)" fill="#606060"/>
    <path id="Path_2396" data-name="Path 2396" d="M25.515,42.318l1.8,1.8a.169.169,0,0,0,.244,0l.85-.85a.169.169,0,0,0,0-.244l-1.677-1.677a.169.169,0,0,0-.244,0l-.978.966ZM24.071,44.03a4.3,4.3,0,0,1-3.039,1.816H19.426A3.6,3.6,0,0,1,15.84,42.26V34.587l2.224-1.257v8.779a1.372,1.372,0,0,0,1.362,1.362h1.281c.78-.082,1.222-.7,1.723-1.2l2.48-2.48a2.4,2.4,0,0,1,3.388,0l1.677,1.677a2.4,2.4,0,0,1,0,3.388l-.85.85a2.4,2.4,0,0,1-3.388,0Z" transform="translate(2.168 -46.078)" fill="#606060"/>
    <rect id="Rectangle_1340" data-name="Rectangle 1340" width="2.468" height="2.468" transform="translate(7.704 -7.841) rotate(-45)" fill="#606060"/>
    <rect id="Rectangle_1341" data-name="Rectangle 1341" width="2.468" height="2.468" transform="translate(71.705 -7.835) rotate(-45)" fill="#606060"/>
    <rect id="Rectangle_1342" data-name="Rectangle 1342" width="2.468" height="2.468" transform="translate(81.547 2.779) rotate(-45)" fill="#606060"/>
    <path id="Path_2397" data-name="Path 2397" d="M52.983,35.35l-2.422,1.537-.012.955,1.281.757-1.071.547v1.246l2.375-1.129V37.876l-1.234-.71,1.071-.547Z" transform="translate(7.871 -45.746)" fill="#606060"/>
    <path id="Path_2398" data-name="Path 2398" d="M84.859,42.582l8.241-3.75c3.664-11.286-.086-19.217-9.737-21.712C78.614,26.617,77.736,36.389,84.859,42.582Z" transform="translate(-48.525 -89.917)" fill="#cfcfcf"/>
    <path id="Path_2399" data-name="Path 2399" d="M85.99,41.779l6.538-1.927-.4-5.987c-1.858-10.512-7.759-12.387-15.948-9.411C75.994,34.054,79.039,40.093,85.99,41.779Z" transform="translate(-51.032 -85.553)" fill="#cfcfcf"/>
    <path id="Path_2400" data-name="Path 2400" d="M87.777,41.846l4.112-4.766-1.342-4.542C84.526,25.88,79.072,26.6,74.1,33.433,76.87,40.71,81.309,43.807,87.777,41.846Z" transform="translate(-52.527 -82.145)" fill="#cfcfcf"/>
    <path id="Path_2401" data-name="Path 2401" d="M89.288,41.443,93.64,34.3l-6.228-2.477c-7.776-.585-11.613,3.062-12.783,9.617C78.931,45.486,83.645,46.655,89.288,41.443Z" transform="translate(-52.145 -79.368)" fill="#cfcfcf"/>
    <path id="Path_2402" data-name="Path 2402" d="M91,41.339l.344-7.363L85.841,33.7c-7.793,3.166-9.806,8.705-8.619,15.57C83.364,50.852,88.319,49.252,91,41.339Z" transform="translate(-50.505 -77.973)" fill="#cfcfcf"/>
    <path id="Path_2403" data-name="Path 2403" d="M92.793,40.276,90.711,34.22l-5.66,1.015C78,42.151,78.772,48.9,83.09,55.536,89.954,54,93.172,49.015,92.793,40.276Z" transform="translate(-48.425 -77.599)" fill="#cfcfcf"/>
    <path id="Path_2404" data-name="Path 2404" d="M93.3,36.792,87,33.85l-3.716,6.073c-1.686,8.516,2.89,14.623,8.826,18.529C98.7,52.6,99.735,43.587,93.3,36.792Z" transform="translate(-46.163 -77.865)" fill="#cfcfcf"/>
    <path id="Path_2405" data-name="Path 2405" d="M93.719,33.22l-6.452.292L85.1,41.684c1.6,7.69,9.892,13.023,20.507,13.866C107.672,45.452,105.418,37.246,93.719,33.22Z" transform="translate(-44.603 -78.319)" fill="#cfcfcf"/>
    <path id="Path_2406" data-name="Path 2406" d="M92.613,31.2,85.68,35.019,88.553,43.4c4.7,5.9,17.789,7.243,30.417.688C114.29,32.129,103.521,27.329,92.613,31.2Z" transform="translate(-44.185 -80.72)" fill="#cfcfcf"/>
    <path id="Path_2407" data-name="Path 2407" d="M86.43,37.027l1,6.039c13.488,5.66,27.75-3.028,35.372-16.051C109.621,19.582,92.933,24.846,86.43,37.027Z" transform="translate(-43.645 -85.257)" fill="#cfcfcf"/>
    <path id="Path_2408" data-name="Path 2408" d="M84.36,44.056l4.559,3.475c14.864-1.48,24.808-15.776,25.462-32.6C99.224,18.887,88.145,27.4,84.36,44.056Z" transform="translate(-45.136 -91.495)" fill="#cfcfcf"/>
    <path id="Path_2409" data-name="Path 2409" d="M83.917,43.262l7.535,2.185C102.91,34.144,103.977,21.774,96.407,13,87.168,20.243,81.336,32.63,83.917,43.262Z" transform="translate(-45.897 -92.886)" fill="#cfcfcf"/>
    <path id="Path_2410" data-name="Path 2410" d="M87.091,41.035l.327.258c10.168-1.015,18.013-8,22.176-17.7-9.565.034-18.735,5.127-23.174,13.436Z" transform="translate(-43.652 -85.256)" fill="#979797"/>
    <path id="Path_2411" data-name="Path 2411" d="M83.915,38.9l2.03.585,4.525-2.064C93.1,29.3,91.9,22.921,87.425,19.05,83.9,25.278,82.35,32.418,83.915,38.9Z" transform="translate(-45.895 -88.527)" fill="#979797"/>
    <path id="Path_2412" data-name="Path 2412" d="M84.6,39.851l5.918,1.72c7.845-7.742,10.8-15.965,9.479-23.191C92.652,23.042,87.249,29.924,84.6,39.851Z" transform="translate(-44.963 -89.01)" fill="#979797"/>
    <path id="Path_2413" data-name="Path 2413" d="M84.856,38.224l4.9-2.237-.138-2.133c-1.342-7.6-4.8-10.684-9.72-10.684C79.058,28.968,80.365,34.3,84.856,38.224Z" transform="translate(-48.522 -85.559)" fill="#979797"/>
    <path id="Path_2414" data-name="Path 2414" d="M85.648,38.378l4.4-1.308L88.71,32.528c-4.3-4.748-8.31-5.746-12.06-3.441C77.975,34.06,80.9,37.225,85.648,38.378Z" transform="translate(-50.69 -82.152)" fill="#979797"/>
    <path id="Path_2415" data-name="Path 2415" d="M86.553,39.069,90.664,34.3l-.275-.946-3.836-1.531c-5.247-.4-8.705,1.135-10.753,4.181C78.467,39.327,82.011,40.445,86.553,39.069Z" transform="translate(-51.302 -79.368)" fill="#979797"/>
    <path id="Path_2416" data-name="Path 2416" d="M87.523,40.048l3.716-6.073L85.734,33.7c-5.2,2.116-7.828,5.282-8.654,9.2C80.228,44.194,83.669,43.61,87.523,40.048Z" transform="translate(-50.38 -77.973)" fill="#979797"/>
    <path id="Path_2417" data-name="Path 2417" d="M88.931,40.856l.292-6.486-4.181.757c-4.886,4.8-6.021,9.514-4.817,14.159C84.011,48.89,87.038,46.447,88.931,40.856Z" transform="translate(-48.434 -77.491)" fill="#979797"/>
    <path id="Path_2418" data-name="Path 2418" d="M90.524,40.269l-2.047-5.987-.12-.052-1.944.344L83.3,39.684a15.927,15.927,0,0,0,3.045,13.282C89.389,50.385,90.783,46.187,90.524,40.269Z" transform="translate(-46.156 -77.591)" fill="#979797"/>
    <path id="Path_2419" data-name="Path 2419" d="M91.741,36.511,86.872,34.24,85.1,40.932c1,4.834,4.645,8.722,9.858,11.183C97.074,47.057,96.214,41.242,91.741,36.511Z" transform="translate(-44.603 -77.584)" fill="#979797"/>
    <path id="Path_2420" data-name="Path 2420" d="M92.97,33.22l-6.452.292L86.14,34.94,88.222,41c3.011,3.785,9.462,5.695,17.015,4.852C104.221,40.274,100.626,35.852,92.97,33.22Z" transform="translate(-43.853 -78.319)" fill="#979797"/>
    <path id="Path_2421" data-name="Path 2421" d="M91.958,31.2,86.59,34.157l.723,4.37c8.5,3.578,17.324,1.428,24.585-3.905C106.5,29.907,99.252,28.617,91.958,31.2Z" transform="translate(-43.529 -80.718)" fill="#979797"/>
    <path id="Path_2422" data-name="Path 2422" d="M97.131,25.37a25.1,25.1,0,0,0-10.7,10.374l2.77.809A35.775,35.775,0,0,0,97.131,25.37Z" transform="translate(-43.645 -83.974)" fill="#585858"/>
    <path id="Path_2423" data-name="Path 2423" d="M83.915,34.768l2.03.585h0l1.187-.533-.138-2.133c-.637-3.578-1.738-6.159-3.234-7.9A23.757,23.757,0,0,0,83.915,34.768Z" transform="translate(-45.895 -84.392)" fill="#585858"/>
    <path id="Path_2424" data-name="Path 2424" d="M84.6,36.256l.413.12,4.525-2.064A22.618,22.618,0,0,0,90.656,23.37,38.185,38.185,0,0,0,84.6,36.256Z" transform="translate(-44.963 -85.415)" fill="#585858"/>
    <path id="Path_2425" data-name="Path 2425" d="M84.531,34.686l2.082-.946-.4-1.342A13.771,13.771,0,0,0,80.11,28.08,14.788,14.788,0,0,0,84.531,34.686Z" transform="translate(-48.198 -82.022)" fill="#585858"/>
    <path id="Path_2426" data-name="Path 2426" d="M84.279,35.6l4.4-1.308-.275-.946-3.836-1.531a15.237,15.237,0,0,0-6.021.6A11.458,11.458,0,0,0,84.279,35.6Z" transform="translate(-49.321 -79.374)" fill="#585858"/>
    <path id="Path_2427" data-name="Path 2427" d="M84.615,37.674,87.9,33.855,84.7,33.7a15.766,15.766,0,0,0-6.211,4.2A10.591,10.591,0,0,0,84.615,37.674Z" transform="translate(-49.365 -77.973)" fill="#585858"/>
    <path id="Path_2428" data-name="Path 2428" d="M85.39,39.53,88.5,34.42l-3.613.654A17.132,17.132,0,0,0,80.04,42.73,12.811,12.811,0,0,0,85.39,39.53Z" transform="translate(-48.248 -77.454)" fill="#585858"/>
    <path id="Path_2429" data-name="Path 2429" d="M86.66,40.856l.292-6.486-.551.1-3.114,5.11a16.476,16.476,0,0,0,.069,7.122A15.156,15.156,0,0,0,86.66,40.856Z" transform="translate(-46.163 -77.491)" fill="#585858"/>
    <path id="Path_2430" data-name="Path 2430" d="M88.964,40.254l-2.047-5.987-.034-.017L85.11,40.942a13.826,13.826,0,0,0,3.2,6.3A22.446,22.446,0,0,0,88.964,40.254Z" transform="translate(-44.595 -77.577)" fill="#585858"/>
    <path id="Path_2431" data-name="Path 2431" d="M90.977,36.5,86.16,34.25l2.047,5.987a13.249,13.249,0,0,0,6.9,4.181A15.387,15.387,0,0,0,90.977,36.5Z" transform="translate(-43.839 -77.577)" fill="#585858"/>
    <path id="Path_2432" data-name="Path 2432" d="M92.531,33.22l-5.781.258.43,2.667a22.263,22.263,0,0,0,12.989,1.342A21.725,21.725,0,0,0,92.531,33.22Z" transform="translate(-43.414 -78.319)" fill="#585858"/>
    <path id="Path_2433" data-name="Path 2433" d="M91.958,31.2,86.59,34.158l.378,2.34.327.258a24.8,24.8,0,0,0,14.589-6.692A21.1,21.1,0,0,0,91.958,31.2Z" transform="translate(-43.529 -80.719)" fill="#585858"/>
    <path id="Path_2434" data-name="Path 2434" d="M89.317,27.76a12.647,12.647,0,0,0-1.669,4.834,13.092,13.092,0,0,0-2.942-2.735,12.36,12.36,0,0,0,.671,4.525,14.768,14.768,0,0,0-3.733-.568,8.41,8.41,0,0,0,2.495,2.976,17,17,0,0,0-3.578,1.48,14.371,14.371,0,0,0,3.51,1.239,17.094,17.094,0,0,0-2.426,3.372c1.221-.551,2.649-.826,3.716-1.738a15.348,15.348,0,0,0-.791,4.387,16.408,16.408,0,0,0,2.581-2.839,13.559,13.559,0,0,0,1.462,3.94,15.749,15.749,0,0,0,1.376-3.871A14.356,14.356,0,0,0,92.913,45.7a11.75,11.75,0,0,0-.258-4.318,13.854,13.854,0,0,0,4.112,1.17A21.093,21.093,0,0,0,93.1,38.788,18.132,18.132,0,0,0,98.143,37.6,20.46,20.46,0,0,0,93.5,36.224a19.991,19.991,0,0,0,3.871-4.353A17.4,17.4,0,0,0,92.31,33.85,19.214,19.214,0,0,0,93.893,28.1a18.407,18.407,0,0,0-4.009,4.249A10.953,10.953,0,0,0,89.317,27.76Z" transform="translate(-47.873 -82.252)" fill="#fff"/>
  </g>
</svg>
