<svg xmlns="http://www.w3.org/2000/svg" width="116.892" height="94.094" viewBox="0 0 116.892 94.094">
  <g id="tose_e-saderat" data-name="tose&apos;e-saderat" transform="translate(-1.601 -6.349)">
    <path id="Path_3059" data-name="Path 3059" d="M47.375,76.335c-4.488,0-8.953-.022-13.441.022a2.248,2.248,0,0,1-1.729-.7q-9.358-9.292-18.76-18.519a3.126,3.126,0,0,1-1.029-2.5c.022-5.057,0-10.113,0-15.17q0-5.779-.066-11.558a1.936,1.936,0,0,1,.613-1.51Q22.42,16.88,31.854,7.292a2.325,2.325,0,0,1,1.839-.766c5.1.022,10.2.088,15.28-.066,3.853-.109,7.705-.022,11.558-.109a2.038,2.038,0,0,1,1.642.635Q71.662,16.41,81.2,25.768a2.988,2.988,0,0,1,.963,2.386c-.022,7.662,0,15.345.022,23.007a.883.883,0,0,0,0,.241c.854,3.327-.81,5.495-3.108,7.684C73.49,64.448,68.105,70.03,62.654,75.569a2.266,2.266,0,0,1-1.839.744c-4.488-.044-8.953-.022-13.441-.022C47.375,76.291,47.375,76.313,47.375,76.335Zm24.386-35.09h-.088c0-3.065-.022-6.129.022-9.194a1.954,1.954,0,0,0-.635-1.51q-6.567-6.534-13.112-13.091a1.821,1.821,0,0,0-1.4-.613q-9.325.033-18.651.022a1.569,1.569,0,0,0-1.2.482q-6.666,6.8-13.353,13.55a1.667,1.667,0,0,0-.5,1.313q.033,9.26.022,18.519a1.831,1.831,0,0,0,.547,1.423q6.633,6.534,13.244,13.112a2.131,2.131,0,0,0,1.642.657c6.086-.044,12.193-.044,18.279-.044a2.107,2.107,0,0,0,1.642-.7Q64.646,58.6,71.148,52.08a2.141,2.141,0,0,0,.613-1.664C71.739,47.374,71.761,44.309,71.761,41.244Z" transform="translate(12.781 0)" fill="#606060"/>
    <path id="Path_3060" data-name="Path 3060" d="M40.922,48.81c.46,1.6,1.861,1.707,3.087,1.773,3.809.2,7.487-.241,10.814-2.342a6.583,6.583,0,0,0,2.933-4.663,4.574,4.574,0,0,1,.963-2.058c-.219,1.839-.7,3.612-.788,5.451a5.026,5.026,0,0,0,.109,2.211,1.362,1.362,0,0,0,1.16.985c.613.088.7-.46,1.051-.941A5.214,5.214,0,0,1,59.2,52.29a1.075,1.075,0,0,1-1.926-.416,7.48,7.48,0,0,1-.153-3.546c.022-.306.285-.613.022-.941-.416-.022-.525.35-.7.591-2.1,3.13-5.254,4.378-8.778,4.925a13.235,13.235,0,0,1-5.166.044c-1.51-.372-1.839-.832-1.751-2.32C40.813,50.035,40.857,49.422,40.922,48.81Z" transform="translate(46.531 41.82)" fill="#606060"/>
    <path id="Path_3061" data-name="Path 3061" d="M13.658,44.794c.35,2.123,2.167,2.167,3.546,2.3a20.357,20.357,0,0,0,9.019-.941,4.288,4.288,0,0,0,2.758-2.1,4.407,4.407,0,0,1-2.408,3.875,16.022,16.022,0,0,1-6.633,1.707,15.473,15.473,0,0,1-4.816-.153c-1.62-.394-1.97-.876-1.817-2.517C13.373,46.239,13.527,45.517,13.658,44.794Z" transform="translate(13.881 44.828)" fill="#606060"/>
    <path id="Path_3062" data-name="Path 3062" d="M3.5,45.9c-.285.7-.613,1.4-.832,2.123-.766,2.452.591,4.225,3.152,4.159a5.867,5.867,0,0,0,5.67-5.845,6.41,6.41,0,0,1,.854-3.787C13.091,46.468,10.814,53.3,6.589,54.5c-3.284.941-5.451-.9-4.9-4.269C2.036,48.11,2.408,47.059,3.5,45.9Z" transform="translate(0 43.045)" fill="#606060"/>
    <path id="Path_3063" data-name="Path 3063" d="M34.547,47.121c.591-1.313,1.751-2.145,2.342-1.6.876.81.285,1.751-.131,2.561-1.095,2.1-2.539,2.78-4.728,2.145a.626.626,0,0,0-.81.285,14.135,14.135,0,0,1-.963,1.292,1.7,1.7,0,0,1-3-.657,8.02,8.02,0,0,1,.066-3.678c.241-1.839.131-3.765,1.16-5.692a14.382,14.382,0,0,1-.328,3.875,14.829,14.829,0,0,0-.109,2.6A1.837,1.837,0,0,0,29.425,50.1a1.641,1.641,0,0,0,1.992-.854,1.048,1.048,0,0,1,1.467-.635c.788.263.854-.547,1.116-1.029.81.263-.306.679.2,1.073a2.082,2.082,0,0,0,.7-.066c.722-.35,1.839-.854,1.6-1.554C36.08,45.939,35.2,46.946,34.547,47.121Z" transform="translate(30.271 42.129)" fill="#606060"/>
    <path id="Path_3064" data-name="Path 3064" d="M31.77,50.665c1.2-1.62,2.408-3.087,4.685-2.43a1.913,1.913,0,0,0,.854-.066c.46-.131,1.073-.263.963-.9-.109-.547-.5-.985-1.292-.591a1.842,1.842,0,0,1,1.27-1.073,1.861,1.861,0,0,1,1.992.109c.569.525-.263,1.007-.285,1.839,2.167-.941,3.634-2.583,5.407-3.9a4.528,4.528,0,0,1-2.211,2.933c-.722.525-1.51,1.007-2.211,1.554-.219.175-.525.46-.744.416-1.445-.241-2.233.788-3.174,1.51a1.89,1.89,0,0,1-1.4.35C34.287,50.249,33.018,49.943,31.77,50.665Z" transform="translate(35.872 44.364)" fill="#606060"/>
    <path id="Path_3065" data-name="Path 3065" d="M44.3,41.84c.2,2.3.044,4.137-1.335,5.757a18.332,18.332,0,0,0-1.379,2.6c-.81,1.4-1.9,1.9-3.765,1.8a13.308,13.308,0,0,0,3.152-2.211c.2-.2.5-.394.438-.722-.088-.438-.482-.175-.722-.219-.854-.153-1.292-.525-.854-1.445.219-.438.372-.919.635-1.335.591-.963,1.029-.985,1.839-.175.175.175.263.635.635.394a.878.878,0,0,0,.416-.854C43.118,44.2,43.774,43.219,44.3,41.84Z" transform="translate(43.066 42.2)" fill="#606060"/>
    <path id="Path_3066" data-name="Path 3066" d="M61.837,35.46C58.948,40.692,53.869,43.6,49.25,47.5a2.77,2.77,0,0,1,1.095-1.883c2.364-2.014,4.772-3.962,7.093-6C58.948,38.284,60.37,36.861,61.837,35.46Z" transform="translate(56.657 34.614)" fill="#606060"/>
    <path id="Path_3067" data-name="Path 3067" d="M52.042,41.58c-.175,2.32-.7,4.553-.657,6.874a1.72,1.72,0,0,0,.832,1.554c.525.306.941,0,1.379-.46a3.946,3.946,0,0,1-.876,2.561,1.065,1.065,0,0,1-1.992-.285,2.935,2.935,0,0,1-.219-.963A26.82,26.82,0,0,1,52.042,41.58Z" transform="translate(58.155 41.891)" fill="#606060"/>
    <path id="Path_3068" data-name="Path 3068" d="M24.5,51.053c.613-.7,1.292-1.379,1.861-2.123,1.116-1.489,1.051-2.08-.241-3.393a2.284,2.284,0,0,1,.569-2.78c.219-.109.35.109.5.219,1.489.919,1.335,2.386,1.095,3.743A5.816,5.816,0,0,1,24.5,51.053Z" transform="translate(27.228 43.254)" fill="#606060"/>
    <path id="Path_3069" data-name="Path 3069" d="M16.119,42.9c-.416,1.62-.876,2.868-2.386,3.415-1.007.372-1.248,1.379-1.6,2.233-.876,2.123-1.6,2.583-4.115,2.408.635-.438,1.138-.81,1.664-1.138a5.908,5.908,0,0,0,2.649-3,3.691,3.691,0,0,1,2.277-2.452C15.266,44.17,15.528,43.535,16.119,42.9Z" transform="translate(7.632 43.461)" fill="#606060"/>
    <path id="Path_3070" data-name="Path 3070" d="M21.11,50.667c1.007-2.78.438-6,2.233-8.537C22.905,45.063,23.19,48.194,21.11,50.667Z" transform="translate(23.197 42.545)" fill="#606060"/>
    <path id="Path_3071" data-name="Path 3071" d="M9.576,42.14c-.438,3.087-.2,6.348-2.386,8.975C8.328,48.226,7.8,44.876,9.576,42.14Z" transform="translate(6.645 42.557)" fill="#606060"/>
    <path id="Path_3072" data-name="Path 3072" d="M14.119,42.35c-.175,2.955-.263,5.976-2.189,8.515C13.025,48.107,12.455,44.955,14.119,42.35Z" transform="translate(12.281 42.807)" fill="#606060"/>
    <path id="Path_3073" data-name="Path 3073" d="M6.256,45.268c-.219.525-.46,1.4-1.2,1.357-.5-.022-1.467-.5-1.335-1.138.153-.766.372-1.751,1.292-2.058C5.49,43.254,6.343,44.523,6.256,45.268Z" transform="translate(2.501 44.07)" fill="#606060"/>
    <path id="Path_3074" data-name="Path 3074" d="M41.626,40.613c-.219.657-.306,1.445-.985,1.773-.547.285-.919-.306-1.182-.657-.657-.876.35-1.445.569-2.167.066-.175.153-.591.482-.394A2.211,2.211,0,0,1,41.626,40.613Z" transform="translate(44.754 38.962)" fill="#606060"/>
    <path id="Path_3075" data-name="Path 3075" d="M18.22,42.17c.591.416,1.248.81,1.2,1.51-.066.744-.306,1.686-1.116,1.839a1.253,1.253,0,0,1-1.226-1.138A4.075,4.075,0,0,1,18.22,42.17Z" transform="translate(18.403 42.593)" fill="#606060"/>
    <path id="Path_3076" data-name="Path 3076" d="M42.883,40.525c-.263.679-.372,1.642-1.248,1.729-.394.044-1.27-.569-1.138-1.2.153-.722.394-1.773,1.182-1.926C42.248,39.036,42.73,39.8,42.883,40.525Z" transform="translate(46.233 38.962)" fill="#606060"/>
    <path id="Path_3077" data-name="Path 3077" d="M17.1,45.529a1.438,1.438,0,0,1-1.16-1.664,1.818,1.818,0,0,1,.263-.547c.35-.306.153-1.313.963-.919a1.339,1.339,0,0,1,.832,1.817A2.621,2.621,0,0,1,17.1,45.529Z" transform="translate(16.987 42.758)" fill="#606060"/>
    <path id="Path_3078" data-name="Path 3078" d="M49.671,37.98c.525.46,1.182.832,1.16,1.532-.022.788-.35,1.664-1.16,1.8-.416.066-1.335-.569-1.2-1.138A4.286,4.286,0,0,1,49.671,37.98Z" transform="translate(55.71 37.611)" fill="#606060"/>
    <path id="Path_3079" data-name="Path 3079" d="M12.836,49.428a2.009,2.009,0,0,1-.941,1.532c-.569.263-.919-.35-1.16-.7-.569-.81.285-1.379.547-2.036.088-.241.2-.657.591-.372A1.624,1.624,0,0,1,12.836,49.428Z" transform="translate(10.631 49.235)" fill="#606060"/>
    <path id="Path_3080" data-name="Path 3080" d="M11.583,49.422a1.955,1.955,0,0,1-.941,1.664c-.46.219-.941-.328-1.182-.722-.525-.876.35-1.445.613-2.145.088-.219.219-.525.5-.35C11.079,48.218,11.649,48.569,11.583,49.422Z" transform="translate(9.148 49.307)" fill="#606060"/>
    <path id="Path_3081" data-name="Path 3081" d="M53.095,49.32a1.9,1.9,0,0,1-.854,1.707c-.525.306-.9-.285-1.182-.591-.744-.81.241-1.357.46-2.036.088-.241.175-.788.635-.482C52.635,48.248,53.182,48.62,53.095,49.32Z" transform="translate(58.482 49.321)" fill="#606060"/>
    <path id="Path_3082" data-name="Path 3082" d="M21.95,49.746c1.883-1.773,3.94-2.933,4.969-5.516C26.656,47.185,25.058,48.893,21.95,49.746Z" transform="translate(24.196 45.042)" fill="#606060"/>
    <path id="Path_3083" data-name="Path 3083" d="M46.209,42.97c-1.248.088-.5,1.664-1.489,1.883C45.092,42.992,45.092,42.992,46.209,42.97Z" transform="translate(51.27 43.544)" fill="#606060"/>
    <path id="Path_3084" data-name="Path 3084" d="M40.062,19.209c-2.474,2.277-4.9,4.575-7.421,6.786-.876.766-.679,1.2.066,1.926C37.7,32.89,42.6,37.947,47.593,42.916c.657.657.679.963,0,1.6-1.97,1.883-3.875,3.875-5.757,5.845-.525.569-.81.547-1.357,0Q29.215,38.932,17.909,27.571c-.591-.591-.525-.919-.022-1.467,2.277-2.364,4.509-4.728,6.764-7.114a1.032,1.032,0,0,1,.81-.46c4.706.022,9.413,0,14.119,0C39.756,18.771,39.909,18.99,40.062,19.209Z" transform="translate(18.889 14.484)" fill="#606060"/>
    <path id="Path_3085" data-name="Path 3085" d="M33.4,43.017c2.583-2.386,5.144-4.816,7.727-7.18.569-.5.306-.766-.088-1.138Q34.995,28.624,29,22.506c-1.116-1.116-2.167-2.277-3.349-3.327-.613-.569-.46-.854.044-1.357,1.97-1.97,3.918-3.94,5.8-5.954.569-.613.876-.591,1.445-.022,4.181,4.269,8.362,8.494,12.565,12.74,3.305,3.349,6.611,6.742,9.96,10.07.5.5.613.766.044,1.335-2.255,2.3-4.466,4.663-6.7,7a1.646,1.646,0,0,1-1.313.547c-4.575-.022-9.172-.022-13.747-.022A4.119,4.119,0,0,0,33.4,43.017Z" transform="translate(28.116 6.021)" fill="#606060"/>
  </g>
</svg>
