<svg xmlns="http://www.w3.org/2000/svg" width="84.337" height="89.819" viewBox="0 0 84.337 89.819">
  <g id="Tose_ee" data-name="Tose&apos;ee" transform="translate(-6.98 -4)">
    <path id="Path_3017" data-name="Path 3017" d="M91.317,29.578v2.8c-.09.054-.036.144-.054.2-.072.575-.108,1.132-.2,1.708A21.4,21.4,0,0,1,84.738,46.51a.665.665,0,0,0-.234.557V78.056c0,.359,0,.359-.377.359H7.322A2.293,2.293,0,0,1,6.98,78.4V33.209c.108,0,.216.018.342.018H18.358c.413,0,.359-.054.359.359V66.3c0,.288.072.359.359.359h52.63c.2.036.252-.054.252-.252V52.693c0-.162-.018-.234-.216-.216a20.665,20.665,0,0,1-8.826-1.025A21.007,21.007,0,0,1,49.382,37.918,21.034,21.034,0,0,1,50.748,20.9c.09-.18.108-.27-.09-.377-1.779-1.025-3.577-2.049-5.356-3.092a.35.35,0,0,0-.413,0c-1.33.719-2.678,1.438-4.008,2.157Q30.365,25.219,19.85,30.836c-.359.2-.719.377-1.114.593V18.937a.5.5,0,0,1,.27-.485q13.05-7.145,26.081-14.308c.072-.036.162-.036.2-.144h.162c.036.036.072.054.108.09,1.51.827,3.02,1.654,4.53,2.463q4.8,2.615,9.616,5.231c.108.054.18.108.324.036A21.54,21.54,0,0,1,91.137,28.374,9.274,9.274,0,0,0,91.317,29.578Zm-19.3,12.78v8.718c0,.27-.126.647.054.791s.539-.018.809-.054a21.234,21.234,0,0,0,11.432-5.428.53.53,0,0,0,.2-.449V32.526c0-.252-.054-.324-.306-.324-3.883.018-7.747,0-11.63.018-.27,0-.342-.072-.342-.342.018-4.314,0-8.628.018-12.96a.435.435,0,0,0-.27-.449Q66.018,15.234,60.077,12a.382.382,0,0,0-.413,0,21.769,21.769,0,0,0-8.628,8.394c-.126.234-.072.306.126.413q10.3,5.932,20.563,11.863a.459.459,0,0,1,.252.467C71.994,36.211,72.012,39.284,72.012,42.358Z" transform="translate(0)" fill="#606060"/>
    <path id="Path_3018" data-name="Path 3018" d="M45.7,56.174c-.036-.288-.072-.593-.126-.881-.036-.2.036-.216.2-.216.306.018.593,0,.9,0a1.017,1.017,0,0,0,.917-.5c.072-.126.054-.18-.108-.18a2.708,2.708,0,0,1-.845-.162,1.053,1.053,0,0,1-.719-.845,2.993,2.993,0,0,1,.072-1.438.881.881,0,0,1,.2-.359,1.562,1.562,0,0,1,2.48.5,2.7,2.7,0,0,1,.144.989c0,.216.072.252.27.234h.144c.413-.018.413-.036.413-.431a2.646,2.646,0,0,1,.072-.647,1.347,1.347,0,0,1,1.078-1.025,1.418,1.418,0,0,1,1.438.557,1.781,1.781,0,0,1-.216,2.319,1.433,1.433,0,0,1-1.69.108c-.162-.108-.252-.162-.413,0a1.065,1.065,0,0,1-.845.216c-.18-.018-.252,0-.288.2a1.959,1.959,0,0,1-1.294,1.474c-.09.036-.18.018-.252.108C46.724,56.174,46.221,56.174,45.7,56.174Zm4.889-3.379a.482.482,0,0,0,.5.539.5.5,0,0,0,.485-.539.527.527,0,0,0-.5-.557A.494.494,0,0,0,50.589,52.795Zm-2.894.162v-.306a.345.345,0,0,0-.4-.342c-.216,0-.288.144-.306.342a1.732,1.732,0,0,0,0,.306c.036.252.234.377.557.359C47.839,53.28,47.623,53.046,47.7,52.956Z" transform="translate(30.77 37.628)" fill="#606060"/>
    <path id="Path_3019" data-name="Path 3019" d="M16.8,56.2a3.162,3.162,0,0,0-.108-.827c-.036-.2,0-.288.234-.27a6.912,6.912,0,0,0,.863,0,.958.958,0,0,0,.971-.665c-.234-.036-.467-.054-.683-.09a1.225,1.225,0,0,1-1.1-1.366,4.277,4.277,0,0,1,.09-.953,1.053,1.053,0,0,1,.665-.737A1.505,1.505,0,0,1,19.895,52.6c.036.234-.036.557.09.665.162.144.485.036.737.054h.863c.306,0,.377-.09.377-.4v-.953c0-.126.036-.18.162-.18.252.018.5,0,.755,0,.144,0,.2.036.2.18-.018.377,0,.773,0,1.15a1.312,1.312,0,0,1-1.348,1.294c-.575-.036-1.132,0-1.708-.018-.09,0-.126.018-.144.108a1.932,1.932,0,0,1-1.51,1.618c-.018,0-.036.036-.072.054C17.828,56.2,17.324,56.2,16.8,56.2Zm2.031-3.235c-.018-.216.054-.449-.2-.575a.324.324,0,0,0-.4,0,.613.613,0,0,0-.126.575.467.467,0,0,0,.575.359C18.96,53.285,18.744,53.07,18.834,52.962Z" transform="translate(7.738 37.604)" fill="#606060"/>
    <path id="Path_3020" data-name="Path 3020" d="M23.161,56.185c-.18-.126-.4-.162-.575-.288a2.105,2.105,0,0,1-.953-1.761c-.018-.485,0-.971,0-1.456,0-.162.054-.216.216-.2a5.045,5.045,0,0,0,.737,0c.144,0,.2.054.2.2v1.438a.9.9,0,0,0,.9.971,9.4,9.4,0,0,0,1.007,0,.9.9,0,0,0,.7-.413.4.4,0,0,0-.324-.683c-.342-.018-.683-.036-1.043-.036-.162,0-.216-.054-.2-.216.018-.359,0-.737,0-1.1a1.455,1.455,0,0,1,1.51-1.474h.809c.144,0,.2.036.2.2a4.665,4.665,0,0,0,.054.719c.018.144-.036.2-.18.2h-.845a.445.445,0,0,0-.431.593c.036.108.108.09.18.09a3.162,3.162,0,0,1,.827.108.725.725,0,0,1,.575.647,2.005,2.005,0,0,1-1.438,2.409c-.018,0-.036.036-.072.054Z" transform="translate(11.679 37.616)" fill="#606060"/>
    <path id="Path_3021" data-name="Path 3021" d="M24.806,55.915a4.129,4.129,0,0,0-.09-.809c-.036-.234-.018-.342.27-.324a5.007,5.007,0,0,0,.9-.018.911.911,0,0,0,.935-.989V51.727c0-.18.054-.234.216-.216a4.563,4.563,0,0,0,.7,0c.144,0,.2.036.2.18,0,.737.018,1.474-.018,2.211a2.136,2.136,0,0,1-1.492,1.941c-.036.018-.054.036-.09.054C25.813,55.915,25.309,55.915,24.806,55.915Z" transform="translate(14.133 37.886)" fill="#606060"/>
    <path id="Path_3022" data-name="Path 3022" d="M28.769,54.542a.736.736,0,0,1-.449-.647.6.6,0,0,1,.539-.647.757.757,0,0,1,.863.359.677.677,0,0,1-.306.845c-.054.036-.09.054-.144.09Z" transform="translate(17.018 39.26)" fill="#606060"/>
    <path id="Path_3023" data-name="Path 3023" d="M52.518,52.88c0,.252.018.5,0,.755a1.2,1.2,0,0,1-1.959.863.261.261,0,0,0-.377,0,1.068,1.068,0,0,1-1.474-.09c-.126-.108-.216-.126-.342-.018a1,1,0,0,1-.467.2,4.952,4.952,0,0,1-1.708,0,1.2,1.2,0,0,0-.863.072,1.089,1.089,0,0,1-1.15-.2.228.228,0,0,0-.324,0,1.375,1.375,0,0,1-1.672,0c-.108-.072-.162-.09-.27-.018a.988.988,0,0,1-.593.162,8.19,8.19,0,0,0-.935.018,1.225,1.225,0,0,1-1.186-.431c-.126-.144-.2-.144-.342.018a1.522,1.522,0,0,1-1.887.342,1.576,1.576,0,0,1-.791-1.833,1.987,1.987,0,0,1,.557-.827c.054-.072.18-.126.054-.216-.144-.108-.072-.2.018-.288a2.863,2.863,0,0,0,.234-.234c.377-.377.377-.377.755.018l2.049,2.157a1.757,1.757,0,0,0,1.438.18.331.331,0,0,0,.144-.324,8.425,8.425,0,0,0,0-.953c0-.144.036-.2.18-.2a5.043,5.043,0,0,0,.737,0c.144,0,.2.036.2.2-.018.324,0,.647,0,.989a.358.358,0,0,0,.27.4c.252.09.4,0,.4-.27v-1.1c0-.162.036-.216.2-.216a5.043,5.043,0,0,0,.737,0c.162,0,.2.054.18.2v.989a.376.376,0,0,0,.2.377c.27.144.467.018.485-.27,0-.359.018-.719,0-1.061,0-.18.054-.234.216-.216a4.565,4.565,0,0,0,.7,0c.162-.018.2.054.2.216-.018.324,0,.629,0,.953,0,.234.09.342.306.342.359.018.737.018,1.1.018.234,0,.342-.126.324-.36v-.953c0-.162.036-.216.2-.216a5.042,5.042,0,0,0,.737,0c.18-.018.2.072.2.216-.018.342,0,.683,0,1.007a.35.35,0,0,0,.288.36c.252.072.4-.018.4-.27.018-.359.018-.737,0-1.1,0-.162.018-.234.216-.234a4.106,4.106,0,0,0,.665,0c.162-.018.234.036.216.216-.018.288,0,.575,0,.863a.655.655,0,0,0,.036.27.38.38,0,0,0,.431.252c.18-.018.234-.162.234-.324V52.251c0-.144.036-.234.2-.216h.036c.288,0,.647-.09.809.054S52.5,52.611,52.518,52.88Zm-14.29.359a1.611,1.611,0,0,0-.575-.755.137.137,0,0,0-.09.036,1.283,1.283,0,0,0-.413.611.542.542,0,1,0,1.078.108Z" transform="translate(23.233 37.38)" fill="#606060"/>
    <path id="Path_3024" data-name="Path 3024" d="M16.045,53.521a11.555,11.555,0,0,0,1.348.036.268.268,0,0,0,.288-.324v-.989c0-.162.054-.216.2-.2a5.044,5.044,0,0,0,.737,0c.162,0,.18.054.18.2v1.007a.372.372,0,0,0,.288.4c.252.072.377-.018.377-.288,0-.359.018-.719,0-1.061-.018-.2.054-.252.252-.252a4.109,4.109,0,0,0,.665,0c.144,0,.2.054.18.2-.018.324,0,.647,0,.989,0,.27.162.449.4.431.27-.018.288-.216.288-.431V52.227c0-.144.036-.2.18-.18h.054c.288,0,.647-.09.809.054.18.144.054.521.054.809a4.434,4.434,0,0,1-.036.845,1.2,1.2,0,0,1-1.941.791c-.162-.108-.234-.126-.4,0a1.087,1.087,0,0,1-1.474-.09c-.126-.108-.2-.126-.324-.018a1.27,1.27,0,0,1-.755.252c-.431.018-.881,0-1.312,0a1.583,1.583,0,0,1-1.043-.342.22.22,0,0,0-.288-.018,2.045,2.045,0,0,1-1.24.359,3.169,3.169,0,0,0-.413,0,1.285,1.285,0,0,1-1.222-.467c-.108-.126-.18-.144-.324,0a1.561,1.561,0,0,1-1.887.377,1.584,1.584,0,0,1-.827-1.779,2.051,2.051,0,0,1,.557-.9c.054-.054.2-.126.072-.216-.162-.144-.09-.234.036-.324a2.863,2.863,0,0,0,.234-.234c.359-.359.359-.359.737.018.665.719,1.348,1.42,2.031,2.139a.977.977,0,0,0,.791.27c.18,0,.359,0,.539-.018a.231.231,0,0,0,.18-.072c.036-.072-.054-.108-.09-.144-.2-.216-.4-.413-.611-.611-.108-.108-.144-.18-.054-.324.144-.252.27-.5.4-.773a.291.291,0,0,1,.306-.18h1.438a1.1,1.1,0,0,1,1.114.683,1.181,1.181,0,0,1-.359,1.312C16.117,53.431,16.1,53.449,16.045,53.521Zm-5.123-.288a1.339,1.339,0,0,0-.557-.737.085.085,0,0,0-.108.018,1.1,1.1,0,0,0-.413.611.548.548,0,0,0,.485.611A.56.56,0,0,0,10.923,53.234Zm3.631-.737c-.018.036-.054.054-.072.09a1.276,1.276,0,0,1,.252.18c.252.234.377.252.629.018.054-.054.126-.108.09-.2a.157.157,0,0,0-.162-.09Z" transform="translate(1.468 37.386)" fill="#606060"/>
    <path id="Path_3025" data-name="Path 3025" d="M36.534,55.164H34.827A1.23,1.23,0,0,1,34.072,55a.165.165,0,0,0-.18-.018,2.057,2.057,0,0,1-.935.162,11.5,11.5,0,0,1-1.762-.018,4.941,4.941,0,0,0-1.456,0,4.893,4.893,0,0,1-1.618-.018,1.121,1.121,0,0,1-1.078-1.2c-.018-1.168,0-2.319,0-3.487,0-.144.054-.2.2-.2.216,0,.449.018.665,0,.2-.018.252.054.252.252-.018,1.007,0,2.013,0,3,0,.539.036.575.593.575h.7c.377,0,.431-.072.449-.449v-.863c0-.144.036-.216.2-.216.306.036.7-.126.881.072.144.144.036.557.054.845,0,.539.036.593.575.611a8.279,8.279,0,0,0,1.492-.036c.234-.036.359-.144.342-.377v-.9c0-.144.018-.216.18-.2a5.809,5.809,0,0,0,.791,0c.144,0,.162.054.162.18v.989c0,.216.09.342.306.342s.431,0,.647.018c.144,0,.162-.054.108-.162a1.712,1.712,0,0,1-.108-.737,1.45,1.45,0,0,1,1.779-1.2,2.3,2.3,0,0,1,1.1.521c.108.108.18.18.054.324-.018.018-.036.072-.054.09-.126.2-.2.467-.359.539-.162.09-.342-.2-.539-.252-.09-.018-.18-.072-.27-.09a.426.426,0,0,0-.485.144.562.562,0,0,0-.072.557.411.411,0,0,0,.413.27c.413,0,.845.018,1.258,0,.234-.018.306.072.306.288a.4.4,0,0,0,.018.144c.018.216.162.485.036.647-.126.126-.413.036-.629.036C37.541,55.164,37.037,55.164,36.534,55.164Z" transform="translate(15.994 36.858)" fill="#606060"/>
    <path id="Path_3026" data-name="Path 3026" d="M34.11,52.692c0-.683.018-1.366,0-2.049,0-.216.072-.27.27-.252a3.269,3.269,0,0,0,.593,0c.2-.018.252.054.252.252-.018,1.114,0,2.247,0,3.361v.216c-.018.252.126.629-.054.755-.252.162-.611.036-.935.054-.162,0-.108-.126-.108-.2C34.11,54.112,34.11,53.411,34.11,52.692Z" transform="translate(21.635 36.993)" fill="#606060"/>
    <path id="Path_3027" data-name="Path 3027" d="M20.177,50.67c.413,0,.683.216.683.575a.633.633,0,0,1-.683.647.6.6,0,0,1-.647-.647C19.53,50.886,19.764,50.67,20.177,50.67Z" transform="translate(10.008 37.218)" fill="#606060"/>
    <path id="Path_3028" data-name="Path 3028" d="M19.4,50.67a.6.6,0,0,1,.665.593.676.676,0,0,1-.7.611.6.6,0,0,1-.647-.647C18.72,50.886,18.972,50.67,19.4,50.67Z" transform="translate(9.362 37.218)" fill="#606060"/>
    <path id="Path_3029" data-name="Path 3029" d="M30.355,51.892a.61.61,0,0,1-.665-.611.6.6,0,0,1,.683-.611.623.623,0,0,1,.683.593A.678.678,0,0,1,30.355,51.892Z" transform="translate(18.11 37.218)" fill="#606060"/>
    <path id="Path_3030" data-name="Path 3030" d="M31.147,50.67a.616.616,0,0,1,.7.575.648.648,0,0,1-.7.647.586.586,0,0,1-.647-.611A.577.577,0,0,1,31.147,50.67Z" transform="translate(18.756 37.218)" fill="#606060"/>
  </g>
</svg>
