<svg xmlns="http://www.w3.org/2000/svg" width="18.647" height="14.651" viewBox="0 0 18.647 14.651">
  <path id="bank_cards" d="M4,5A2.009,2.009,0,0,0,2,7V14.99a2.009,2.009,0,0,0,2,2h.666v.666a2.009,2.009,0,0,0,2,2H18.649a2.009,2.009,0,0,0,2-2V9.662a2.009,2.009,0,0,0-2-2h-.666V7a2.009,2.009,0,0,0-2-2ZM4,6.332H15.985A.654.654,0,0,1,16.651,7v.666H4V9H16.651V14.99a.654.654,0,0,1-.666.666H4a.654.654,0,0,1-.666-.666V7A.654.654,0,0,1,4,6.332ZM17.983,9h.666a.654.654,0,0,1,.666.666v.666H17.983Zm0,2.664h1.332v5.994a.654.654,0,0,1-.666.666H6.662A.654.654,0,0,1,6,17.653v-.666h9.99a2.009,2.009,0,0,0,2-2Z" transform="translate(-2 -5)" fill="#1f8ecc"/>
</svg>
