<svg xmlns="http://www.w3.org/2000/svg" width="18.85" height="18.85" viewBox="0 0 18.85 18.85">
  <path id="enter" d="M12.545,6a2.892,2.892,0,0,0-2.88,2.88v3.142a.785.785,0,1,0,1.571,0V8.88a1.3,1.3,0,0,1,1.309-1.309H21.97A1.3,1.3,0,0,1,23.279,8.88V21.97a1.3,1.3,0,0,1-1.309,1.309H12.545a1.3,1.3,0,0,1-1.309-1.309V18.839a.785.785,0,1,0-1.571,0V21.97a2.892,2.892,0,0,0,2.88,2.88H21.97a2.892,2.892,0,0,0,2.88-2.88V8.88A2.892,2.892,0,0,0,21.97,6Zm3.134,5.5a.786.786,0,0,0-.547,1.349l1.8,1.8L6.786,14.64a.785.785,0,1,0,0,1.571l10.149.009-1.8,1.8a.785.785,0,1,0,1.111,1.111l3.142-3.142a.786.786,0,0,0,0-1.111l-3.142-3.142a.785.785,0,0,0-.563-.238Z" transform="translate(-6 -6)" fill="#1f8ecc"/>
</svg>
