<svg xmlns="http://www.w3.org/2000/svg" width="21.209" height="21.295" viewBox="0 0 21.209 21.295">
  <path id="fingerprint" d="M14.287,4c-.224,0-.424.013-.641.027a11.1,11.1,0,0,0-3.474.748l.641,1.6a9.2,9.2,0,0,1,2.912-.641c.177-.01.367-.027.561-.027A9.406,9.406,0,0,1,18.75,6.832l.8-1.5A11.1,11.1,0,0,0,14.287,4ZM8.73,5.47A11.157,11.157,0,0,0,6,7.687,11.365,11.365,0,0,0,5.043,8.97a11.216,11.216,0,0,0-.855,1.523l1.55.695a9.565,9.565,0,0,1,.721-1.283,9.3,9.3,0,0,1,.828-1.069,9.417,9.417,0,0,1,2.3-1.87ZM21.1,6.325,20.059,7.687a9.347,9.347,0,0,1,3.607,6.92,10.856,10.856,0,0,1,0,1.309l1.71.107a13.314,13.314,0,0,0,0-1.523A11.068,11.068,0,0,0,21.1,6.325Zm-6.813.24v1.71a6.842,6.842,0,0,1,6.84,6.466,17.755,17.755,0,0,1-.855,5.665l1.63.508a19.043,19.043,0,0,0,.935-6.252A8.586,8.586,0,0,0,14.287,6.565ZM12.711,6.7A8.459,8.459,0,0,0,7.928,9.4a8.939,8.939,0,0,0-.775.989H7.18v.027a8.411,8.411,0,0,0-1.443,5.05v.481L7.447,16v-.561A6.722,6.722,0,0,1,8.6,11.321a6.378,6.378,0,0,1,.588-.775,6.809,6.809,0,0,1,3.848-2.164ZM13.94,9.13a5.9,5.9,0,0,0-3.634,1.523l1.122,1.283a4.272,4.272,0,0,1,2.618-1.1c.09-.007.157,0,.24,0a4.217,4.217,0,0,1,1.416.241l.588-1.6a6.057,6.057,0,0,0-2-.347C14.164,9.13,14.057,9.123,13.94,9.13Zm3.661.989-.935,1.443a4.234,4.234,0,0,1,1.9,3.313l1.71-.08A6.029,6.029,0,0,0,17.6,10.119ZM14.1,11.7A3.473,3.473,0,0,0,10.867,15.3a6.188,6.188,0,0,1-.347,2.084,5.42,5.42,0,0,1-2.859,3.206l-.534.24c-.284.127-.641.274-.721.294l.374,1.657a5.858,5.858,0,0,0,1.069-.4c.321-.144.561-.267.561-.267a7.2,7.2,0,0,0,3.714-4.168,7.707,7.707,0,0,0,.454-2.725V15.2A1.648,1.648,0,0,1,13,13.966a1.669,1.669,0,0,1,1.176-.561c.043,0,.077,0,.107,0V11.7C14.217,11.7,14.161,11.692,14.1,11.7ZM9.291,11.8A5.949,5.949,0,0,0,8.3,15.409v.027a3.1,3.1,0,0,1-1.763,2.832,4.736,4.736,0,0,1-1.657.267v1.71a7.035,7.035,0,0,0,2.351-.4H7.26l.027-.027a5.008,5.008,0,0,0,2.725-4.462v-.027a4.168,4.168,0,0,1,.721-2.565Zm6.626.294-.828,1.523A1.679,1.679,0,0,1,16,15.008a11.416,11.416,0,0,1-3.954,8.844l1.069,1.336a12.9,12.9,0,0,0,4.6-10.26A3.423,3.423,0,0,0,15.917,12.1Zm-1.63,2.164a.857.857,0,0,0-.855.855v.053a8.962,8.962,0,0,1-.775,3.741l1.55.695a10.867,10.867,0,0,0,.935-4.489v-.053A.858.858,0,0,0,14.287,14.26Zm4.248,1.657a14.43,14.43,0,0,1-3.18,8.283l1.283,1.1a16.039,16.039,0,0,0,3.607-9.272Zm-6.333,3.9a7.811,7.811,0,0,1-3.42,3.073l.748,1.55a9.663,9.663,0,0,0,4.142-3.767Z" transform="translate(-4.188 -4)" fill="#1f8ecc"/>
</svg>
