<svg xmlns="http://www.w3.org/2000/svg" width="19.277" height="19.275" viewBox="0 0 19.277 19.275">
  <g id="Group_1523" data-name="Group 1523" transform="translate(-1225.749 -801.001)">
    <path id="Path_3356" data-name="Path 3356" d="M1225.749,816.924v-11.1c.073-.276.109-.561.2-.833a3.747,3.747,0,0,1,3.7-2.506c.168,0,.388.057.493-.026.123-.1.049-.33.038-.5a.845.845,0,0,1,.608-.954h.3a.85.85,0,0,1,.6.977c-.008.093.01.189,0,.282-.027.183.043.226.224.226,2.219-.007,4.437,0,6.656-.006.161,0,.369.069.47-.031s.041-.311.03-.47a.859.859,0,0,1,.6-.977h.3a.837.837,0,0,1,.6.956c-.011.131,0,.264,0,.395,0,.1.029.134.128.131.175-.006.351,0,.527,0a3.725,3.725,0,0,1,3.786,3.7q.008,5.2,0,10.405a3.7,3.7,0,0,1-3.681,3.684q-5.955.016-11.91,0a3.707,3.707,0,0,1-3.573-2.851C1225.815,817.254,1225.784,817.089,1225.749,816.924Zm9.648-8.5q-3.97,0-7.941,0c-.168,0-.206.045-.205.209.005,2.628,0,5.257,0,7.885a2.211,2.211,0,0,0,2.238,2.249q5.89.008,11.781,0a2.212,2.212,0,0,0,2.243-2.263c0-2.622,0-5.244,0-7.866,0-.178-.054-.213-.22-.213Q1239.349,808.43,1235.4,808.426Zm-.022-1.5h7.867c.05,0,.1,0,.15,0,.1.01.129-.035.127-.131-.006-.2,0-.4,0-.6a2.229,2.229,0,0,0-1.456-2.066,3.846,3.846,0,0,0-1.3-.14c-.136,0-.185.029-.182.176.01.414,0,.828,0,1.242a.754.754,0,1,1-1.5.008c0-.42,0-.841,0-1.261,0-.117-.023-.165-.154-.164q-3.538.005-7.076,0c-.126,0-.158.041-.156.162.007.42,0,.841,0,1.261a.754.754,0,1,1-1.5,0c0-.42-.005-.841,0-1.261,0-.127-.039-.164-.16-.158-.188.008-.377,0-.564,0a2.2,2.2,0,0,0-2.016,1.307,2.022,2.022,0,0,0-.2.967c.008.212-.088.487.035.618s.4.04.614.04Q1231.639,806.926,1235.375,806.923Z" fill="#909090"/>
    <path id="Path_3357" data-name="Path 3357" d="M1300.8,1080.907c.244,0,.489,0,.733,0a.75.75,0,0,1,.012,1.5q-.761.016-1.522,0a.75.75,0,0,1,.007-1.5C1300.284,1080.9,1300.541,1080.907,1300.8,1080.907Z" transform="translate(-69.839 -265.828)" fill="#909090"/>
    <path id="Path_3358" data-name="Path 3358" d="M1477.552,1082.4c-.238,0-.476,0-.714,0a.752.752,0,1,1,.008-1.5q.714-.005,1.428,0a.753.753,0,1,1-.008,1.5C1478.028,1082.4,1477.79,1082.4,1477.552,1082.4Z" transform="translate(-237.731 -265.816)" fill="#909090"/>
    <path id="Path_3359" data-name="Path 3359" d="M1477.567,994.087c-.244,0-.489,0-.733,0a.752.752,0,1,1,0-1.5q.733-.007,1.466,0a.751.751,0,1,1,0,1.5C1478.056,994.092,1477.811,994.087,1477.567,994.087Z" transform="translate(-237.731 -181.944)" fill="#909090"/>
    <path id="Path_3360" data-name="Path 3360" d="M1300.783,992.605c.244,0,.489,0,.733,0a.751.751,0,1,1,0,1.5c-.489.007-.977.006-1.466,0a.752.752,0,1,1,0-1.5C1300.294,992.6,1300.539,992.605,1300.783,992.605Z" transform="translate(-69.838 -181.967)" fill="#909090"/>
    <path id="Path_3361" data-name="Path 3361" d="M1389.062,994.081c-.244,0-.489,0-.733,0a.751.751,0,1,1,0-1.5c.495-.005.99-.006,1.484,0a.751.751,0,0,1,0,1.5C1389.564,994.086,1389.313,994.081,1389.062,994.081Z" transform="translate(-153.687 -181.938)" fill="#909090"/>
    <path id="Path_3362" data-name="Path 3362" d="M1389.071,1080.908c.244,0,.489,0,.733,0a.751.751,0,1,1,0,1.5c-.495.007-.99.008-1.484,0a.751.751,0,0,1,0-1.5C1388.57,1080.9,1388.82,1080.909,1389.071,1080.908Z" transform="translate(-153.685 -265.83)" fill="#909090"/>
  </g>
</svg>
