<svg xmlns="http://www.w3.org/2000/svg" width="18.7" height="18.728" viewBox="0 0 18.7 18.728">
  <g id="Group_1949" data-name="Group 1949" transform="translate(823.306 240.745)">
    <path id="Path_3513" data-name="Path 3513" d="M-818.584-238.99a1.679,1.679,0,0,1,1.053.511.611.611,0,0,0,.72.185.623.623,0,0,0,.365-.63,1.814,1.814,0,0,1,1.818-1.8,10.394,10.394,0,0,1,1.613.027,1.8,1.8,0,0,1,1.551,1.8.6.6,0,0,0,.449.647.623.623,0,0,0,.616-.2,1.8,1.8,0,0,1,1.96-.409,1.7,1.7,0,0,1,.631.411c.309.306.62.61.922.923a1.819,1.819,0,0,1,.015,2.59.6.6,0,0,0-.176.7.618.618,0,0,0,.628.366,1.82,1.82,0,0,1,1.808,1.813q.01.672,0,1.343a1.828,1.828,0,0,1-1.82,1.825.593.593,0,0,0-.645.447.606.606,0,0,0,.195.615,1.82,1.82,0,0,1,.364,2.068,6.9,6.9,0,0,1-1.828,1.822,1.818,1.818,0,0,1-2.052-.363.627.627,0,0,0-.6-.207.6.6,0,0,0-.472.647,1.826,1.826,0,0,1-1.36,1.761,1.03,1.03,0,0,1-.209.041,9.594,9.594,0,0,1-1.884-.013,1.777,1.777,0,0,1-1.531-1.787.608.608,0,0,0-.358-.613.6.6,0,0,0-.707.162,1.819,1.819,0,0,1-2.619-.028q-.438-.429-.868-.867a1.82,1.82,0,0,1-.029-2.632.593.593,0,0,0,.163-.69.606.606,0,0,0-.609-.365,1.823,1.823,0,0,1-1.829-1.853q0-.633,0-1.266a1.827,1.827,0,0,1,1.84-1.864.6.6,0,0,0,.636-.484.623.623,0,0,0-.205-.578,1.8,1.8,0,0,1-.4-1.978,1.65,1.65,0,0,1,.391-.6c.315-.318.63-.637.952-.948A1.933,1.933,0,0,1-818.584-238.99Zm7.772,13.22a1.851,1.851,0,0,1,1.25.544.587.587,0,0,0,.908,0c.273-.268.543-.54.813-.811a.606.606,0,0,0,.011-.979,1.819,1.819,0,0,1-.513-1.248,1.843,1.843,0,0,1,1.821-1.868.6.6,0,0,0,.666-.676c0-.4,0-.792,0-1.188a.587.587,0,0,0-.614-.629,1.777,1.777,0,0,1-1.724-1.139,1.766,1.766,0,0,1,.4-2.01.594.594,0,0,0-.007-.91c-.269-.273-.541-.542-.812-.813a.605.605,0,0,0-.978-.009,1.818,1.818,0,0,1-1.229.512,1.843,1.843,0,0,1-1.887-1.821.6.6,0,0,0-.677-.665c-.4,0-.792,0-1.188,0a.582.582,0,0,0-.627.615,2.014,2.014,0,0,1-.06.481,1.842,1.842,0,0,1-3.065.871.6.6,0,0,0-.964.01q-.386.385-.771.771a.609.609,0,0,0-.021.993,1.814,1.814,0,0,1,.51,1.249,1.841,1.841,0,0,1-1.844,1.865.589.589,0,0,0-.642.64c0,.415,0,.831,0,1.246a.579.579,0,0,0,.6.6,2.114,2.114,0,0,1,.5.059,1.841,1.841,0,0,1,.868,3.065.6.6,0,0,0,.01.965q.405.407.813.812a.6.6,0,0,0,.924.006,1.765,1.765,0,0,1,2.011-.391,1.77,1.77,0,0,1,1.129,1.71.59.59,0,0,0,.634.63c.383,0,.766,0,1.149,0,.49,0,.7-.2.711-.69A1.864,1.864,0,0,1-810.812-225.77Z" fill="#1ebacc"/>
    <path id="Path_3514" data-name="Path 3514" d="M-727.461-140.266a4.367,4.367,0,0,1,4.351-4.367,4.368,4.368,0,0,1,4.373,4.367,4.368,4.368,0,0,1-4.323,4.356A4.361,4.361,0,0,1-727.461-140.266Zm7.478,0a3.12,3.12,0,0,0-3.1-3.125,3.118,3.118,0,0,0-3.135,3.125,3.12,3.12,0,0,0,3.134,3.106A3.124,3.124,0,0,0-719.984-140.261Z" transform="translate(-90.858 -91.111)" fill="#1ebacc"/>
  </g>
</svg>
