<svg id="Group_1519" data-name="Group 1519" xmlns="http://www.w3.org/2000/svg" width="38.314" height="46.804" viewBox="0 0 38.314 46.804">
  <path id="Path_3338" data-name="Path 3338" d="M-681.984,115.259l.54,1.2c-1.052,1.1-2.14,2.12-3.088,3.256a17.019,17.019,0,0,0-3.683,8.467,16.133,16.133,0,0,0,2.586,11.634,16.347,16.347,0,0,0,11.125,7.356c1.027.177,2.07.275,3.1.413,1,.133,1.254-.324,1.243-1.288-.048-4.431-.021-8.863-.021-13.3,0-5.78.014-11.56-.011-17.34a1.259,1.259,0,0,1,.8-1.317c2.21-1.122,4.383-2.32,6.574-3.476a10.872,10.872,0,0,1,1.032-.405c-.114,2.029.411,3.991-.677,5.691a12.408,12.408,0,0,1-2.2,2.258,4.459,4.459,0,0,1-1.066.549c-2.667,1.321-2.839,1.684-2.286,4.886,2.02-1.062,4.02-2.126,6.031-3.167,1.01-.522,1.2-.388,1.205.787,0,2.07-.078,4.118-1.574,5.774a3.058,3.058,0,0,1-.832.69c-1.4.719-2.813,1.409-4.229,2.091-.552.266-.9.518-.753,1.283a16.306,16.306,0,0,1,.035,2.805l8.268-4.715a34.6,34.6,0,0,1-.333,4.887,5.065,5.065,0,0,1-2.822,3.509c-1.527.778-2.982,1.7-4.444,2.6-.282.173-.637.525-.645.8-.055,1.967-.029,3.936-.029,5.9,4,.152,10.381-4.878,12.422-9.59a17.229,17.229,0,0,0-5.268-20.739l.5-1.26c4.361,1.106,8.979,10.554,8.279,17.023-1.1,10.13-8.572,16.609-17.149,17.405A18.836,18.836,0,0,1-689.96,135.1C-691.9,126.451-687.639,118.53-681.984,115.259Z" transform="translate(690.434 -103.22)" fill="#1f8ecc"/>
  <path id="Path_3339" data-name="Path 3339" d="M-678.06,140.766c1.331.753,2.519,1.412,3.7,2.091,1.914,1.1,3.81,2.241,5.738,3.324a1.279,1.279,0,0,1,.81,1.323c-.063,1.8-.021,3.6-.021,5.478a2.99,2.99,0,0,1-.658-.176c-2.411-1.38-4.837-2.737-7.216-4.17a5.038,5.038,0,0,1-2.315-3.826A32,32,0,0,1-678.06,140.766Z" transform="translate(685.838 -114.516)" fill="#1f8ecc"/>
  <path id="Path_3340" data-name="Path 3340" d="M-667.34,137.34c-2.539-1.317-4.76-2.363-6.868-3.6a5.366,5.366,0,0,1-2.521-4.42c-.1-1.113-.018-2.241-.018-3.533.873.439,1.645.805,2.4,1.205,2.051,1.085,4.089,2.2,6.146,3.27a1.354,1.354,0,0,1,.878,1.41C-667.386,133.462-667.34,135.249-667.34,137.34Z" transform="translate(685.342 -108.933)" fill="#1f8ecc"/>
  <path id="Path_3341" data-name="Path 3341" d="M-674.47,111.128a8.25,8.25,0,0,1,1.155.368c2.107,1.066,4.21,2.137,6.294,3.244a1.039,1.039,0,0,1,.5.724c.041,1.971.023,3.945.023,6.083-.473-.2-.838-.341-1.187-.509-1.177-.571-2.32-1.215-3.527-1.715a5.278,5.278,0,0,1-3.239-4.712A32.085,32.085,0,0,1-674.47,111.128Z" transform="translate(684.496 -103.466)" fill="#1f8ecc"/>
  <path id="Path_3342" data-name="Path 3342" d="M-666.519,105l4.144-6.093c1.423,2.1,2.754,4.07,4.139,6.121-1.34.741-2.526,1.412-3.73,2.049a.919.919,0,0,1-.724.083C-663.943,106.492-665.173,105.774-666.519,105Z" transform="translate(681.517 -98.911)" fill="#1f8ecc"/>
</svg>
