<svg xmlns="http://www.w3.org/2000/svg" width="18.373" height="18.433" viewBox="0 0 18.373 18.433">
  <g id="Group_1948" data-name="Group 1948" transform="translate(-41.731 179.596) rotate(-90)">
    <path id="Path_3344" data-name="Path 3344" d="M161.163,50.334c.033-.285.058-.57.1-.854a9.43,9.43,0,0,1,6.765-7.719.637.637,0,0,1,.721.226.585.585,0,0,1-.047.748,6.51,6.51,0,0,0-1.243,2.471,6.863,6.863,0,0,0,.407,4.721,6.918,6.918,0,0,0,7.235,3.949,6.866,6.866,0,0,0,3.386-1.474.891.891,0,0,1,.458-.232.556.556,0,0,1,.63.71,9.294,9.294,0,0,1-2.027,3.983,9.335,9.335,0,0,1-16.193-4.21,7.4,7.4,0,0,1-.16-1.157,1.664,1.664,0,0,0-.032-.191Zm16.665,4.019c-3.417,1.416-6.61,1.114-9.3-1.5s-3.093-5.8-1.78-9.241a8.007,8.007,0,0,0-4.277,7.874,8.124,8.124,0,0,0,15.357,2.867Z" fill="#1ebacc"/>
  </g>
</svg>
