<svg xmlns="http://www.w3.org/2000/svg" width="13.527" height="22.581" viewBox="0 0 13.527 22.581">
  <g id="Group_1514" data-name="Group 1514" transform="translate(0 0)">
    <path id="Path_3334" data-name="Path 3334" d="M-1320.013-30.226q0,4.376,0,8.752a2.366,2.366,0,0,1-2.539,2.546h-8.48a2.358,2.358,0,0,1-2.507-2.515q0-8.782,0-17.564a2.353,2.353,0,0,1,2.491-2.5q4.27,0,8.541,0a2.358,2.358,0,0,1,2.494,2.5Q-1320.011-34.617-1320.013-30.226Zm-.845.024q0-4.436,0-8.872a1.5,1.5,0,0,0-1.264-1.565,4.174,4.174,0,0,0-.662-.023c-.485,0-.485,0-.494.483a1.253,1.253,0,0,1-1.215,1.318c-1.519.018-3.038.015-4.556,0a1.259,1.259,0,0,1-1.221-1.126c-.029-.223.114-.528-.076-.648-.167-.105-.449-.029-.68-.029A1.519,1.519,0,0,0-1332.694-39q0,8.781,0,17.563a1.52,1.52,0,0,0,1.67,1.662h8.449a1.536,1.536,0,0,0,1.717-1.708Q-1320.857-25.842-1320.858-30.2Zm-5.92-10.46c-.8,0-1.606,0-2.409,0-.08,0-.182-.047-.235.07a.611.611,0,0,0,.554.891q2.018,0,4.036,0c.617,0,.713-.1.715-.714,0-.194-.05-.257-.251-.254C-1325.172-40.656-1325.975-40.662-1326.778-40.662Z" transform="translate(1333.539 41.508)" fill="#1db5c8"/>
    <path id="Path_3335" data-name="Path 3335" d="M-1283.991,204.4h-2.352a1.923,1.923,0,0,1-.271-.008.413.413,0,0,1-.389-.451.394.394,0,0,1,.422-.383c.251-.006.5,0,.754,0h4.131c.08,0,.161,0,.241,0,.3.011.486.169.484.419s-.186.417-.488.422c-.512.008-1.025,0-1.538,0Z" transform="translate(1290.751 -183.827)" fill="#1db5c8"/>
  </g>
</svg>
