<svg xmlns="http://www.w3.org/2000/svg" width="9.645" height="20.51" viewBox="0 0 9.645 20.51">
  <g id="Group_1504" data-name="Group 1504" transform="translate(0 0)">
    <path id="Path_3328" data-name="Path 3328" d="M-743.271,356.625c.946,0,1.892,0,2.837,0a1.882,1.882,0,0,1,1.966,1.953q.008,2.234,0,4.468a1.72,1.72,0,0,1-1.788,1.789c-.184,0-.236.045-.234.233q.012,2.265,0,4.531a1.529,1.529,0,0,1-1.657,1.557,1.459,1.459,0,0,1-1.021-.495c-.086-.094-.128-.126-.236-.01a1.527,1.527,0,0,1-1.7.408,1.537,1.537,0,0,1-.985-1.469q-.007-2.255,0-4.51c0-.193-.049-.244-.244-.246a1.721,1.721,0,0,1-1.778-1.8q-.006-2.223,0-4.446a1.885,1.885,0,0,1,1.976-1.965Q-744.7,356.623-743.271,356.625Zm2.2,8.425q0-2.255,0-4.51a1.14,1.14,0,0,1,.018-.252.263.263,0,0,1,.3-.217.269.269,0,0,1,.266.255,1.78,1.78,0,0,1,0,.211c0,1.172,0,2.343,0,3.515,0,.155.036.2.2.2a1.155,1.155,0,0,0,1.235-1.229q0-2.213,0-4.425a1.3,1.3,0,0,0-1.367-1.393q-2.869-.009-5.738,0a1.293,1.293,0,0,0-1.359,1.379q0,2.223,0,4.446a1.151,1.151,0,0,0,1.22,1.221c.162,0,.216-.036.215-.209-.008-1.172,0-2.343,0-3.515,0-.064,0-.127,0-.19a.27.27,0,0,1,.273-.27.268.268,0,0,1,.3.243,1.485,1.485,0,0,1,.012.253q0,4.436,0,8.871a1.557,1.557,0,0,0,.035.441.962.962,0,0,0,1.079.684.953.953,0,0,0,.8-.947q0-2.371,0-4.743a1.372,1.372,0,0,1,0-.169.282.282,0,0,1,.3-.271.282.282,0,0,1,.29.255.994.994,0,0,1,0,.169q0,2.371,0,4.743a.948.948,0,0,0,.937.971.948.948,0,0,0,.98-1.013C-741.068,368.057-741.07,366.554-741.07,365.051Z" transform="translate(748.108 -350.657)" fill="#1db5c8"/>
    <path id="Path_3329" data-name="Path 3329" d="M-703.926,253.753a2.611,2.611,0,0,1-2.6,2.595,2.62,2.62,0,0,1-2.611-2.612,2.61,2.61,0,0,1,2.619-2.6A2.6,2.6,0,0,1-703.926,253.753Zm-2.587-2.028a2.017,2.017,0,0,0-2.04,1.994,2.022,2.022,0,0,0,1.995,2.041,2.021,2.021,0,0,0,2.05-2.006A2.018,2.018,0,0,0-706.513,251.725Z" transform="translate(711.345 -251.136)" fill="#1db5c8"/>
  </g>
</svg>
