<svg xmlns="http://www.w3.org/2000/svg" width="44.321" height="44.331" viewBox="0 0 44.321 44.331">
  <g id="Group_1551" data-name="Group 1551" transform="translate(1101.64 68.143)">
    <path id="Path_3410" data-name="Path 3410" d="M-1091.513-68.143h24.063c.536.1,1.078.176,1.609.3a11.065,11.065,0,0,1,8.516,10.833q.018,11.014,0,22.028c0,.417-.028.836-.07,1.252a11.022,11.022,0,0,1-10.822,9.893q-11.252.055-22.5,0a11.039,11.039,0,0,1-10.334-7.51,20.187,20.187,0,0,1-.585-2.607V-58.016c.028-.125.063-.248.082-.374a10.964,10.964,0,0,1,7.366-9.141A15.264,15.264,0,0,1-1091.513-68.143Zm12.049,3.7q-5.41,0-10.82,0a8.279,8.279,0,0,0-1.294.067,7.335,7.335,0,0,0-6.36,7.453q-.011,10.928,0,21.856a7.424,7.424,0,0,0,.064,1.165,7.342,7.342,0,0,0,7.445,6.371q10.949.014,21.9,0a7.167,7.167,0,0,0,1.121-.064,7.341,7.341,0,0,0,6.382-7.479q.011-10.906,0-21.812a7.81,7.81,0,0,0-.158-1.719,7.348,7.348,0,0,0-7.29-5.836C-1072.135-64.454-1075.8-64.442-1079.464-64.443Z" fill="#67c564"/>
    <path id="Path_3411" data-name="Path 3411" d="M-982.107,61.444a1.969,1.969,0,0,1-.655,1.468q-5.332,5.218-10.657,10.443c-.772.757-1.54,1.518-2.319,2.268a1.841,1.841,0,0,1-2.793.007q-2.555-2.491-5.1-4.994a1.838,1.838,0,0,1-.119-2.667,1.834,1.834,0,0,1,2.7.027q1.818,1.759,3.608,3.548c.239.24.364.234.6,0q5.718-5.628,11.454-11.237a1.869,1.869,0,0,1,2.7-.153A1.763,1.763,0,0,1-982.107,61.444Z" transform="translate(-86.116 -113.012)" fill="#67c564"/>
  </g>
</svg>
