<svg xmlns="http://www.w3.org/2000/svg" width="16.05" height="21.309" viewBox="0 0 16.05 21.309">
  <g id="Group_1496" data-name="Group 1496" transform="translate(0 0)">
    <path id="Path_3321" data-name="Path 3321" d="M-572.9,618.213q0-3.806,0-7.612a2.22,2.22,0,0,1,1.723-2.216,2.686,2.686,0,0,1,.638-.065c1.221,0,2.441,0,3.662,0,.173,0,.233-.044.224-.221-.014-.266-.008-.533,0-.8a.445.445,0,0,1,.494-.5q1.287-.005,2.574,0a.452.452,0,0,1,.493.5c0,.274.011.548,0,.821-.008.161.051.194.2.193q1.875-.008,3.751,0A2.228,2.228,0,0,1-556.9,610.1a2.768,2.768,0,0,1,.05.6q0,7.523,0,15.047a2.237,2.237,0,0,1-1.676,2.3,2.374,2.374,0,0,1-.615.072q-5.737,0-11.474,0a2.22,2.22,0,0,1-2.283-2.287Q-572.906,622.019-572.9,618.213Zm15.154,0q0-1.664,0-3.328c0-1.42,0-2.84,0-4.26a1.316,1.316,0,0,0-1.313-1.408c-1.294-.022-2.589-.006-3.883-.01-.118,0-.154.041-.15.155.007.185.007.37,0,.555a.417.417,0,0,1-.4.444q-1.375.015-2.751,0a.4.4,0,0,1-.4-.42,3.96,3.96,0,0,1,0-.51c.012-.17-.039-.228-.22-.227-1.228.008-2.456,0-3.683.005a1.355,1.355,0,0,0-1.454,1.457q0,7.555,0,15.111a1.349,1.349,0,0,0,1.44,1.445q5.691,0,11.383,0a1.809,1.809,0,0,0,.309-.018,1.338,1.338,0,0,0,1.131-1.423Q-557.745,622-557.747,618.215Zm-6.236-9.626c0-.244-.006-.488,0-.732,0-.127-.04-.164-.165-.163-.488.006-.976.005-1.464,0-.112,0-.158.029-.157.149q.007.743,0,1.486c0,.117.039.153.154.152.488,0,.976-.007,1.464,0,.145,0,.173-.056.168-.184C-563.989,609.063-563.983,608.826-563.984,608.589Z" transform="translate(572.902 -606.805)" fill="#1db5c8"/>
    <path id="Path_3322" data-name="Path 3322" d="M-443.854,910.787h-2.971c-.408,0-.568-.162-.563-.562a3.564,3.564,0,0,1,3.565-3.547,3.553,3.553,0,0,1,3.509,3.6.45.45,0,0,1-.5.508C-441.829,910.788-442.841,910.787-443.854,910.787Zm0-.889c.8,0,1.6-.011,2.395.007.234.005.227-.085.189-.253a2.639,2.639,0,0,0-2.589-2.078,2.639,2.639,0,0,0-2.57,2.127c-.034.16-.009.2.158.2C-445.469,909.893-444.663,909.9-443.858,909.9Z" transform="translate(451.873 -895.96)" fill="#1db5c8"/>
    <path id="Path_3323" data-name="Path 3323" d="M-410.46,758.78a2.3,2.3,0,0,1-2.3-2.3,2.292,2.292,0,0,1,2.3-2.292,2.3,2.3,0,0,1,2.3,2.3A2.3,2.3,0,0,1-410.46,758.78Zm.013-3.7a1.4,1.4,0,0,0-1.419,1.4,1.4,1.4,0,0,0,1.4,1.416,1.409,1.409,0,0,0,1.422-1.4A1.407,1.407,0,0,0-410.447,755.078Z" transform="translate(418.48 -748.918)" fill="#1db5c8"/>
    <path id="Path_3324" data-name="Path 3324" d="M-490.481,1110.8h4.638a.962.962,0,0,1,.286.021.411.411,0,0,1,.308.414.42.42,0,0,1-.295.424.835.835,0,0,1-.307.032h-9.321c-.037,0-.074,0-.111,0a.465.465,0,0,1-.5-.453.451.451,0,0,1,.507-.438Q-492.878,1110.794-490.481,1110.8Z" transform="translate(498.538 -1092.782)" fill="#1db5c8"/>
    <path id="Path_3325" data-name="Path 3325" d="M-430.385,1055.955h2.417a1.816,1.816,0,0,1,.243.009.42.42,0,0,1,.367.384.432.432,0,0,1-.294.466,1,1,0,0,1-.329.032h-4.811c-.059,0-.118,0-.177,0a.456.456,0,0,1-.463-.465.44.44,0,0,1,.476-.422C-432.1,1055.953-431.242,1055.955-430.385,1055.955Z" transform="translate(438.418 -1039.901)" fill="#1db5c8"/>
  </g>
</svg>
