<svg xmlns="http://www.w3.org/2000/svg" width="38.314" height="72.496" viewBox="0 0 38.314 72.496">
  <g id="Group_1947" data-name="Group 1947" transform="translate(690.434 -98.911)">
    <g id="Group_1939" data-name="Group 1939" transform="translate(-689.868 152.184)">
      <rect id="Rectangle_1421" data-name="Rectangle 1421" width="2.568" height="2.568" transform="translate(8.925 3.853) rotate(-45)" fill="#1f8ecc"/>
      <path id="Path_3515" data-name="Path 3515" d="M-664.13,208.117l-1.554-1.554-1.571,1.579,1.588,1.579,1.538-1.538,1.554,1.554,1.571-1.579-1.587-1.579Z" transform="translate(681.226 -192.32)" fill="#1f8ecc"/>
      <rect id="Rectangle_1422" data-name="Rectangle 1422" width="2.568" height="2.568" transform="translate(21.669 2.47) rotate(-45)" fill="#1f8ecc"/>
      <path id="Path_3516" data-name="Path 3516" d="M-663.307,194.332q-.18-.6-.4-1.178t-.454-1.1l-2.339,1.162q.237.475.474,1t.425,1q.188.479.3.867a2.277,2.277,0,0,1,.114.585.69.69,0,0,1-.241.536,1.753,1.753,0,0,1-.6.344,3.867,3.867,0,0,1-.768.184,5.452,5.452,0,0,1-.757.058h-.965a.989.989,0,0,1-.569-.148,1.062,1.062,0,0,1-.339-.368,1.683,1.683,0,0,1-.176-.479c-.036-.172-.064-.331-.087-.479-.032-.229-.062-.442-.089-.638s-.059-.391-.095-.581-.077-.387-.122-.589-.1-.425-.168-.67l-2.38.679q.073.311.163.65a4.525,4.525,0,0,1,.127.679,2.621,2.621,0,0,1-.008.659,1.293,1.293,0,0,1-.233.581,1.2,1.2,0,0,1-.385.339,2.188,2.188,0,0,1-.585.216,5.094,5.094,0,0,1-.81.115q-.462.033-1.051.033h-.156a.674.674,0,0,1-.454-.144.967.967,0,0,1-.262-.364,1.773,1.773,0,0,1-.127-.479q-.033-.258-.049-.487t-.041-.47c-.017-.161-.041-.337-.074-.528s-.078-.4-.135-.633-.129-.5-.217-.8l-2.315.564a9.862,9.862,0,0,1,.27,1.174,5.056,5.056,0,0,1,.066.691,1.228,1.228,0,0,1-.573,1.1,3.187,3.187,0,0,1-1.7.368h-.328a8.916,8.916,0,0,0-.225-1.247,8.59,8.59,0,0,0-.409-1.228,7.023,7.023,0,0,0-.589-1.112,4.407,4.407,0,0,0-.777-.9,3.615,3.615,0,0,0-.961-.61,2.873,2.873,0,0,0-1.146-.225,2.474,2.474,0,0,0-.977.192,2.985,2.985,0,0,0-.83.527,4.136,4.136,0,0,0-.675.777,5.037,5.037,0,0,0-.5.941,6.02,6.02,0,0,0-.307,1.022,5.137,5.137,0,0,0-.107,1.023,3.481,3.481,0,0,0,.262,1.391,2.874,2.874,0,0,0,.741,1.027,3.543,3.543,0,0,0,1.141.662,5.639,5.639,0,0,0,1.473.307c.169.011.384.021.646.028s.51.013.745.013a3.005,3.005,0,0,1-.667.982,5.844,5.844,0,0,1-1.186.912,9.719,9.719,0,0,1-1.665.778,14.106,14.106,0,0,1-2.1.577l.605,2.511a11.235,11.235,0,0,0,2.483-.67,9.417,9.417,0,0,0,2.164-1.2,7.746,7.746,0,0,0,1.673-1.706,6.64,6.64,0,0,0,1.019-2.18h.524a8.1,8.1,0,0,0,1.9-.2,3.872,3.872,0,0,0,1.387-.63,3.03,3.03,0,0,0,.957.606,3.508,3.508,0,0,0,1.195.209v.011h.327c.368,0,.743-.009,1.124-.028a9.628,9.628,0,0,0,1.138-.123,6.588,6.588,0,0,0,1.047-.266,3.128,3.128,0,0,0,.879-.466,2.774,2.774,0,0,0,.487.351,3.627,3.627,0,0,0,.618.282,4.38,4.38,0,0,0,.715.184,4.532,4.532,0,0,0,.634.053v.012h1.3a7.115,7.115,0,0,0,1.8-.213,3.887,3.887,0,0,0,1.407-.666,3.071,3.071,0,0,0,.916-1.158,3.96,3.96,0,0,0,.328-1.686,6.159,6.159,0,0,0-.111-1.133A11.134,11.134,0,0,0-663.307,194.332Zm-20.925,3.461c-.2,0-.407-.009-.63-.024s-.448-.045-.675-.082a2.6,2.6,0,0,1-.61-.176,1.359,1.359,0,0,1-.442-.3.665.665,0,0,1-.18-.458,1.433,1.433,0,0,1,.123-.6,2.853,2.853,0,0,1,.319-.568,1.728,1.728,0,0,1,.409-.409.535.535,0,0,1,.393-.119,1.3,1.3,0,0,1,.623.31,2.587,2.587,0,0,1,.5.614,4.782,4.782,0,0,1,.389.834,9.74,9.74,0,0,1,.29.974Z" transform="translate(689.532 -186.913)" fill="#1f8ecc"/>
      <path id="Path_3517" data-name="Path 3517" d="M-635.4,192.464a11.293,11.293,0,0,0-.29-1.19q-.181-.6-.405-1.178t-.454-1.1l-2.339,1.161q.237.475.475,1t.425,1q.189.479.3.867a2.285,2.285,0,0,1,.115.585.69.69,0,0,1-.241.536,1.76,1.76,0,0,1-.6.344,3.876,3.876,0,0,1-.769.184,5.446,5.446,0,0,1-.757.058h-1c-.142,0-.271,0-.389-.009a1.187,1.187,0,0,1-.323-.057.729.729,0,0,1-.258-.147.738.738,0,0,1-.184-.286,2.15,2.15,0,0,1-.151-.761q-.028-.5-.012-1.116c.011-.413.026-.843.045-1.293s.026-.879.02-1.288q-.008-.7-.029-1.505t-.061-1.611c-.027-.535-.065-1.045-.11-1.535s-.105-.912-.176-1.271L-645,184.6a13.773,13.773,0,0,1,.193,1.481q.07.85.107,1.775t.045,1.844q.009.921.009,1.69t-.017,1.353q-.016.585-.016.978a4.876,4.876,0,0,0,.2,1.427,2.872,2.872,0,0,0,.65,1.141,3.055,3.055,0,0,0,1.162.757,4.737,4.737,0,0,0,1.636.27v0h1.3a7.124,7.124,0,0,0,1.8-.213,3.887,3.887,0,0,0,1.407-.666,3.077,3.077,0,0,0,.916-1.158,3.97,3.97,0,0,0,.327-1.686A6.106,6.106,0,0,0-635.4,192.464Z" transform="translate(672.93 -183.854)" fill="#1f8ecc"/>
      <rect id="Rectangle_1423" data-name="Rectangle 1423" width="2.568" height="2.568" transform="translate(32.688 2.47) rotate(-45)" fill="#1f8ecc"/>
    </g>
    <g id="Group_1519" data-name="Group 1519" transform="translate(-690.434 98.911)">
      <path id="Path_3338" data-name="Path 3338" d="M-681.984,115.259l.54,1.2c-1.052,1.1-2.14,2.12-3.088,3.256a17.019,17.019,0,0,0-3.683,8.467,16.133,16.133,0,0,0,2.586,11.634,16.347,16.347,0,0,0,11.125,7.356c1.027.177,2.07.275,3.1.413,1,.133,1.254-.324,1.243-1.288-.048-4.431-.021-8.863-.021-13.3,0-5.78.014-11.56-.011-17.34a1.259,1.259,0,0,1,.8-1.317c2.21-1.122,4.383-2.32,6.574-3.476a10.872,10.872,0,0,1,1.032-.405c-.114,2.029.411,3.991-.677,5.691a12.408,12.408,0,0,1-2.2,2.258,4.459,4.459,0,0,1-1.066.549c-2.667,1.321-2.839,1.684-2.286,4.886,2.02-1.062,4.02-2.126,6.031-3.167,1.01-.522,1.2-.388,1.205.787,0,2.07-.078,4.118-1.574,5.774a3.058,3.058,0,0,1-.832.69c-1.4.719-2.813,1.409-4.229,2.091-.552.266-.9.518-.753,1.283a16.306,16.306,0,0,1,.035,2.805l8.268-4.715a34.6,34.6,0,0,1-.333,4.887,5.065,5.065,0,0,1-2.822,3.509c-1.527.778-2.982,1.7-4.444,2.6-.282.173-.637.525-.645.8-.055,1.967-.029,3.936-.029,5.9,4,.152,10.381-4.878,12.422-9.59a17.229,17.229,0,0,0-5.268-20.739l.5-1.26c4.361,1.106,8.979,10.554,8.279,17.023-1.1,10.13-8.572,16.609-17.149,17.405A18.836,18.836,0,0,1-689.96,135.1C-691.9,126.451-687.639,118.53-681.984,115.259Z" transform="translate(690.434 -103.22)" fill="#1f8ecc"/>
      <path id="Path_3339" data-name="Path 3339" d="M-678.06,140.766c1.331.753,2.519,1.412,3.7,2.091,1.914,1.1,3.81,2.241,5.738,3.324a1.279,1.279,0,0,1,.81,1.323c-.063,1.8-.021,3.6-.021,5.478a2.99,2.99,0,0,1-.658-.176c-2.411-1.38-4.837-2.737-7.216-4.17a5.038,5.038,0,0,1-2.315-3.826A32,32,0,0,1-678.06,140.766Z" transform="translate(685.838 -114.516)" fill="#1f8ecc"/>
      <path id="Path_3340" data-name="Path 3340" d="M-667.34,137.34c-2.539-1.317-4.76-2.363-6.868-3.6a5.366,5.366,0,0,1-2.521-4.42c-.1-1.113-.018-2.241-.018-3.533.873.439,1.645.805,2.4,1.205,2.051,1.085,4.089,2.2,6.146,3.27a1.354,1.354,0,0,1,.878,1.41C-667.386,133.462-667.34,135.249-667.34,137.34Z" transform="translate(685.342 -108.933)" fill="#1f8ecc"/>
      <path id="Path_3341" data-name="Path 3341" d="M-674.47,111.128a8.25,8.25,0,0,1,1.155.368c2.107,1.066,4.21,2.137,6.294,3.244a1.039,1.039,0,0,1,.5.724c.041,1.971.023,3.945.023,6.083-.473-.2-.838-.341-1.187-.509-1.177-.571-2.32-1.215-3.527-1.715a5.278,5.278,0,0,1-3.239-4.712A32.085,32.085,0,0,1-674.47,111.128Z" transform="translate(684.496 -103.466)" fill="#1f8ecc"/>
      <path id="Path_3342" data-name="Path 3342" d="M-666.519,105l4.144-6.093c1.423,2.1,2.754,4.07,4.139,6.121-1.34.741-2.526,1.412-3.73,2.049a.919.919,0,0,1-.724.083C-663.943,106.492-665.173,105.774-666.519,105Z" transform="translate(681.517 -98.911)" fill="#1f8ecc"/>
    </g>
  </g>
</svg>
