<svg xmlns="http://www.w3.org/2000/svg" width="17.489" height="17.455" viewBox="0 0 17.489 17.455">
  <g id="Group_1498" data-name="Group 1498" transform="translate(0)">
    <path id="Path_3326" data-name="Path 3326" d="M-528.962-17.961h.478a2.274,2.274,0,0,1,.871.4,2.546,2.546,0,0,1,.866,1.486c.024.112.055.157.181.162a1.842,1.842,0,0,1,1.441.762,2.328,2.328,0,0,1,.365.869V-2.142c-.03.108-.055.218-.089.324a1.882,1.882,0,0,1-1.87,1.312h-13.57c-.046,0-.091,0-.137,0a1.868,1.868,0,0,1-1.634-1.057,3.405,3.405,0,0,1-.189-.577V-14.279a.282.282,0,0,0,.027-.06,1.864,1.864,0,0,1,1.8-1.571c.112,0,.138-.047.16-.145a2.4,2.4,0,0,1,1.229-1.73,4.376,4.376,0,0,1,.511-.176h.478a2.277,2.277,0,0,1,.87.4,2.539,2.539,0,0,1,.869,1.5c.023.111.061.153.175.146a3.362,3.362,0,0,1,.46,0c.13.01.167-.039.2-.163a2.392,2.392,0,0,1,1.225-1.71,4.461,4.461,0,0,1,.511-.175h.478a2.276,2.276,0,0,1,.87.4,2.539,2.539,0,0,1,.869,1.5c.023.111.061.153.175.146a3.363,3.363,0,0,1,.46,0c.13.01.167-.039.2-.163a2.392,2.392,0,0,1,1.225-1.71A4.465,4.465,0,0,1-528.962-17.961Zm-4.547,7.159q-3.757,0-7.513,0c-.159,0-.208.029-.207.2q.01,4.064,0,8.129a.863.863,0,0,0,.953.948h13.541a.861.861,0,0,0,.945-.939q0-4.073,0-8.146c0-.161-.048-.191-.2-.191Q-529.744-10.8-533.509-10.8Zm-.956-4.091c.012.049.016.071.023.092.172.5.415.906,1.025.944a.49.49,0,0,1,.423.535.515.515,0,0,1-.513.473,1.566,1.566,0,0,1-.725-.167,2.367,2.367,0,0,1-1.247-1.715c-.028-.121-.06-.167-.193-.166-1.138.006-2.277,0-3.415,0-.028,0-.057,0-.085,0-.049,0-.076.013-.06.069.111.407.444.955.976.959a.5.5,0,0,1,.482.518.514.514,0,0,1-.523.5,1.568,1.568,0,0,1-.709-.163,2.352,2.352,0,0,1-1.254-1.728c-.033-.148-.1-.166-.219-.149a.854.854,0,0,0-.743.845c0,.676,0,1.352-.005,2.028,0,.156.039.194.195.194q5.311-.007,10.621,0c1.48,0,2.96,0,4.44,0,.163,0,.193-.049.191-.2-.008-.653,0-1.307,0-1.96a.856.856,0,0,0-.919-.914h-2.8c-.034,0-.068,0-.1,0s-.078.01-.062.067c.107.4.436.955.975.96a.5.5,0,0,1,.484.517.514.514,0,0,1-.522.5,1.565,1.565,0,0,1-.709-.163,2.36,2.36,0,0,1-1.256-1.726c-.029-.129-.077-.158-.2-.158-1.133,0-2.265,0-3.4,0Zm-2.863-1.028a1.452,1.452,0,0,0-.547-.88.676.676,0,0,0-.812-.008,1.46,1.46,0,0,0-.562.888Zm2.86.005c.623,0,1.23,0,1.836,0,.072,0,.087-.022.065-.09a1.472,1.472,0,0,0-.5-.774.692.692,0,0,0-.868-.014A1.486,1.486,0,0,0-534.468-15.916Zm5.745,0c.284,0,.568,0,.852,0,.079,0,.114-.009.083-.1a1.515,1.515,0,0,0-.462-.738.707.707,0,0,0-.949,0,1.508,1.508,0,0,0-.451.706c-.034.1-.029.139.094.135C-529.279-15.921-529-15.916-528.722-15.916Z" transform="translate(542.25 17.961)" fill="#1db5c8"/>
    <path id="Path_3327" data-name="Path 3327" d="M-411.131,169.611h-2.237c-.49,0-.662-.173-.661-.669a4.806,4.806,0,0,1,.08-1.2A2.865,2.865,0,0,1-412.717,166c.105-.069.1-.1.025-.2a2.02,2.02,0,0,1-.212-2.322,2.054,2.054,0,0,1,2.164-1,2.052,2.052,0,0,1,1.635,1.69,1.982,1.982,0,0,1-.46,1.635c-.072.087-.074.118.023.184a2.863,2.863,0,0,1,1.318,2.477c0,.176,0,.352,0,.528a.531.531,0,0,1-.6.608Zm0-1.023c.575,0,1.15,0,1.725,0,.133,0,.158-.04.156-.163a1.887,1.887,0,0,0-1.89-1.886,1.887,1.887,0,0,0-1.873,1.886c0,.123.023.165.156.163C-412.276,168.584-411.7,168.588-411.126,168.588Zm1.024-4.084a1.026,1.026,0,0,0-1.013-1.029,1.026,1.026,0,0,0-1.036,1.006,1.026,1.026,0,0,0,1.021,1.038A1.027,1.027,0,0,0-410.1,164.5Z" transform="translate(419.871 -154.236)" fill="#1db5c8"/>
  </g>
</svg>
