<svg xmlns="http://www.w3.org/2000/svg" width="22.032" height="16.558" viewBox="0 0 22.032 16.558">
  <g id="Group_1513" data-name="Group 1513" transform="translate(0)">
    <path id="Path_3332" data-name="Path 3332" d="M-1108.251-222.226c.041-.173.077-.347.124-.519a3.426,3.426,0,0,1,3.278-2.539q7.614-.009,15.228,0a3.422,3.422,0,0,1,3.394,3.391q.018,4.881,0,9.762a3.422,3.422,0,0,1-3.394,3.392q-7.614.013-15.228,0a3.431,3.431,0,0,1-3.363-2.938.741.741,0,0,0-.039-.119Zm11.014-1.681h-7.441a2.073,2.073,0,0,0-2.2,2.2q0,4.7,0,9.395a2.073,2.073,0,0,0,2.2,2.2h14.882a2.072,2.072,0,0,0,2.2-2.2q0-4.7,0-9.395a2.072,2.072,0,0,0-2.2-2.2Z" transform="translate(1108.251 225.289)" fill="#1db5c8"/>
    <path id="Path_3333" data-name="Path 3333" d="M-1043.815-176.567a.771.771,0,0,1-.268.565q-2.048,2.047-4.095,4.095c-.133.133-.151.2-.006.346,1.375,1.365,2.74,2.74,4.11,4.109a.707.707,0,0,1,.23.738.682.682,0,0,1-1.089.345,2.14,2.14,0,0,1-.171-.164q-2.031-2.034-4.057-4.071c-.124-.125-.187-.134-.315,0-.672.688-1.355,1.365-2.035,2.045a.7.7,0,0,1-1.121,0c-.674-.675-1.352-1.347-2.019-2.029-.131-.134-.2-.153-.345-.007q-2.051,2.074-4.118,4.132a.687.687,0,0,1-1.193-.265.7.7,0,0,1,.23-.719q1.927-1.924,3.847-3.855c.14-.141.388-.265.379-.436-.008-.146-.237-.283-.373-.42q-1.931-1.936-3.862-3.871a.689.689,0,0,1,.266-1.2.673.673,0,0,1,.686.2l1.171,1.173q2.851,2.857,5.7,5.717c.145.146.216.17.377.008q3.4-3.43,6.822-6.847a.72.72,0,0,1,.792-.235A.681.681,0,0,1-1043.815-176.567Z" transform="translate(1063.087 180.01)" fill="#1db5c8"/>
  </g>
</svg>
