<svg xmlns="http://www.w3.org/2000/svg" width="14.263" height="20.245" viewBox="0 0 14.263 20.245">
  <g id="Group_1509" data-name="Group 1509" transform="translate(0 0)">
    <path id="Path_3330" data-name="Path 3330" d="M-127.271-184.193a1.157,1.157,0,0,1-.46-.441c-1.169-1.723-2.434-3.38-3.567-5.128a21.938,21.938,0,0,1-2.376-4.561,8.945,8.945,0,0,1-.57-3.15,7.14,7.14,0,0,1,5.093-6.669,7.131,7.131,0,0,1,8.944,5.049,7.72,7.72,0,0,1-.226,4.415,19.817,19.817,0,0,1-2.187,4.433c-1.024,1.63-2.174,3.175-3.281,4.748-.2.286-.4.571-.594.863a1.133,1.133,0,0,1-.46.441Zm-5.785-12.94a7.179,7.179,0,0,0,.306,1.8,16.446,16.446,0,0,0,1.794,3.878c1.144,1.907,2.486,3.68,3.758,5.5.1.143.135.048.186-.026.865-1.237,1.763-2.451,2.606-3.7a24.264,24.264,0,0,0,2.582-4.633,7.68,7.68,0,0,0,.625-3.565,5.939,5.939,0,0,0-6.463-5.343A5.986,5.986,0,0,0-133.056-197.133Z" transform="translate(134.245 204.438)" fill="#1db5c8"/>
    <path id="Path_3331" data-name="Path 3331" d="M-59.615-133.568a3.568,3.568,0,0,1-3.57,3.555,3.569,3.569,0,0,1-3.562-3.563,3.568,3.568,0,0,1,3.57-3.555A3.568,3.568,0,0,1-59.615-133.568Zm-3.567,2.369a2.384,2.384,0,0,0,2.378-2.377,2.383,2.383,0,0,0-2.366-2.368,2.384,2.384,0,0,0-2.388,2.367A2.384,2.384,0,0,0-63.182-131.2Z" transform="translate(70.313 140.687)" fill="#1db5c8"/>
  </g>
</svg>
