<svg xmlns="http://www.w3.org/2000/svg" width="18.647" height="20.388" viewBox="0 0 18.647 20.388">
  <g id="Group_1930" data-name="Group 1930" transform="translate(453.512 142.528)">
    <path id="Path_3505" data-name="Path 3505" d="M-447.461-142.528a.846.846,0,0,0,.111.038,1.885,1.885,0,0,1,1.127.661.217.217,0,0,0,.249.093,1.226,1.226,0,0,1,1.426.8.2.2,0,0,0,.2.162,1.869,1.869,0,0,1,1.649,1.94.181.181,0,0,0,.109.2,1.206,1.206,0,0,1,.341,1.844.247.247,0,0,0-.052.251,1.567,1.567,0,0,1-.2,1.278.235.235,0,0,0-.033.238.986.986,0,0,1,.057.391c0,.183,0,.367,0,.6.066-.083.1-.126.134-.17a4.085,4.085,0,0,1,4.29-1.5,4.117,4.117,0,0,1,3,3.434,4.153,4.153,0,0,1-.027,1.287.3.3,0,0,0,.036.2,1.714,1.714,0,0,1,.049,1.387.754.754,0,0,1-.8.482c-.155-.006-.206.037-.237.2a3.079,3.079,0,0,1-1.859,2.347c-.042.019-.087.033-.13.051a.093.093,0,0,0-.066.108c.01.065.061.061.107.062.153,0,.306,0,.459,0,.22.007.343.121.338.305s-.122.281-.334.294h-.02c-.328-.033-.569-.022-.664.416a.908.908,0,0,1-1,.586,1,1,0,0,1-.883-.821c-.022-.142-.068-.192-.212-.183a4.794,4.794,0,0,0-.834.049,1.792,1.792,0,0,0-1.393,1.7c-.011.431,0,.863-.006,1.294,0,.268-.191.411-.414.324a.237.237,0,0,1-.176-.219,14.034,14.034,0,0,1,.026-1.729,2.155,2.155,0,0,1,.411-1,.3.3,0,0,0,.072-.217,2.791,2.791,0,0,0-2.461-2.465.2.2,0,0,0-.243.134c-.317.671-.642,1.338-.966,2.007-.169.349-.366.377-.638.093-.234-.245-.475-.483-.7-.737-.106-.119-.164-.1-.261.006-.236.261-.483.512-.728.765s-.445.2-.588-.1c-.318-.678-.637-1.356-.948-2.037a.2.2,0,0,0-.243-.135,2.777,2.777,0,0,0-2.506,2.733c-.005.856,0,1.712,0,2.568a.336.336,0,0,1-.128.315.293.293,0,0,1-.465-.21,24.732,24.732,0,0,1,.029-3,3.428,3.428,0,0,1,3.138-3,2.544,2.544,0,0,0,.747-.251c.17-.071.336-.152.521-.236-.048-.026-.076-.044-.105-.056a4.141,4.141,0,0,1-2.725-3.753c-.013-.149-.05-.188-.2-.205a1.034,1.034,0,0,1-.929-1.045,2.791,2.791,0,0,1,.1-1.2c.029-.061-.014-.1-.04-.145a1.619,1.619,0,0,1-.169-1.284.185.185,0,0,0-.045-.193,1.209,1.209,0,0,1,.321-1.861.184.184,0,0,0,.111-.2,1.751,1.751,0,0,1,.16-.891c.091-.2.228-.26.4-.192a.287.287,0,0,1,.155.424,1.319,1.319,0,0,0-.072.874c.063.259-.005.375-.262.436a.6.6,0,0,0-.491.488.593.593,0,0,0,.261.64.3.3,0,0,1,.115.462,1.041,1.041,0,0,0-.047.829c.034.1.077.132.189.087a1.639,1.639,0,0,1,.648-.079.929.929,0,0,0,.97-1.21c-.068-.274.009-.4.291-.448a1.352,1.352,0,0,0,1.183-1.055c.08-.284.269-.348.517-.187a1.356,1.356,0,0,0,1.585.052c.226-.143.448-.062.482.2.117.9.883,1.18,1.745,1.035.039-.007.078-.017.117-.023.375-.059.516.1.422.459a1.134,1.134,0,0,0,.16.968.434.434,0,0,0,.419.214,1.363,1.363,0,0,1,.7.109c.1.05.13-.014.158-.082a1,1,0,0,0-.014-.829c-.123-.269-.1-.343.128-.524a.578.578,0,0,0,.234-.6.59.59,0,0,0-.455-.5c-.315-.085-.361-.166-.292-.486a1.257,1.257,0,0,0-1.285-1.527c-.4.016-.436-.014-.479-.417a.629.629,0,0,0-.92-.493c-.272.138-.378.108-.536-.154a1.393,1.393,0,0,0-2.386-.02c-.153.242-.25.272-.51.158a.621.621,0,0,0-.894.572c-.01.276-.108.367-.383.358-.119,0-.239,0-.359,0a.285.285,0,0,1-.3-.282.268.268,0,0,1,.266-.308.232.232,0,0,0,.249-.188,1.23,1.23,0,0,1,1.382-.789c.058.01.118.04.164-.022a2.124,2.124,0,0,1,1.291-.758Zm3.263,8.755c0-.481,0-.879,0-1.277,0-.078.006-.147-.085-.2a1.493,1.493,0,0,1-.716-1.3c-.008-.166-.047-.2-.215-.193a1.774,1.774,0,0,1-1.885-1.075c-.049-.113-.105-.083-.186-.058a1.93,1.93,0,0,1-1.327-.044c-.124-.05-.167-.021-.224.086a1.858,1.858,0,0,1-1.08.918.18.18,0,0,0-.144.211,1.52,1.52,0,0,1-1.076,1.486.179.179,0,0,0-.149.208c0,.537,0,1.075,0,1.612a6.823,6.823,0,0,0,.069,1.249,3.54,3.54,0,0,0,3.483,2.848,3.538,3.538,0,0,0,3.467-2.866A10.548,10.548,0,0,0-444.2-133.773Zm2.594,3.322h0c0,.431-.008.862,0,1.293a2.508,2.508,0,0,0,2.514,2.44,2.515,2.515,0,0,0,2.512-2.445c.015-.889.007-1.777,0-2.666a.52.52,0,0,0-.715-.526.8.8,0,0,0-.428.307,1.7,1.7,0,0,1-2.726.034,1.24,1.24,0,0,0-.129-.151.687.687,0,0,0-.735-.17c-.273.1-.3.34-.3.591C-441.6-131.313-441.6-130.882-441.6-130.451Zm-.97-1.239c.006.105.02.251.021.4s.1.122.193.125.161-.014.157-.139a5.454,5.454,0,0,1,.012-.656,1.085,1.085,0,0,1,1.143-1.013,1.366,1.366,0,0,1,1.078.589,1.087,1.087,0,0,0,1.773-.015,1.339,1.339,0,0,1,.3-.313,1.257,1.257,0,0,1,1.338-.112,1.058,1.058,0,0,1,.585,1.068c0,.146,0,.292,0,.438,0,.082-.01.163.116.152.1-.008.214.041.228-.132a4.422,4.422,0,0,0-.022-.972,3.51,3.51,0,0,0-3.333-2.966A3.528,3.528,0,0,0-442.574-131.69Zm-.38-1.355c-.1.041-.171.072-.24.094a.641.641,0,0,1-.213.047c-.154-.008-.19.055-.2.2a4.143,4.143,0,0,1-2.721,3.753c-.03.012-.056.03-.1.056.254.111.493.206.725.318a1.9,1.9,0,0,0,.646.173,3.311,3.311,0,0,1,2.718,1.857,4.5,4.5,0,0,1,.29.8,2.445,2.445,0,0,1,1.311-.4q.259,0,.518,0c.045,0,.1.007.113-.054a.1.1,0,0,0-.073-.122c-.037-.014-.075-.027-.111-.043a3.065,3.065,0,0,1-1.862-2.363c-.027-.151-.088-.186-.232-.185a.812.812,0,0,1-.855-.6,1.846,1.846,0,0,1,.01-1.04,1.616,1.616,0,0,0,.082-.764A4.1,4.1,0,0,1-442.954-133.045Zm-3.729,6.844c.275-.568.539-1.117.808-1.663.045-.092.014-.128-.068-.162-.2-.081-.393-.162-.584-.253-.091-.043-.137-.033-.185.062-.2.4-.4.791-.609,1.185-.033.063-.054.113.008.176C-447.1-126.645-446.9-126.428-446.683-126.2Zm-2.109,0c.224-.234.423-.446.625-.654a.117.117,0,0,0,.018-.158q-.316-.607-.627-1.216c-.038-.074-.074-.092-.154-.053-.19.092-.384.178-.58.259-.087.036-.1.076-.062.162C-449.313-127.32-449.06-126.776-448.792-126.2Zm-3.09-8.1c0-.238,0-.477,0-.715,0-.11-.033-.136-.141-.114a.441.441,0,0,0-.383.418c-.008.264-.009.53,0,.794a.446.446,0,0,0,.378.426c.092.015.15.006.146-.115C-451.888-133.842-451.882-134.074-451.882-134.305Zm8.284-.027c0,.238,0,.476,0,.713,0,.106.029.141.138.118a.45.45,0,0,0,.387-.438c.007-.257.007-.515,0-.773a.437.437,0,0,0-.359-.417c-.114-.029-.173-.019-.167.122C-443.591-134.782-443.6-134.557-443.6-134.332Zm4.914,8.556h.005a.987.987,0,0,1,0-.158c.029-.174-.048-.21-.209-.193a3.782,3.782,0,0,1-.5,0c-.067,0-.122,0-.12.087a3.287,3.287,0,0,0,.017.593.4.4,0,0,0,.4.318.409.409,0,0,0,.4-.348A2.433,2.433,0,0,0-438.684-125.776Zm-9.053-1.757c.191-.37.363-.7.534-1.038.023-.045.079-.1.05-.142s-.108-.007-.163-.006c-.145,0-.291.013-.436.015-.193,0-.386,0-.593,0q.243.473.487.947C-447.826-127.694-447.791-127.632-447.737-127.534Zm12.245-2.508c0-.073,0-.146,0-.218-.006-.22-.119-.318-.343-.311-.09,0-.132.029-.131.126,0,.278,0,.556,0,.834,0,.075.027.1.1.108.245.023.364-.076.368-.32C-435.491-129.9-435.492-129.968-435.492-130.041Zm-6.728.008c0-.106.008-.213,0-.318-.008-.078.061-.2-.095-.215s-.309,0-.344.166a1.8,1.8,0,0,0,0,.731c.034.167.2.172.343.165.166-.009.087-.135.1-.211A2.71,2.71,0,0,0-442.22-130.034Z" fill="#1ebacc"/>
    <path id="Path_3506" data-name="Path 3506" d="M-129.162,178.6c0,.225,0,.45,0,.675s-.112.345-.3.346-.3-.124-.3-.341c0-.364-.008-.728,0-1.092a1.89,1.89,0,0,0-.559-1.456.288.288,0,0,1,.036-.486.291.291,0,0,1,.392.07,2.4,2.4,0,0,1,.725,1.649c.009.212,0,.424,0,.636Z" transform="translate(-305.892 -301.772)" fill="#1ebacc"/>
    <path id="Path_3507" data-name="Path 3507" d="M-409.568,195.384c0,.3,0,.6,0,.895,0,.211-.105.327-.286.332s-.309-.116-.31-.333q-.006-.9,0-1.81a.3.3,0,0,1,.311-.334c.179.005.283.123.286.335C-409.565,194.774-409.568,195.079-409.568,195.384Z" transform="translate(-41.039 -318.754)" fill="#1ebacc"/>
    <path id="Path_3508" data-name="Path 3508" d="M-291.228,195.365c0-.3,0-.6,0-.895,0-.222.114-.343.3-.34a.294.294,0,0,1,.3.33q.008.914,0,1.829a.287.287,0,0,1-.3.318c-.182,0-.288-.116-.291-.327C-291.231,195.975-291.228,195.67-291.228,195.365Z" transform="translate(-153.65 -318.75)" fill="#1ebacc"/>
    <path id="Path_3509" data-name="Path 3509" d="M-228.785,215.2c0-.133-.006-.265,0-.4a.293.293,0,0,1,.294-.289.289.289,0,0,1,.3.285c.009.278.01.557,0,.835a.271.271,0,0,1-.293.266.28.28,0,0,1-.3-.281C-228.791,215.479-228.785,215.34-228.785,215.2Z" transform="translate(-212.77 -338.049)" fill="#1ebacc"/>
    <path id="Path_3510" data-name="Path 3510" d="M-147.168,215.24c0-.139-.006-.278,0-.417a.27.27,0,0,1,.263-.274.263.263,0,0,1,.316.235,4.226,4.226,0,0,1,0,.911.259.259,0,0,1-.3.233.265.265,0,0,1-.284-.271C-147.173,215.518-147.168,215.379-147.168,215.24Z" transform="translate(-290.046 -338.081)" fill="#1ebacc"/>
    <path id="Path_3511" data-name="Path 3511" d="M-379,60.466a2.439,2.439,0,0,1-1.553-.693c-.172-.16-.192-.332-.064-.469s.3-.123.473.032a1.95,1.95,0,0,0,2.688,0c.176-.154.349-.164.473-.028s.1.307-.069.469A2.693,2.693,0,0,1-379,60.466Z" transform="translate(-68.94 -191.008)" fill="#1ebacc"/>
    <path id="Path_3512" data-name="Path 3512" d="M-205.92,122.141a1.737,1.737,0,0,1-1.126-.457c-.168-.154-.2-.331-.072-.467s.283-.133.457.01a1.137,1.137,0,0,0,1.583-.009.3.3,0,0,1,.443-.007.3.3,0,0,1-.046.454A1.8,1.8,0,0,1-205.92,122.141Z" transform="translate(-233.215 -249.621)" fill="#1ebacc"/>
  </g>
</svg>
