<svg xmlns="http://www.w3.org/2000/svg" width="21.209" height="16.496" viewBox="0 0 21.209 16.496">
  <path id="laptop_and_phone" d="M3.188,29a.5.5,0,0,0-.5.5V43.476H2.01a1.01,1.01,0,0,0,0,2.02h9.931a.5.5,0,1,0,0-1.01H10.763v-.5a.5.5,0,0,0-.5-.5H3.693V30.01H20.021a.5.5,0,0,0,0-1.01Zm11.783,2.02a2.184,2.184,0,0,0-2.188,2.188v10.1A2.184,2.184,0,0,0,14.971,45.5h5.05a2.184,2.184,0,0,0,2.188-2.188v-10.1a2.184,2.184,0,0,0-2.188-2.188Zm0,1.01h5.05A1.171,1.171,0,0,1,21.2,33.208v10.1a1.171,1.171,0,0,1-1.178,1.178h-5.05a1.171,1.171,0,0,1-1.178-1.178v-10.1A1.171,1.171,0,0,1,14.971,32.03Z" transform="translate(-1 -29)" fill="#1f8ecc"/>
</svg>
