<svg xmlns="http://www.w3.org/2000/svg" width="15.615" height="17.326" viewBox="0 0 15.615 17.326">
  <path id="left_and_right_arrows" d="M8.181,2a.852.852,0,0,0-.851.851v3.8a.538.538,0,0,0,.919.381L9.7,5.59l7.418,7.418a.866.866,0,1,0,1.225-1.225L10.92,4.365l1.45-1.452A.535.535,0,0,0,11.992,2ZM3.857,8.056a.866.866,0,0,0-.6,1.487L10.67,16.96,9.225,18.407a.538.538,0,0,0,.381.919h3.8a.852.852,0,0,0,.851-.851v-3.81a.536.536,0,0,0-.915-.379l-1.45,1.45L4.477,8.318A.866.866,0,0,0,3.857,8.056Z" transform="translate(-2.99 -2)" fill="#1f8ecc"/>
</svg>
