<svg id="password" xmlns="http://www.w3.org/2000/svg" width="21.209" height="21.21" viewBox="0 0 21.209 21.21">
  <g id="Group_118" data-name="Group 118" transform="translate(0)">
    <g id="Group_117" data-name="Group 117">
      <ellipse id="Ellipse_57" data-name="Ellipse 57" cx="0.904" cy="0.904" rx="0.904" ry="0.904" transform="translate(9.635 9.042)" fill="#1f8ecc"/>
      <path id="Path_962" data-name="Path 962" d="M116.485,14.581h6.794a2.488,2.488,0,0,0,2.486-2.485V7.621a2.488,2.488,0,0,0-2.486-2.485h-.167V3.165a3.232,3.232,0,0,0-6.462,0V5.136h-.165A2.488,2.488,0,0,0,114,7.621V12.1A2.488,2.488,0,0,0,116.485,14.581Zm1.822-11.416a1.576,1.576,0,0,1,3.148,0V5.136h-3.148Zm-2.65,4.457a.829.829,0,0,1,.828-.828h6.794a.829.829,0,0,1,.829.828V12.1a.829.829,0,0,1-.829.828h-6.794a.829.829,0,0,1-.828-.828Z" transform="translate(-109.278 0)" fill="#1f8ecc"/>
      <ellipse id="Ellipse_58" data-name="Ellipse 58" cx="0.723" cy="0.904" rx="0.723" ry="0.904" transform="translate(8.188 16.276)" fill="#1f8ecc"/>
      <ellipse id="Ellipse_59" data-name="Ellipse 59" cx="0.723" cy="0.904" rx="0.723" ry="0.904" transform="translate(4.933 16.276)" fill="#1f8ecc"/>
      <path id="Path_963" data-name="Path 963" d="M18.723,313.912a.828.828,0,0,0-.413,1.6,1.656,1.656,0,0,1,1.242,1.6v1.657a1.659,1.659,0,0,1-1.657,1.657H3.314a1.659,1.659,0,0,1-1.657-1.657v-1.657a1.666,1.666,0,0,1,1.187-1.59.828.828,0,1,0-.469-1.589,3.338,3.338,0,0,0-1.7,1.177,3.285,3.285,0,0,0-.673,2v1.657a3.318,3.318,0,0,0,3.314,3.314H17.9a3.318,3.318,0,0,0,3.314-3.314v-1.657A3.312,3.312,0,0,0,18.723,313.912Z" transform="translate(0 -300.883)" fill="#1f8ecc"/>
      <ellipse id="Ellipse_60" data-name="Ellipse 60" cx="0.723" cy="0.904" rx="0.723" ry="0.904" transform="translate(11.444 16.276)" fill="#1f8ecc"/>
      <ellipse id="Ellipse_61" data-name="Ellipse 61" cx="0.904" cy="0.904" rx="0.904" ry="0.904" transform="translate(14.699 16.276)" fill="#1f8ecc"/>
    </g>
  </g>
</svg>
