<svg id="share" xmlns="http://www.w3.org/2000/svg" width="22.108" height="18.567" viewBox="0 0 22.108 18.567">
  <path id="Path_48" data-name="Path 48" d="M16.063,47.477a6.048,6.048,0,0,0-5.208,2.98L5.57,48.179a2.77,2.77,0,0,0,0-.972l5.413-2.333a2.383,2.383,0,1,0-.513-1.189L5.057,46.018a2.807,2.807,0,1,0,0,3.35l5.262,2.268a6.045,6.045,0,1,0,5.744-4.159ZM12.824,42.3a1.079,1.079,0,1,1-1.079,1.079A1.081,1.081,0,0,1,12.824,42.3ZM2.807,49.2a1.511,1.511,0,1,1,1.511-1.511A1.513,1.513,0,0,1,2.807,49.2Zm10.881,8.43v-.01a2.375,2.375,0,0,1,4.75,0v.01a4.742,4.742,0,0,1-4.75,0Zm1.3-4.76a1.079,1.079,0,1,1,1.079,1.079A1.081,1.081,0,0,1,14.983,52.874Zm4.626,3.8a3.685,3.685,0,0,0-1.75-2.253,2.375,2.375,0,1,0-3.593,0,3.685,3.685,0,0,0-1.75,2.253,4.75,4.75,0,1,1,7.092,0Z" transform="translate(0 -41)" fill="#1f8ecc"/>
</svg>
