<svg xmlns="http://www.w3.org/2000/svg" xmlns:xlink="http://www.w3.org/1999/xlink" width="19.228" height="19.228" viewBox="0 0 19.228 19.228">
  <defs>
    <clipPath id="clip-path">
      <rect id="Rectangle_26" data-name="Rectangle 26" width="19.228" height="19.228" transform="translate(0 0)" fill="#1db5c8"/>
    </clipPath>
  </defs>
  <g id="user_1_" data-name="user (1)" transform="translate(0 0)">
    <g id="Group_1" data-name="Group 1" transform="translate(0 0)" clip-path="url(#clip-path)">
      <path id="Path_20" data-name="Path 20" d="M23.171,5.989c.344.057.693.1,1.028.177A4.677,4.677,0,0,1,27.589,10a4.594,4.594,0,0,1-2.37,4.793,4.148,4.148,0,0,1-2.335.569,4.579,4.579,0,0,1-4.223-2.789,4.3,4.3,0,0,1-.34-2.586,4.618,4.618,0,0,1,2.736-3.6,4,4,0,0,1,1.412-.366c.093-.009.185-.026.282-.044C22.889,5.989,23.03,5.989,23.171,5.989Zm-3.786,4.7a3.575,3.575,0,1,0,3.57-3.566A3.562,3.562,0,0,0,19.385,10.693Z" transform="translate(-13.291 -6.089)" fill="#1db5c8"/>
      <path id="Path_21" data-name="Path 21" d="M18.878,37.487c-1.545,0-3.089,0-4.634,0a3.737,3.737,0,0,1-1.906-.446,2.909,2.909,0,0,1-1.549-2.374,10.179,10.179,0,0,1,.644-4.634,4.036,4.036,0,0,1,1.756-2.158,3.485,3.485,0,0,1,1.827-.446,1.335,1.335,0,0,1,.552.181c.3.163.569.362.856.538a4.349,4.349,0,0,0,4.916,0c.243-.15.49-.3.719-.463a1.529,1.529,0,0,1,1.161-.238A3.612,3.612,0,0,1,26.076,29.5a8.3,8.3,0,0,1,.856,3.155A14.783,14.783,0,0,1,27,34.309a3.053,3.053,0,0,1-2.348,3.027,4.714,4.714,0,0,1-1.169.141C21.954,37.5,20.418,37.487,18.878,37.487Zm0-1.125c1.628,0,3.257.009,4.881,0a2.015,2.015,0,0,0,2.123-2.123,17.029,17.029,0,0,0-.119-1.955A6.212,6.212,0,0,0,25.079,30a2.566,2.566,0,0,0-1.787-1.417.891.891,0,0,0-.79.137,7.231,7.231,0,0,1-.653.428,5.629,5.629,0,0,1-2.555.861,5.506,5.506,0,0,1-3.407-.878c-.274-.172-.543-.353-.821-.521a.38.38,0,0,0-.212-.071,2.365,2.365,0,0,0-1.673.755,4.291,4.291,0,0,0-.891,1.642,10.452,10.452,0,0,0-.415,3.407,1.935,1.935,0,0,0,.861,1.637,2.275,2.275,0,0,0,1.3.38Q16.455,36.37,18.878,36.361Z" transform="translate(-9.095 -18.068)" fill="#1db5c8"/>
    </g>
  </g>
</svg>
