<svg id="user_1_" data-name="user (1)" xmlns="http://www.w3.org/2000/svg" xmlns:xlink="http://www.w3.org/1999/xlink" width="21.536" height="21.536" viewBox="0 0 21.536 21.536">
  <defs>
    <clipPath id="clip-path">
      <rect id="Rectangle_26" data-name="Rectangle 26" width="21.536" height="21.536" transform="translate(0 0)" fill="#1ebacc"/>
    </clipPath>
  </defs>
  <g id="Group_1" data-name="Group 1" transform="translate(0 0)" clip-path="url(#clip-path)">
    <path id="Path_20" data-name="Path 20" d="M23.761,5.99c.386.064.776.109,1.152.2a5.238,5.238,0,0,1,3.8,4.3,5.146,5.146,0,0,1-2.654,5.368,4.646,4.646,0,0,1-2.615.638,5.128,5.128,0,0,1-4.73-3.124,4.819,4.819,0,0,1-.381-2.9A5.173,5.173,0,0,1,21.393,6.44a4.482,4.482,0,0,1,1.582-.41c.1-.01.208-.03.316-.049C23.445,5.99,23.6,5.99,23.761,5.99ZM19.52,11.259a4,4,0,1,0,4-3.994A3.989,3.989,0,0,0,19.52,11.259Z" transform="translate(-12.694 -6.103)" fill="#1ebacc"/>
    <path id="Path_21" data-name="Path 21" d="M19.854,38.694c-1.73,0-3.46,0-5.19,0a4.186,4.186,0,0,1-2.135-.5,3.258,3.258,0,0,1-1.735-2.659,11.4,11.4,0,0,1,.722-5.19,4.521,4.521,0,0,1,1.967-2.417,3.9,3.9,0,0,1,2.046-.5,1.5,1.5,0,0,1,.618.2c.331.183.638.405.959.6a4.871,4.871,0,0,0,5.506,0c.272-.168.549-.331.806-.519a1.713,1.713,0,0,1,1.3-.267,4.045,4.045,0,0,1,3.2,2.3,9.3,9.3,0,0,1,.959,3.534,16.557,16.557,0,0,1,.079,1.853,3.42,3.42,0,0,1-2.629,3.391,5.279,5.279,0,0,1-1.31.158C23.3,38.7,21.579,38.694,19.854,38.694Zm0-1.26c1.824,0,3.648.01,5.467,0A2.257,2.257,0,0,0,27.7,35.052a19.073,19.073,0,0,0-.133-2.19,6.957,6.957,0,0,0-.766-2.555,2.874,2.874,0,0,0-2-1.587,1,1,0,0,0-.885.153,8.1,8.1,0,0,1-.732.479,6.3,6.3,0,0,1-2.862.964,6.166,6.166,0,0,1-3.816-.984c-.306-.193-.608-.4-.919-.583a.426.426,0,0,0-.237-.079,2.649,2.649,0,0,0-1.873.845,4.806,4.806,0,0,0-1,1.839,11.706,11.706,0,0,0-.465,3.816A2.167,2.167,0,0,0,12.974,37a2.548,2.548,0,0,0,1.453.425Q17.14,37.444,19.854,37.434Z" transform="translate(-8.896 -16.946)" fill="#1ebacc"/>
  </g>
</svg>
